<svg width="379" height="430" viewBox="0 0 379 430" fill="none" xmlns="http://www.w3.org/2000/svg">
<g clip-path="url(#clip0)">
<path opacity="0.2" d="M73.65 58.56C57.35 65.56 41.65 75.35 31.56 89.95C23.56 101.52 19.65 115.34 15.98 128.95C8.83999 155.39 2.14998 183.14 8.06998 209.88C12.4 229.44 23.38 247.88 22.62 267.88C21.53 296.75 -3.84001 322.08 0.499985 350.63C4.63999 377.89 33.21 393.41 58.66 404.01C85.2 415.07 112.4 425.48 140.95 428.86C169.5 432.24 199.87 427.97 223.57 411.7C246.51 395.95 261.13 370.54 270.57 344.36C280.01 318.18 284.96 290.62 293.09 264.01C296.84 251.73 301.35 239.51 308.68 229.01C316.33 218.01 326.68 209.32 336.01 199.7C349.453 185.769 360.646 169.832 369.19 152.46C374.93 140.79 379.51 128.05 378.65 115.07C376.81 87.45 351.72 67.45 327.07 55C245.88 13.94 155.53 23.35 73.65 58.56Z" fill="#1FB277"/>
<path d="M92.48 142.45C87.5114 144.861 83.6593 149.089 81.72 154.26L91.1 156.88C91.71 157.092 92.3552 157.183 93 157.15C93.9734 156.903 94.8574 156.387 95.55 155.66C102.4 149.87 111.39 147.46 120.02 145.02C130.02 142.18 130.77 135.02 119.48 137.69C110.65 139.74 100.76 138.45 92.48 142.45Z" fill="#141A3E"/>
<path d="M121.13 131.73C112.56 142.92 106.13 155.55 99.71 168.11C97.4683 172.253 95.5396 176.559 93.94 180.99C90.25 192.11 89.89 205.99 90.55 217.66C90.66 219.53 91.86 219.82 93.34 220.96C95.25 222.45 98.23 221.32 99.61 219.33C100.99 217.34 101.24 214.81 101.61 212.41C102.788 204.813 105.551 197.549 109.72 191.09C110.98 189.15 112.39 187.22 112.93 184.97C113.42 182.97 117.24 171.36 117.04 169.29C115.74 155.51 113.22 150.94 117.51 137.78" fill="white"/>
<path d="M121.13 131.73C112.56 142.92 106.13 155.55 99.71 168.11C97.4683 172.253 95.5396 176.559 93.94 180.99C90.25 192.11 89.89 205.99 90.55 217.66C90.66 219.53 91.86 219.82 93.34 220.96C95.25 222.45 98.23 221.32 99.61 219.33C100.99 217.34 101.24 214.81 101.61 212.41C102.788 204.813 105.551 197.549 109.72 191.09C110.98 189.15 112.39 187.22 112.93 184.97C113.42 182.97 117.24 171.36 117.04 169.29C115.74 155.51 113.22 150.94 117.51 137.78" fill="url(#paint0_linear)"/>
<path d="M76.63 235.87C74.0606 236.919 71.7405 238.496 69.82 240.5C67.3 243.43 66.49 247.42 65.96 251.24C65.3089 255.834 64.9216 260.462 64.8 265.1C64.71 268.65 64.86 272.49 67.06 275.27C69.06 277.79 72.39 278.94 75.6 279C78.8123 278.908 81.9933 278.342 85.04 277.32L110.04 270.32C112.79 269.55 115.79 268.6 117.3 266.18C118.46 264.32 118.49 262 118.47 259.82C118.4 251.99 118.6 246.23 117.77 238.45C117.27 233.75 114.07 228.59 109.16 227.62C98.98 225.59 85.48 231.69 76.63 235.87Z" fill="#606161"/>
<path d="M83.22 241.83C81.0653 242.687 79.1135 243.985 77.49 245.64C75.37 248.05 74.69 251.34 74.24 254.49C73.6867 258.271 73.3528 262.081 73.24 265.9C73.16 268.82 73.29 271.98 75.15 274.27C76.0556 275.268 77.1659 276.059 78.405 276.589C79.644 277.119 80.9828 277.375 82.33 277.34C85.0493 277.269 87.7439 276.804 90.33 275.96L111.39 270.16C113.7 269.53 116.22 268.74 117.5 266.75C118.5 265.22 118.5 263.31 118.5 261.51C118.44 255.07 118.82 248.34 118.12 241.94C117.7 238.07 116.35 235.29 112.21 234.5C103.6 232.86 90.68 238.39 83.22 241.83Z" fill="#606161"/>
<path d="M83.22 241.83C81.0653 242.687 79.1135 243.985 77.49 245.64C75.37 248.05 74.69 251.34 74.24 254.49C73.6867 258.271 73.3528 262.081 73.24 265.9C73.16 268.82 73.29 271.98 75.15 274.27C76.0556 275.268 77.1659 276.059 78.405 276.589C79.644 277.119 80.9828 277.375 82.33 277.34C85.0493 277.269 87.7439 276.804 90.33 275.96L111.39 270.16C113.7 269.53 116.22 268.74 117.5 266.75C118.5 265.22 118.5 263.31 118.5 261.51C118.44 255.07 118.82 248.34 118.12 241.94C117.7 238.07 116.35 235.29 112.21 234.5C103.6 232.86 90.68 238.39 83.22 241.83Z" fill="url(#paint1_linear)"/>
<path d="M201.57 0V22.17H167.71V0H162.48V429.69H167.72V410.97H201.58V421.16H206.82V0H201.57ZM201.57 27.42V44.74H167.71V27.45L201.57 27.42ZM167.71 360.61V343.29H201.57V360.61H167.71ZM201.57 365.85V383.17H167.71V365.85H201.57ZM167.71 338.04V320.72H201.57V338.04H167.71ZM167.71 315.48V298.16H201.57V315.45L167.71 315.48ZM167.71 292.92V275.6H201.57V292.92H167.71ZM167.71 270.36V253.04H201.57V270.36H167.71ZM167.71 247.8V230.45H201.57V247.78L167.71 247.8ZM167.71 225.23V207.91H201.57V225.23H167.71ZM167.71 202.67V185.35H201.57V202.67H167.71ZM167.71 180.11V162.79H201.57V180.11H167.71ZM167.71 157.55V140.23H201.57V157.55H167.71ZM167.71 134.99V117.66H201.57V134.99H167.71ZM167.71 112.42V95.1H201.57V112.45L167.71 112.42ZM167.71 89.86V72.54H201.57V89.86H167.71ZM167.71 67.3V49.98H201.57V67.3H167.71ZM167.71 405.73V388.45H201.57V405.77L167.71 405.73Z" fill="url(#paint2_linear)"/>
<path d="M156.59 323.11C156.97 323.283 157.383 323.368 157.8 323.36C165.204 323.753 172.546 321.823 178.8 317.84C180.51 316.74 182.33 314.93 181.73 312.99C179.731 311.986 177.55 311.391 175.318 311.242C173.085 311.092 170.845 311.391 168.73 312.12C168.382 312.288 167.985 312.327 167.61 312.23C167.367 312.097 167.177 311.885 167.07 311.63C165.76 308.91 167.32 306.1 163.39 305.95C161.22 305.997 159.143 306.836 157.55 308.31C155.2 310.69 153.35 321.36 156.59 323.11Z" fill="#1C1B34"/>
<path d="M156.59 323.11C156.97 323.283 157.383 323.368 157.8 323.36C165.204 323.753 172.546 321.823 178.8 317.84C180.51 316.74 182.33 314.93 181.73 312.99C179.731 311.986 177.55 311.391 175.318 311.242C173.085 311.092 170.845 311.391 168.73 312.12C168.382 312.288 167.985 312.327 167.61 312.23C167.367 312.097 167.177 311.885 167.07 311.63C165.76 308.91 167.32 306.1 163.39 305.95C161.22 305.997 159.143 306.836 157.55 308.31C155.2 310.69 153.35 321.36 156.59 323.11Z" fill="url(#paint3_linear)"/>
<path d="M163.68 276.08C163.296 276.16 162.898 276.142 162.522 276.029C162.147 275.915 161.806 275.709 161.53 275.43C161.291 274.972 161.213 274.447 161.31 273.94C161.567 270.706 162.123 267.502 162.97 264.37C163.061 263.856 163.289 263.375 163.63 262.98C163.981 262.683 164.395 262.471 164.84 262.36L171.09 260.26C171.21 261.32 171.35 262.38 171.54 263.43C171.565 263.832 171.716 264.217 171.97 264.53C172.294 264.798 172.691 264.962 173.11 265C174.923 265.36 176.72 265.793 178.5 266.3C179.867 266.626 181.164 267.195 182.33 267.98C187.62 271.98 181.33 272.19 178.62 273.07C173.788 274.704 168.768 275.716 163.68 276.08Z" fill="#1C1B34"/>
<path d="M163.68 276.08C163.296 276.16 162.898 276.142 162.522 276.029C162.147 275.915 161.806 275.709 161.53 275.43C161.291 274.972 161.213 274.447 161.31 273.94C161.567 270.706 162.123 267.502 162.97 264.37C163.061 263.856 163.289 263.375 163.63 262.98C163.981 262.683 164.395 262.471 164.84 262.36L171.09 260.26C171.21 261.32 171.35 262.38 171.54 263.43C171.565 263.832 171.716 264.217 171.97 264.53C172.294 264.798 172.691 264.962 173.11 265C174.923 265.36 176.72 265.793 178.5 266.3C179.867 266.626 181.164 267.195 182.33 267.98C187.62 271.98 181.33 272.19 178.62 273.07C173.788 274.704 168.768 275.716 163.68 276.08Z" fill="url(#paint4_linear)"/>
<path d="M153.19 107.37C153.34 108.71 152.5 109.93 151.95 111.16C150.89 113.5 150.82 116.16 150.3 118.65C149.78 121.14 148.56 123.79 146.2 124.8C144.27 125.62 141.5 125.51 140.77 127.48C140.31 128.75 141.08 130.22 140.6 131.48C140.01 133.05 137.94 133.36 136.26 133.25C133.92 133.1 131.44 132.53 129.8 130.86C128.609 129.463 127.781 127.794 127.39 126C125.485 119.456 124.476 112.685 124.39 105.87C124.34 102.58 124.56 99.12 126.31 96.32C130.1 90.26 139.05 89.96 145.03 92.63C146.081 93.068 147.007 93.7593 147.726 94.6422C148.445 95.5251 148.934 96.5721 149.15 97.69C149.61 99.4 149.55 101.21 150.35 102.83C151.15 104.45 152.97 105.52 153.19 107.37Z" fill="#F4A982"/>
<path d="M147.64 97.4499C146.44 99.5399 144.88 101.45 143.71 103.45C142.171 106.206 141.32 109.294 141.23 112.45C140.9 112.8 140.23 112.56 139.99 112.16C139.75 111.76 139.6 111.26 139.31 110.88C138.31 109.54 135.9 110.88 135.84 112.6C135.78 114.32 137.03 115.68 138.21 116.88C135.54 118.88 136.92 123.5 134.81 126.1C132.7 128.7 128.52 127.83 125.33 126.68C124.336 126.424 123.433 125.898 122.72 125.16C122.256 124.481 121.946 123.71 121.81 122.9L118.81 110.43C117.76 106.07 116.72 101.43 118.15 97.1799C119.58 92.9299 123.35 89.7499 126.92 86.8999C128.416 85.4985 130.221 84.4705 132.19 83.8999C135.02 83.2999 137.68 84.5899 140.37 85.2399C142.07 85.6499 144.17 85.5299 145.78 86.1799C150.42 88.0999 149.7 93.8899 147.64 97.4499Z" fill="#606161"/>
<path d="M147.64 97.4499C146.44 99.5399 144.88 101.45 143.71 103.45C142.171 106.206 141.32 109.294 141.23 112.45C140.9 112.8 140.23 112.56 139.99 112.16C139.75 111.76 139.6 111.26 139.31 110.88C138.31 109.54 135.9 110.88 135.84 112.6C135.78 114.32 137.03 115.68 138.21 116.88C135.54 118.88 136.92 123.5 134.81 126.1C132.7 128.7 128.52 127.83 125.33 126.68C124.336 126.424 123.433 125.898 122.72 125.16C122.256 124.481 121.946 123.71 121.81 122.9L118.81 110.43C117.76 106.07 116.72 101.43 118.15 97.1799C119.58 92.9299 123.35 89.7499 126.92 86.8999C128.416 85.4985 130.221 84.4705 132.19 83.8999C135.02 83.2999 137.68 84.5899 140.37 85.2399C142.07 85.6499 144.17 85.5299 145.78 86.1799C150.42 88.0999 149.7 93.8899 147.64 97.4499Z" fill="url(#paint5_linear)"/>
<path d="M178.81 141.45C178.71 139.45 178.38 137.38 179.33 135.67C180.71 133.21 184.25 132.74 186.8 133.92C187.624 134.256 188.357 134.783 188.937 135.458C189.518 136.132 189.93 136.935 190.14 137.8C190.291 139.238 189.938 140.684 189.14 141.89C188.42 143.13 187.5 144.25 186.81 145.5C185.63 147.65 183.24 154.35 179.47 151.77C176.77 149.93 178.94 144.07 178.81 141.45Z" fill="#F4A982"/>
<path d="M181.4 220.98C182.358 223.454 182.671 226.131 182.31 228.76C181.54 238.4 177.91 247.55 174.31 256.54C173.905 257.69 173.346 258.779 172.65 259.78C170.11 263.03 165.32 263.14 161.2 262.95L160.91 244.59C161.014 242.621 160.704 240.652 160 238.81C159.005 236.934 157.469 235.4 155.59 234.41C151.37 231.93 146.34 230.99 142.31 228.21C137.24 224.71 134.62 218.21 135.21 212.14C136.07 203.34 141.77 201.59 149.86 202.04C155.46 202.35 158.86 204.96 163.35 207.97C168.99 211.74 178.39 214.45 181.4 220.98Z" fill="#606161"/>
<path d="M181.4 220.98C182.358 223.454 182.671 226.131 182.31 228.76C181.54 238.4 177.91 247.55 174.31 256.54C173.905 257.69 173.346 258.779 172.65 259.78C170.11 263.03 165.32 263.14 161.2 262.95L160.91 244.59C161.014 242.621 160.704 240.652 160 238.81C159.005 236.934 157.469 235.4 155.59 234.41C151.37 231.93 146.34 230.99 142.31 228.21C137.24 224.71 134.62 218.21 135.21 212.14C136.07 203.34 141.77 201.59 149.86 202.04C155.46 202.35 158.86 204.96 163.35 207.97C168.99 211.74 178.39 214.45 181.4 220.98Z" fill="url(#paint6_linear)"/>
<path d="M122.41 229.97C128.41 240.97 139.64 250.91 148.02 260.28C149.122 261.399 150.062 262.669 150.81 264.05C151.88 266.27 152.56 276.39 152.58 278.86L152.81 306.98C152.765 307.774 152.863 308.57 153.1 309.33C153.393 309.978 153.831 310.55 154.381 311.001C154.931 311.452 155.577 311.77 156.27 311.93C159.95 312.93 163.93 310.77 166.1 307.62C168.27 304.47 168.98 300.62 169.53 296.8C171.698 280.921 172.033 264.846 170.53 248.89C170.361 245.143 169.661 241.44 168.45 237.89C166.927 234.403 164.943 231.138 162.55 228.18L149.14 209.96C147.18 207.011 144.802 204.364 142.08 202.1C136.37 197.8 122.19 196.34 118.37 204.1C113.93 213.15 118.12 222.13 122.41 229.97Z" fill="#606161"/>
<path d="M122.41 229.97C128.41 240.97 139.64 250.91 148.02 260.28C149.122 261.399 150.062 262.669 150.81 264.05C151.88 266.27 152.56 276.39 152.58 278.86L152.81 306.98C152.765 307.774 152.863 308.57 153.1 309.33C153.393 309.978 153.831 310.55 154.381 311.001C154.931 311.452 155.577 311.77 156.27 311.93C159.95 312.93 163.93 310.77 166.1 307.62C168.27 304.47 168.98 300.62 169.53 296.8C171.698 280.921 172.033 264.846 170.53 248.89C170.361 245.143 169.661 241.44 168.45 237.89C166.927 234.403 164.943 231.138 162.55 228.18L149.14 209.96C147.18 207.011 144.802 204.364 142.08 202.1C136.37 197.8 122.19 196.34 118.37 204.1C113.93 213.15 118.12 222.13 122.41 229.97Z" fill="url(#paint7_linear)"/>
<path d="M87.19 227.76C87.1614 229.12 87.5487 230.456 88.3 231.59C89.73 233.53 92.41 234.02 94.83 234.14C96.7931 234.382 98.7847 234.07 100.58 233.24C102.3 232.29 103.58 230.24 102.92 228.33C102.26 226.42 100.15 225.47 99.4 223.64C99.0527 222.472 98.9842 221.239 99.2 220.04C100.13 209.75 87.02 220.94 87.19 227.76Z" fill="#F4A982"/>
<path d="M135.17 130.17C130.03 129.11 124.07 129.29 120.3 132.95C117.39 135.78 116.45 140.04 115.79 144.05C114.121 154.908 113.119 165.859 112.79 176.84C112.59 182.02 112.47 187.25 113.59 192.31C114.71 197.37 117.17 202.31 121.3 205.42C126.3 209.22 132.96 209.87 139.24 210.31C143.68 210.62 148.75 210.67 151.84 207.46C153.075 206.04 153.977 204.363 154.48 202.55C156.06 197.64 156.42 192.43 156.69 187.29C157.09 179.357 157.277 171.417 157.25 163.47C157.25 156.21 156.94 148.47 153.62 141.86C150.08 134.8 142.64 131.71 135.17 130.17Z" fill="white"/>
<path opacity="0.7" d="M141.01 180.33C141.357 184.585 141.223 188.865 140.61 193.09C140.17 196.09 139.5 199.09 139.92 202.02C140.34 204.95 142.16 208.02 145.06 208.77C147.96 209.52 151.23 207.67 152.9 205.07C154.57 202.47 155.03 199.29 155.39 196.21C156.482 187.806 156.727 179.313 156.12 170.86C155.976 168.102 155.43 165.38 154.5 162.78C153.07 159.19 143.78 147.12 139.12 152.62C136.87 155.28 138.46 162.32 138.87 165.43C139.53 170.45 140.6 175.33 141.01 180.33Z" fill="url(#paint8_linear)"/>
<path d="M143.61 137.39C142.208 139.274 141.502 141.584 141.61 143.93C141.61 150.67 145.15 156.83 147.66 163.09C149.31 167.2 150.59 171.57 153.33 175.09C155.723 178.119 159.06 180.263 162.81 181.18C164.113 181.539 165.478 181.608 166.81 181.38C169.21 180.88 171.09 179.05 172.74 177.23C178.74 170.59 183.8 162.58 184.53 153.66C184.622 152.97 184.568 152.268 184.37 151.6C183.93 150.681 183.236 149.907 182.37 149.37C180.37 147.87 177.94 146.29 175.56 147.04C174.267 147.592 173.143 148.475 172.3 149.6L165.5 157.21C163.187 151.025 160.117 145.15 156.36 139.72C153.59 135.58 147.48 132.71 143.61 137.39Z" fill="white"/>
<path d="M127.04 130.19C126.953 130.419 126.953 130.671 127.04 130.9C127.162 131.066 127.328 131.194 127.52 131.27C132.657 133.74 138.262 135.083 143.96 135.21C143.467 134.117 143.082 132.978 142.81 131.81C142.64 131.07 142.74 128.81 142.28 128.31C141.56 127.53 137.96 127.7 136.81 127.56L131.25 126.87C128.17 126.45 127.76 127.11 127.04 130.19Z" fill="white"/>
<path d="M127.04 130.19C126.953 130.419 126.953 130.671 127.04 130.9C127.162 131.066 127.328 131.194 127.52 131.27C132.657 133.74 138.262 135.083 143.96 135.21C143.467 134.117 143.082 132.978 142.81 131.81C142.64 131.07 142.74 128.81 142.28 128.31C141.56 127.53 137.96 127.7 136.81 127.56L131.25 126.87C128.17 126.45 127.76 127.11 127.04 130.19Z" fill="url(#paint9_linear)"/>
<path d="M139 112.45C138.999 112.342 138.964 112.237 138.9 112.15C138.823 112.079 138.724 112.036 138.62 112.03C138.473 112.027 138.328 112.067 138.204 112.145C138.079 112.223 137.981 112.336 137.92 112.47C137.801 112.744 137.749 113.042 137.77 113.34C137.765 113.545 137.785 113.75 137.83 113.95C137.958 114.353 138.158 114.729 138.42 115.06C138.529 115.269 138.716 115.427 138.94 115.5C139.52 115.61 140.19 114.79 139.79 114.3C139.58 114.05 139.28 113.91 139.13 113.61C139.022 113.233 138.978 112.841 139 112.45Z" fill="url(#paint10_linear)"/>
<path opacity="0.24" d="M114.22 350.73C114.221 355.631 113.2 360.477 111.22 364.96C108.696 370.969 104.598 376.186 99.3572 380.062C94.1165 383.937 87.9276 386.326 81.4426 386.979C74.9575 387.631 68.4166 386.522 62.5092 383.768C56.6018 381.014 51.5467 376.718 47.8765 371.331C44.2064 365.945 42.0573 359.669 41.6556 353.163C41.2539 346.658 42.6145 340.165 45.5941 334.368C48.5736 328.571 53.0618 323.685 58.5855 320.226C64.1093 316.766 70.464 314.861 76.98 314.71H77.88C82.6316 314.688 87.341 315.602 91.7393 317.4C96.1375 319.198 100.138 321.846 103.513 325.191C106.888 328.536 109.57 332.513 111.407 336.895C113.245 341.277 114.2 345.978 114.22 350.73Z" fill="#1FB277"/>
<path opacity="0.4" d="M114.22 350.73C114.221 355.63 113.2 360.477 111.22 364.96L76.98 350.73V314.73H77.88C82.6299 314.708 87.3377 315.621 91.7346 317.418C96.1316 319.215 100.131 321.861 103.506 325.204C106.88 328.546 109.563 332.521 111.402 336.901C113.24 341.281 114.198 345.98 114.22 350.73Z" fill="#1FB277"/>
<path opacity="0.3" d="M310.04 146.11H249.31V97.3C249.337 97.0147 249.469 96.7498 249.681 96.5569C249.892 96.364 250.169 96.2571 250.455 96.2571C250.741 96.2571 251.018 96.364 251.229 96.5569C251.441 96.7498 251.573 97.0147 251.6 97.3V143.82H310.04C310.199 143.805 310.36 143.824 310.512 143.874C310.664 143.925 310.803 144.007 310.922 144.115C311.04 144.223 311.134 144.354 311.199 144.5C311.264 144.647 311.297 144.805 311.297 144.965C311.297 145.125 311.264 145.283 311.199 145.43C311.134 145.576 311.04 145.707 310.922 145.815C310.803 145.923 310.664 146.005 310.512 146.056C310.36 146.106 310.199 146.125 310.04 146.11Z" fill="#1FB277"/>
<path opacity="0.3" d="M250.24 139.24C250.064 139.24 249.89 139.2 249.732 139.122C249.574 139.044 249.437 138.93 249.33 138.79C249.148 138.546 249.07 138.241 249.111 137.94C249.152 137.639 249.31 137.366 249.55 137.18L270.04 121.71H284.48L303.08 109.45C303.333 109.283 303.643 109.223 303.94 109.284C304.237 109.345 304.498 109.522 304.665 109.775C304.832 110.028 304.892 110.338 304.831 110.635C304.77 110.932 304.593 111.193 304.34 111.36L285.15 124.01H270.81L250.93 139.01C250.732 139.161 250.489 139.242 250.24 139.24Z" fill="#1FB277"/>
<path opacity="0.3" d="M299.81 108.16L306.32 107.94L304.58 114.53L299.81 108.16Z" fill="#1FB277"/>
<path d="M91.53 217.62C91.2042 217.809 90.9293 218.074 90.7289 218.393C90.5285 218.712 90.4088 219.075 90.38 219.45C90.3645 219.659 90.421 219.867 90.54 220.04C90.86 220.44 91.48 220.3 91.96 220.15C93.0982 219.754 94.3042 219.591 95.5067 219.67C96.7091 219.749 97.8834 220.069 98.96 220.61C99.1165 220.728 99.3043 220.798 99.5 220.81C99.95 220.81 100.13 220.21 100.14 219.75C100.15 219.109 100.09 218.468 99.96 217.84C99.9098 217.462 99.785 217.097 99.5927 216.768C99.4004 216.438 99.1446 216.15 98.84 215.92C98.3681 215.726 97.8592 215.637 97.3494 215.662C96.8396 215.686 96.3414 215.822 95.89 216.06C94.3867 216.428 92.9256 216.951 91.53 217.62Z" fill="white"/>
</g>
<defs>
<linearGradient id="paint0_linear" x1="99.89" y1="175.36" x2="298.14" y2="207.33" gradientUnits="userSpaceOnUse">
<stop stop-color="#010101" stop-opacity="0"/>
<stop offset="0.95" stop-color="#010101"/>
</linearGradient>
<linearGradient id="paint1_linear" x1="6861.88" y1="11291.9" x2="8913.39" y2="11291.9" gradientUnits="userSpaceOnUse">
<stop stop-color="#010101" stop-opacity="0"/>
<stop offset="0.95" stop-color="#010101"/>
</linearGradient>
<linearGradient id="paint2_linear" x1="12303.7" y1="90823.6" x2="941.671" y2="90969.9" gradientUnits="userSpaceOnUse">
<stop stop-color="#010101" stop-opacity="0"/>
<stop offset="0.95" stop-color="#010101"/>
</linearGradient>
<linearGradient id="paint3_linear" x1="166.5" y1="304.5" x2="173.5" y2="328" gradientUnits="userSpaceOnUse">
<stop stop-opacity="0"/>
<stop offset="1" stop-color="#131313"/>
</linearGradient>
<linearGradient id="paint4_linear" x1="6045.93" y1="4432.39" x2="5944.83" y2="4598.46" gradientUnits="userSpaceOnUse">
<stop stop-color="#010101" stop-opacity="0"/>
<stop offset="0.95" stop-color="#010101"/>
</linearGradient>
<linearGradient id="paint5_linear" x1="133.346" y1="83.7449" x2="133.346" y2="127.798" gradientUnits="userSpaceOnUse">
<stop/>
<stop offset="1" stop-color="#C4C4C4" stop-opacity="0"/>
</linearGradient>
<linearGradient id="paint6_linear" x1="148.5" y1="232" x2="190.5" y2="197.5" gradientUnits="userSpaceOnUse">
<stop stop-color="#303030"/>
<stop offset="1" stop-color="#C4C4C4" stop-opacity="0"/>
</linearGradient>
<linearGradient id="paint7_linear" x1="12876.9" y1="26851.8" x2="8422.88" y2="30372.5" gradientUnits="userSpaceOnUse">
<stop stop-color="#010101" stop-opacity="0"/>
<stop offset="0.95" stop-color="#010101"/>
</linearGradient>
<linearGradient id="paint8_linear" x1="162.5" y1="160.5" x2="138" y2="174" gradientUnits="userSpaceOnUse">
<stop stop-color="#C4C4C4"/>
<stop offset="1" stop-color="#C4C4C4" stop-opacity="0"/>
</linearGradient>
<linearGradient id="paint9_linear" x1="3750.58" y1="1224.35" x2="3647.73" y2="1712.65" gradientUnits="userSpaceOnUse">
<stop stop-color="#010101" stop-opacity="0"/>
<stop offset="0.95" stop-color="#010101"/>
</linearGradient>
<linearGradient id="paint10_linear" x1="599.198" y1="510.029" x2="613.711" y2="509.218" gradientUnits="userSpaceOnUse">
<stop stop-color="#010101" stop-opacity="0"/>
<stop offset="0.95" stop-color="#010101"/>
</linearGradient>
<clipPath id="clip0">
<rect width="378.75" height="429.9" fill="white"/>
</clipPath>
</defs>
</svg>
