<svg width="656" height="510" viewBox="0 0 656 510" fill="none" xmlns="http://www.w3.org/2000/svg">
<g clip-path="url(#clip0)">
<path opacity="0.1" d="M288.365 73.8331C251.526 104.581 221.968 143.654 182.81 171.301C146.62 196.866 102.955 212.218 71.815 243.725C45.2389 270.626 30.3487 306.936 30.3812 344.763C30.4136 382.589 45.3661 418.874 71.9884 445.73C109.218 483.286 164.282 497.424 217.049 500.221C269.816 503.018 322.777 496.058 375.566 498.898C425.516 501.587 475.249 513.036 525.09 509.22C574.932 505.403 627.785 481.92 647.505 435.929C669.305 385.037 644.32 327.771 627.092 275.144C614.06 235.368 605.456 194.275 601.434 152.61C595.453 90.291 584.467 3.75144 506.086 0.303734C426.962 -2.69342 349.49 23.4705 288.365 73.8331V73.8331Z" fill="#B83C3C"/>
<path d="M513.258 443.128C394.918 458.306 275.016 446.64 155.7 446.987C147.032 446.987 135.222 450.587 136.587 459.109C205.932 475.501 277.942 476.781 349.237 477.995L478.976 480.163C508.643 480.662 538.331 481.161 567.824 479.491C578.854 478.862 590.166 477.843 600.113 472.986C628.045 459.325 614.198 441.35 590.101 438.292C564.638 435.083 538.591 439.875 513.258 443.128Z" fill="url(#paint0_linear)" fill-opacity="0.2"/>
<path d="M340.569 112.473V433.825C340.569 447.724 352.877 458.957 368.046 458.935L514.884 458.718C530.053 458.718 542.361 447.399 542.361 433.522V112.148C542.361 98.2487 530.053 86.9948 514.884 87.0382L368.046 87.255C352.877 87.2767 340.569 98.5739 340.569 112.473ZM354.568 112.69C354.568 104.125 362.152 97.1645 371.514 97.1645H392.209V99.0726C392.338 101.822 393.551 104.409 395.581 106.266C397.612 108.123 400.295 109.1 403.044 108.982L481.988 108.852C484.737 108.958 487.417 107.975 489.446 106.115C491.475 104.256 492.688 101.67 492.823 98.9209V97.0127H514.19C523.552 97.0127 531.136 103.93 531.136 112.495V432.871C531.136 441.436 523.552 448.375 514.19 448.397L371.514 448.635C362.152 448.635 354.568 441.718 354.568 433.153V112.69Z" fill="#1FB277"/>
<path d="M333.656 119.065V440.439C333.656 454.338 345.965 465.57 361.134 465.548L507.993 465.31C523.162 465.31 535.47 454.013 535.47 440.113V118.761C535.47 104.862 523.162 93.6082 507.993 93.6299L361.134 93.8684C345.965 93.8901 333.656 105.187 333.656 119.065ZM347.677 119.303C347.677 110.63 355.24 103.778 364.601 103.756H385.296V105.664C385.425 108.412 386.639 110.997 388.67 112.85C390.701 114.704 393.385 115.676 396.131 115.552H475.054C477.807 115.658 480.49 114.672 482.519 112.808C484.548 110.944 485.76 108.353 485.889 105.599V103.713H507.277C516.617 103.713 524.202 110.63 524.202 119.195V439.485C524.202 448.028 516.617 454.988 507.277 455.01L364.709 455.314C355.348 455.314 347.785 448.397 347.785 439.831L347.677 119.303Z" fill="white"/>
<path d="M347.677 119.217V439.745C347.677 448.418 355.239 455.249 364.601 455.227L507.299 455.01C516.639 455.01 524.224 448.028 524.224 439.485V119.022C524.224 110.348 516.639 103.518 507.299 103.54H485.911V105.426C485.781 108.18 484.57 110.77 482.541 112.634C480.511 114.498 477.828 115.485 475.076 115.379H396.153C393.406 115.503 390.723 114.531 388.692 112.677C386.66 110.823 385.447 108.239 385.318 105.491V103.583H364.709C355.239 103.778 347.677 110.739 347.677 119.217Z" stroke="url(#paint1_linear)" stroke-width="0.45" stroke-miterlimit="10"/>
<path d="M347.677 119.217V439.745C347.677 448.418 355.239 455.249 364.601 455.227L507.299 455.01C516.639 455.01 524.224 448.028 524.224 439.485V119.022C524.224 110.348 516.639 103.518 507.299 103.54H485.911V105.426C485.781 108.18 484.57 110.77 482.541 112.634C480.511 114.498 477.828 115.485 475.076 115.379H396.153C393.406 115.503 390.723 114.531 388.692 112.677C386.66 110.823 385.447 108.239 385.318 105.491V103.583H364.709C355.239 103.778 347.677 110.739 347.677 119.217Z" fill="#1FB277" fill-opacity="0.15"/>
<path opacity="0.28" d="M503.507 202.222H376.844V233.186H503.507V202.222Z" fill="white"/>
<path opacity="0.28" d="M503.507 156.513H376.844V187.477H503.507V156.513Z" fill="white"/>
<path opacity="0.2" d="M440.815 219.157V221.13L507.732 269.832C507.732 269.832 508.968 281.302 510.766 282.668C513.581 284.122 516.536 285.284 519.586 286.138V293.749L535.557 304.829L540.606 306.564V290.518L518.763 273.171L511.937 265.365L509.293 267.533L440.815 219.157Z" fill="url(#paint2_linear)"/>
<path d="M424.866 108.527L451.975 108.483V106.272L424.866 106.315V108.527Z" fill="url(#paint3_linear)"/>
<path d="M417.736 109.801C419.364 109.785 420.671 108.558 420.657 107.061C420.642 105.565 419.311 104.364 417.683 104.38C416.056 104.396 414.748 105.622 414.763 107.119C414.777 108.616 416.108 109.816 417.736 109.801Z" fill="url(#paint4_linear)"/>
<path d="M0 291.646C0.130021 297.088 2.83879 302.097 5.50423 306.824C17.6829 328.356 31.3568 349.584 50.2532 365.565C77.991 389.07 114.354 399.197 149.459 408.694C146.317 407.154 142.525 390.978 141.138 387.422C138.429 380.44 135.894 373.415 133.272 366.411C129.154 355.33 120.486 346.418 112.057 338.222C92.9491 319.83 69.7673 306.219 44.4022 298.498C29.9977 294.133 15.0493 291.826 0 291.646V291.646Z" fill="#1FB277"/>
<path d="M0 291.646C0.130021 297.088 2.83879 302.097 5.50423 306.824C17.6829 328.356 31.3568 349.584 50.2532 365.565C77.991 389.07 114.354 399.197 149.459 408.694C146.317 407.154 142.525 390.978 141.138 387.422C138.429 380.44 135.894 373.415 133.272 366.411C129.154 355.33 120.486 346.418 112.057 338.222C92.9491 319.83 69.7673 306.219 44.4022 298.498C29.9977 294.133 15.0493 291.826 0 291.646V291.646Z" fill="url(#paint5_linear)"/>
<path d="M137.346 303.702C134.485 283.666 131.538 263.327 123.477 244.765C115.415 226.204 101.438 209.291 82.4768 202.222C81.9422 230.931 81.3933 259.64 80.8298 288.349C80.5264 304.937 80.2447 321.829 84.9905 337.723C93.3119 365.543 122.263 398.221 150.174 407.415C154.313 394.036 147.379 373.783 145.407 359.884L137.346 303.702Z" fill="#1FB277"/>
<path d="M137.346 303.702C134.485 283.666 131.538 263.327 123.477 244.765C115.415 226.204 101.438 209.291 82.4768 202.222C81.9422 230.931 81.3933 259.64 80.8298 288.349C80.5264 304.937 80.2447 321.829 84.9905 337.723C93.3119 365.543 122.263 398.221 150.174 407.415C154.313 394.036 147.379 373.783 145.407 359.884L137.346 303.702Z" fill="url(#paint6_linear)"/>
<path d="M245.328 262.806C244.353 262.806 243.746 261.765 243.508 260.811C243.422 259.837 243.01 258.92 242.338 258.209C241.948 257.906 241.384 257.71 241.232 257.233C241.178 257.02 241.178 256.796 241.232 256.583C241.5 255.479 242.008 254.449 242.72 253.564C243.432 252.68 244.33 251.963 245.35 251.466C246.39 252.376 247.972 252.355 248.969 253.309C250.017 254.486 250.826 255.856 251.352 257.342L261.061 280.413L264.095 287.612C265.261 289.91 265.919 292.432 266.023 295.006C266.058 296.297 265.688 297.566 264.965 298.636C264.242 299.705 263.203 300.521 261.993 300.969C261.161 301.15 260.299 301.142 259.471 300.947C258.642 300.752 257.868 300.374 257.203 299.842C255.88 298.754 254.826 297.373 254.126 295.809C251.613 290.735 251.244 284.967 250.486 279.264C249.727 273.561 249.185 266.969 245.328 262.806Z" fill="#FFBBAB"/>
<path d="M244.396 280.934C244.159 280.741 243.884 280.601 243.589 280.523C243.294 280.445 242.986 280.429 242.684 280.478C242.368 280.594 242.09 280.797 241.883 281.064C240.84 282.288 240.101 283.741 239.724 285.304C239.348 286.867 239.345 288.498 239.716 290.062C239.942 291.424 240.56 292.689 241.493 293.705C242.523 294.608 243.724 295.294 245.025 295.722L255.47 299.885C256.26 300.284 257.147 300.449 258.027 300.362C258.485 300.231 258.912 300.01 259.284 299.712C259.656 299.415 259.965 299.046 260.194 298.628C260.854 297.58 261.274 296.398 261.424 295.169C261.574 293.939 261.45 292.691 261.061 291.515C259.11 285.422 249.402 283.883 244.396 280.934Z" fill="#FFBBAB"/>
<path d="M233.475 266.926L241.774 274.819L247.82 280.565C249.185 281.866 250.919 283.037 251.483 284.902C252.177 287.533 251.932 290.325 250.789 292.795C249.5 295.418 248.546 298.194 247.95 301.056C247.95 300.015 244.635 297.608 243.898 297.023C242.294 295.765 240.604 294.659 239 293.424C237.397 292.188 235.403 290.908 234.84 289.304C234.678 288.271 234.627 287.224 234.688 286.181L233.626 269.485L233.475 266.926Z" fill="#C01150"/>
<path d="M352.271 368.839C350.29 370.812 348.719 373.157 347.648 375.74C346.577 378.323 346.027 381.092 346.03 383.888C346.011 386.876 346.632 389.833 347.85 392.561C349.131 395.488 351.055 398.088 353.478 400.168C355.902 402.247 358.763 403.754 361.849 404.574V409.453H105.577C98.9555 409.26 92.6699 406.492 88.0545 401.737C83.4391 396.982 80.8574 390.614 80.8574 383.986C80.8574 377.357 83.4391 370.989 88.0545 366.234C92.6699 361.479 98.9555 358.711 105.577 358.518H361.849V363.397C358.232 364.335 354.928 366.212 352.271 368.839V368.839Z" fill="#BC0A0A"/>
<path d="M361.849 404.487V409.366H105.577C100.246 409.373 95.048 407.702 90.7192 404.589C86.3903 401.475 83.1504 397.078 81.4583 392.019C91.1882 393.732 152.818 403.555 187.122 383.975L347.85 392.648C349.152 395.542 351.085 398.108 353.507 400.157C355.93 402.205 358.78 403.685 361.849 404.487V404.487Z" fill="url(#paint7_linear)"/>
<path d="M352.271 368.839C349.624 371.484 347.72 374.781 346.752 378.397C345.784 382.013 345.786 385.82 346.757 389.435C347.729 393.05 349.635 396.345 352.285 398.987C354.934 401.63 358.233 403.527 361.849 404.487V405.203H208.424C202.78 405.203 197.367 402.959 193.377 398.966C189.386 394.973 187.144 389.557 187.144 383.909C187.144 378.262 189.386 372.846 193.377 368.853C197.367 364.859 202.78 362.616 208.424 362.616H361.849V363.31C358.223 364.272 354.918 366.18 352.271 368.839Z" fill="white"/>
<path d="M322.518 397.982C323.433 398.376 324.426 398.554 325.421 398.502L340.591 398.871C340.999 398.894 341.409 398.85 341.804 398.741C342.245 398.516 342.605 398.159 342.834 397.72C343.063 397.281 343.15 396.781 343.083 396.291C342.876 395.002 342.268 393.812 341.346 392.89C340.424 391.967 339.234 391.359 337.947 391.152C335.373 390.764 332.769 390.605 330.167 390.675C329.111 390.673 328.069 390.425 327.125 389.951C326.181 389.477 325.36 388.789 324.728 387.942C323.536 386.446 322.106 384.907 320.134 386.338C317.035 388.701 319.57 396.399 322.518 397.982Z" fill="#FFBBAB"/>
<path d="M246.433 329.331C246.433 329.331 288.799 328.009 299.33 332.432C309.862 336.856 326.223 387.769 326.223 387.769L317.382 391.152C317.382 391.152 302.342 359.45 297.402 356.61C292.461 353.769 239.521 343.361 239.521 343.361C239.521 343.361 235.468 340.26 246.433 329.331Z" fill="#473F47"/>
<path d="M246.433 329.331C246.433 329.331 288.799 328.009 299.33 332.432C309.862 336.856 326.223 387.769 326.223 387.769L317.382 391.152C317.382 391.152 302.342 359.45 297.402 356.61C292.461 353.769 239.521 343.361 239.521 343.361C239.521 343.361 235.468 340.26 246.433 329.331Z" fill="url(#paint8_linear)"/>
<path d="M352.271 419.753C350.275 421.742 348.696 424.108 347.625 426.714C346.553 429.32 346.011 432.113 346.03 434.931C346.026 437.883 346.646 440.802 347.85 443.496C349.127 446.425 351.049 449.028 353.473 451.108C355.898 453.188 358.761 454.693 361.849 455.509V460.388H105.577C102.236 460.388 98.9279 459.729 95.8413 458.45C92.7546 457.171 89.9501 455.296 87.5877 452.932C85.2253 450.568 83.3513 447.762 82.0728 444.673C80.7943 441.585 80.1362 438.274 80.1362 434.931C80.1362 431.588 80.7943 428.278 82.0728 425.189C83.3513 422.101 85.2253 419.295 87.5877 416.931C89.9501 414.567 92.7546 412.692 95.8413 411.412C98.9279 410.133 102.236 409.475 105.577 409.475H361.849V414.332C358.238 415.272 354.936 417.141 352.271 419.753V419.753Z" fill="#BC0A0A"/>
<path d="M361.849 455.314V460.193H105.577C100.246 460.2 95.048 458.529 90.7192 455.415C86.3903 452.302 83.1504 447.904 81.4583 442.846C91.1882 444.559 152.818 454.381 187.122 434.823L347.85 443.388C349.137 446.301 351.064 448.886 353.488 450.951C355.912 453.015 358.77 454.507 361.849 455.314Z" fill="url(#paint9_linear)" fill-opacity="0.5"/>
<path d="M352.271 419.752C349.646 422.399 347.761 425.69 346.806 429.294C345.851 432.899 345.859 436.691 346.829 440.292C347.799 443.893 349.696 447.175 352.332 449.812C354.968 452.448 358.25 454.345 361.849 455.314V456.029H208.424C202.78 456.029 197.367 453.786 193.377 449.792C189.386 445.799 187.144 440.383 187.144 434.736C187.144 429.088 189.386 423.672 193.377 419.679C197.367 415.686 202.78 413.442 208.424 413.442H361.849V414.136C358.218 415.132 354.914 417.069 352.271 419.752Z" fill="white"/>
<path d="M310.902 412.857C311.734 412.854 312.561 412.986 313.351 413.247C313.745 413.378 314.093 413.619 314.355 413.942C314.616 414.265 314.779 414.656 314.824 415.069C314.794 415.476 314.663 415.869 314.444 416.214C314.225 416.558 313.924 416.843 313.568 417.042C312.874 417.476 312.094 417.736 311.401 418.191C310.824 418.676 310.208 419.111 309.559 419.492C308.389 419.832 307.141 419.778 306.005 419.34C300.695 418.06 295.202 417.715 289.774 418.321C289.241 418.386 288.703 418.386 288.17 418.321C287.4 418.098 286.7 417.682 286.135 417.113C285.57 416.544 285.16 415.84 284.941 415.069C283.854 411.758 283.528 408.245 283.988 404.791C283.991 404.412 284.088 404.039 284.27 403.707C284.474 403.427 284.751 403.21 285.071 403.078C290.229 400.519 293.046 405.615 296.817 408.087C301.012 410.887 305.87 412.532 310.902 412.857Z" fill="#FFBBAB"/>
<path d="M217.699 331.977C217.699 331.977 216.42 351.232 233.605 357.043C245.523 361.055 259.219 360.318 271.549 359.212C273.716 359.017 276.1 358.496 278.31 358.518C282.645 358.518 281.756 361.38 281.713 365.023C281.713 374.246 281.633 383.461 281.474 392.67C281.078 397.502 281.767 402.362 283.49 406.894L296.167 403.511C295.826 390.164 296.594 376.812 298.464 363.592C299.287 357.867 300.522 350.712 296.687 345.833C292.961 341.465 288.043 338.277 282.536 336.661L248.211 325.819L217.699 331.977Z" fill="#473F47"/>
<path d="M242.425 243.573C243.053 244.635 244.353 245.264 244.787 246.457C245.22 247.649 244.31 249.319 243.79 250.793C243.096 252.767 243.313 254.978 242.62 256.973C242.501 257.408 242.26 257.799 241.926 258.101C241.603 258.308 241.242 258.448 240.864 258.513C239.397 258.816 237.893 258.904 236.4 258.773C236.12 258.674 235.814 258.674 235.533 258.773C235.318 258.972 235.179 259.241 235.143 259.532C234.278 263.292 234.338 267.206 235.317 270.938C235.642 272.152 235.989 273.67 235.078 274.537C234.764 274.844 234.363 275.048 233.93 275.122C231.091 275.816 228.361 273.713 226.432 271.523C224.737 269.533 223.282 267.349 222.098 265.018C221.712 264.349 221.455 263.613 221.339 262.85C221.286 261.939 221.404 261.027 221.686 260.161C222.491 257.052 222.985 253.87 223.16 250.663C223.377 246.565 223.16 242.293 224.633 238.499C225.104 237.198 225.977 236.082 227.125 235.311C228.479 234.684 229.977 234.437 231.459 234.596C234.465 234.397 237.431 235.369 239.738 237.306C240.409 238.022 241.623 242.25 242.425 243.573Z" fill="#FFBBAB"/>
<path d="M246.433 329.332C244.513 331.008 242.25 332.244 239.802 332.953C238.069 333.56 236.292 334.124 234.493 334.688C231.944 335.455 229.452 336.404 227.039 337.528C224.481 338.374 222.574 339.003 221.123 339.436C219.814 339.901 218.484 340.299 217.135 340.629C217.268 340.554 217.405 340.489 217.547 340.434C217.547 340.434 216.68 336.596 215.38 331.218C213.213 321.331 209.572 306.304 207.817 300.688C206.99 297.136 206.777 293.469 207.189 289.846C208.077 277.92 212.801 262.351 221.469 263.348C221.469 263.348 233.735 269.702 237.44 274.646C240.821 279.221 245.328 282.668 245.372 288.848C245.48 297.522 241.861 305.653 242.554 314.63C242.567 315.939 242.894 317.226 243.508 318.382C244.548 320.008 246.607 320.788 247.625 322.415C248.2 323.542 248.395 324.825 248.18 326.072C247.965 327.319 247.352 328.463 246.433 329.332V329.332Z" fill="#D21559"/>
<path d="M232.868 327.619C234.31 329.673 234.893 332.21 234.493 334.688C234.285 335.524 233.832 336.279 233.193 336.856C232.154 337.63 230.941 338.137 229.661 338.331C226.856 338.97 223.997 339.341 221.123 339.436C220.104 339.436 219.086 339.436 218.067 339.436C217.981 336.492 217.072 333.63 215.445 331.175C213.278 321.287 209.637 306.26 207.882 300.644C207.055 297.093 206.842 293.426 207.254 289.803C208.71 287.974 209.919 285.962 210.851 283.818C211.501 282.127 212.584 280.283 214.405 280.153C216.225 280.023 217.287 281.368 218.284 282.625C224.481 290.54 229.01 300.319 234.45 308.819C234.73 309.18 234.889 309.62 234.905 310.077C234.78 310.554 234.478 310.965 234.06 311.226C231.719 313.178 229.227 315.563 228.967 318.555C228.707 321.547 231.091 324.778 232.868 327.619Z" fill="url(#paint10_linear)" fill-opacity="0.1"/>
<path d="M226.67 317.969C227.064 319.142 227.65 320.241 228.404 321.222C230.403 323.152 233.059 324.252 235.837 324.301C239.019 324.629 242.216 324.796 245.415 324.8C247.582 324.8 251.006 323.759 252.826 325.494C253.26 325.927 253.585 326.448 254.04 326.86C255.238 327.781 256.737 328.222 258.244 328.096C261.527 328.155 264.8 327.716 267.952 326.795C268.085 326.784 268.213 326.738 268.322 326.66C268.43 326.583 268.516 326.477 268.57 326.354C268.623 326.232 268.642 326.097 268.625 325.965C268.608 325.832 268.555 325.707 268.472 325.602C267.831 323.702 266.879 321.921 265.655 320.333C265.038 319.544 264.253 318.903 263.357 318.456C262.461 318.01 261.477 317.769 260.476 317.752C259.439 317.873 258.416 318.091 257.42 318.403C254.392 318.843 251.305 318.636 248.362 317.796C244.932 317.329 241.626 316.195 238.632 314.457C237.809 313.78 237.137 312.938 236.66 311.985C235.296 309.41 234.206 306.699 233.41 303.897C233.085 302.812 232.608 301.576 231.524 301.208C231.126 301.119 230.715 301.11 230.313 301.18C229.911 301.251 229.528 301.4 229.184 301.62C226.524 302.837 224.419 305.013 223.29 307.713C222.488 310.488 225.565 315.259 226.67 317.969Z" fill="#FFBBAB"/>
<path d="M226.28 279.459C226.28 279.459 234.017 300.405 235.533 301.945C237.05 303.484 220.624 312.787 220.624 312.787C220.624 312.787 209.919 292.404 210.418 283.579C210.916 274.754 220.234 271.132 226.28 279.459Z" fill="#D21559"/>
<path d="M238.48 236.981C238.235 238.998 237.274 240.861 235.772 242.228C234.32 243.594 232.521 244.505 231.026 245.828C230.226 246.417 229.588 247.2 229.172 248.102C228.755 249.004 228.573 249.997 228.642 250.989C228.061 250.761 227.419 250.742 226.826 250.936C226.233 251.13 225.726 251.524 225.392 252.051C225.251 252.411 225.209 252.801 225.27 253.182C225.331 253.564 225.493 253.922 225.738 254.219C226.007 254.526 226.342 254.767 226.717 254.924C227.093 255.082 227.499 255.153 227.905 255.13C226.351 255.755 225.016 256.826 224.07 258.209C221.664 261.787 218.869 264.476 219.736 269.246C220.386 272.434 222.098 275.318 223.008 278.44C223.865 281.384 224.001 284.49 223.407 287.498C222.813 290.505 221.504 293.326 219.592 295.722C217.68 298.117 215.221 300.018 212.421 301.263C209.621 302.509 206.563 303.062 203.505 302.878C197.74 302.552 191.738 298.801 190.806 293.098C189.766 286.593 195.313 280.847 195.942 274.32C196.267 270.786 195.14 267.143 195.942 263.695C197.134 258.925 201.706 255.976 205.173 252.506C212.606 245.026 212.65 232.666 224.373 229.522C229.834 228.199 239.022 229.804 238.48 236.981Z" fill="#502F2F"/>
<path d="M261.451 325.429L275.125 290.626H311.271L293.089 332.432L237.722 330.351L239.499 326.99L261.451 325.429Z" fill="#F37D2D"/>
<path d="M261.451 325.429L275.125 290.626H311.271L293.089 332.432L237.722 330.351L239.499 326.99L261.451 325.429Z" fill="url(#paint11_linear)" fill-opacity="0.15"/>
<path d="M338.705 390.263C337.85 389.914 336.918 389.794 336.002 389.916C335.086 390.037 334.218 390.396 333.483 390.956C332.746 391.694 332.377 392.713 331.641 393.45C330.59 394.273 329.291 394.716 327.957 394.708C325.841 394.863 323.715 394.747 321.629 394.361C321.287 394.276 320.93 394.276 320.589 394.361C320.314 394.476 320.082 394.673 319.923 394.925C319.764 395.178 319.686 395.472 319.7 395.77C319.742 396.361 319.905 396.936 320.177 397.462C320.484 398.322 321.033 399.075 321.759 399.63C322.489 400.002 323.304 400.174 324.121 400.129C329.736 400.4 335.363 400.27 340.959 399.738C342.362 399.703 343.71 399.182 344.773 398.264C347.893 395.055 341.132 391.043 338.705 390.263Z" fill="#D21559"/>
<path d="M303.599 409.778C302.863 409.778 302.126 409.778 301.432 409.778C301.167 409.734 300.896 409.734 300.631 409.778C300.123 409.991 299.692 410.354 299.395 410.819C298.68 411.729 298.03 412.987 296.947 413.442C295.957 413.847 294.913 414.103 293.848 414.201C291.445 414.404 289.026 414.236 286.675 413.703C286.333 413.618 285.976 413.618 285.635 413.703C285.358 413.815 285.124 414.012 284.964 414.265C284.805 414.517 284.729 414.814 284.746 415.112C284.788 415.703 284.951 416.278 285.223 416.803C285.506 417.82 286.126 418.709 286.98 419.328C287.834 419.946 288.872 420.256 289.926 420.208H298.767C301.497 420.208 304.228 420.208 306.958 420.099C308.804 420.068 310.638 419.806 312.419 419.319C313.65 419.014 314.751 418.322 315.561 417.346C315.946 416.845 316.155 416.231 316.155 415.6C316.155 414.969 315.946 414.355 315.561 413.854C315.015 413.337 314.342 412.971 313.611 412.792L307.868 410.797C306.778 410.384 305.654 410.064 304.51 409.843L303.599 409.778Z" fill="#D21559"/>
<path d="M526.932 267.1H526.781C526.097 266.598 525.491 265.999 524.982 265.321C523.429 263.361 521.526 261.707 519.369 260.443C518.481 259.922 517.202 259.51 516.509 260.291C516.271 260.551 516.162 260.92 515.902 261.158C515.295 261.722 514.32 261.353 513.627 260.92C512.933 260.486 512.045 260.009 511.33 260.443C511.117 260.609 510.947 260.823 510.834 261.068C510.72 261.314 510.668 261.582 510.68 261.852C510.768 263.11 511.17 264.325 511.85 265.387C512.886 267.466 514.074 269.466 515.404 271.371C515.729 271.946 516.207 272.42 516.784 272.742C517.362 273.063 518.016 273.219 518.676 273.193C520.737 273.191 522.766 273.714 524.57 274.711C524.911 275.037 525.341 275.256 525.805 275.339C527.127 275.469 527.582 271.393 527.799 270.461C527.907 270.005 528.493 268.487 528.276 268.032C528.059 267.577 527.366 267.338 526.932 267.1Z" fill="#FFBBAB"/>
<path d="M561.518 347.242L563.62 451.367H577.727L581.801 368.623L590.686 451.367L606.852 454.078L610.558 343.838L561.518 347.242Z" fill="#B83C3C"/>
<path d="M561.518 347.242L563.62 451.367H577.727L581.801 368.623L590.686 451.367L606.852 454.078L610.558 343.838L561.518 347.242Z" fill="url(#paint12_linear)" fill-opacity="0.5"/>
<path d="M597.187 449.741V353.227L610.558 343.838L606.05 451.367L597.187 449.741Z" fill="url(#paint13_linear)"/>
<path d="M523.118 279.069L523.422 279.329C526.434 281.931 550.119 302.335 553.76 301.143C558.647 298.935 563.369 296.377 567.889 293.489L569.081 292.773V264.107L554.215 281.844L527.929 266.341L523.118 279.069Z" fill="#B83C3C"/>
<path d="M523.422 279.329C526.434 281.931 550.119 302.335 553.76 301.143C558.648 298.935 563.37 296.377 567.889 293.489C568.037 292.324 568.088 291.149 568.041 289.976C568.041 287.439 568.929 281.302 565.029 282.777C561.865 283.991 559.568 288.089 556.361 289.629C555.358 290.528 554.116 291.116 552.785 291.32C550.618 291.45 548.884 289.694 547.367 288.154C542.086 282.717 535.887 278.254 529.056 274.971C528.762 274.795 528.424 274.705 528.081 274.71C527.692 274.811 527.348 275.04 527.106 275.361C525.892 276.705 524.657 278.028 523.422 279.329Z" fill="#312A2A" fill-opacity="0.05"/>
<path d="M600.091 255.13C603.856 257.017 607.523 259.094 611.078 261.353C618.619 266.189 617.275 268.422 615.888 276.77C612.962 294.618 611.513 312.676 611.554 330.763C611.847 335.122 611.533 339.5 610.623 343.773C609.842 346.462 608.044 348.717 607.827 351.557C596.19 353.162 569.558 359.146 561.583 347.22C553.955 335.771 567.694 295.18 565.137 277.009C562.58 258.838 585.983 256.908 585.983 256.908L600.091 255.13Z" fill="#B83C3C"/>
<path d="M584.055 338.591L608 352L608.586 348.5C612 344 611.574 333.564 611.403 325.949C610.904 314.587 611.403 290 611.403 290L595.5 307L580.5 324.5L584.055 338.591Z" fill="#292828" fill-opacity="0.15"/>
<path d="M573.545 237.523C573.531 238.726 573.603 239.929 573.762 241.122C574.323 243.602 575.298 245.97 576.644 248.126C576.992 248.885 577.511 249.553 578.161 250.078C579.508 250.744 581.059 250.868 582.495 250.425C582.837 250.349 583.192 250.349 583.535 250.425C584.358 250.75 584.467 251.877 584.423 252.767L584.185 256.908C584.098 257.473 584.197 258.052 584.467 258.556C584.752 258.903 585.138 259.154 585.572 259.272C587.1 259.774 588.735 259.851 590.304 259.496C591.872 259.141 593.315 258.366 594.478 257.255C595.055 256.719 595.526 256.079 595.865 255.369C596.145 254.675 596.32 253.945 596.385 253.2C596.884 249.232 596.385 245.221 596.754 241.252C597.268 237.975 597.363 234.645 597.035 231.343C596.724 229.576 595.978 227.914 594.866 226.506C593.754 225.098 592.311 223.989 590.664 223.277C587.245 222.196 583.564 222.279 580.198 223.515C578.545 223.98 576.918 224.53 575.322 225.163C574.546 225.368 573.873 225.855 573.437 226.529C572.808 227.809 573.437 229.652 573.437 231.018C573.588 233.208 573.545 235.376 573.545 237.523Z" fill="#FFBBAB"/>
<path d="M601.348 222.691C598.227 218.008 590.946 217.921 585.875 217.249C585.149 217.208 584.446 216.976 583.838 216.577C583.69 216.468 583.566 216.33 583.472 216.172C583.378 216.014 583.318 215.838 583.293 215.656C583.269 215.474 583.282 215.289 583.331 215.112C583.38 214.934 583.464 214.769 583.578 214.625L579.721 216.793V213.931C578.398 214.979 577 215.928 575.539 216.772V214.213C573.836 215.539 572.568 217.343 571.896 219.394C571.224 221.445 571.18 223.65 571.768 225.727C573.003 230.064 579.548 230.519 583.21 230.324C584.219 230.237 585.234 230.237 586.244 230.324C587.25 230.435 588.185 230.896 588.888 231.625C589.701 233.001 590.155 234.559 590.209 236.157C590.223 236.251 590.26 236.341 590.318 236.417C590.382 236.426 590.448 236.426 590.513 236.417C591.64 236.547 592.68 235.225 593.72 235.68C593.972 235.82 594.182 236.024 594.331 236.272C594.479 236.519 594.56 236.801 594.565 237.089C594.646 237.782 594.549 238.483 594.283 239.128C594.145 239.375 594.057 239.648 594.023 239.93C594.036 240.117 594.08 240.3 594.153 240.472L594.868 242.445C595.054 243.173 595.492 243.811 596.104 244.245C596.565 244.385 597.053 244.409 597.526 244.314C597.999 244.219 598.44 244.009 598.812 243.703C599.378 243.416 599.873 243.009 600.264 242.51C600.523 242.069 600.7 241.584 600.784 241.079C601.738 236.167 602.131 231.162 601.955 226.161C602.001 224.974 601.794 223.792 601.348 222.691V222.691Z" fill="#963637"/>
<path d="M596.407 253.244C596.407 253.244 599.636 255.412 599.549 257.949C599.462 260.486 581.953 309.773 581.953 309.773C581.953 309.773 581.563 262.524 581.953 260.334C582.548 258.199 583.339 256.123 584.315 254.133C584.315 254.133 591.314 259.207 596.407 253.244Z" fill="white"/>
<path d="M590.686 257.689L591.856 261.505L589.884 263.175L588.931 289.954L581.975 309.751L581.801 289.629L587.782 263.045L585.594 259.294L588.476 257.689H590.686Z" fill="#212741"/>
<path d="M577.727 327.38C579.79 329.99 582.129 332.367 584.705 334.471L586.309 335.75C586.891 336.256 587.605 336.587 588.367 336.704C588.894 336.693 589.411 336.567 589.884 336.336C600.078 332.365 610.066 327.885 619.811 322.914C623.907 320.745 628.371 318.078 629.237 313.568C629.461 312.004 629.425 310.414 629.129 308.862C627.586 297.467 624.608 286.312 620.266 275.665C619.031 272.651 617.514 266.84 614.285 264.823L613.895 264.628L613.44 264.411C609.106 262.85 605.335 267.186 604.143 270.916C602.792 276.248 602.964 281.853 604.642 287.092C606.318 292.292 607.557 297.623 608.347 303.03C608.461 303.759 608.386 304.505 608.131 305.198C607.719 305.888 607.146 306.468 606.462 306.889L577.727 327.38Z" fill="#B83C3C"/>
<path d="M612 279C611.2 272.6 615.667 270.667 618 270.5C620 272.5 624.5 290.5 628 303C631.5 315.5 626.5 319 624.5 320.5C622.5 322 598 333.5 591 336C587.841 337.128 584 337 586 336C587.6 335.2 588 331.333 588 329.5C594.5 326.667 608.7 320.6 613.5 319C619.5 317 615 308.5 618 302C621 295.5 613 287 612 279Z" fill="#201C1C" fill-opacity="0.08"/>
<path d="M577.727 451.367L576.969 459.043L572.136 459.932L569.969 458.024L566.242 460.952H551.745C551.745 460.952 548.061 454.598 556.079 452.43L564.075 450.261L577.727 451.367Z" fill="#212741"/>
<path d="M606.029 451.367L605.27 459.043L600.438 459.932L598.271 458.024L594.587 460.952H580.089C580.089 460.952 576.405 454.598 584.423 452.43L592.42 450.261L606.029 451.367Z" fill="#212741"/>
<path d="M581.801 368.623L575.322 363.354L570.749 450.262L577.727 451.368L581.801 368.623Z" fill="url(#paint14_linear)" fill-opacity="0.2"/>
<path d="M570.576 330.025C569.73 330.239 568.94 330.631 568.257 331.175C567.928 331.457 567.684 331.826 567.554 332.24C567.424 332.654 567.412 333.096 567.52 333.517C567.775 334.004 568.073 334.469 568.409 334.904C568.821 335.642 568.886 336.574 569.254 337.333C570 338.49 571.152 339.325 572.483 339.675C576.34 341.062 581.043 341.258 584.163 338.591C586.33 336.661 590.968 328.659 585.962 327.445C583.831 327.316 581.694 327.536 579.634 328.096C576.567 328.488 573.537 329.134 570.576 330.025V330.025Z" fill="#FFBBAB"/>
<path d="M441.465 218.441L440.815 219.157L534.777 276.814L535.47 275.253L441.465 218.441Z" fill="white"/>
<path d="M510.723 262.329C510.573 261.626 510.689 260.892 511.048 260.269C511.299 259.994 511.608 259.778 511.953 259.639C512.298 259.501 512.67 259.441 513.042 259.467C513.399 259.437 513.759 259.474 514.104 259.575C514.884 259.857 515.339 260.638 515.837 261.31C515.995 261.518 516.177 261.707 516.379 261.873C516.655 262.056 516.953 262.202 517.267 262.307C517.711 262.444 518.134 262.641 518.524 262.893C519.125 263.35 519.627 263.926 519.998 264.584C520.363 265.108 520.675 265.668 520.93 266.254C521.213 267.015 521.338 267.827 521.298 268.639C521.324 268.914 521.255 269.189 521.103 269.419C520.901 269.639 520.621 269.771 520.323 269.788C519.131 269.883 517.941 269.578 516.942 268.921C515.924 268.314 515.014 267.511 514.06 266.752C513.213 266.306 512.474 265.679 511.897 264.914C511.32 264.149 510.919 263.267 510.723 262.329V262.329Z" fill="#FFBBAB"/>
</g>
<defs>
<linearGradient id="paint0_linear" x1="376" y1="401" x2="376" y2="527.5" gradientUnits="userSpaceOnUse">
<stop stop-color="#2C2727"/>
<stop offset="1" stop-color="#2C2727" stop-opacity="0"/>
</linearGradient>
<linearGradient id="paint1_linear" x1="596.01" y1="165.056" x2="330.955" y2="395.666" gradientUnits="userSpaceOnUse">
<stop stop-color="white"/>
<stop offset="1" stop-color="#CBCBCB"/>
</linearGradient>
<linearGradient id="paint2_linear" x1="24884.7" y1="10151.2" x2="22490.2" y2="19225.9" gradientUnits="userSpaceOnUse">
<stop offset="0.01"/>
<stop offset="0.08" stop-opacity="0.69"/>
<stop offset="0.21" stop-opacity="0.32"/>
<stop offset="1" stop-opacity="0"/>
</linearGradient>
<linearGradient id="paint3_linear" x1="-73159" y1="224.902" x2="-73159" y2="243.057" gradientUnits="userSpaceOnUse">
<stop stop-color="white"/>
<stop offset="1" stop-color="#CBCBCB"/>
</linearGradient>
<linearGradient id="paint4_linear" x1="-11002.2" y1="1628.77" x2="-11004.3" y2="1660.76" gradientUnits="userSpaceOnUse">
<stop stop-color="white"/>
<stop offset="1" stop-color="#CBCBCB"/>
</linearGradient>
<linearGradient id="paint5_linear" x1="149.351" y1="286.55" x2="-68.6134" y2="472.115" gradientUnits="userSpaceOnUse">
<stop offset="0.01"/>
<stop offset="0.13" stop-opacity="0.69"/>
<stop offset="0.25" stop-opacity="0.32"/>
<stop offset="1" stop-opacity="0"/>
</linearGradient>
<linearGradient id="paint6_linear" x1="-589.649" y1="47802.8" x2="17444" y2="42054.3" gradientUnits="userSpaceOnUse">
<stop offset="0.01"/>
<stop offset="0.13" stop-opacity="0.69"/>
<stop offset="0.25" stop-opacity="0.32"/>
<stop offset="1" stop-opacity="0"/>
</linearGradient>
<linearGradient id="paint7_linear" x1="221.654" y1="508" x2="222" y2="359.5" gradientUnits="userSpaceOnUse">
<stop stop-color="#2F2626"/>
<stop offset="1" stop-color="#282626" stop-opacity="0"/>
</linearGradient>
<linearGradient id="paint8_linear" x1="13564.7" y1="11935.3" x2="9297.78" y2="13689.5" gradientUnits="userSpaceOnUse">
<stop offset="0.01"/>
<stop offset="0.08" stop-opacity="0.69"/>
<stop offset="0.21" stop-opacity="0.32"/>
<stop offset="1" stop-opacity="0"/>
</linearGradient>
<linearGradient id="paint9_linear" x1="221.654" y1="537" x2="222" y2="417.5" gradientUnits="userSpaceOnUse">
<stop stop-color="#1C1C1C"/>
<stop offset="1" stop-color="#1C1C1C" stop-opacity="0"/>
</linearGradient>
<linearGradient id="paint10_linear" x1="2692.55" y1="9784.64" x2="4680.32" y2="10150" gradientUnits="userSpaceOnUse">
<stop offset="0.01"/>
<stop offset="0.08" stop-opacity="0.69"/>
<stop offset="0.21" stop-opacity="0.32"/>
<stop offset="1" stop-opacity="0"/>
</linearGradient>
<linearGradient id="paint11_linear" x1="257" y1="345" x2="292.5" y2="297" gradientUnits="userSpaceOnUse">
<stop stop-color="#100E0E"/>
<stop offset="1" stop-color="#C4C4C4" stop-opacity="0"/>
</linearGradient>
<linearGradient id="paint12_linear" x1="586.038" y1="343.838" x2="586.038" y2="454.078" gradientUnits="userSpaceOnUse">
<stop stop-color="#160F0F"/>
<stop offset="1" stop-color="#160F0F" stop-opacity="0"/>
</linearGradient>
<linearGradient id="paint13_linear" x1="-33527.2" y1="20983.6" x2="-32543.9" y2="21088.4" gradientUnits="userSpaceOnUse">
<stop offset="0.01"/>
<stop offset="0.08" stop-opacity="0.69"/>
<stop offset="0.21" stop-opacity="0.32"/>
<stop offset="1" stop-opacity="0"/>
</linearGradient>
<linearGradient id="paint14_linear" x1="-26400.5" y1="18854.5" x2="-26743.5" y2="18864.2" gradientUnits="userSpaceOnUse">
<stop offset="0.01"/>
<stop offset="0.08" stop-opacity="0.69"/>
<stop offset="0.21" stop-opacity="0.32"/>
<stop offset="1" stop-opacity="0"/>
</linearGradient>
<clipPath id="clip0">
<rect width="656" height="510" fill="white"/>
</clipPath>
</defs>
</svg>
