<svg xmlns="http://www.w3.org/2000/svg" xmlns:xlink="http://www.w3.org/1999/xlink" width="332" height="266.796" viewBox="0 0 332 266.796"><defs><linearGradient id="a" x1="1" y1="1.299" x2="0" y2="-0.246" gradientUnits="objectBoundingBox"><stop offset="0" stop-color="#ffbd69"/><stop offset="1" stop-color="#de7128"/></linearGradient><linearGradient id="b" x1="0.5" x2="1.076" y2="1.174" gradientUnits="objectBoundingBox"><stop offset="0" stop-color="#de7128"/><stop offset="1" stop-color="#ffbd69"/></linearGradient><linearGradient id="d" y1="1" y2="0" xlink:href="#a"/><linearGradient id="e" x1="0.369" x2="1.581" y2="0.785" xlink:href="#b"/><linearGradient id="f" x1="1.195" y1="1.459" x2="-0.35" y2="-0.306" xlink:href="#a"/><linearGradient id="g" x1="0.08" y1="0.956" x2="1.124" gradientUnits="objectBoundingBox"><stop offset="0" stop-color="#98248f"/><stop offset="1" stop-color="#4c1248"/></linearGradient><linearGradient id="h" x1="0.262" y1="-0.171" x2="0.938" y2="1.836" gradientUnits="objectBoundingBox"><stop offset="0" stop-color="#92258a"/><stop offset="1" stop-color="#491345"/></linearGradient><linearGradient id="i" x1="0.111" y1="0.962" x2="1.433" y2="-0.342" gradientUnits="objectBoundingBox"><stop offset="0" stop-color="#354ed1"/><stop offset="1" stop-color="#55c1b2"/></linearGradient><linearGradient id="j" x1="2.279" y1="-0.479" x2="0.151" y2="0.706" gradientUnits="objectBoundingBox"><stop offset="0" stop-color="#5d5d5d"/><stop offset="1" stop-color="#131313"/></linearGradient></defs><g transform="translate(-212 -386)"><circle cx="21" cy="21" r="21" transform="translate(212 600)" fill="url(#a)"/><g transform="translate(212 439)"><path d="M82,0c21.33,0,91.011,18.84,105.817,32.391,16.162,14.79,88.926,138.735-19.4,76.192C116.99,108.582,127.287,164,82,164A82,82,0,0,1,82,0Z" fill="url(#b)"/><path d="M50.313,15.623C103.14-3.679,134,30,134,67s-22.552,77.174-65.617,64.4-102.22-20.259-102.22-57.262S-2.514,34.925,50.313,15.623Z" transform="translate(189 7)" fill="url(#b)"/></g><circle cx="12" cy="12" r="12" transform="translate(425 398)" fill="url(#d)"/><circle cx="29" cy="29" r="29" transform="translate(486 386)" fill="url(#e)"/><circle cx="24.5" cy="24.5" r="24.5" transform="translate(388 579)" fill="url(#f)"/><path d="M1370.676,2390.615l-.832,9.358s-.444,2.773,2.163,2.773,10.757-.015,14.474,0c1.026,0,1.025-1.707-.869-2.262s-6.033-2.221-6.033-2.221-2.246-.707-2.12-2.4.4-5.6.4-5.6Z" transform="translate(-974 -1750)" fill="#efbd7e" stroke="#de7128" stroke-width="0.1"/><path d="M1272.345,2381.313l-5.5,6.74s-1.92,1.962-1.749,3.541a3.526,3.526,0,0,0,2.048,2.6,35.185,35.185,0,0,1,4.436,3.327c.9.981,2.133,3.285,2.815,3.882.662.579,1.967,1.643,7.64,1.5-.142.007-4.627-.01.209-.01,1.109-1.578,1.066-2.6-.853-3.029s-2.432.085-3.029-1.322-2.261-5.972-2.389-6.356a3.772,3.772,0,0,1,.6-3.284c1.024-1.195,2.517-2.687,2.517-2.687Z" transform="translate(-973 -1751)" fill="#efbd7e" stroke="#de7128" stroke-width="0.1"/><path d="M1344.32,2315.755l-55.8,70.212s-3.926,4.724-7.243,2.057-9.444-7.57-9.444-7.57a3.43,3.43,0,0,1-.36-4.758c1.947-2.884,55.655-97.035,55.655-97.035Z" transform="translate(-974 -1750)" fill="url(#g)"/><path d="M1339.444,2257.286l48.4,44.784a28.208,28.208,0,0,1,9.047,29.4c-5.881,30.308-11.309,56.545-11.309,56.545a2.664,2.664,0,0,1-2.8,2.468c-2.645,0-15.826.128-16.167.128s-2.858-.043-2.389-3.541,5.076-41.292,5.076-41.292.787-7.717-1.231-10.745-10.453-9.876-12.328-11.174-23.247-16.686-23.49-17.3-11.574-8.894-5-27.9C1337.984,2259.783,1339.444,2257.286,1339.444,2257.286Z" transform="translate(-974 -1750)" fill="url(#h)"/><path d="M1406.639,2203.64l28.277-8.051s3.771-.679,9.729-6.335,21.344-18.4,22.927-19.307,8.749-5.958,9.5-6.184,2.187.98,1.282,1.885c-1.358,1.207-2.489,2.168-4.549,4.1,1.32.37,3.222,1.083-1.347,2.588-.528.317-.634,2.429-2.984,5.017s-21.439,23.717-21.439,23.717-5.453,6.614-10.675,8.18-34.112,13-34.112,13h-3.713V2210.29Z" transform="translate(-974 -1750)" fill="#efbd7e" stroke="#de7128" stroke-width="0.1"/><path d="M1370.4,2211.545l-73.074,19.158s-4.706,1.569-7.353,4.118-9.314,8.334-9.9,9.51-.588,3.236,0,3.236,10.295-7.942,11.471-7.746c.784,1.177-.348,2.07-.686,3.333s1.079,2.549,3.137,0,3.53-3.922,4.8-4.412,14.314-2.059,18.334-2.843,37.649-5.589,37.649-5.589l13.138-.49,6.961-18.275Z" transform="translate(-974 -1750)" fill="#efbd7e" stroke="#de7128" stroke-width="0.1"/><path d="M1391.849,2206.671s-.151-3.847,1.659-4.9,3.922-1.207,4.9-3.7a3.741,3.741,0,0,0-.528-4.148,13.983,13.983,0,0,1-.83-1.433c.98.075,1.282-1.131.83-1.433a14.163,14.163,0,0,1-2.715-1.81c-.453-.6-1.788-5.861-6.464-7.218,2.036,6.712.431,10.612-1.153,13.025s-5.581,6.26-8.371,7.542a18.265,18.265,0,0,1-3.469,9.352l1.056,5.958,18.779,3.318.6-13.047h-4Z" transform="translate(-974 -1750)" fill="#efbd7e" stroke="#de7128" stroke-width="0.1"/><path d="M1354.886,2230.252l-15.741,27.174,29.991,27.505,33.967-62.8s-3.288-5.439,4.419-18.786c-6.756,1.81-15.578,3.565-15.578,3.565s4.641,11.469-1.116,11.737c-4.329.223-12.451-.4-15.084-6.828a20.746,20.746,0,0,0-1.842-3.636l-4.073,1.433s5.732,12.218-11.841,20.212A13.67,13.67,0,0,1,1354.886,2230.252Z" transform="translate(-974 -1750)" fill="url(#i)"/><path d="M1388.909,2182.086c-1.729-2.555-7.014-3.319-13.8-.377s-18.93,9.155-28.838,8.078-45.591-2.7-43.437,12.813,13.927,8.512,16.727,17.774,10.124,9.262,24.34,1.939,31.208-10.124,31.208-10.124l1.885-1.972s2.489-5.279,2.112-7.617c4.751-2.338,9.126-5.28,10.709-10.106S1388.909,2182.086,1388.909,2182.086Z" transform="translate(-974 -1750)" fill="url(#j)"/></g></svg>