<svg width="516" height="318" viewBox="0 0 516 318" fill="none" xmlns="http://www.w3.org/2000/svg">
<path d="M500.927 7.97348H15.0727C6.74828 7.97348 0 14.7284 0 23.0609V228.285C0 236.617 6.74828 243.372 15.0727 243.372H500.927C509.252 243.372 516 236.617 516 228.285V23.0609C516 14.7284 509.252 7.97348 500.927 7.97348Z" fill="#B8B8B8"/>
<path d="M500.927 0.212219H15.0727C6.74828 0.212219 0 6.96711 0 15.2997V220.523C0 228.856 6.74828 235.611 15.0727 235.611H500.927C509.252 235.611 516 228.856 516 220.523V15.2997C516 6.96711 509.252 0.212219 500.927 0.212219Z" fill="url(#paint0_linear)"/>
<path opacity="0.26" d="M399.23 211.922C399.148 209.219 398.536 206.558 397.43 204.09C393.73 197.058 384.056 196.278 377.566 191.694C372.349 188.001 369.347 181.798 368.184 175.504C367.022 169.21 367.487 162.754 367.962 156.379C368.093 154.568 368.285 152.605 369.509 151.259C372.157 148.314 376.969 150.419 380.234 152.655L388.928 158.605C390.768 159.86 393.295 161.115 394.994 159.739C396.146 158.828 396.338 157.189 396.45 155.691L398.097 132.721C398.552 126.376 399.644 118.989 405.174 115.933C410.703 112.877 417.921 116.146 421.409 121.357C424.897 126.568 425.554 133.126 426.009 139.379C428.346 172.261 427.856 205.283 424.543 238.08C424.411 239.375 424.179 240.832 423.107 241.571C422.266 242.013 421.309 242.183 420.368 242.057C414.302 241.865 403.334 244.162 400.362 237.776C397.39 231.391 399.856 218.985 399.23 211.922Z" fill="url(#paint1_linear)"/>
<path d="M369.836 186.292C367.918 184.516 366.296 182.445 365.03 180.158C364.806 179.82 364.658 179.437 364.595 179.036C364.485 177.739 366.115 176.952 367.387 177.164C368.66 177.377 369.789 178.164 371.042 178.432C372.085 178.636 373.165 178.47 374.224 178.583C376.019 178.886 377.7 179.669 379.088 180.848C379.473 181.119 379.812 181.451 380.09 181.831C380.4 182.425 380.571 183.081 380.591 183.75C380.85 186.155 380.869 189.751 377.735 189.835C374.895 189.928 371.864 188.096 369.836 186.292Z" fill="url(#paint2_linear)"/>
<path d="M118.357 31H21.6433C17.422 31 14 34.8943 14 39.6982V210.302C14 215.106 17.422 219 21.6433 219H118.357C122.578 219 126 215.106 126 210.302V39.6982C126 34.8943 122.578 31 118.357 31Z" fill="white"/>
<path opacity="0.26" d="M150.646 73.9293C154.035 73.9293 156.782 71.1793 156.782 67.787C156.782 64.3948 154.035 61.6448 150.646 61.6448C147.257 61.6448 144.51 64.3948 144.51 67.787C144.51 71.1793 147.257 73.9293 150.646 73.9293Z" fill="url(#paint3_linear)"/>
<path opacity="0.68" d="M69.1666 64.8829H25.8389C24.5715 64.8829 23.5441 65.9113 23.5441 67.1799C23.5441 68.4485 24.5715 69.4769 25.8389 69.4769H69.1666C70.434 69.4769 71.4614 68.4485 71.4614 67.1799C71.4614 65.9113 70.434 64.8829 69.1666 64.8829Z" fill="#888888"/>
<path opacity="0.68" d="M65.7598 78.6751H25.8389C24.5715 78.6751 23.5441 79.7035 23.5441 80.9721C23.5441 82.2407 24.5715 83.2691 25.8389 83.2691H65.7598C67.0272 83.2691 68.0546 82.2407 68.0546 80.9721C68.0546 79.7035 67.0272 78.6751 65.7598 78.6751Z" fill="#888888"/>
<path opacity="0.68" d="M65.7598 108.567H25.8389C24.5715 108.567 23.5441 109.595 23.5441 110.864C23.5441 112.132 24.5715 113.161 25.8389 113.161H65.7598C67.0272 113.161 68.0546 112.132 68.0546 110.864C68.0546 109.595 67.0272 108.567 65.7598 108.567Z" fill="#888888"/>
<path opacity="0.68" d="M101.809 120.062H25.8389C24.5715 120.062 23.5441 121.09 23.5441 122.359C23.5441 123.628 24.5715 124.656 25.8389 124.656H101.809C103.076 124.656 104.104 123.628 104.104 122.359C104.104 121.09 103.076 120.062 101.809 120.062Z" fill="#888888"/>
<path d="M370.671 30H274.827C269.417 30 265.031 34.39 265.031 39.8053V41.6875C265.031 47.1028 269.417 51.4928 274.827 51.4928H370.671C376.081 51.4928 380.467 47.1028 380.467 41.6875V39.8053C380.467 34.39 376.081 30 370.671 30Z" fill="white"/>
<path d="M497.874 31.7202H394.569C391.219 31.7202 388.504 34.4385 388.504 37.7917V43.8428C388.504 47.196 391.219 49.9142 394.569 49.9142H497.874C501.224 49.9142 503.94 47.196 503.94 43.8428V37.7917C503.94 34.4385 501.224 31.7202 497.874 31.7202Z" fill="white"/>
<path opacity="0.26" d="M277.556 47.7488C280.945 47.7488 283.692 44.9988 283.692 41.6065C283.692 38.2143 280.945 35.4643 277.556 35.4643C274.167 35.4643 271.42 38.2143 271.42 41.6065C271.42 44.9988 274.167 47.7488 277.556 47.7488Z" fill="url(#paint4_linear)"/>
<path opacity="0.68" d="M368.285 37.8321H292.315C291.048 37.8321 290.021 38.8605 290.021 40.1291C290.021 41.3978 291.048 42.4262 292.315 42.4262H368.285C369.553 42.4262 370.58 41.3978 370.58 40.1291C370.58 38.8605 369.553 37.8321 368.285 37.8321Z" fill="#888888"/>
<path opacity="0.68" d="M497.038 38H398.963C397.326 38 396 39.3432 396 41C396 42.6569 397.326 44 398.963 44H497.038C498.674 44 500 42.6569 500 41C500 39.3432 498.674 38 497.038 38Z" fill="#888888"/>
<path d="M370.671 55.4392H274.827C269.417 55.4392 265.031 59.8292 265.031 65.2446V67.1267C265.031 72.542 269.417 76.932 274.827 76.932H370.671C376.081 76.932 380.467 72.542 380.467 67.1267V65.2446C380.467 59.8292 376.081 55.4392 370.671 55.4392Z" fill="white"/>
<path opacity="0.26" d="M277.556 73.188C280.945 73.188 283.692 70.438 283.692 67.0457C283.692 63.6535 280.945 60.9035 277.556 60.9035C274.167 60.9035 271.42 63.6535 271.42 67.0457C271.42 70.438 274.167 73.188 277.556 73.188Z" fill="url(#paint5_linear)"/>
<path opacity="0.68" d="M368.285 63.2713H292.315C291.048 63.2713 290.021 64.2997 290.021 65.5683C290.021 66.837 291.048 67.8654 292.315 67.8654H368.285C369.553 67.8654 370.58 66.837 370.58 65.5683C370.58 64.2997 369.553 63.2713 368.285 63.2713Z" fill="#888888"/>
<path d="M370.671 80.8784H274.827C269.417 80.8784 265.031 85.2684 265.031 90.6838V92.5659C265.031 97.9812 269.417 102.371 274.827 102.371H370.671C376.081 102.371 380.467 97.9812 380.467 92.5659V90.6838C380.467 85.2684 376.081 80.8784 370.671 80.8784Z" fill="white"/>
<path opacity="0.26" d="M277.556 98.617C280.945 98.617 283.692 95.8671 283.692 92.4748C283.692 89.0825 280.945 86.3326 277.556 86.3326C274.167 86.3326 271.42 89.0825 271.42 92.4748C271.42 95.8671 274.167 98.617 277.556 98.617Z" fill="url(#paint6_linear)"/>
<path opacity="0.68" d="M368.285 88.7105H292.315C291.048 88.7105 290.021 89.7389 290.021 91.0076C290.021 92.2762 291.048 93.3046 292.315 93.3046H368.285C369.553 93.3046 370.58 92.2762 370.58 91.0076C370.58 89.7389 369.553 88.7105 368.285 88.7105Z" fill="#888888"/>
<path d="M243.215 30H148.463C142.751 30 138.121 34.6346 138.121 40.3518V72.5302C138.121 78.2474 142.751 82.882 148.463 82.882H243.215C248.927 82.882 253.557 78.2474 253.557 72.5302V40.3518C253.557 34.6346 248.927 30 243.215 30Z" fill="white"/>
<path opacity="0.68" d="M241.365 40.6351H165.395C164.128 40.6351 163.101 41.6635 163.101 42.9321C163.101 44.2007 164.128 45.2291 165.395 45.2291H241.365C242.633 45.2291 243.66 44.2007 243.66 42.9321C243.66 41.6635 242.633 40.6351 241.365 40.6351Z" fill="#888888"/>
<path opacity="0.68" d="M228.122 60.1749H165.193C164.037 60.1749 163.101 61.1127 163.101 62.2695V62.6743C163.101 63.8311 164.037 64.7689 165.193 64.7689H228.122C229.278 64.7689 230.215 63.8311 230.215 62.6743V62.2695C230.215 61.1127 229.278 60.1749 228.122 60.1749Z" fill="#888888"/>
<path d="M243.023 97H148.655C142.837 97 138.121 101.721 138.121 107.544V141.311C138.121 147.134 142.837 151.855 148.655 151.855H243.023C248.841 151.855 253.557 147.134 253.557 141.311V107.544C253.557 101.721 248.841 97 243.023 97Z" fill="white"/>
<path opacity="0.68" d="M228.122 105.196H165.193C164.037 105.196 163.101 106.134 163.101 107.291V107.696C163.101 108.853 164.037 109.79 165.193 109.79H228.122C229.278 109.79 230.215 108.853 230.215 107.696V107.291C230.215 106.134 229.278 105.196 228.122 105.196Z" fill="#888888"/>
<path opacity="0.68" d="M228.122 121.579H165.193C164.037 121.579 163.101 122.517 163.101 123.674V124.078C163.101 125.235 164.037 126.173 165.193 126.173H228.122C229.278 126.173 230.215 125.235 230.215 124.078V123.674C230.215 122.517 229.278 121.579 228.122 121.579Z" fill="#888888"/>
<path opacity="0.68" d="M228.122 137.962H165.193C164.037 137.962 163.101 138.9 163.101 140.056V140.461C163.101 141.618 164.037 142.556 165.193 142.556H228.122C229.278 142.556 230.215 141.618 230.215 140.461V140.056C230.215 138.9 229.278 137.962 228.122 137.962Z" fill="#888888"/>
<path d="M243.215 166H148.463C142.751 166 138.121 170.635 138.121 176.352V208.53C138.121 214.247 142.751 218.882 148.463 218.882H243.215C248.927 218.882 253.557 214.247 253.557 208.53V176.352C253.557 170.635 248.927 166 243.215 166Z" fill="white"/>
<path opacity="0.68" d="M228.122 175.35H165.193C164.037 175.35 163.101 176.288 163.101 177.445V177.849C163.101 179.006 164.037 179.944 165.193 179.944H228.122C229.278 179.944 230.215 179.006 230.215 177.849V177.445C230.215 176.288 229.278 175.35 228.122 175.35Z" fill="#888888"/>
<path opacity="0.68" d="M228.122 190.721H165.193C164.037 190.721 163.101 191.659 163.101 192.815V193.22C163.101 194.377 164.037 195.315 165.193 195.315H228.122C229.278 195.315 230.215 194.377 230.215 193.22V192.815C230.215 191.659 229.278 190.721 228.122 190.721Z" fill="#888888"/>
<path opacity="0.68" d="M228.122 205.667H165.193C164.037 205.667 163.101 206.604 163.101 207.761V208.166C163.101 209.323 164.037 210.261 165.193 210.261H228.122C229.278 210.261 230.215 209.323 230.215 208.166V207.761C230.215 206.604 229.278 205.667 228.122 205.667Z" fill="#888888"/>
<path opacity="0.26" d="M150 112C152.761 112 155 109.761 155 107C155 104.239 152.761 102 150 102C147.239 102 145 104.239 145 107C145 109.761 147.239 112 150 112Z" fill="url(#paint7_linear)"/>
<path opacity="0.26" d="M150 129C152.761 129 155 126.761 155 124C155 121.239 152.761 119 150 119C147.239 119 145 121.239 145 124C145 126.761 147.239 129 150 129Z" fill="url(#paint8_linear)"/>
<path opacity="0.26" d="M150 145C152.761 145 155 142.761 155 140C155 137.239 152.761 135 150 135C147.239 135 145 137.239 145 140C145 142.761 147.239 145 150 145Z" fill="url(#paint9_linear)"/>
<path opacity="0.68" d="M65.7598 156.855H25.8389C24.5715 156.855 23.5441 157.883 23.5441 159.152C23.5441 160.42 24.5715 161.449 25.8389 161.449H65.7598C67.0272 161.449 68.0546 160.42 68.0546 159.152C68.0546 157.883 67.0272 156.855 65.7598 156.855Z" fill="#888888"/>
<path opacity="0.68" d="M101.809 168.35H25.8389C24.5715 168.35 23.5441 169.378 23.5441 170.647C23.5441 171.915 24.5715 172.944 25.8389 172.944H101.809C103.076 172.944 104.104 171.915 104.104 170.647C104.104 169.378 103.076 168.35 101.809 168.35Z" fill="#888888"/>
<path d="M406.306 203.999L412.159 301.951L422.834 303.52L427.707 229.145L432.114 303.348L442.689 303.692C442.689 303.692 447.581 228.76 446.51 223.256C445.438 217.751 446.51 200.255 446.51 200.255L406.306 203.999Z" fill="#606161"/>
<path d="M447.553 204.771C447.959 204.345 448.3 203.861 448.567 203.337C449.099 202.419 449.395 201.384 449.429 200.324C449.385 199.525 449.183 198.743 448.836 198.022C448.667 197.545 448.296 197.044 447.785 197.054C447.601 197.076 447.427 197.146 447.278 197.255C447.129 197.364 447.01 197.51 446.933 197.678C446.519 198.716 446.311 199.826 446.323 200.945C446.125 202.411 445.364 203.68 445.04 205.095C444.611 206.879 446.945 205.416 447.553 204.771Z" fill="url(#paint10_linear)"/>
<path d="M446.329 141.031C445.023 138.417 440.342 137.219 438.709 137.764L445.241 198.205C445.966 198.387 447.744 198.641 449.051 198.205C450.684 197.661 451.228 179.147 451.228 168.801C451.228 160.525 448.688 149.017 446.329 141.031Z" fill="#C86625"/>
<path d="M404.638 194.487C399.472 191.35 394.468 178.044 396.692 174.816C399.371 170.94 403.364 144.064 406.892 140.978C410.42 137.892 414.889 135.675 419.539 135.847C425.018 136.05 431.083 133.48 436.199 135.564C439.08 136.738 441.486 138.873 443.821 140.978C447.491 144.267 450.351 199.668 446.237 205.74C440.97 213.44 430.133 213.693 420.964 213.167C417.8 212.985 414.504 212.762 411.735 211.143C404.759 207.106 403.89 202.643 404.638 194.487Z" fill="#DE7128"/>
<path d="M405.254 117.148C404.836 119.984 405.415 122.878 406.892 125.334C408.863 128.37 412.604 130.262 413.271 133.763C413.584 135.362 413.17 137.021 413.271 138.65C413.372 140.28 414.282 142.101 415.95 142.253C416.536 142.281 417.119 142.152 417.638 141.878C419.451 140.828 420.906 139.256 421.813 137.365C424.846 132.053 426.807 125.83 425.857 119.758C424.907 113.687 420.63 107.939 414.676 106.462C407.337 104.64 405.901 111.38 405.254 117.148Z" fill="url(#paint11_linear)"/>
<path d="M405.881 106.32C406.72 109.305 409.238 111.542 411.896 113.14C413.236 113.828 414.492 114.671 415.637 115.65C419.155 119.101 418.295 124.808 418.265 129.726C418.265 133.217 418.831 136.87 420.914 139.662C424.482 144.459 431.195 145.38 437.159 145.542C437.8 145.627 438.451 145.495 439.009 145.167C439.446 144.78 439.73 144.249 439.808 143.67C440.98 138.175 435.814 133.045 436.239 127.479C436.471 124.312 438.473 121.539 439.12 118.433C440.06 113.93 438.038 109.235 435.076 105.733C433.884 104.226 432.358 103.017 430.618 102.202C427.495 100.896 423.825 101.635 420.661 100.431C418.821 99.7429 417.274 98.4072 415.455 97.6887C410.43 95.6649 404.456 101.261 405.881 106.32Z" fill="#606161"/>
<path d="M380.07 178.834C379.29 178.642 378.441 178.697 377.671 178.989C377.258 179.228 376.909 179.542 376.65 179.907C375.284 181.618 374.32 183.53 373.816 185.528C373.482 186.483 373.549 187.49 374.003 188.369C374.76 189.231 375.855 189.822 377.103 190.043C385.621 192.451 395.983 196.216 404.819 193.834C405.438 193.671 404.935 192.111 405.335 191.673C405.754 191.068 405.913 190.365 405.784 189.694C405.742 187.195 405.377 184.725 404.695 182.327C404.006 179.912 402.383 177.811 400.085 176.359C399.185 175.76 398.043 175.478 396.874 175.565C395.119 175.799 395.45 176.904 394.511 177.62C393.353 178.502 391.447 178.841 389.991 179.071C386.66 179.476 383.306 179.396 380.07 178.834Z" fill="#DE7128"/>
<path opacity="0.26" d="M415.859 163.999C415.859 163.999 412.826 188.284 404.638 194.447C404.638 194.447 401.828 209.453 414.747 212.034C417.897 213.091 421.243 213.437 424.543 213.046C424.543 213.046 411.977 216.86 414.353 191.634C416.728 166.407 415.859 163.999 415.859 163.999Z" fill="url(#paint12_linear)"/>
<path d="M404.496 308.701C404.318 308.855 404.173 309.044 404.068 309.256C403.964 309.468 403.903 309.699 403.89 309.935C403.947 310.28 404.122 310.595 404.385 310.826C405.328 311.594 406.487 312.051 407.701 312.131C411.63 312.722 415.638 312.501 419.478 311.483C420.442 311.308 421.332 310.85 422.036 310.168C422.732 309.14 423.053 307.904 422.946 306.667L423.067 302.407C423.108 302.065 423.07 301.719 422.956 301.395C422.632 300.615 421.631 300.383 420.792 300.383C418.774 300.229 416.749 300.192 414.727 300.271C414.009 300.271 413.089 300.16 412.523 300.615C411.957 301.071 411.755 301.951 411.381 302.427C409.44 304.926 406.599 306.434 404.496 308.701Z" fill="#606161"/>
<path d="M424.725 308.751C424.55 308.899 424.408 309.081 424.307 309.287C424.206 309.492 424.149 309.717 424.138 309.945C424.187 310.277 424.356 310.58 424.613 310.795C425.523 311.543 426.643 311.989 427.818 312.07C431.612 312.637 435.482 312.424 439.191 311.443C440.124 311.271 440.985 310.827 441.668 310.168C442.337 309.175 442.648 307.982 442.547 306.788L442.668 302.67C442.698 302.352 442.66 302.031 442.557 301.729C442.244 300.97 441.283 300.788 440.475 300.717C438.524 300.573 436.566 300.536 434.611 300.605C433.924 300.605 433.034 300.514 432.489 300.949C431.943 301.385 431.74 302.235 431.377 302.7C429.496 305.068 426.757 306.535 424.725 308.751Z" fill="#606161"/>
<defs>
<linearGradient id="paint0_linear" x1="267.76" y1="-170.01" x2="252.8" y2="270.328" gradientUnits="userSpaceOnUse">
<stop stop-color="white" stop-opacity="0"/>
<stop offset="0.95" stop-color="white"/>
</linearGradient>
<linearGradient id="paint1_linear" x1="21052.1" y1="28635.2" x2="35925.8" y2="31553.6" gradientUnits="userSpaceOnUse">
<stop stop-color="#010101" stop-opacity="0"/>
<stop offset="0.95" stop-color="#010101"/>
</linearGradient>
<linearGradient id="paint2_linear" x1="369.284" y1="185.985" x2="377.807" y2="178.999" gradientUnits="userSpaceOnUse">
<stop stop-color="#E5C6D6"/>
<stop offset="0.42" stop-color="#EAD4D0"/>
<stop offset="1" stop-color="#F0E9CB"/>
</linearGradient>
<linearGradient id="paint3_linear" x1="1952" y1="1088.75" x2="2014.83" y2="2549" gradientUnits="userSpaceOnUse">
<stop stop-color="#010101" stop-opacity="0"/>
<stop offset="0.95" stop-color="#010101"/>
</linearGradient>
<linearGradient id="paint4_linear" x1="3619.72" y1="1358.26" x2="3682.56" y2="2818.63" gradientUnits="userSpaceOnUse">
<stop stop-color="#010101"/>
<stop offset="1" stop-color="white" stop-opacity="0"/>
</linearGradient>
<linearGradient id="paint5_linear" x1="3619.72" y1="1383.7" x2="3682.56" y2="2844.07" gradientUnits="userSpaceOnUse">
<stop stop-color="#010101"/>
<stop offset="1" stop-color="white" stop-opacity="0"/>
</linearGradient>
<linearGradient id="paint6_linear" x1="3619.72" y1="1409.13" x2="3682.56" y2="2869.5" gradientUnits="userSpaceOnUse">
<stop stop-color="#010101"/>
<stop offset="1" stop-color="white" stop-opacity="0"/>
</linearGradient>
<linearGradient id="paint7_linear" x1="1609.8" y1="1321.9" x2="1661" y2="2510.6" gradientUnits="userSpaceOnUse">
<stop stop-color="#010101"/>
<stop offset="1" stop-color="#010101" stop-opacity="0"/>
</linearGradient>
<linearGradient id="paint8_linear" x1="1609.8" y1="1338.9" x2="1661" y2="2527.6" gradientUnits="userSpaceOnUse">
<stop stop-color="#010101"/>
<stop offset="1" stop-color="#010101" stop-opacity="0"/>
</linearGradient>
<linearGradient id="paint9_linear" x1="1609.8" y1="1354.9" x2="1661" y2="2543.6" gradientUnits="userSpaceOnUse">
<stop stop-color="#010101"/>
<stop offset="1" stop-color="#010101" stop-opacity="0"/>
</linearGradient>
<linearGradient id="paint10_linear" x1="-2412.05" y1="-613.731" x2="-2447.8" y2="-601.036" gradientUnits="userSpaceOnUse">
<stop stop-color="#E5C6D6"/>
<stop offset="0.42" stop-color="#EAD4D0"/>
<stop offset="1" stop-color="#F0E9CB"/>
</linearGradient>
<linearGradient id="paint11_linear" x1="9685.5" y1="7271.78" x2="10112.7" y2="7235.35" gradientUnits="userSpaceOnUse">
<stop stop-color="#E5C6D6"/>
<stop offset="0.42" stop-color="#EAD4D0"/>
<stop offset="1" stop-color="#F0E9CB"/>
</linearGradient>
<linearGradient id="paint12_linear" x1="9099.95" y1="13893.2" x2="7611.03" y2="13207.7" gradientUnits="userSpaceOnUse">
<stop stop-color="#010101" stop-opacity="0"/>
<stop offset="0.95" stop-color="#010101"/>
</linearGradient>
</defs>
</svg>
