<svg xmlns="http://www.w3.org/2000/svg" xmlns:xlink="http://www.w3.org/1999/xlink" width="536" height="446.749" viewBox="0 0 536 446.749"><defs><linearGradient id="a" x1="0.889" y1="0.758" x2="0.48" y2="0.467" gradientUnits="objectBoundingBox"><stop offset="0.01"/><stop offset="0.83" stop-opacity="0.071"/><stop offset="1" stop-opacity="0"/></linearGradient><linearGradient id="b" x1="1.23" y1="0.426" x2="0.149" y2="0.547" xlink:href="#a"/><linearGradient id="c" x1="2.085" y1="-1.18" x2="0.354" y2="0.462" xlink:href="#a"/><linearGradient id="d" x1="1.046" y1="-0.506" x2="0.273" y2="0.725" xlink:href="#a"/><linearGradient id="e" x1="0.498" y1="-0.471" x2="0.502" y2="1.615" gradientUnits="objectBoundingBox"><stop offset="0.01"/><stop offset="0.12" stop-opacity="0.749"/><stop offset="1" stop-opacity="0"/></linearGradient><linearGradient id="f" x1="0.619" y1="-0.199" x2="0.371" y2="1.155" xlink:href="#e"/><linearGradient id="g" x1="0.518" y1="1.326" x2="0.484" y2="-0.132" xlink:href="#e"/><linearGradient id="h" x1="1.621" y1="0.936" x2="0.037" y2="0.32" xlink:href="#a"/><linearGradient id="i" x1="0.853" y1="1.462" x2="0.422" y2="0.406" xlink:href="#a"/><linearGradient id="j" x1="0.345" y1="-1.082" x2="0.613" y2="2.51" xlink:href="#a"/></defs><g transform="translate(0 -53.639)"><path d="M249,400.79S285.276,381.906,305.482,377c9.348-2.3,21.66-15.2,33.368-30.365,3.777-4.985,7.553-10.235,11.33-15.428,0,0,62.563-101.389,28.534-123.54,0,0-14.6-.321-22.661,4.022s-25.777,41.092-28.741,47.588-35.219,66.717-37.372,68.077-5.76,6.307-18.657,13.219c-15.787,8.5-40.6,33.387-40.6,33.387Z" transform="translate(-81.178 39.263)" fill="#293057"/><path d="M249,400.79S285.276,381.906,305.482,377c9.348-2.3,21.66-15.2,33.368-30.365,3.777-4.985,7.553-10.235,11.33-15.428,0,0,62.563-101.389,28.534-123.54,0,0-14.6-.321-22.661,4.022s-25.777,41.092-28.741,47.588-35.219,66.717-37.372,68.077-5.76,6.307-18.657,13.219c-15.787,8.5-40.6,33.387-40.6,33.387Z" transform="translate(-81.178 39.263)" fill="url(#a)"/><path d="M121.944,283.916q-2.228-29.572-3.059-55.255c4.759-2.512,10.462-5.457,15.107-7.553,14.144-6.742,33.878-15.825,46.53-21.622,7.4-3.4,14.654-5.892,14.654-5.892s50.59-4.853,54.764-4.589a128.915,128.915,0,0,1,15.919,5.439c17.921,6.817,52.517,20.659,58.012,24.549,8.082,5.779,36.975,147.3,37.768,157.021.755,9.329-39.3,22.113-76.367,31.914,0,14.352.321,34.463.642,52.875,0,3.135.113,6.213.17,9.2H123.813c.227-3.154.416-6.27.566-9.2v-1.171c.623-12.426,3.04-34.709,2.417-56.407,0,0,.4-22.85-1.888-32.707C124.569,326.953,121.944,283.916,121.944,283.916Zm205.742,83.26c-.245-18.431-24.795-52.743-24.795-52.743a11.988,11.988,0,0,0-1.152-.434s-1.265-.17-1.265-.151-3.777-3.607-3.777-3.607c-.888,3.267-9.027,49.59-11.028,76.556C308.556,382.264,327.818,375.957,327.686,367.176Z" transform="translate(163.175 22.683)" fill="#fff"/><path d="M121.944,283.916q-2.228-29.572-3.059-55.255c4.759-2.512,10.462-5.457,15.107-7.553,14.144-6.742,33.878-15.825,46.53-21.622,7.4-3.4,14.654-5.892,14.654-5.892s50.59-4.853,54.764-4.589a128.915,128.915,0,0,1,15.919,5.439c17.921,6.817,52.517,20.659,58.012,24.549,8.082,5.779,36.975,147.3,37.768,157.021.755,9.329-39.3,22.113-76.367,31.914,0,14.352.321,34.463.642,52.875,0,3.135.113,6.213.17,9.2H123.813c.227-3.154.416-6.27.566-9.2v-1.171c.623-12.426,3.04-34.709,2.417-56.407,0,0,.4-22.85-1.888-32.707C124.569,326.953,121.944,283.916,121.944,283.916Zm205.742,83.26c-.245-18.431-24.795-52.743-24.795-52.743a11.988,11.988,0,0,0-1.152-.434s-1.265-.17-1.265-.151-3.777-3.607-3.777-3.607c-.888,3.267-9.027,49.59-11.028,76.556C308.556,382.264,327.818,375.957,327.686,367.176Z" transform="translate(163.175 22.683)" fill="url(#b)"/><path d="M212.8,457.149c1.058-7.686,2.077-15.372,2.984-22.887v-.094c.283-2.511.585-4.985.869-7.44v-.4c1.19-10.349,2.172-20.281,2.889-29.365a94.118,94.118,0,0,0-.906-20.432c-2.833-46.493-4.23-95.516-4.23-95.516-1.492-20.055-2.342-38.826-2.908-56.293,0,0,63.507-30.026,69.267-31.744,0,0-12.048,28.326-21.075,91.531-3.475,24.285-9.9,65.15-14.579,106.884h0c-2.53,22.51-7.27,45.454-10.858,65.754-.567,3.135-1.076,6.194-1.568,9.2H211.42C211.93,463.286,212.364,460.208,212.8,457.149Z" transform="translate(66.16 26.224)" fill="#293057"/><path d="M159.831,384.835c-2.493-23.511-4.759-46.965-3.663-59.825,8.762-103.352,33.538-130.7,37.126-134.7,2.795,1.057,13.37,5.023,16.467,6.251,17,6.685,51.5,18.884,56.161,22.283,8.064,5.778,39.9,154.245,40.865,163.838.642,6.5-40.9,20.055-83.3,32.1.4,11.633-.7,28.024,3.154,45.133a39.266,39.266,0,0,1,1.888,8.97l-59.088-.227c-.359-3.059-.737-6.118-1.1-9.2-1.133-9.234-2.3-18.7-3.475-28.76-17.713,4.589-29.761,7.554-29.761,7.554s-16.656-28.137-21.49-39.543C112.753,396.826,134.186,391.784,159.831,384.835Zm83.2-34.369a96.853,96.853,0,0,0-6.326-37.126c-2.1,7.251-5,27.967-7.554,48.551C237.747,357.566,242.921,354.733,243.034,350.466Z" transform="translate(229.078 23.852)" fill="#293057"/><path d="M233.564,212.575s-6.44-12.161-4.664-46.681c.491-9.555-50.213,22.661-50.213,22.661s.17,3.3.283,7.742c0,1.888.094,3.89.094,5.967V206.8c0,.925,0,2.3-.113,3.4s-.151,2.417-.264,3.494a32.754,32.754,0,0,1-1.888,6.779C174.457,225.85,214.566,226.209,233.564,212.575Z" transform="translate(181.033 -7.671)" fill="#e4aa8b"/><path d="M205.93,201.4l-7.006,9.442c-1.662,2.228-2.814,3.626-2.644,6.609a13.218,13.218,0,0,0,4.136,8.8,2.87,2.87,0,0,0,2.436.982,3.154,3.154,0,0,0,1.4-.982,32.3,32.3,0,0,0,6.893-8.611c1-2.191-.246-3.966-1.114-6.118Z" transform="translate(165.631 26.953)" fill="#18202d"/><path d="M231.636,209.115c-3.059,2.021-4.438,10.386-6.062,13.785-3.777,7.969-8.46,15.5-11.689,23.756-4.1,10.481-5.665,21.736-7.063,32.9q-3.286,27.571-4.268,55.33c-.491,13.729-.548,27.514-2.625,41.092-1.3,8.536-3.361,17.487-.264,25.531,2.36,6.137,7.4,10.783,12.407,15.107,3.928-3.456,7.988-7.119,9.933-11.973a33.011,33.011,0,0,0,1.888-8.781l4.079-36.05c1.492-13.332,3-26.645,4.155-40.015.831-9.442,1.473-18.884,1.454-28.326,0-8.233-.548-16.467.245-24.663.831-8.668,3.154-17.147,4.249-25.8,1-7.856,4.457-24.455-1.983-30.819C234.224,208.491,232.807,208.321,231.636,209.115Z" transform="translate(133.43 40.153)" fill="#18202d"/><path d="M187.993,196.881,198,208.589s16.07-3.116,20.772-11.5S187.993,196.881,187.993,196.881Z" transform="translate(173.789 19.168)" fill="#e4aa8b"/><path d="M206.868,189.78s1.152,8.913,12.293,21.943L199.22,234.384l1.209-40.129Z" transform="translate(152.184 16.313)" fill="#fff"/><path d="M215.058,184.09s-23.228,26.268-39.468,32.688l11.557,26.834,33.066-49.1Z" transform="translate(196.695 11.192)" fill="#fff"/><path d="M206.868,189.78s1.152,8.913,12.293,21.943L199.22,234.384l1.209-40.129Z" transform="translate(152.184 16.313)" fill="url(#c)"/><path d="M215.058,184.09s-23.228,26.268-39.468,32.688l11.557,26.834,33.066-49.1Z" transform="translate(196.695 11.192)" fill="url(#d)"/><path d="M223.659,352.77a19.858,19.858,0,0,0,6.156-1.152s3.21-2.077,5.665-3.4a18.075,18.075,0,0,1,1.888-.963,35.216,35.216,0,0,0,10.348-4.929C251.778,339.249,265,326.88,265,326.88l-8.554-13.219-3.928-13.011s-30.819,3.078-34.935,5.514a12.748,12.748,0,0,0-1.114.755c-3.286,2.4-4.721,5.665-6.288,7.025-.585.548-5.948,6.288-5.665,8.611a7.667,7.667,0,0,0,4.022,6.307s1.076,6.288,4.343,9.1a11.331,11.331,0,0,0,5.854,8.2S220.166,352.071,223.659,352.77Z" transform="translate(95.518 121.879)" fill="#e5ab8c"/><path d="M220.2,118.389s-55.689-13.408-43.962,57.086,25.1,76.216,59.013,62.166,31.555-59.145,33.576-81.2S237.967,119.428,220.2,118.389Z" transform="translate(149.236 -51.079)" fill="#e4a98a"/><path d="M178.132,146.269c.831-6.194,13.125-8.29,13.974,1.02s-5.949,25.55-10.575,23.869S177,154.8,178.132,146.269Z" transform="translate(221.416 -29.912)" fill="#e4a98a"/><path d="M164.76,309.557l23,39.543s60.9-15.712,75.121-19.715L230.326,290.73S182.492,301.664,164.76,309.557Z" transform="translate(174.394 113.066)" fill="#293057"/><path d="M183.65,200.781h0a53.291,53.291,0,0,0,41.545-26.041,61.732,61.732,0,0,1-41.281,18.11v4.532C183.914,198.307,183.707,199.78,183.65,200.781Z" transform="translate(176.097 1.852)" fill="#a07a64"/><rect width="316.799" height="29.214" rx="7.73" transform="translate(83.331 470.985)" fill="#2a3881"/><rect width="316.799" height="29.214" rx="7.73" transform="translate(83.331 470.985)" fill="url(#e)"/><path d="M516.3,391.658l-4.816,15.5L307.124,419.588,248.9,271.952a12.973,12.973,0,0,1,12.067-17.732h173.2a41.828,41.828,0,0,1,38.882,26.438Z" transform="translate(-248 80.63)" fill="#354ed1"/><path d="M516.3,391.658l-4.816,15.5L307.124,419.588,248.9,271.952a12.973,12.973,0,0,1,12.067-17.732h173.2a41.828,41.828,0,0,1,38.882,26.438Z" transform="translate(-248 80.63)" fill="url(#f)"/><path d="M513.6,415.778H303.988L248.7,275.545A12.331,12.331,0,0,1,260.158,258.7h164.5a39.656,39.656,0,0,1,36.918,25.116Z" transform="translate(-244.996 84.61)" fill="#243074"/><path d="M513.6,415.778H303.988L248.7,275.545A12.331,12.331,0,0,1,260.158,258.7h164.5a39.656,39.656,0,0,1,36.918,25.116Z" transform="translate(-244.996 84.61)" fill="url(#g)"/><path d="M251.212,181.072c1.473-3.777,3.361-7.856,7.157-9.14,4.967-1.662,10.348,3.286,10.594,8.536s-3.248,10.027-7.44,13.219a159.241,159.241,0,0,0,9.442,24.549,151.937,151.937,0,0,0,7.233-45.322c1.888-.548,2.889-2.776,3.3-4.759,2.644-12.558-3.89-25.116-11.009-35.88a46.02,46.02,0,0,0-10.991-12.52c-9.839-6.987-22.925-6.118-34.936-7.195-9.9-.888-20.225-3.229-29.44.453a31.027,31.027,0,0,0-15.107,14.541,71.2,71.2,0,0,0-6.477,20.357,76.633,76.633,0,0,0-1.756,21.641,34.275,34.275,0,0,0,8.026,19.866c1.322,1.454,4.759,3.172,6.345,2.021a72.254,72.254,0,0,1-2.134-18.771c.189-5.439.227-8.706,3.777-12.8a8.516,8.516,0,0,1,5.779-3.286c2.172,0,4.211,1.19,6.364,1.265,3.909.17,6.893-3.248,10.311-5.155a15.5,15.5,0,0,1,13.861-.34,18.355,18.355,0,0,1,9.442,10.462c.982,2.738,1.888,6.232,4.759,6.855,3.777.793,6.572-4.683,9.839-2.512C251.061,169.175,250.91,178.013,251.212,181.072Z" transform="translate(141.598 -57.369)" fill="#18202d"/><path d="M187.773,339.414,144.34,353.653s14.163-85.658,17.694-89.208,45.322-48.834,45.322-48.834-21.868,44.321-11.991,75.253" transform="translate(270.065 42.826)" fill="url(#h)"/><path d="M123.911,394.525l-10.311-19s158.815-48.305,160.93-51.5-2.644-84.431-2.644-84.431l23.756,99.292S245.656,367.842,123.911,394.525Z" transform="translate(240.357 67.641)" fill="url(#i)"/><path d="M155.07,321.107v41.96l43.679.245s-6.119-29.893-4.985-54.1Z" transform="translate(258.03 129.483)" fill="url(#j)"/></g></svg>