<svg xmlns="http://www.w3.org/2000/svg" xmlns:xlink="http://www.w3.org/1999/xlink" width="331.863" height="363.166" viewBox="0 0 331.863 363.166"><defs><filter id="a" x="3.858" y="0.256" width="322.11" height="327.632" filterUnits="userSpaceOnUse"><feOffset dy="3" input="SourceAlpha"/><feGaussianBlur stdDeviation="3" result="b"/><feFlood flood-color="#080f36" flood-opacity="0.651"/><feComposite operator="in" in2="b"/><feComposite in="SourceGraphic"/></filter><filter id="c" x="6.151" y="282.019" width="81.147" height="81.147" filterUnits="userSpaceOnUse"><feOffset dy="3" input="SourceAlpha"/><feGaussianBlur stdDeviation="3" result="d"/><feFlood flood-color="#080f36" flood-opacity="0.502"/><feComposite operator="in" in2="d"/><feComposite in="SourceGraphic"/></filter><filter id="e" x="4.912" y="0" width="225.655" height="333.877" filterUnits="userSpaceOnUse"><feOffset dy="3" input="SourceAlpha"/><feGaussianBlur stdDeviation="3" result="f"/><feFlood flood-color="#080f36" flood-opacity="0.651"/><feComposite operator="in" in2="f"/><feComposite in="SourceGraphic"/></filter><filter id="g" x="118.796" y="282.019" width="81.147" height="81.147" filterUnits="userSpaceOnUse"><feOffset dy="3" input="SourceAlpha"/><feGaussianBlur stdDeviation="3" result="h"/><feFlood flood-color="#080f36" flood-opacity="0.502"/><feComposite operator="in" in2="h"/><feComposite in="SourceGraphic"/></filter><filter id="i" x="0" y="3.94" width="313.648" height="323.428" filterUnits="userSpaceOnUse"><feOffset dy="3" input="SourceAlpha"/><feGaussianBlur stdDeviation="3" result="j"/><feFlood flood-color="#080f36" flood-opacity="0.651"/><feComposite operator="in" in2="j"/><feComposite in="SourceGraphic"/></filter><filter id="k" x="250.716" y="281.005" width="81.147" height="81.147" filterUnits="userSpaceOnUse"><feOffset dy="3" input="SourceAlpha"/><feGaussianBlur stdDeviation="3" result="l"/><feFlood flood-color="#080f36" flood-opacity="0.502"/><feComposite operator="in" in2="l"/><feComposite in="SourceGraphic"/></filter></defs><g transform="translate(15.151 27.084)"><g transform="matrix(1, 0, 0, 1, -15.15, -27.08)" filter="url(#a)"><path d="M264.7,0C221.615,63.713,70.22,124.4,24.424,167.925c-54.829,52.106-12.2,99.7-12.2,99.7" transform="translate(31.44 27.08)" fill="none" stroke="#fff" stroke-linecap="round" stroke-width="30"/></g><g transform="translate(0 260.935)"><g transform="matrix(1, 0, 0, 1, -15.15, -288.02)" filter="url(#c)"><circle cx="31.573" cy="31.573" r="31.573" transform="translate(15.15 288.02)" fill="#fff"/></g></g><g transform="translate(13.758)"><g transform="matrix(1, 0, 0, 1, -28.91, -27.08)" filter="url(#e)"><path d="M143.239,0C83.16,48.1-19.462,67.377-27.959,136.528c-8.48,69.012,131.65,109.289,137.21,140.074-.03-.124-.015-.062,0,0" transform="translate(57.24 27.08)" fill="none" stroke="#fff" stroke-linecap="round" stroke-linejoin="round" stroke-width="30"/></g><g transform="translate(98.887 260.935)"><g transform="matrix(1, 0, 0, 1, -127.8, -288.02)" filter="url(#g)"><circle cx="31.573" cy="31.573" r="31.573" transform="translate(127.8 288.02)" fill="#fff"/></g></g></g><g transform="translate(8.874 4.06)"><g transform="matrix(1, 0, 0, 1, -24.03, -31.14)" filter="url(#i)"><path d="M12.775,10.866C-52.875,72.721-1.937,117.524,71.354,155.552c29.289,16.772,143.417,74.436,171.082,118.877" transform="translate(41.55 20.28)" fill="none" stroke="#fff" stroke-linecap="round" stroke-width="30"/></g><g transform="translate(235.691 255.861)"><g transform="matrix(1, 0, 0, 1, -259.72, -287.01)" filter="url(#k)"><circle cx="31.573" cy="31.573" r="31.573" transform="translate(259.72 287.01)" fill="#fff"/></g></g></g></g></svg>