<svg width="549" height="299" viewBox="0 0 549 299" fill="none" xmlns="http://www.w3.org/2000/svg">
<g clip-path="url(#clip0)">
<path opacity="0.3" d="M527.31 258.45C525.64 260.18 523.92 261.84 522.09 263.45C520.053 265.228 517.923 266.897 515.71 268.45C495.97 282.79 471.32 289.45 447.12 293.22C409.49 299.04 371.23 298.66 333.19 298.29C244.83 297.41 156.467 296.41 68.1 295.29C45.21 294.94 18.1 292.21 6.38999 272.87C6.14027 272.495 5.90997 272.108 5.69999 271.71C-17.2 230.53 34.68 194.51 56.21 169.15C70.21 152.74 70.99 129.35 75.21 108.23C81.09 78.99 95.39 50.76 118.66 32.09C141.93 13.42 174.66 5.62 202.66 15.93C222.15 23.1 238.66 38.38 259.25 41.36C271.63 43.16 284.11 40.23 296.44 38.03C350.95 28.22 414.01 35.03 450.31 76.85C463.67 92.23 472.38 111.18 485.96 126.3C501.81 143.91 524.28 156.61 537.64 175.3C540.989 179.88 543.682 184.905 545.64 190.23C554.09 213.62 544.69 240.4 527.31 258.45Z" fill="#68E1FD"/>
<path d="M372.97 126.28L251.71 40.72L351.73 0L398.64 108.87L372.97 126.28Z" fill="url(#paint0_linear)"/>
<path d="M381.52 201.62L240.81 244.48L222.5 175.84L375.33 165.81L381.52 201.62Z" fill="url(#paint1_linear)"/>
<path d="M527.31 258.45L468.24 205.15L469.15 174.06L537.65 175.29C540.999 179.87 543.692 184.895 545.65 190.22C554.09 213.62 544.69 240.4 527.31 258.45Z" fill="url(#paint2_linear)"/>
<path opacity="0.43" d="M515.71 268.41C495.97 282.75 471.32 289.41 447.12 293.18C409.49 299 371.23 298.62 333.19 298.25C244.83 297.37 156.467 296.37 68.1 295.25C45.21 294.9 18.1 292.17 6.39001 272.83H6.61001C18.18 271.17 29.81 270.32 41.44 269.53C192.764 259.035 344.568 257.325 496.09 264.41C502.8 264.67 510.05 265.3 515.71 268.41Z" fill="#98C673"/>
<path opacity="0.45" d="M35.47 277.15C36.57 280.85 41.27 281.84 45.12 282.15C68.76 284.05 92.4533 284.917 116.2 284.75C122.42 284.7 128.78 284.56 134.58 282.33C138.48 280.83 142 278.43 145.99 277.2C149.98 275.97 154.45 275.98 158.73 276.04L273.73 277.52C276.71 277.436 279.69 277.721 282.6 278.37C286.35 279.37 289.67 281.52 293.22 283.07C302.29 287.07 312.58 286.97 322.45 286.25C338.606 285.094 354.617 282.415 370.27 278.25C358.684 276.288 347 274.953 335.27 274.25C268.52 269.33 201.52 269.25 134.59 269.15C116.59 269.15 98.49 269.15 80.59 271.4C65.22 273.29 50.46 271.77 35.47 277.15Z" fill="#98C673"/>
<path d="M172.6 189.03L167.67 200.71H171.85L176.78 189.35L172.6 189.03Z" fill="#ABABAB"/>
<path d="M243.98 188.86L239.05 200.55H243.23L248.16 189.19L243.98 188.86Z" fill="#ABABAB"/>
<path d="M296.03 189.07C291.679 193.476 286.876 197.411 281.7 200.81C279.7 202.11 277.53 203.55 276.94 205.81C276.664 207.435 276.876 209.106 277.55 210.61C280.75 219.49 286.82 227.02 291.17 235.4C291.313 235.619 291.383 235.878 291.37 236.14C291.276 236.438 291.073 236.688 290.8 236.84L287.93 238.96C280.6 233.41 274.93 226.01 269.5 218.56C265.78 213.42 262.01 207.82 261.71 201.48C261.546 199.84 261.789 198.185 262.419 196.662C263.049 195.139 264.045 193.795 265.32 192.75C267.053 191.181 269.097 189.995 271.32 189.27C274.77 188.15 278.48 188.19 282.11 188.27C286.11 188.33 290.54 188.6 293.22 191.54" fill="#606161"/>
<path d="M296.03 189.07C291.679 193.476 286.876 197.411 281.7 200.81C279.7 202.11 277.53 203.55 276.94 205.81C276.664 207.435 276.876 209.106 277.55 210.61C280.75 219.49 286.82 227.02 291.17 235.4C291.313 235.619 291.383 235.878 291.37 236.14C291.276 236.438 291.073 236.688 290.8 236.84L287.93 238.96C280.6 233.41 274.93 226.01 269.5 218.56C265.78 213.42 262.01 207.82 261.71 201.48C261.546 199.84 261.789 198.185 262.419 196.662C263.049 195.139 264.045 193.795 265.32 192.75C267.053 191.181 269.097 189.995 271.32 189.27C274.77 188.15 278.48 188.19 282.11 188.27C286.11 188.33 290.54 188.6 293.22 191.54" fill="url(#paint3_linear)"/>
<path d="M288.45 242.72C288.584 243.29 288.615 243.879 288.54 244.46C288.394 245.062 288.144 245.634 287.8 246.15C286.929 247.668 286.173 249.249 285.54 250.88C285.332 251.277 285.282 251.738 285.4 252.17C285.68 252.85 286.62 252.91 287.35 252.79C289.491 252.447 291.502 251.543 293.18 250.17C293.509 249.935 293.779 249.627 293.97 249.27C294.119 248.912 294.194 248.528 294.19 248.14C294.3 244.816 293.238 241.56 291.19 238.94C290.999 238.651 290.733 238.419 290.42 238.27C289.61 237.95 288.42 238.78 288.11 239.54C287.8 240.3 288.29 241.81 288.45 242.72Z" fill="#606161"/>
<path d="M289.44 256.05C289.44 256.05 282.26 247.25 281.56 247.33C280.86 247.41 279.95 248.68 279.95 248.68L288.12 256.37L289.44 256.05Z" fill="#606161"/>
<path d="M287.36 254.43L288.73 258.53L296.52 254.91L295.4 251.21L287.36 254.43Z" fill="#888888"/>
<path d="M287.36 254.43L288.73 258.53L296.52 254.91L295.4 251.21L287.36 254.43Z" fill="url(#paint4_linear)"/>
<path d="M213.99 254.77C213.99 254.77 206.81 245.97 206.11 246.05C205.41 246.13 204.5 247.39 204.5 247.39L212.66 255.08L213.99 254.77Z" fill="#606161"/>
<path d="M211.91 253.14L213.28 257.24L221.07 253.63L219.95 249.93L211.91 253.14Z" fill="#888888"/>
<path d="M211.91 253.14L213.28 257.24L221.07 253.63L219.95 249.93L211.91 253.14Z" fill="url(#paint5_linear)"/>
<path d="M148.88 255.57C148.88 255.57 141.7 246.77 141 246.85C140.3 246.93 139.39 248.2 139.39 248.2L147.55 255.89L148.88 255.57Z" fill="#606161"/>
<path d="M223.68 189.07C219.333 193.48 214.529 197.416 209.35 200.81C207.35 202.11 205.18 203.55 204.59 205.81C204.312 207.436 204.528 209.108 205.21 210.61C208.41 219.49 214.48 227.02 218.83 235.4C218.975 235.618 219.042 235.879 219.02 236.14C218.927 236.435 218.727 236.685 218.46 236.84L215.59 238.96C208.25 233.41 202.59 226.01 197.16 218.56C193.43 213.42 189.67 207.82 189.36 201.48C189.197 199.839 189.442 198.184 190.074 196.66C190.705 195.137 191.704 193.794 192.98 192.75C194.71 191.177 196.755 189.99 198.98 189.27C202.43 188.15 206.13 188.19 209.76 188.27C213.76 188.33 218.2 188.6 220.87 191.54" fill="#606161"/>
<path d="M223.68 189.07C219.333 193.48 214.529 197.416 209.35 200.81C207.35 202.11 205.18 203.55 204.59 205.81C204.312 207.436 204.528 209.108 205.21 210.61C208.41 219.49 214.48 227.02 218.83 235.4C218.975 235.618 219.042 235.879 219.02 236.14C218.927 236.435 218.727 236.685 218.46 236.84L215.59 238.96C208.25 233.41 202.59 226.01 197.16 218.56C193.43 213.42 189.67 207.82 189.36 201.48C189.197 199.839 189.442 198.184 190.074 196.66C190.705 195.137 191.704 193.794 192.98 192.75C194.71 191.177 196.755 189.99 198.98 189.27C202.43 188.15 206.13 188.19 209.76 188.27C213.76 188.33 218.2 188.6 220.87 191.54" fill="url(#paint6_linear)"/>
<path d="M216.43 241.65C216.564 242.22 216.595 242.809 216.52 243.39C216.369 243.976 216.122 244.534 215.79 245.04C214.917 246.557 214.161 248.138 213.53 249.77C213.32 250.162 213.266 250.62 213.38 251.05C213.67 251.74 214.61 251.8 215.38 251.68C217.521 251.337 219.532 250.433 221.21 249.06C221.539 248.825 221.809 248.517 222 248.16C222.15 247.803 222.222 247.417 222.21 247.03C222.321 243.706 221.259 240.45 219.21 237.83C219.014 237.539 218.745 237.304 218.43 237.15C217.62 236.83 216.43 237.67 216.13 238.43C215.83 239.19 216.27 240.74 216.43 241.65Z" fill="#606161"/>
<path d="M156.52 194.91L154.63 200.29C154.63 200.29 156.04 201.5 156.88 201.02C157.72 200.54 159.88 195.02 159.88 195.02L156.52 194.91Z" fill="#5C5C5C"/>
<path d="M152.01 191.44C151.21 191.77 150.32 192.25 150.16 193.1C150.124 193.467 150.189 193.836 150.35 194.168C150.511 194.5 150.76 194.781 151.07 194.98C152.53 196.1 154.55 195.98 156.39 195.85C157.8 195.77 159.21 195.77 160.62 195.85C161.668 195.95 162.722 195.95 163.77 195.85C164.823 195.732 165.8 195.247 166.53 194.48C166.984 193.924 167.254 193.24 167.304 192.524C167.354 191.808 167.182 191.094 166.81 190.48C165.87 188.98 163.9 188.57 162.25 188.78C160.015 189.069 157.81 189.554 155.66 190.23C154.43 190.51 153.21 190.95 152.01 191.44Z" fill="#606161"/>
<path d="M152.01 191.44C151.21 191.77 150.32 192.25 150.16 193.1C150.124 193.467 150.189 193.836 150.35 194.168C150.511 194.5 150.76 194.781 151.07 194.98C152.53 196.1 154.55 195.98 156.39 195.85C157.8 195.77 159.21 195.77 160.62 195.85C161.668 195.95 162.722 195.95 163.77 195.85C164.823 195.732 165.8 195.247 166.53 194.48C166.984 193.924 167.254 193.24 167.304 192.524C167.354 191.808 167.182 191.094 166.81 190.48C165.87 188.98 163.9 188.57 162.25 188.78C160.015 189.069 157.81 189.554 155.66 190.23C154.43 190.51 153.21 190.95 152.01 191.44Z" fill="url(#paint7_linear)"/>
<path d="M217.61 194.91L215.72 200.29C215.72 200.29 217.13 201.5 217.98 201.02C218.83 200.54 220.98 195.02 220.98 195.02L217.61 194.91Z" fill="#5C5C5C"/>
<path d="M213.1 191.44C212.3 191.77 211.41 192.25 211.25 193.1C211.214 193.467 211.28 193.836 211.44 194.168C211.601 194.5 211.85 194.781 212.16 194.98C213.62 196.1 215.64 195.98 217.48 195.85C218.89 195.77 220.3 195.77 221.71 195.85C222.758 195.95 223.812 195.95 224.86 195.85C225.913 195.732 226.89 195.247 227.62 194.48C228.074 193.924 228.344 193.24 228.394 192.524C228.444 191.808 228.272 191.094 227.9 190.48C226.96 188.98 224.99 188.57 223.35 188.78C221.131 189.045 218.939 189.503 216.8 190.15C215.52 190.51 214.3 190.95 213.1 191.44Z" fill="#606161"/>
<path d="M213.1 191.44C212.3 191.77 211.41 192.25 211.25 193.1C211.214 193.467 211.28 193.836 211.44 194.168C211.601 194.5 211.85 194.781 212.16 194.98C213.62 196.1 215.64 195.98 217.48 195.85C218.89 195.77 220.3 195.77 221.71 195.85C222.758 195.95 223.812 195.95 224.86 195.85C225.913 195.732 226.89 195.247 227.62 194.48C228.074 193.924 228.344 193.24 228.394 192.524C228.444 191.808 228.272 191.094 227.9 190.48C226.96 188.98 224.99 188.57 223.35 188.78C221.131 189.045 218.939 189.503 216.8 190.15C215.52 190.51 214.3 190.95 213.1 191.44Z" fill="url(#paint8_linear)"/>
<path d="M292.85 194.91L290.96 200.29C290.96 200.29 292.37 201.5 293.21 201.02C294.05 200.54 296.21 195.02 296.21 195.02L292.85 194.91Z" fill="#5C5C5C"/>
<path d="M288.34 191.44C287.54 191.77 286.65 192.25 286.49 193.1C286.453 193.466 286.517 193.835 286.676 194.166C286.835 194.498 287.082 194.78 287.39 194.98C288.86 196.1 290.88 195.98 292.72 195.85C294.13 195.77 295.54 195.77 296.95 195.85C297.998 195.95 299.052 195.95 300.1 195.85C301.153 195.732 302.13 195.247 302.86 194.48C303.314 193.924 303.584 193.24 303.634 192.524C303.684 191.808 303.512 191.094 303.14 190.48C302.2 188.98 300.23 188.57 298.58 188.78C296.345 189.069 294.14 189.554 291.99 190.23C290.8 190.51 289.54 190.95 288.34 191.44Z" fill="#606161"/>
<path d="M288.34 191.44C287.54 191.77 286.65 192.25 286.49 193.1C286.453 193.466 286.517 193.835 286.676 194.166C286.835 194.498 287.082 194.78 287.39 194.98C288.86 196.1 290.88 195.98 292.72 195.85C294.13 195.77 295.54 195.77 296.95 195.85C297.998 195.95 299.052 195.95 300.1 195.85C301.153 195.732 302.13 195.247 302.86 194.48C303.314 193.924 303.584 193.24 303.634 192.524C303.684 191.808 303.512 191.094 303.14 190.48C302.2 188.98 300.23 188.57 298.58 188.78C296.345 189.069 294.14 189.554 291.99 190.23C290.8 190.51 289.54 190.95 288.34 191.44Z" fill="url(#paint9_linear)"/>
<path d="M85.04 277.64C78.5675 277.634 72.242 275.709 66.8633 272.109C61.4847 268.508 57.2942 263.394 54.8219 257.412C52.3495 251.43 51.7062 244.85 52.9733 238.503C54.2404 232.155 57.361 226.326 61.9406 221.752C66.5201 217.178 72.353 214.065 78.7019 212.805C85.0507 211.546 91.6304 212.198 97.6091 214.677C103.588 217.157 108.697 221.353 112.291 226.737C115.885 232.12 117.802 238.447 117.8 244.92C117.789 253.602 114.333 261.924 108.191 268.059C102.048 274.194 93.7216 277.64 85.04 277.64ZM85.04 216.76C79.4701 216.758 74.0246 218.408 69.3924 221.501C64.7602 224.594 61.1493 228.991 59.0164 234.137C56.8835 239.282 56.3244 244.944 57.4099 250.408C58.4953 255.871 61.1765 260.889 65.1143 264.829C69.0522 268.768 74.0698 271.451 79.5326 272.538C84.9954 273.626 90.6579 273.068 95.8041 270.937C100.95 268.806 105.349 265.197 108.443 260.566C111.538 255.935 113.19 250.49 113.19 244.92C113.179 237.456 110.211 230.302 104.934 225.023C99.6574 219.745 92.5035 216.773 85.04 216.76Z" fill="#606161"/>
<path d="M322.32 277.64C315.846 277.64 309.518 275.72 304.135 272.123C298.752 268.526 294.557 263.414 292.08 257.433C289.603 251.452 288.956 244.87 290.22 238.521C291.483 232.172 294.602 226.34 299.18 221.763C303.758 217.186 309.591 214.069 315.941 212.808C322.29 211.546 328.872 212.196 334.852 214.674C340.833 217.153 345.944 221.35 349.539 226.733C353.134 232.117 355.052 238.446 355.05 244.92C355.039 253.596 351.587 261.914 345.451 268.048C339.315 274.183 330.996 277.632 322.32 277.64ZM322.32 216.76C316.75 216.76 311.306 218.412 306.675 221.506C302.044 224.6 298.435 228.998 296.304 234.144C294.172 239.289 293.615 244.951 294.701 250.414C295.788 255.876 298.47 260.894 302.408 264.832C306.346 268.77 311.364 271.452 316.826 272.539C322.289 273.625 327.951 273.068 333.096 270.936C338.242 268.805 342.64 265.196 345.734 260.565C348.828 255.934 350.48 250.49 350.48 244.92C350.472 237.454 347.503 230.296 342.223 225.017C336.944 219.737 329.786 216.768 322.32 216.76Z" fill="#606161"/>
<path d="M85.04 277.64C78.5675 277.634 72.242 275.709 66.8633 272.109C61.4847 268.508 57.2942 263.394 54.8219 257.412C52.3495 251.43 51.7062 244.85 52.9733 238.503C54.2404 232.155 57.361 226.326 61.9406 221.752C66.5201 217.178 72.353 214.065 78.7019 212.805C85.0507 211.546 91.6304 212.198 97.6091 214.677C103.588 217.157 108.697 221.353 112.291 226.737C115.885 232.12 117.802 238.447 117.8 244.92C117.789 253.602 114.333 261.924 108.191 268.059C102.048 274.194 93.7216 277.64 85.04 277.64ZM85.04 216.76C79.4701 216.758 74.0246 218.408 69.3924 221.501C64.7602 224.594 61.1493 228.991 59.0164 234.137C56.8835 239.282 56.3244 244.944 57.4099 250.408C58.4953 255.871 61.1765 260.889 65.1143 264.829C69.0522 268.768 74.0698 271.451 79.5326 272.538C84.9954 273.626 90.6579 273.068 95.8041 270.937C100.95 268.806 105.349 265.197 108.443 260.566C111.538 255.935 113.19 250.49 113.19 244.92C113.179 237.456 110.211 230.302 104.934 225.023C99.6574 219.745 92.5035 216.773 85.04 216.76Z" fill="url(#paint10_linear)"/>
<path d="M322.32 277.64C315.846 277.64 309.518 275.72 304.135 272.123C298.752 268.526 294.557 263.414 292.08 257.433C289.603 251.452 288.956 244.87 290.22 238.521C291.483 232.172 294.602 226.34 299.18 221.763C303.758 217.186 309.591 214.069 315.941 212.808C322.29 211.546 328.872 212.196 334.852 214.674C340.833 217.153 345.944 221.35 349.539 226.733C353.134 232.117 355.052 238.446 355.05 244.92C355.039 253.596 351.587 261.914 345.451 268.048C339.315 274.183 330.996 277.632 322.32 277.64ZM322.32 216.76C316.75 216.76 311.306 218.412 306.675 221.506C302.044 224.6 298.435 228.998 296.304 234.144C294.172 239.289 293.615 244.951 294.701 250.414C295.788 255.876 298.47 260.894 302.408 264.832C306.346 268.77 311.364 271.452 316.826 272.539C322.289 273.625 327.951 273.068 333.096 270.936C338.242 268.805 342.64 265.196 345.734 260.565C348.828 255.934 350.48 250.49 350.48 244.92C350.472 237.454 347.503 230.296 342.223 225.017C336.944 219.737 329.786 216.768 322.32 216.76Z" fill="url(#paint11_linear)"/>
<path d="M122.36 158.15C118.56 161.96 113.01 163.25 108.12 165.49C106.21 166.37 104.24 167.56 103.45 169.49C103.11 170.452 102.964 171.471 103.02 172.49C102.95 172.748 102.945 173.02 103.007 173.281C103.069 173.541 103.195 173.782 103.374 173.981C103.554 174.18 103.78 174.331 104.032 174.42C104.285 174.509 104.556 174.533 104.82 174.49C110.108 174.558 115.375 173.803 120.43 172.25C125.98 170.55 131.43 167.71 134.77 162.95C135.501 161.962 136.04 160.846 136.36 159.66C136.595 158.431 136.656 157.176 136.54 155.93C136.527 153.454 136.245 150.986 135.7 148.57C135.22 146.78 134.21 143.9 132.52 142.88C130.83 141.86 129.43 145.64 128.79 146.88C126.88 150.81 125.45 155.05 122.36 158.15Z" fill="#B21F66"/>
<path d="M141.42 132.26C141.42 132.26 141.51 136.09 141.42 138.89C141.42 140.98 140.67 144.99 136.22 144.99C131.77 144.99 131.22 139.88 131.33 138.89C131.212 137.409 131.212 135.921 131.33 134.44C131.67 132 141.18 130.56 141.42 132.26Z" fill="#F0CAC5"/>
<path d="M141.49 138.54C141.809 138.409 142.165 138.402 142.489 138.52C142.813 138.638 143.081 138.874 143.24 139.18C143.91 140.3 143.95 142.54 143.24 145.6C143.03 146.947 142.587 148.246 141.93 149.44C141.93 149.44 139.02 145.32 136.93 145.15C136.97 145.15 141.01 144.36 141.49 138.54Z" fill="#F1FCFF"/>
<path d="M127.98 118.75C127.98 118.75 129.09 122.16 128.06 123.75C124.24 129.75 126.42 129.13 127.84 129.26C128.02 129.26 127.77 130.42 128.28 132.62C128.69 134.36 127.47 138.31 132.82 136.62C134.35 136.15 141.77 134.06 142.3 129.46C142.96 123.71 146.49 116.46 139.53 114C131.19 111.15 128.47 113.41 127.98 118.75Z" fill="#F0CAC5"/>
<path d="M131.8 110.76C131.8 110.76 127.98 111.03 126.67 112.48C125.06 114.27 124.77 116.25 126.46 117.85C128.15 119.45 132.58 117.93 135.67 119.85C138.76 121.77 135.47 126.67 137.01 127.72C138.55 128.77 137.63 125.61 139.67 124.81C141.71 124.01 142.54 127.44 140.4 129.97C138.26 132.5 140.27 134.12 141.66 134.54C143.05 134.96 146.42 123.54 146.14 119.36C145.86 115.18 143.8 115.25 143.8 115.25C143.8 115.25 143.71 108.72 131.8 110.76Z" fill="#606161"/>
<path d="M131.27 137.04C131.27 137.04 136.7 135.04 139.15 133.91C139.15 133.91 134.05 138.76 131.41 138.73L131.27 137.04Z" fill="#E3B3AF"/>
<path d="M127.92 129.62C127.92 129.62 131.92 129.91 134.23 128.46C136.54 127.01 137.66 126.1 137.93 127.57C138.2 129.04 139.24 131.51 138.2 133.26C137.16 135.01 131.64 139.08 130.2 138.02C128.76 136.96 127.8 135.68 128.05 134.2C128.169 132.673 128.125 131.138 127.92 129.62Z" fill="#606161"/>
<path d="M128.65 131.52C128.65 131.52 129.42 132.44 131.27 131.52C133.12 130.6 133.39 129.17 134.27 130.6C135.15 132.03 133.14 134.86 130.78 134.94C128.42 135.02 128.8 133.4 128.65 131.52Z" fill="#F0CAC5"/>
<path d="M137.67 140.34C137.432 141.263 136.983 142.119 136.36 142.84C135.36 143.9 133.75 144.19 132.56 145.05C129.04 147.62 131.22 153.71 131.83 157.18C132.816 161.981 133.484 166.841 133.83 171.73C133.94 174.6 133.83 177.54 134.72 180.26C135.349 181.988 136.325 183.568 137.59 184.903C138.854 186.237 140.379 187.299 142.07 188.02C145.461 189.431 149.189 189.823 152.8 189.15C155.36 188.851 157.754 187.728 159.62 185.95C161.268 183.981 162.209 181.516 162.29 178.95C162.82 172.3 160.22 165.84 157.68 159.67C154.43 151.8 151.11 143.07 144.19 137.67C143.04 136.78 141.53 136.01 140.19 136.53C139.629 136.825 139.138 137.238 138.752 137.74C138.365 138.242 138.092 138.822 137.95 139.44C137.86 139.74 137.8 140.04 137.67 140.34Z" fill="#B21F66"/>
<path opacity="0.3" d="M137.67 140.34C137.432 141.263 136.983 142.119 136.36 142.84C135.36 143.9 133.75 144.19 132.56 145.05C129.04 147.62 131.22 153.71 131.83 157.18C132.816 161.981 133.484 166.841 133.83 171.73C133.94 174.6 133.83 177.54 134.72 180.26C135.349 181.988 136.325 183.568 137.59 184.903C138.854 186.237 140.379 187.299 142.07 188.02C145.461 189.431 149.189 189.823 152.8 189.15C155.36 188.851 157.754 187.728 159.62 185.95C161.268 183.981 162.209 181.516 162.29 178.95C162.82 172.3 160.22 165.84 157.68 159.67C154.43 151.8 151.11 143.07 144.19 137.67C143.04 136.78 141.53 136.01 140.19 136.53C139.629 136.825 139.138 137.238 138.752 137.74C138.365 138.242 138.092 138.822 137.95 139.44C137.86 139.74 137.8 140.04 137.67 140.34Z" fill="url(#paint12_linear)"/>
<path d="M156.46 190.59C152.11 194.997 147.307 198.933 142.13 202.33C140.13 203.63 137.96 205.06 137.37 207.33C137.092 208.956 137.308 210.628 137.99 212.13C141.19 221.02 147.26 228.55 151.61 236.93C151.755 237.148 151.822 237.409 151.8 237.67C151.707 237.965 151.507 238.215 151.24 238.37L148.37 240.49C141.03 234.94 135.37 227.54 129.94 220.09C126.21 214.95 122.45 209.35 122.14 203C121.977 201.359 122.222 199.703 122.854 198.18C123.485 196.657 124.484 195.314 125.76 194.27C127.493 192.703 129.538 191.521 131.76 190.8C135.21 189.68 138.91 189.72 142.54 189.8C146.54 189.86 150.98 190.12 153.65 193.07" fill="#606161"/>
<path d="M156.46 190.59C152.11 194.997 147.307 198.933 142.13 202.33C140.13 203.63 137.96 205.06 137.37 207.33C137.092 208.956 137.308 210.628 137.99 212.13C141.19 221.02 147.26 228.55 151.61 236.93C151.755 237.148 151.822 237.409 151.8 237.67C151.707 237.965 151.507 238.215 151.24 238.37L148.37 240.49C141.03 234.94 135.37 227.54 129.94 220.09C126.21 214.95 122.45 209.35 122.14 203C121.977 201.359 122.222 199.703 122.854 198.18C123.485 196.657 124.484 195.314 125.76 194.27C127.493 192.703 129.538 191.521 131.76 190.8C135.21 189.68 138.91 189.72 142.54 189.8C146.54 189.86 150.98 190.12 153.65 193.07" fill="url(#paint13_linear)"/>
<path d="M149.2 243.15C149.343 243.718 149.377 244.309 149.3 244.89C149.151 245.474 148.904 246.028 148.57 246.53C147.697 248.052 146.939 249.636 146.3 251.27C146.092 251.663 146.042 252.121 146.16 252.55C146.45 253.24 147.39 253.3 148.16 253.18C150.299 252.832 152.31 251.929 153.99 250.56C154.311 250.316 154.58 250.01 154.78 249.66C154.93 249.303 155.002 248.917 154.99 248.53C155.101 245.206 154.039 241.95 151.99 239.33C151.798 239.036 151.528 238.8 151.21 238.65C150.4 238.33 149.21 239.17 148.91 239.92C148.5 240.85 149.05 242.25 149.2 243.15Z" fill="#606161"/>
<path d="M99.36 175.5C99.0746 176.418 98.9797 177.385 99.0811 178.341C99.1826 179.297 99.4783 180.222 99.95 181.06C100.195 181.509 100.536 181.899 100.95 182.2C101.872 182.679 102.931 182.828 103.95 182.62C104.174 182.627 104.392 182.548 104.56 182.4C104.646 182.294 104.698 182.166 104.71 182.03C104.91 180.96 104.36 179.83 104.64 178.78C105 177.45 106.54 176.71 106.95 175.4C107.5 173.59 105.46 171.14 103.6 171.17C101.74 171.2 99.87 173.87 99.36 175.5Z" fill="#F0CAC5"/>
<path d="M86.53 246.29C86.149 246.292 85.7735 246.199 85.4381 246.018C85.1028 245.837 84.8184 245.574 84.6112 245.254C84.404 244.935 84.2806 244.568 84.2524 244.188C84.2243 243.808 84.2922 243.427 84.45 243.08L108.03 190.15C108.151 189.876 108.326 189.629 108.543 189.423C108.76 189.216 109.015 189.054 109.295 188.947C109.574 188.839 109.872 188.787 110.172 188.795C110.471 188.802 110.766 188.869 111.04 188.99C111.314 189.111 111.561 189.286 111.767 189.503C111.974 189.72 112.136 189.975 112.243 190.255C112.351 190.534 112.403 190.832 112.395 191.132C112.388 191.431 112.321 191.726 112.2 192L88.62 245C88.4311 245.392 88.1339 245.722 87.7636 245.95C87.3932 246.179 86.9652 246.297 86.53 246.29Z" fill="#ABABAB"/>
<path d="M136.38 248.98L102.49 206.74C102.112 206.268 101.937 205.665 102.004 205.064C102.07 204.463 102.373 203.913 102.845 203.535C103.317 203.157 103.92 202.982 104.521 203.049C105.122 203.115 105.672 203.418 106.05 203.89L135.29 240.32L153.69 199.76C153.941 199.208 154.4 198.779 154.967 198.566C155.535 198.353 156.163 198.374 156.715 198.625C157.267 198.876 157.696 199.335 157.909 199.902C158.122 200.47 158.101 201.098 157.85 201.65L136.38 248.98Z" fill="#ABABAB"/>
<path d="M136.51 248.27C135.905 248.27 135.325 248.03 134.898 247.602C134.47 247.175 134.23 246.595 134.23 245.99C134.23 245.385 134.47 244.805 134.898 244.378C135.325 243.95 135.905 243.71 136.51 243.71L198.33 243.65L213.65 200.58C213.748 200.296 213.903 200.034 214.103 199.81C214.304 199.586 214.548 199.405 214.82 199.276C215.092 199.148 215.387 199.075 215.687 199.062C215.988 199.049 216.288 199.096 216.57 199.2C217.139 199.406 217.604 199.828 217.862 200.375C218.121 200.922 218.152 201.55 217.95 202.12L201.55 248.22L136.55 248.27H136.51Z" fill="#ABABAB"/>
<path d="M200.41 248.27C199.805 248.27 199.225 248.03 198.798 247.602C198.37 247.175 198.13 246.595 198.13 245.99C198.13 245.385 198.37 244.805 198.798 244.378C199.225 243.95 199.805 243.71 200.41 243.71L275.49 243.65L290.8 200.58C290.899 200.297 291.052 200.036 291.253 199.813C291.453 199.59 291.695 199.409 291.966 199.281C292.237 199.152 292.531 199.079 292.83 199.065C293.129 199.051 293.428 199.097 293.71 199.2C294.281 199.404 294.748 199.825 295.009 200.373C295.269 200.92 295.302 201.548 295.1 202.12L278.7 248.22L213.7 248.27H200.41Z" fill="#ABABAB"/>
<path d="M216 203.63L105.6 202.78C105.02 202.742 104.476 202.484 104.079 202.06C103.682 201.636 103.461 201.076 103.461 200.495C103.461 199.914 103.682 199.354 104.079 198.93C104.476 198.506 105.02 198.248 105.6 198.21L218.6 199.08L216 203.63Z" fill="#ABABAB"/>
<path d="M275.8 249.08C275.219 249.051 274.67 248.803 274.266 248.385C273.861 247.966 273.631 247.41 273.622 246.828C273.613 246.246 273.826 245.683 274.218 245.252C274.609 244.822 275.15 244.556 275.73 244.51L315.24 243.24L291.87 204.48L181.47 203.64C180.89 203.602 180.346 203.344 179.949 202.92C179.552 202.496 179.331 201.936 179.331 201.355C179.331 200.774 179.552 200.214 179.949 199.79C180.346 199.366 180.89 199.108 181.47 199.07L294.47 199.93L323.19 247.56L275.89 249.08H275.8Z" fill="#ABABAB"/>
<path d="M115.4 190.15L104.4 189.15L104.8 182.15L101.8 180.15C101.555 179.989 101.344 179.78 101.181 179.536C101.018 179.292 100.906 179.018 100.851 178.73C100.796 178.442 100.799 178.145 100.861 177.858C100.923 177.572 101.041 177.3 101.21 177.06C101.559 176.569 102.085 176.234 102.677 176.126C103.269 176.018 103.88 176.145 104.38 176.48L109.51 179.9L109.24 185.18L112.59 185.47L114.8 180.55L121.08 179.64C121.672 179.547 122.277 179.692 122.764 180.042C123.25 180.392 123.579 180.919 123.68 181.51C123.721 181.802 123.704 182.1 123.629 182.385C123.555 182.671 123.424 182.939 123.246 183.174C123.067 183.409 122.844 183.607 122.589 183.755C122.334 183.904 122.053 184.001 121.76 184.04L117.96 184.59L115.4 190.15Z" fill="#818181"/>
<path d="M115.4 190.15L104.4 189.15L104.8 182.15L101.8 180.15C101.555 179.989 101.344 179.78 101.181 179.536C101.018 179.292 100.906 179.018 100.851 178.73C100.796 178.442 100.799 178.145 100.861 177.858C100.923 177.572 101.041 177.3 101.21 177.06C101.559 176.569 102.085 176.234 102.677 176.126C103.269 176.018 103.88 176.145 104.38 176.48L109.51 179.9L109.24 185.18L112.59 185.47L114.8 180.55L121.08 179.64C121.672 179.547 122.277 179.692 122.764 180.042C123.25 180.392 123.579 180.919 123.68 181.51C123.721 181.802 123.704 182.1 123.629 182.385C123.555 182.671 123.424 182.939 123.246 183.174C123.067 183.409 122.844 183.607 122.589 183.755C122.334 183.904 122.053 184.001 121.76 184.04L117.96 184.59L115.4 190.15Z" fill="url(#paint14_linear)"/>
<path d="M180.14 190.15L169.14 189.15L169.51 182.09L166.51 180.09C166.264 179.93 166.053 179.722 165.888 179.478C165.724 179.235 165.611 178.96 165.555 178.672C165.499 178.384 165.502 178.087 165.563 177.8C165.624 177.513 165.742 177.241 165.91 177C166.26 176.509 166.789 176.173 167.382 176.065C167.976 175.957 168.589 176.084 169.09 176.42L174.22 179.84L173.94 185.12L177.3 185.41L179.5 180.52L185.79 179.61C186.381 179.515 186.986 179.658 187.472 180.009C187.958 180.36 188.284 180.889 188.38 181.48C188.422 181.772 188.406 182.07 188.332 182.357C188.258 182.643 188.128 182.911 187.949 183.147C187.771 183.382 187.547 183.58 187.291 183.728C187.036 183.876 186.753 183.972 186.46 184.01L182.67 184.56L180.14 190.15Z" fill="#818181"/>
<path d="M180.14 190.15L169.14 189.15L169.51 182.09L166.51 180.09C166.264 179.93 166.053 179.722 165.888 179.478C165.724 179.235 165.611 178.96 165.555 178.672C165.499 178.384 165.502 178.087 165.563 177.8C165.624 177.513 165.742 177.241 165.91 177C166.26 176.509 166.789 176.173 167.382 176.065C167.976 175.957 168.589 176.084 169.09 176.42L174.22 179.84L173.94 185.12L177.3 185.41L179.5 180.52L185.79 179.61C186.381 179.515 186.986 179.658 187.472 180.009C187.958 180.36 188.284 180.889 188.38 181.48C188.422 181.772 188.406 182.07 188.332 182.357C188.258 182.643 188.128 182.911 187.949 183.147C187.771 183.382 187.547 183.58 187.291 183.728C187.036 183.876 186.753 183.972 186.46 184.01L182.67 184.56L180.14 190.15Z" fill="url(#paint15_linear)"/>
<path d="M251.98 190.15L240.98 189.15L241.35 182.09L238.35 180.09C238.105 179.929 237.894 179.72 237.731 179.476C237.568 179.232 237.456 178.958 237.401 178.67C237.346 178.382 237.349 178.085 237.411 177.798C237.473 177.512 237.591 177.24 237.76 177C238.109 176.509 238.635 176.174 239.227 176.066C239.819 175.958 240.43 176.085 240.93 176.42L246.06 179.84L245.8 185.15L249.15 185.44L251.36 180.55L257.64 179.64C258.232 179.547 258.837 179.692 259.324 180.042C259.81 180.392 260.139 180.919 260.24 181.51C260.281 181.802 260.264 182.1 260.189 182.385C260.115 182.671 259.984 182.939 259.806 183.174C259.627 183.409 259.404 183.607 259.149 183.755C258.894 183.904 258.612 184.001 258.32 184.04L254.52 184.59L251.98 190.15Z" fill="#818181"/>
<path d="M251.98 190.15L240.98 189.15L241.35 182.09L238.35 180.09C238.105 179.929 237.894 179.72 237.731 179.476C237.568 179.232 237.456 178.958 237.401 178.67C237.346 178.382 237.349 178.085 237.411 177.798C237.473 177.512 237.591 177.24 237.76 177C238.109 176.509 238.635 176.174 239.227 176.066C239.819 175.958 240.43 176.085 240.93 176.42L246.06 179.84L245.8 185.15L249.15 185.44L251.36 180.55L257.64 179.64C258.232 179.547 258.837 179.692 259.324 180.042C259.81 180.392 260.139 180.919 260.24 181.51C260.281 181.802 260.264 182.1 260.189 182.385C260.115 182.671 259.984 182.939 259.806 183.174C259.627 183.409 259.404 183.607 259.149 183.755C258.894 183.904 258.612 184.001 258.32 184.04L254.52 184.59L251.98 190.15Z" fill="url(#paint16_linear)"/>
<path d="M101.13 211.55C101.02 211.55 97.48 210.78 97.37 210.76C96.93 210.67 96.69 210.32 96.85 209.99L104.07 194.84C104.183 194.665 104.347 194.529 104.541 194.452C104.735 194.375 104.948 194.36 105.15 194.41C105.59 194.51 109.24 195.63 109.08 195.96L101.87 211.15C101.788 211.271 101.678 211.371 101.549 211.441C101.42 211.51 101.276 211.548 101.13 211.55Z" fill="#563B2A"/>
<path d="M100.59 211.01C100.48 211.01 96.94 210.24 96.82 210.22C96.38 210.12 96.15 209.78 96.31 209.45L103.52 194.3C103.633 194.123 103.8 193.986 103.995 193.909C104.191 193.831 104.406 193.818 104.61 193.87C105.05 193.96 108.7 195.09 108.54 195.42L101.32 210.57C101.245 210.699 101.139 210.806 101.011 210.883C100.884 210.96 100.739 211.004 100.59 211.01Z" fill="url(#paint17_linear)"/>
<path d="M142.44 143.49C140.31 144.75 139.17 147.17 138.35 149.49C136.52 154.72 135.64 160.36 132.73 165.07C131.063 167.76 128.797 170.029 126.11 171.7C124.4 172.77 122.48 173.62 121.11 175.12C119.74 176.62 119.11 179.12 120.46 180.64C121.81 182.16 124.04 182.07 125.93 181.58C134.02 179.48 139.73 172.39 144.28 165.38C146.373 162.41 148.011 159.144 149.14 155.69C150.3 151.68 149.8 139.15 142.44 143.49Z" fill="#B21F66"/>
<path d="M116.73 180.15C115.781 181.011 115.088 182.119 114.73 183.35C114.552 183.964 114.517 184.61 114.628 185.239C114.739 185.869 114.993 186.464 115.37 186.98C115.758 187.49 116.3 187.863 116.915 188.043C117.531 188.223 118.188 188.201 118.79 187.98C119.211 187.773 119.604 187.514 119.96 187.21L123.62 184.28C124.096 183.941 124.506 183.517 124.83 183.03C125.7 181.5 124.52 178.28 122.83 177.62C120.9 176.84 118.03 178.9 116.73 180.15Z" fill="#F0CAC5"/>
<path d="M120.53 190.85C119.289 191.388 118.151 192.139 117.17 193.07C115.636 194.9 114.882 197.259 115.07 199.64C115.298 202.721 115.971 205.753 117.07 208.64L122.44 224.97C122.538 225.323 122.686 225.659 122.88 225.97C123.94 227.58 126.69 226.88 127.64 225.2C128.59 223.52 128.3 221.45 128.05 219.54C127.269 213.644 127.001 207.692 127.25 201.75C127.212 201.323 127.337 200.898 127.6 200.56C127.887 200.337 128.237 200.211 128.6 200.2C133.23 199.73 137.9 200.26 142.54 200.12C147.18 199.98 152.03 199.12 155.68 196.22C159.33 193.32 161.35 188.02 159.31 183.84C158.942 182.993 158.306 182.291 157.5 181.84C156.615 181.5 155.661 181.383 154.72 181.5C149.28 181.75 144.17 181.78 138.95 183.43C135.78 184.43 132.65 185.52 129.56 186.76C127.29 187.68 122.94 190.85 120.53 190.85Z" fill="#606161"/>
<path d="M120.53 190.85C119.289 191.388 118.151 192.139 117.17 193.07C115.636 194.9 114.882 197.259 115.07 199.64C115.298 202.721 115.971 205.753 117.07 208.64L122.44 224.97C122.538 225.323 122.686 225.659 122.88 225.97C123.94 227.58 126.69 226.88 127.64 225.2C128.59 223.52 128.3 221.45 128.05 219.54C127.269 213.644 127.001 207.692 127.25 201.75C127.212 201.323 127.337 200.898 127.6 200.56C127.887 200.337 128.237 200.211 128.6 200.2C133.23 199.73 137.9 200.26 142.54 200.12C147.18 199.98 152.03 199.12 155.68 196.22C159.33 193.32 161.35 188.02 159.31 183.84C158.942 182.993 158.306 182.291 157.5 181.84C156.615 181.5 155.661 181.383 154.72 181.5C149.28 181.75 144.17 181.78 138.95 183.43C135.78 184.43 132.65 185.52 129.56 186.76C127.29 187.68 122.94 190.85 120.53 190.85Z" fill="url(#paint18_linear)"/>
<path d="M124.87 230.01C124.684 230.461 124.409 230.869 124.06 231.21C123.049 232.31 121.904 233.278 120.65 234.09C120.057 234.411 119.536 234.85 119.12 235.38C118.968 235.614 118.864 235.876 118.815 236.151C118.765 236.426 118.77 236.707 118.83 236.98C118.887 237.325 119.077 237.634 119.36 237.84C119.788 238.043 120.277 238.079 120.73 237.94C123.172 237.433 125.529 236.581 127.73 235.41C128.106 235.233 128.467 235.025 128.81 234.79C129.558 234.237 130.136 233.486 130.481 232.622C130.825 231.759 130.922 230.816 130.76 229.9C130.71 229.634 130.626 229.375 130.51 229.13C130.36 228.846 130.183 228.578 129.98 228.33C129.359 227.367 128.638 226.472 127.83 225.66C127.768 225.593 127.688 225.544 127.6 225.52C127.489 225.522 127.381 225.557 127.29 225.62C126.84 225.88 126.4 226.16 125.97 226.45C125.54 226.74 125.18 226.87 124.97 227.2C124.63 227.99 125.17 229.15 124.87 230.01Z" fill="#606161"/>
<path d="M189.58 156.64C185.78 160.44 180.23 161.73 175.35 163.98C173.43 164.86 171.46 166.04 170.67 167.98C170.328 168.941 170.185 169.962 170.25 170.98C170.212 171.314 170.255 171.653 170.377 171.967C170.499 172.28 170.696 172.559 170.95 172.78C171.288 172.945 171.665 173.018 172.04 172.99C177.331 173.058 182.601 172.303 187.66 170.75C193.2 169.05 198.66 166.21 201.99 161.45C202.721 160.462 203.26 159.346 203.58 158.16C203.815 156.931 203.876 155.676 203.76 154.43C203.747 151.954 203.465 149.486 202.92 147.07C202.44 145.29 201.43 142.4 199.74 141.38C198.05 140.36 196.65 144.14 196.01 145.38C194.1 149.29 192.67 153.54 189.58 156.64Z" fill="#DE7128"/>
<path d="M199.33 136.99C197.48 140.15 197.49 144.05 197.87 147.69C198.64 155.24 200.73 162.69 201.03 170.22C201.14 173.08 201.03 176.02 201.92 178.74C202.549 180.468 203.525 182.048 204.79 183.383C206.054 184.718 207.579 185.779 209.27 186.5C212.675 187.924 216.422 188.32 220.05 187.64C222.608 187.341 225.001 186.222 226.87 184.45C228.516 182.48 229.456 180.016 229.54 177.45C230.07 170.8 227.48 164.34 224.93 158.18C222.2 151.57 219.38 144.81 214.86 139.18C212.93 136.78 210.61 133.9 207.49 133.24C205.909 132.944 204.275 133.145 202.813 133.817C201.352 134.488 200.135 135.597 199.33 136.99Z" fill="#DE7128"/>
<path opacity="0.25" d="M199.33 136.99C197.48 140.15 197.49 144.05 197.87 147.69C198.64 155.24 200.73 162.69 201.03 170.22C201.14 173.08 201.03 176.02 201.92 178.74C202.549 180.468 203.525 182.048 204.79 183.383C206.054 184.718 207.579 185.779 209.27 186.5C212.675 187.924 216.422 188.32 220.05 187.64C222.608 187.341 225.001 186.222 226.87 184.45C228.516 182.48 229.456 180.016 229.54 177.45C230.07 170.8 227.48 164.34 224.93 158.18C222.2 151.57 219.38 144.81 214.86 139.18C212.93 136.78 210.61 133.9 207.49 133.24C205.909 132.944 204.275 133.145 202.813 133.817C201.352 134.488 200.135 135.597 199.33 136.99Z" fill="url(#paint19_linear)"/>
<path d="M183.95 178.63C183.005 179.491 182.313 180.594 181.95 181.82C181.772 182.434 181.737 183.08 181.848 183.709C181.959 184.339 182.213 184.934 182.59 185.45C182.978 185.96 183.52 186.333 184.135 186.513C184.751 186.693 185.408 186.671 186.01 186.45C186.433 186.247 186.826 185.988 187.18 185.68L190.84 182.75C191.316 182.411 191.726 181.987 192.05 181.5C192.92 179.97 191.74 176.76 190.05 176.09C188.12 175.32 185.25 177.39 183.95 178.63Z" fill="#F0CAC5"/>
<path d="M165.48 172.78C165.193 173.698 165.097 174.666 165.201 175.623C165.304 176.579 165.603 177.504 166.08 178.34C166.324 178.79 166.666 179.18 167.08 179.48C168.003 179.958 169.061 180.106 170.08 179.9C170.301 179.906 170.516 179.828 170.68 179.68C170.765 179.573 170.82 179.445 170.84 179.31C171.03 178.24 170.48 177.11 170.77 176.06C171.12 174.73 172.67 173.99 173.07 172.67C173.62 170.87 171.58 168.42 169.72 168.45C167.86 168.48 166 171.15 165.48 172.78Z" fill="#F0CAC5"/>
<path d="M187.8 189.33C186.561 189.871 185.424 190.622 184.44 191.55C182.906 193.384 182.152 195.746 182.34 198.13C182.566 201.211 183.239 204.243 184.34 207.13L189.71 223.46C189.815 223.81 189.963 224.146 190.15 224.46C191.21 226.06 193.96 225.36 194.91 223.68C195.86 222 195.57 219.93 195.32 218.02C194.539 212.124 194.271 206.172 194.52 200.23C194.483 199.803 194.608 199.378 194.87 199.04C195.156 198.817 195.507 198.694 195.87 198.69C200.49 198.21 205.16 198.74 209.8 198.61C214.44 198.48 219.29 197.61 222.94 194.7C226.59 191.79 228.61 186.5 226.57 182.32C226.206 181.47 225.569 180.767 224.76 180.32C223.877 179.972 222.921 179.851 221.98 179.97C216.54 180.22 211.43 180.26 206.22 181.9C203.04 182.9 199.91 183.99 196.82 185.23C194.51 186.15 190.16 189.33 187.8 189.33Z" fill="#606161"/>
<path d="M261.92 156.64C258.12 160.44 252.57 161.73 247.69 163.98C245.78 164.86 243.81 166.04 243.02 167.98C242.67 168.939 242.524 169.961 242.59 170.98C242.553 171.315 242.598 171.654 242.722 171.968C242.845 172.282 243.044 172.56 243.3 172.78C243.635 172.945 244.008 173.018 244.38 172.99C249.671 173.058 254.941 172.303 260 170.75C265.55 169.05 271 166.21 274.34 161.45C275.068 160.462 275.604 159.346 275.92 158.16C276.154 156.931 276.217 155.676 276.11 154.43C276.094 151.953 275.809 149.485 275.26 147.07C274.79 145.29 273.78 142.4 272.08 141.38C270.38 140.36 268.99 144.14 268.36 145.38C266.44 149.29 265.01 153.54 261.92 156.64Z" fill="#77CF58"/>
<path d="M271.68 136.99C269.82 140.15 269.84 144.05 270.21 147.69C270.99 155.24 273.07 162.69 273.37 170.22C273.49 173.08 273.37 176.02 274.26 178.74C274.89 180.467 275.868 182.046 277.132 183.381C278.396 184.715 279.92 185.777 281.61 186.5C285.019 187.924 288.769 188.32 292.4 187.64C294.957 187.336 297.348 186.217 299.22 184.45C300.862 182.478 301.802 180.015 301.89 177.45C302.41 170.8 299.82 164.34 297.27 158.18C294.55 151.57 291.72 144.81 287.21 139.18C285.27 136.78 282.96 133.9 279.83 133.24C278.25 132.943 276.617 133.144 275.157 133.816C273.697 134.488 272.482 135.597 271.68 136.99Z" fill="#77CF58"/>
<path d="M271.68 136.99C269.82 140.15 269.84 144.05 270.21 147.69C270.99 155.24 273.07 162.69 273.37 170.22C273.49 173.08 273.37 176.02 274.26 178.74C274.89 180.467 275.868 182.046 277.132 183.381C278.396 184.715 279.92 185.777 281.61 186.5C285.019 187.924 288.769 188.32 292.4 187.64C294.957 187.336 297.348 186.217 299.22 184.45C300.862 182.478 301.802 180.015 301.89 177.45C302.41 170.8 299.82 164.34 297.27 158.18C294.55 151.57 291.72 144.81 287.21 139.18C285.27 136.78 282.96 133.9 279.83 133.24C278.25 132.943 276.617 133.144 275.157 133.816C273.697 134.488 272.482 135.597 271.68 136.99Z" fill="url(#paint20_linear)"/>
<path d="M282.01 141.98C279.88 143.23 278.73 145.65 277.92 147.98C276.09 153.2 275.21 158.85 272.29 163.56C270.621 166.245 268.36 168.513 265.68 170.19C263.96 171.26 262.05 172.1 260.68 173.6C259.31 175.1 258.73 177.6 260.03 179.12C261.33 180.64 263.61 180.56 265.5 180.07C273.59 177.97 279.3 170.88 283.85 163.87C285.945 160.897 287.583 157.628 288.71 154.17C289.86 150.15 289.37 137.65 282.01 141.98Z" fill="#77CF58"/>
<path d="M256.3 178.63C255.357 179.493 254.666 180.595 254.3 181.82C254.124 182.434 254.09 183.081 254.203 183.711C254.316 184.34 254.571 184.935 254.95 185.45C255.338 185.96 255.88 186.333 256.495 186.513C257.111 186.693 257.768 186.671 258.37 186.45C258.791 186.249 259.181 185.989 259.53 185.68L263.19 182.75C263.669 182.413 264.079 181.989 264.4 181.5C265.28 179.97 264.09 176.76 262.4 176.09C260.47 175.32 257.59 177.39 256.3 178.63Z" fill="#C8A59C"/>
<path d="M237.8 172.78C237.518 173.699 237.426 174.666 237.53 175.622C237.633 176.577 237.929 177.502 238.4 178.34C238.645 178.789 238.986 179.179 239.4 179.48C240.322 179.959 241.381 180.108 242.4 179.9C242.624 179.907 242.842 179.828 243.01 179.68C243.096 179.574 243.148 179.446 243.16 179.31C243.36 178.24 242.81 177.11 243.09 176.06C243.45 174.73 244.99 173.99 245.39 172.67C245.95 170.87 243.91 168.42 242.05 168.45C240.19 168.48 238.34 171.15 237.8 172.78Z" fill="#C8A59C"/>
<path d="M260.09 189.33C258.855 189.874 257.722 190.625 256.74 191.55C255.974 192.454 255.394 193.501 255.034 194.631C254.673 195.76 254.54 196.949 254.64 198.13C254.87 201.211 255.544 204.242 256.64 207.13L262.01 223.46C262.118 223.811 262.27 224.146 262.46 224.46C263.52 226.06 266.27 225.36 267.21 223.68C268.15 222 267.88 219.93 267.62 218.02C266.839 212.124 266.571 206.172 266.82 200.23C266.791 199.803 266.919 199.38 267.18 199.04C267.466 198.817 267.817 198.694 268.18 198.69C272.8 198.21 277.47 198.74 282.12 198.61C286.77 198.48 291.61 197.61 295.25 194.7C298.89 191.79 300.92 186.5 298.89 182.32C298.523 181.472 297.887 180.77 297.08 180.32C296.197 179.973 295.241 179.853 294.3 179.97C288.86 180.22 283.74 180.26 278.53 181.9C275.36 182.9 272.22 183.99 269.13 185.23C266.85 186.15 262.51 189.33 260.09 189.33Z" fill="#606161"/>
<path d="M187.8 189.33C186.561 189.871 185.424 190.622 184.44 191.55C182.906 193.384 182.152 195.746 182.34 198.13C182.566 201.211 183.239 204.243 184.34 207.13L189.71 223.46C189.815 223.81 189.963 224.146 190.15 224.46C191.21 226.06 193.96 225.36 194.91 223.68C195.86 222 195.57 219.93 195.32 218.02C194.539 212.124 194.271 206.172 194.52 200.23C194.483 199.803 194.608 199.378 194.87 199.04C195.156 198.817 195.507 198.694 195.87 198.69C200.49 198.21 205.16 198.74 209.8 198.61C214.44 198.48 219.29 197.61 222.94 194.7C226.59 191.79 228.61 186.5 226.57 182.32C226.206 181.47 225.569 180.767 224.76 180.32C223.877 179.972 222.921 179.851 221.98 179.97C216.54 180.22 211.43 180.26 206.22 181.9C203.04 182.9 199.91 183.99 196.82 185.23C194.51 186.15 190.16 189.33 187.8 189.33Z" fill="url(#paint21_linear)"/>
<path d="M260.09 189.33C258.855 189.874 257.722 190.625 256.74 191.55C255.974 192.454 255.394 193.501 255.034 194.631C254.673 195.76 254.54 196.949 254.64 198.13C254.87 201.211 255.544 204.242 256.64 207.13L262.01 223.46C262.118 223.811 262.27 224.146 262.46 224.46C263.52 226.06 266.27 225.36 267.21 223.68C268.15 222 267.88 219.93 267.62 218.02C266.839 212.124 266.571 206.172 266.82 200.23C266.791 199.803 266.919 199.38 267.18 199.04C267.466 198.817 267.817 198.694 268.18 198.69C272.8 198.21 277.47 198.74 282.12 198.61C286.77 198.48 291.61 197.61 295.25 194.7C298.89 191.79 300.92 186.5 298.89 182.32C298.523 181.472 297.887 180.77 297.08 180.32C296.197 179.973 295.241 179.853 294.3 179.97C288.86 180.22 283.74 180.26 278.53 181.9C275.36 182.9 272.22 183.99 269.13 185.23C266.85 186.15 262.51 189.33 260.09 189.33Z" fill="url(#paint22_linear)"/>
<path d="M192.09 228.5C191.904 228.948 191.628 229.353 191.28 229.69C190.267 230.79 189.122 231.761 187.87 232.58C187.275 232.894 186.754 233.33 186.34 233.86C186.038 234.335 185.933 234.909 186.05 235.46C186.107 235.805 186.297 236.114 186.58 236.32C187.008 236.523 187.497 236.559 187.95 236.42C190.391 235.917 192.748 235.068 194.95 233.9C195.324 233.715 195.685 233.505 196.03 233.27C196.776 232.718 197.353 231.969 197.698 231.107C198.042 230.245 198.14 229.304 197.98 228.39C197.933 228.123 197.849 227.864 197.73 227.62C197.578 227.335 197.401 227.063 197.2 226.81C196.579 225.853 195.862 224.961 195.06 224.15C194.998 224.078 194.913 224.029 194.82 224.01C194.708 224.003 194.597 224.039 194.51 224.11C194.06 224.37 193.62 224.64 193.2 224.93C192.78 225.22 192.4 225.36 192.2 225.68C191.85 226.48 192.39 227.63 192.09 228.5Z" fill="#606161"/>
<path d="M264.11 229.57C263.927 230.017 263.654 230.421 263.31 230.76C262.291 231.858 261.143 232.829 259.89 233.65C259.295 233.967 258.773 234.407 258.36 234.94C258.057 235.411 257.953 235.982 258.07 236.53C258.134 236.875 258.327 237.182 258.61 237.39C259.037 237.597 259.526 237.637 259.98 237.5C262.421 236.99 264.777 236.138 266.98 234.97C267.354 234.785 267.715 234.575 268.06 234.34C268.806 233.788 269.383 233.039 269.728 232.177C270.072 231.315 270.17 230.374 270.01 229.46C269.962 229.194 269.881 228.936 269.77 228.69C269.618 228.402 269.437 228.131 269.23 227.88C268.609 226.923 267.892 226.031 267.09 225.22C267.025 225.151 266.942 225.103 266.85 225.08C266.738 225.074 266.628 225.11 266.54 225.18C266.09 225.44 265.66 225.71 265.23 226C264.8 226.29 264.43 226.43 264.23 226.75C263.87 227.55 264.41 228.7 264.11 229.57Z" fill="#606161"/>
<path d="M284.59 118.4C283.86 115.7 281.59 112.46 276.01 111.79C272.01 111.32 270.25 112.32 269.94 113.52C269.736 113.795 269.599 114.113 269.54 114.45L269.41 113.63C269.23 115.88 268.57 121.93 268.63 125.36C268.69 128.79 270.06 132.36 272.57 132.17C275.08 131.98 281.05 128.17 282.33 126.56C283.61 124.95 285.33 121.15 284.59 118.4Z" fill="#C8A59C"/>
<path d="M275.68 134.36C276.014 134.776 276.479 135.065 277 135.18L278.85 135.8C279.383 136.01 279.948 136.128 280.52 136.15C280.808 136.162 281.095 136.102 281.353 135.974C281.612 135.847 281.834 135.656 282 135.42C282.204 134.997 282.29 134.528 282.25 134.06C282.374 131.576 282.101 129.088 281.44 126.69C281.352 126.313 281.118 125.986 280.79 125.78C280.523 125.699 280.237 125.699 279.97 125.78C278.31 126.11 276.08 127.41 275.57 129.16C275.473 129.825 275.49 130.501 275.62 131.16C275.66 132.07 275.15 133.47 275.68 134.36Z" fill="#C8A59C"/>
<path d="M191.52 124.86C191.58 126.46 193.39 127.33 194.27 128.66C195.15 129.99 195.11 132.03 196.33 133.16C197.55 134.29 199.6 133.95 201.33 133.25C201.87 133.02 202.33 136.18 202.75 136.58C204.21 137.95 206.75 136.16 208.27 135.28C208.564 135.138 208.816 134.921 209 134.65C209.017 133.499 208.94 132.349 208.77 131.21C208.66 128.21 208.5 125.12 208.29 122.08C208.224 120.313 207.976 118.557 207.55 116.84C207.234 115.572 206.628 114.394 205.78 113.4C205.065 112.656 204.187 112.087 203.216 111.74C202.244 111.393 201.205 111.277 200.18 111.4C198.104 111.68 196.218 112.756 194.92 114.4C193.746 116 193.052 117.9 192.92 119.88C192.65 121.45 191.46 123.27 191.52 124.86Z" fill="#F0CAC5"/>
<path d="M188.64 110.51C188.771 112.026 189.435 113.447 190.516 114.518C191.597 115.59 193.023 116.242 194.54 116.36C196.23 116.48 198.2 116.05 199.41 117.23C199.7 117.52 199.95 117.89 200.35 117.97C200.605 118.005 200.864 118.005 201.12 117.97C202.45 117.91 203.12 119.55 203.32 120.86C204.23 120.66 203.66 118.65 204.59 118.63C204.783 118.635 204.968 118.71 205.11 118.84C205.41 119.098 205.653 119.417 205.822 119.775C205.991 120.132 206.084 120.522 206.093 120.918C206.103 121.314 206.029 121.707 205.877 122.073C205.725 122.438 205.498 122.768 205.21 123.04C206.284 124.368 206.907 126.004 206.99 127.71C207.04 129.15 207.06 131.09 208.46 131.38C208.774 131.421 209.094 131.384 209.39 131.272C209.686 131.161 209.951 130.978 210.16 130.74C211.96 128.96 211.28 125.8 212.66 123.69C213.52 122.38 215.11 121.58 215.66 120.11C215.94 119.225 215.94 118.275 215.66 117.39C215.058 115.11 213.674 113.114 211.75 111.75C210.929 111.268 210.159 110.705 209.45 110.07C208.937 109.44 208.472 108.771 208.06 108.07C205.29 103.93 201.06 104.37 196.69 104.51C193.06 104.54 188.5 105.95 188.64 110.51Z" fill="#EDB607"/>
<path d="M136.53 253.58C134.859 253.58 133.225 253.084 131.835 252.156C130.446 251.227 129.363 249.908 128.723 248.364C128.084 246.82 127.916 245.121 128.242 243.481C128.568 241.842 129.373 240.337 130.555 239.155C131.737 237.973 133.242 237.168 134.882 236.842C136.521 236.516 138.22 236.684 139.764 237.323C141.308 237.963 142.627 239.046 143.556 240.435C144.484 241.825 144.98 243.459 144.98 245.13C144.977 247.37 144.086 249.518 142.502 251.102C140.918 252.686 138.77 253.577 136.53 253.58ZM136.53 241.25C135.763 241.25 135.012 241.478 134.374 241.904C133.736 242.33 133.239 242.936 132.945 243.645C132.652 244.354 132.575 245.134 132.725 245.887C132.874 246.64 133.244 247.331 133.786 247.874C134.329 248.416 135.02 248.786 135.773 248.935C136.526 249.085 137.306 249.008 138.015 248.715C138.724 248.421 139.33 247.924 139.756 247.286C140.182 246.648 140.41 245.897 140.41 245.13C140.41 244.101 140.001 243.114 139.274 242.386C138.546 241.659 137.559 241.25 136.53 241.25Z" fill="#563B2A"/>
<path opacity="0.4" d="M136.53 254.54C134.858 254.54 133.224 254.044 131.834 253.115C130.445 252.186 129.362 250.866 128.722 249.321C128.083 247.777 127.916 246.077 128.243 244.438C128.57 242.798 129.376 241.293 130.559 240.111C131.741 238.93 133.248 238.126 134.888 237.801C136.527 237.476 138.227 237.645 139.771 238.286C141.314 238.927 142.634 240.012 143.561 241.403C144.488 242.794 144.982 244.428 144.98 246.1C144.977 248.339 144.086 250.486 142.502 252.069C140.917 253.651 138.769 254.54 136.53 254.54ZM136.53 242.22C135.763 242.22 135.012 242.448 134.374 242.874C133.736 243.3 133.239 243.906 132.945 244.615C132.652 245.324 132.575 246.104 132.725 246.857C132.874 247.61 133.244 248.301 133.786 248.844C134.329 249.386 135.02 249.756 135.773 249.905C136.526 250.055 137.306 249.978 138.015 249.685C138.724 249.391 139.33 248.894 139.756 248.256C140.182 247.618 140.41 246.867 140.41 246.1C140.41 245.071 140.001 244.084 139.274 243.356C138.546 242.629 137.559 242.22 136.53 242.22Z" fill="url(#paint23_linear)"/>
<path d="M201.48 253.58C199.809 253.58 198.175 253.084 196.785 252.156C195.396 251.227 194.313 249.908 193.673 248.364C193.034 246.82 192.866 245.121 193.192 243.481C193.518 241.842 194.323 240.337 195.505 239.155C196.687 237.973 198.192 237.168 199.831 236.842C201.471 236.516 203.17 236.684 204.714 237.323C206.258 237.963 207.577 239.046 208.506 240.435C209.434 241.825 209.93 243.459 209.93 245.13C209.927 247.37 209.036 249.518 207.452 251.102C205.868 252.686 203.72 253.577 201.48 253.58ZM201.48 241.25C200.713 241.25 199.962 241.478 199.324 241.904C198.686 242.33 198.189 242.936 197.895 243.645C197.602 244.354 197.525 245.134 197.675 245.887C197.824 246.64 198.194 247.331 198.736 247.874C199.279 248.416 199.97 248.786 200.723 248.935C201.476 249.085 202.256 249.008 202.965 248.715C203.674 248.421 204.28 247.924 204.706 247.286C205.132 246.648 205.36 245.897 205.36 245.13C205.36 244.101 204.951 243.114 204.224 242.386C203.496 241.659 202.509 241.25 201.48 241.25Z" fill="#563B2A"/>
<path opacity="0.4" d="M201.48 254.54C199.808 254.54 198.174 254.044 196.784 253.115C195.395 252.186 194.312 250.866 193.672 249.321C193.033 247.777 192.866 246.077 193.193 244.438C193.52 242.798 194.326 241.293 195.508 240.111C196.691 238.93 198.198 238.126 199.838 237.801C201.477 237.476 203.177 237.645 204.721 238.286C206.264 238.927 207.583 240.012 208.511 241.403C209.438 242.794 209.932 244.428 209.93 246.1C209.927 248.339 209.036 250.486 207.452 252.069C205.867 253.651 203.719 254.54 201.48 254.54ZM201.48 242.22C200.713 242.22 199.962 242.448 199.324 242.874C198.686 243.3 198.189 243.906 197.895 244.615C197.602 245.324 197.525 246.104 197.675 246.857C197.824 247.61 198.194 248.301 198.736 248.844C199.279 249.386 199.97 249.756 200.723 249.905C201.476 250.055 202.256 249.978 202.965 249.685C203.674 249.391 204.28 248.894 204.706 248.256C205.132 247.618 205.36 246.867 205.36 246.1C205.36 245.071 204.951 244.084 204.224 243.356C203.496 242.629 202.509 242.22 201.48 242.22Z" fill="url(#paint24_linear)"/>
<path d="M275.6 253.58C273.928 253.582 272.294 253.088 270.903 252.161C269.512 251.233 268.427 249.914 267.786 248.371C267.145 246.827 266.976 245.127 267.301 243.488C267.626 241.848 268.43 240.341 269.611 239.158C270.793 237.976 272.298 237.17 273.938 236.843C275.577 236.516 277.277 236.683 278.821 237.322C280.366 237.962 281.686 239.045 282.615 240.434C283.544 241.824 284.04 243.458 284.04 245.13C284.037 247.369 283.148 249.515 281.566 251.099C279.984 252.682 277.839 253.575 275.6 253.58ZM275.6 241.25C274.833 241.25 274.082 241.478 273.444 241.904C272.806 242.33 272.309 242.936 272.015 243.645C271.722 244.354 271.645 245.134 271.795 245.887C271.944 246.64 272.314 247.331 272.856 247.874C273.399 248.416 274.09 248.786 274.843 248.935C275.596 249.085 276.376 249.008 277.085 248.715C277.794 248.421 278.4 247.924 278.826 247.286C279.252 246.648 279.48 245.897 279.48 245.13C279.48 244.101 279.071 243.114 278.344 242.386C277.616 241.659 276.629 241.25 275.6 241.25Z" fill="#563B2A"/>
<path opacity="0.4" d="M275.6 254.54C273.928 254.542 272.293 254.048 270.902 253.12C269.511 252.192 268.426 250.873 267.785 249.328C267.144 247.784 266.976 246.084 267.302 244.444C267.628 242.804 268.433 241.297 269.615 240.115C270.797 238.933 272.304 238.128 273.944 237.802C275.584 237.476 277.284 237.644 278.828 238.285C280.373 238.926 281.692 240.011 282.62 241.402C283.548 242.793 284.042 244.428 284.04 246.1C284.035 248.337 283.144 250.48 281.562 252.062C279.98 253.644 277.837 254.535 275.6 254.54ZM275.6 242.22C274.833 242.22 274.082 242.448 273.444 242.874C272.806 243.3 272.309 243.906 272.015 244.615C271.722 245.324 271.645 246.104 271.795 246.857C271.944 247.61 272.314 248.301 272.856 248.844C273.399 249.386 274.09 249.756 274.843 249.905C275.596 250.055 276.376 249.978 277.085 249.685C277.794 249.391 278.4 248.894 278.826 248.256C279.252 247.618 279.48 246.867 279.48 246.1C279.48 245.071 279.071 244.084 278.344 243.356C277.616 242.629 276.629 242.22 275.6 242.22Z" fill="url(#paint25_linear)"/>
<path d="M128.66 238.33C128.66 238.33 135.52 247.38 136.21 247.33C136.9 247.28 137.87 246.04 137.87 246.04L130 238.04L128.66 238.33Z" fill="#606161"/>
<path d="M121.4 237.55L122.76 241.65L130.56 238.03L129.44 234.33L121.4 237.55Z" fill="#888888"/>
<path d="M121.4 237.55L122.76 241.65L130.56 238.03L129.44 234.33L121.4 237.55Z" fill="url(#paint26_linear)"/>
<path d="M146.8 253.95L148.16 258.05L155.96 254.43L154.84 250.73L146.8 253.95Z" fill="#888888"/>
<path d="M146.8 253.95L148.16 258.05L155.96 254.43L154.84 250.73L146.8 253.95Z" fill="url(#paint27_linear)"/>
<path d="M193.8 237.52C193.8 237.52 200.66 246.58 201.35 246.52C202.04 246.46 203.01 245.23 203.01 245.23L195.14 237.23L193.8 237.52Z" fill="#606161"/>
<path d="M186.51 236.75L187.87 240.84L195.67 237.23L194.54 233.53L186.51 236.75Z" fill="#888888"/>
<path d="M186.51 236.75L187.87 240.84L195.67 237.23L194.54 233.53L186.51 236.75Z" fill="url(#paint28_linear)"/>
<path d="M269.22 238.81C269.22 238.81 276.08 247.87 276.78 247.81C277.48 247.75 278.44 246.53 278.44 246.53L270.56 238.53L269.22 238.81Z" fill="#606161"/>
<path d="M261.96 238.03L263.33 242.13L271.12 238.51L270 234.82L261.96 238.03Z" fill="#888888"/>
<path d="M261.96 238.03L263.33 242.13L271.12 238.51L270 234.82L261.96 238.03Z" fill="url(#paint29_linear)"/>
<path d="M209.66 141.98C207.53 143.23 206.39 145.65 205.57 147.98C203.74 153.2 202.86 158.85 199.95 163.56C198.279 166.243 196.018 168.51 193.34 170.19C191.62 171.26 189.7 172.1 188.34 173.6C186.98 175.1 186.34 177.6 187.69 179.12C189.04 180.64 191.27 180.56 193.16 180.07C201.25 177.97 206.96 170.88 211.51 163.87C213.601 160.895 215.239 157.626 216.37 154.17C217.52 150.15 217.02 137.65 209.66 141.98Z" fill="#DE7128"/>
<path d="M274.55 110.21C272.6 110.37 270.18 110.46 269.08 112.13C267.74 114.18 269.44 115.07 271.19 115.6C274.36 116.6 274.7 119.98 275.57 122.68C275.916 124.09 276.739 125.338 277.9 126.21C278.56 126.65 279.35 126.76 280.01 127.21C280.968 127.893 281.649 128.897 281.93 130.04C282.179 131.234 282.564 132.395 283.08 133.5C283.938 134.759 285.11 135.773 286.48 136.44C287.614 137.164 288.866 137.682 290.18 137.97C292.21 138.165 294.256 137.82 296.11 136.97C296.664 136.704 297.266 136.551 297.88 136.52C299.83 136.52 300.95 138.91 302.83 139.43C304.26 139.82 305.83 139.26 307.27 139.55C309.032 140.063 310.841 140.398 312.67 140.55C314.688 140.677 316.687 140.094 318.32 138.9C319.113 138.285 319.677 137.421 319.921 136.448C320.166 135.474 320.078 134.447 319.67 133.53C318.74 131.83 316.67 131.22 315.05 130.09C314.227 129.494 313.53 128.741 313 127.874C312.469 127.007 312.116 126.044 311.96 125.04C311.73 123.42 311.96 121.7 311.33 120.22C310.894 119.442 310.305 118.76 309.599 118.215C308.892 117.671 308.083 117.274 307.22 117.05C305.29 116.391 303.258 116.083 301.22 116.14C298.22 116.24 295.1 117.14 292.12 116.48C289.14 115.82 286.61 113.48 283.95 111.76C281.12 109.93 278.81 109.76 275.61 110.21H274.55Z" fill="#606161"/>
<path d="M274.55 110.21C272.6 110.37 270.18 110.46 269.08 112.13C267.74 114.18 269.44 115.07 271.19 115.6C274.36 116.6 274.7 119.98 275.57 122.68C275.916 124.09 276.739 125.338 277.9 126.21C278.56 126.65 279.35 126.76 280.01 127.21C280.968 127.893 281.649 128.897 281.93 130.04C282.179 131.234 282.564 132.395 283.08 133.5C283.938 134.759 285.11 135.773 286.48 136.44C287.614 137.164 288.866 137.682 290.18 137.97C292.21 138.165 294.256 137.82 296.11 136.97C296.664 136.704 297.266 136.551 297.88 136.52C299.83 136.52 300.95 138.91 302.83 139.43C304.26 139.82 305.83 139.26 307.27 139.55C309.032 140.063 310.841 140.398 312.67 140.55C314.688 140.677 316.687 140.094 318.32 138.9C319.113 138.285 319.677 137.421 319.921 136.448C320.166 135.474 320.078 134.447 319.67 133.53C318.74 131.83 316.67 131.22 315.05 130.09C314.227 129.494 313.53 128.741 313 127.874C312.469 127.007 312.116 126.044 311.96 125.04C311.73 123.42 311.96 121.7 311.33 120.22C310.894 119.442 310.305 118.76 309.599 118.215C308.892 117.671 308.083 117.274 307.22 117.05C305.29 116.391 303.258 116.083 301.22 116.14C298.22 116.24 295.1 117.14 292.12 116.48C289.14 115.82 286.61 113.48 283.95 111.76C281.12 109.93 278.81 109.76 275.61 110.21H274.55Z" fill="url(#paint30_linear)"/>
<path d="M481.95 149.93C481.95 183.84 453.05 242.55 419.13 242.55C385.21 242.55 359.13 183.84 359.13 149.93C359.026 141.799 360.538 133.728 363.578 126.186C366.618 118.644 371.125 111.78 376.838 105.994C382.551 100.207 389.357 95.6127 396.86 92.4769C404.362 89.3411 412.413 87.7263 420.545 87.7263C428.677 87.7263 436.727 89.3411 444.23 92.4769C451.733 95.6127 458.538 100.207 464.252 105.994C469.965 111.78 474.472 118.644 477.512 126.186C480.552 133.728 482.064 141.799 481.96 149.93H481.95Z" fill="#FFEAB6"/>
<path opacity="0.6" d="M481.95 149.93C481.95 183.84 453.05 242.55 419.13 242.55C385.21 242.55 359.13 183.84 359.13 149.93C359.026 141.799 360.538 133.728 363.578 126.186C366.618 118.644 371.125 111.78 376.838 105.994C382.551 100.207 389.357 95.6127 396.86 92.4769C404.362 89.3411 412.413 87.7263 420.545 87.7263C428.677 87.7263 436.727 89.3411 444.23 92.4769C451.733 95.6127 458.538 100.207 464.252 105.994C469.965 111.78 474.472 118.644 477.512 126.186C480.552 133.728 482.064 141.799 481.96 149.93H481.95Z" fill="url(#paint31_radial)"/>
<path d="M452.38 227.71H393.38C388.045 227.71 383.72 232.035 383.72 237.37V237.38C383.72 242.715 388.045 247.04 393.38 247.04H452.38C457.715 247.04 462.04 242.715 462.04 237.38V237.37C462.04 232.035 457.715 227.71 452.38 227.71Z" fill="#3F446C"/>
<path d="M452.38 227.71H393.38C388.045 227.71 383.72 232.035 383.72 237.37V237.38C383.72 242.715 388.045 247.04 393.38 247.04H452.38C457.715 247.04 462.04 242.715 462.04 237.38V237.37C462.04 232.035 457.715 227.71 452.38 227.71Z" fill="url(#paint32_linear)"/>
<path d="M452.38 249.05H393.38C388.045 249.05 383.72 253.375 383.72 258.71V258.72C383.72 264.055 388.045 268.38 393.38 268.38H452.38C457.715 268.38 462.04 264.055 462.04 258.72V258.71C462.04 253.375 457.715 249.05 452.38 249.05Z" fill="#3F446C"/>
<path d="M452.38 249.05H393.38C388.045 249.05 383.72 253.375 383.72 258.71V258.72C383.72 264.055 388.045 268.38 393.38 268.38H452.38C457.715 268.38 462.04 264.055 462.04 258.72V258.71C462.04 253.375 457.715 249.05 452.38 249.05Z" fill="url(#paint33_linear)"/>
<path d="M459.35 235.13H387.58C381.091 235.13 375.83 240.391 375.83 246.88V246.89C375.83 253.379 381.091 258.64 387.58 258.64H459.35C465.839 258.64 471.1 253.379 471.1 246.89V246.88C471.1 240.391 465.839 235.13 459.35 235.13Z" fill="#3F446C"/>
<path opacity="0.4" d="M459.35 235.13H387.58C381.091 235.13 375.83 240.391 375.83 246.88V246.89C375.83 253.379 381.091 258.64 387.58 258.64H459.35C465.839 258.64 471.1 253.379 471.1 246.89V246.88C471.1 240.391 465.839 235.13 459.35 235.13Z" fill="url(#paint34_linear)"/>
<path opacity="0.6" d="M437.92 229.09L434.92 228.61C436.329 219.92 438.867 211.452 442.47 203.42C443.13 201.96 443.83 200.51 444.53 199.05C446.69 194.54 448.94 189.88 449.93 184.99C451.06 179.48 450.47 172.07 445.43 167.83C444.016 166.51 442.144 165.793 440.21 165.83C438.46 166.139 436.863 167.022 435.67 168.34C437.255 171.168 438.099 174.35 438.126 177.591C438.152 180.832 437.359 184.027 435.82 186.88C435.273 188.018 434.299 188.895 433.11 189.32C432.65 189.452 432.167 189.482 431.694 189.41C431.221 189.337 430.769 189.163 430.37 188.9C429.679 188.392 429.095 187.752 428.652 187.018C428.209 186.283 427.916 185.468 427.79 184.62C427.279 181.723 427.381 178.75 428.089 175.895C428.796 173.039 430.095 170.363 431.9 168.04C431.161 167.049 430.297 166.159 429.33 165.39C428.531 164.712 427.586 164.226 426.57 163.97C423.57 163.26 420.94 166.31 419.44 169.54C421.744 171.954 423.525 174.817 424.673 177.95C425.821 181.083 426.31 184.419 426.11 187.75C426.081 189.811 425.379 191.806 424.11 193.43C422.58 195.18 419.61 196.06 417.48 194.43C416.492 193.577 415.793 192.438 415.48 191.17C413.302 184.361 413.439 177.023 415.87 170.3C414.957 169.4 413.805 168.782 412.55 168.52C411.023 168.462 409.529 168.975 408.36 169.96C402.23 174.5 401.47 183.49 401.56 188.44C401.909 202.792 407.617 216.494 417.56 226.85L415.38 228.95C404.917 218.036 398.914 203.604 398.55 188.49C398.37 178.94 401.22 171.49 406.55 167.49C408.344 166.034 410.626 165.319 412.93 165.49C414.476 165.746 415.925 166.408 417.13 167.41C419.13 163.66 422.81 160.2 427.13 160.98C428.618 161.319 430.006 162.005 431.18 162.98C432.207 163.789 433.137 164.715 433.95 165.74C434.799 164.823 435.823 164.085 436.963 163.571C438.102 163.056 439.333 162.776 440.582 162.746C441.832 162.716 443.075 162.938 444.237 163.397C445.4 163.856 446.458 164.544 447.35 165.42C453.41 170.51 454.17 179.14 452.87 185.52C451.81 190.76 449.49 195.6 447.24 200.28C446.55 201.71 445.87 203.14 445.24 204.58C441.732 212.392 439.271 220.634 437.92 229.09ZM418.25 172.78C416.504 178.486 416.546 184.589 418.37 190.27C418.529 190.951 418.876 191.575 419.37 192.07C420.03 192.57 421.29 192.15 421.9 191.47C422.727 190.348 423.16 188.984 423.13 187.59C423.455 182.211 421.709 176.912 418.25 172.78ZM433.61 170.92C430.981 174.794 429.973 179.542 430.8 184.15C430.91 185.02 431.333 185.819 431.99 186.4C432.56 186.4 432.85 186.05 433.21 185.4C434.411 183.188 435.073 180.724 435.142 178.208C435.212 175.692 434.687 173.195 433.61 170.92Z" fill="#272727"/>
</g>
<defs>
<linearGradient id="paint0_linear" x1="297.14" y1="9.93" x2="356.54" y2="145.23" gradientUnits="userSpaceOnUse">
<stop stop-color="white" stop-opacity="0"/>
<stop offset="0.95" stop-color="white"/>
</linearGradient>
<linearGradient id="paint1_linear" x1="368.5" y1="180" x2="249.5" y2="205" gradientUnits="userSpaceOnUse">
<stop stop-color="#F7FEFF"/>
<stop offset="1" stop-color="#F7FEFF" stop-opacity="0"/>
</linearGradient>
<linearGradient id="paint2_linear" x1="44409" y1="25227.8" x2="38725.3" y2="23904.9" gradientUnits="userSpaceOnUse">
<stop stop-color="white" stop-opacity="0"/>
<stop offset="0.95" stop-color="white"/>
</linearGradient>
<linearGradient id="paint3_linear" x1="278.845" y1="188.235" x2="278.845" y2="238.96" gradientUnits="userSpaceOnUse">
<stop stop-color="#4D4D4D"/>
<stop offset="1" stop-color="#4D4D4D" stop-opacity="0"/>
</linearGradient>
<linearGradient id="paint4_linear" x1="291.94" y1="251.21" x2="291.94" y2="258.53" gradientUnits="userSpaceOnUse">
<stop stop-color="#797777"/>
<stop offset="1" stop-color="#797777" stop-opacity="0"/>
</linearGradient>
<linearGradient id="paint5_linear" x1="216.49" y1="249.93" x2="216.49" y2="257.24" gradientUnits="userSpaceOnUse">
<stop stop-color="#797777"/>
<stop offset="1" stop-color="#797777" stop-opacity="0"/>
</linearGradient>
<linearGradient id="paint6_linear" x1="206.495" y1="188.235" x2="206.495" y2="238.96" gradientUnits="userSpaceOnUse">
<stop stop-color="#4D4D4D"/>
<stop offset="1" stop-color="#4D4D4D" stop-opacity="0"/>
</linearGradient>
<linearGradient id="paint7_linear" x1="2961.84" y1="2159.24" x2="2956.38" y2="2114.65" gradientUnits="userSpaceOnUse">
<stop stop-color="#010101" stop-opacity="0"/>
<stop offset="0.47" stop-color="#010101" stop-opacity="0.47"/>
<stop offset="0.95" stop-color="#010101"/>
</linearGradient>
<linearGradient id="paint8_linear" x1="4071.37" y1="2159.24" x2="4065.91" y2="2114.65" gradientUnits="userSpaceOnUse">
<stop stop-color="#010101" stop-opacity="0"/>
<stop offset="0.47" stop-color="#010101" stop-opacity="0.47"/>
<stop offset="0.95" stop-color="#010101"/>
</linearGradient>
<linearGradient id="paint9_linear" x1="5438.08" y1="2159.24" x2="5432.61" y2="2114.65" gradientUnits="userSpaceOnUse">
<stop stop-color="#010101" stop-opacity="0"/>
<stop offset="0.47" stop-color="#010101" stop-opacity="0.47"/>
<stop offset="0.95" stop-color="#010101"/>
</linearGradient>
<linearGradient id="paint10_linear" x1="5828.53" y1="23915.9" x2="5997.42" y2="17237" gradientUnits="userSpaceOnUse">
<stop stop-color="#010101" stop-opacity="0"/>
<stop offset="0.47" stop-color="#010101" stop-opacity="0.47"/>
<stop offset="0.95" stop-color="#010101"/>
</linearGradient>
<linearGradient id="paint11_linear" x1="21592.2" y1="24179" x2="21761.1" y2="17500.2" gradientUnits="userSpaceOnUse">
<stop stop-color="#010101" stop-opacity="0"/>
<stop offset="0.47" stop-color="#010101" stop-opacity="0.47"/>
<stop offset="0.95" stop-color="#010101"/>
</linearGradient>
<linearGradient id="paint12_linear" x1="119.5" y1="197" x2="156.5" y2="144.5" gradientUnits="userSpaceOnUse">
<stop stop-color="#2F2F2F"/>
<stop offset="1" stop-color="#454545" stop-opacity="0"/>
</linearGradient>
<linearGradient id="paint13_linear" x1="132" y1="190" x2="139.275" y2="240.49" gradientUnits="userSpaceOnUse">
<stop stop-color="#444444"/>
<stop offset="1" stop-color="#505050" stop-opacity="0"/>
</linearGradient>
<linearGradient id="paint14_linear" x1="2800.66" y1="3737.24" x2="2717.09" y2="4148.36" gradientUnits="userSpaceOnUse">
<stop stop-color="#010101" stop-opacity="0"/>
<stop offset="0.47" stop-color="#010101" stop-opacity="0.47"/>
<stop offset="0.95" stop-color="#010101"/>
</linearGradient>
<linearGradient id="paint15_linear" x1="4346.69" y1="3752.58" x2="4262.51" y2="4165.28" gradientUnits="userSpaceOnUse">
<stop stop-color="#010101" stop-opacity="0"/>
<stop offset="0.47" stop-color="#010101" stop-opacity="0.47"/>
<stop offset="0.95" stop-color="#010101"/>
</linearGradient>
<linearGradient id="paint16_linear" x1="6066.04" y1="3752.38" x2="5981.81" y2="4165.12" gradientUnits="userSpaceOnUse">
<stop stop-color="#010101" stop-opacity="0"/>
<stop offset="0.47" stop-color="#010101" stop-opacity="0.47"/>
<stop offset="0.95" stop-color="#010101"/>
</linearGradient>
<linearGradient id="paint17_linear" x1="1434.7" y1="5031.12" x2="1255.09" y2="4963.72" gradientUnits="userSpaceOnUse">
<stop stop-color="#010101" stop-opacity="0"/>
<stop offset="0.47" stop-color="#010101" stop-opacity="0.47"/>
<stop offset="0.95" stop-color="#010101"/>
</linearGradient>
<linearGradient id="paint18_linear" x1="5491.83" y1="12991.5" x2="7525.87" y2="12991.5" gradientUnits="userSpaceOnUse">
<stop stop-color="#010101" stop-opacity="0"/>
<stop offset="0.47" stop-color="#010101" stop-opacity="0.47"/>
<stop offset="0.95" stop-color="#010101"/>
</linearGradient>
<linearGradient id="paint19_linear" x1="209" y1="149.5" x2="185.5" y2="177.5" gradientUnits="userSpaceOnUse">
<stop stop-color="#515151" stop-opacity="0"/>
<stop offset="1"/>
</linearGradient>
<linearGradient id="paint20_linear" x1="288" y1="139.5" x2="262.5" y2="189.5" gradientUnits="userSpaceOnUse">
<stop stop-color="#77CF58"/>
<stop offset="1" stop-color="#65AB4D"/>
</linearGradient>
<linearGradient id="paint21_linear" x1="8587.54" y1="12924.9" x2="10621.1" y2="12924.9" gradientUnits="userSpaceOnUse">
<stop stop-color="#010101" stop-opacity="0"/>
<stop offset="0.47" stop-color="#010101" stop-opacity="0.47"/>
<stop offset="0.95" stop-color="#010101"/>
</linearGradient>
<linearGradient id="paint22_linear" x1="11924.5" y1="12924.7" x2="13959.3" y2="12924.7" gradientUnits="userSpaceOnUse">
<stop stop-color="#010101" stop-opacity="0"/>
<stop offset="0.47" stop-color="#010101" stop-opacity="0.47"/>
<stop offset="0.95" stop-color="#010101"/>
</linearGradient>
<linearGradient id="paint23_linear" x1="136.53" y1="237.64" x2="136.53" y2="254.54" gradientUnits="userSpaceOnUse">
<stop stop-color="#242424"/>
<stop offset="1" stop-color="#484848" stop-opacity="0"/>
</linearGradient>
<linearGradient id="paint24_linear" x1="201.48" y1="237.64" x2="201.48" y2="254.54" gradientUnits="userSpaceOnUse">
<stop stop-color="#242424"/>
<stop offset="1" stop-color="#484848" stop-opacity="0"/>
</linearGradient>
<linearGradient id="paint25_linear" x1="275.59" y1="237.64" x2="275.59" y2="254.54" gradientUnits="userSpaceOnUse">
<stop stop-color="#242424"/>
<stop offset="1" stop-color="#484848" stop-opacity="0"/>
</linearGradient>
<linearGradient id="paint26_linear" x1="1233.42" y1="1976.41" x2="1317.33" y2="1976.41" gradientUnits="userSpaceOnUse">
<stop stop-color="#010101" stop-opacity="0"/>
<stop offset="0.47" stop-color="#010101" stop-opacity="0.47"/>
<stop offset="0.95" stop-color="#010101"/>
</linearGradient>
<linearGradient id="paint27_linear" x1="1491.49" y1="2112.86" x2="1575.39" y2="2112.86" gradientUnits="userSpaceOnUse">
<stop stop-color="#010101" stop-opacity="0"/>
<stop offset="0.47" stop-color="#010101" stop-opacity="0.47"/>
<stop offset="0.95" stop-color="#010101"/>
</linearGradient>
<linearGradient id="paint28_linear" x1="1894.94" y1="1967.39" x2="1978.85" y2="1967.39" gradientUnits="userSpaceOnUse">
<stop stop-color="#010101" stop-opacity="0"/>
<stop offset="0.47" stop-color="#010101" stop-opacity="0.47"/>
<stop offset="0.95" stop-color="#010101"/>
</linearGradient>
<linearGradient id="paint29_linear" x1="2661.51" y1="1978.04" x2="2745.42" y2="1978.04" gradientUnits="userSpaceOnUse">
<stop stop-color="#010101" stop-opacity="0"/>
<stop offset="0.47" stop-color="#010101" stop-opacity="0.47"/>
<stop offset="0.95" stop-color="#010101"/>
</linearGradient>
<linearGradient id="paint30_linear" x1="16165.2" y1="5539.9" x2="15699.9" y2="7410.79" gradientUnits="userSpaceOnUse">
<stop stop-color="#010101" stop-opacity="0"/>
<stop offset="0.47" stop-color="#010101" stop-opacity="0.47"/>
<stop offset="0.95" stop-color="#010101"/>
</linearGradient>
<radialGradient id="paint31_radial" cx="0" cy="0" r="1" gradientUnits="userSpaceOnUse" gradientTransform="translate(420.545 136.5) rotate(90) scale(141.5 112.269)">
<stop stop-color="white"/>
<stop offset="1" stop-color="#E6E6E6" stop-opacity="0"/>
</radialGradient>
<linearGradient id="paint32_linear" x1="33516.2" y1="4637.07" x2="33512.9" y2="5386.14" gradientUnits="userSpaceOnUse">
<stop stop-color="#010101" stop-opacity="0"/>
<stop offset="0.47" stop-color="#010101" stop-opacity="0.47"/>
<stop offset="0.95" stop-color="#010101"/>
</linearGradient>
<linearGradient id="paint33_linear" x1="33629" y1="5040.57" x2="33580.8" y2="6364.47" gradientUnits="userSpaceOnUse">
<stop stop-color="#010101" stop-opacity="0"/>
<stop offset="0.47" stop-color="#010101" stop-opacity="0.47"/>
<stop offset="0.95" stop-color="#010101"/>
</linearGradient>
<linearGradient id="paint34_linear" x1="423.465" y1="235.13" x2="423.465" y2="258.64" gradientUnits="userSpaceOnUse">
<stop stop-color="#464646" stop-opacity="0"/>
<stop offset="1" stop-color="#323232"/>
</linearGradient>
<clipPath id="clip0">
<rect width="548.8" height="298.43" fill="white"/>
</clipPath>
</defs>
</svg>
