<svg xmlns="http://www.w3.org/2000/svg" xmlns:xlink="http://www.w3.org/1999/xlink" width="526.372" height="368.203" viewBox="0 0 526.372 368.203"><defs><linearGradient id="a" x1="0.388" y1="1.401" x2="0.718" y2="-0.141" gradientUnits="objectBoundingBox"><stop offset="0" stop-opacity="0"/><stop offset="0.99"/></linearGradient><linearGradient id="b" x1="0" y1="0.5" x2="1" y2="0.5" xlink:href="#a"/><linearGradient id="c" x1="0.434" y1="0.417" x2="0.734" y2="1.935" gradientUnits="objectBoundingBox"><stop offset="0" stop-opacity="0"/><stop offset="0.8"/></linearGradient><linearGradient id="d" x1="0.415" y1="0.346" x2="0.651" y2="1.914" xlink:href="#c"/><linearGradient id="e" y1="0.499" x2="1" y2="0.499" gradientUnits="objectBoundingBox"><stop offset="0" stop-color="#e5c5d5"/><stop offset="0.42" stop-color="#ead4d1"/><stop offset="1" stop-color="#f0e9cb"/></linearGradient><linearGradient id="f" x1="0.415" y1="1.477" x2="0.613" y2="-1.55" xlink:href="#a"/><linearGradient id="g" x1="0.595" y1="0.437" x2="0.379" y2="1.615" xlink:href="#a"/><linearGradient id="h" x1="0.002" y1="0.5" x2="1" y2="0.5" gradientUnits="objectBoundingBox"><stop offset="0" stop-color="#867580"/><stop offset="0.57" stop-color="#9b8f8e"/></linearGradient><filter id="i" x="89.011" y="207.919" width="39.203" height="42.862" filterUnits="userSpaceOnUse"><feOffset dy="2" input="SourceAlpha"/><feGaussianBlur stdDeviation="5" result="j"/><feFlood flood-opacity="0.188"/><feComposite operator="in" in2="j"/><feComposite in="SourceGraphic"/></filter><filter id="k" x="119.918" y="180.757" width="53.968" height="50.977" filterUnits="userSpaceOnUse"><feOffset dy="2" input="SourceAlpha"/><feGaussianBlur stdDeviation="5" result="l"/><feFlood flood-opacity="0.188"/><feComposite operator="in" in2="l"/><feComposite in="SourceGraphic"/></filter><filter id="m" x="162.836" y="156.476" width="47.575" height="49.969" filterUnits="userSpaceOnUse"><feOffset dy="2" input="SourceAlpha"/><feGaussianBlur stdDeviation="5" result="n"/><feFlood flood-opacity="0.188"/><feComposite operator="in" in2="n"/><feComposite in="SourceGraphic"/></filter><filter id="o" x="210.65" y="191.529" width="46.228" height="52.586" filterUnits="userSpaceOnUse"><feOffset dy="2" input="SourceAlpha"/><feGaussianBlur stdDeviation="5" result="p"/><feFlood flood-opacity="0.188"/><feComposite operator="in" in2="p"/><feComposite in="SourceGraphic"/></filter><filter id="q" x="302.017" y="187.847" width="45.558" height="44.934" filterUnits="userSpaceOnUse"><feOffset dy="2" input="SourceAlpha"/><feGaussianBlur stdDeviation="5" result="r"/><feFlood flood-opacity="0.188"/><feComposite operator="in" in2="r"/><feComposite in="SourceGraphic"/></filter><filter id="s" x="358.157" y="153.309" width="48.115" height="49.985" filterUnits="userSpaceOnUse"><feOffset dy="2" input="SourceAlpha"/><feGaussianBlur stdDeviation="5" result="t"/><feFlood flood-opacity="0.188"/><feComposite operator="in" in2="t"/><feComposite in="SourceGraphic"/></filter><filter id="u" x="383.502" y="179.77" width="43.235" height="43.982" filterUnits="userSpaceOnUse"><feOffset dy="2" input="SourceAlpha"/><feGaussianBlur stdDeviation="5" result="v"/><feFlood flood-opacity="0.188"/><feComposite operator="in" in2="v"/><feComposite in="SourceGraphic"/></filter><filter id="w" x="423.387" y="185.272" width="35.818" height="38.48" filterUnits="userSpaceOnUse"><feOffset dy="2" input="SourceAlpha"/><feGaussianBlur stdDeviation="5" result="x"/><feFlood flood-opacity="0.188"/><feComposite operator="in" in2="x"/><feComposite in="SourceGraphic"/></filter><filter id="y" x="136.189" y="0" width="258.308" height="225.185" filterUnits="userSpaceOnUse"><feOffset dy="5" input="SourceAlpha"/><feGaussianBlur stdDeviation="7.5" result="z"/><feFlood flood-opacity="0.161"/><feComposite operator="in" in2="z"/><feComposite in="SourceGraphic"/></filter><linearGradient id="aa" x1="0" y1="0.5" x2="1" y2="0.5" xlink:href="#e"/><linearGradient id="ab" x1="0.387" y1="-0.109" x2="0.812" y2="2.423" xlink:href="#a"/><linearGradient id="ac" x1="-0.001" y1="0.498" x2="0.999" y2="0.498" xlink:href="#h"/><linearGradient id="ad" x1="0" y1="0.5" x2="1" y2="0.5" xlink:href="#e"/><linearGradient id="ae" x1="0" y1="0.499" x2="1" y2="0.499" xlink:href="#e"/><linearGradient id="af" x1="-0.001" y1="0.499" x2="1" y2="0.499" xlink:href="#e"/><linearGradient id="ag" x1="0" y1="0.5" x2="1.001" y2="0.5" xlink:href="#h"/><linearGradient id="ah" x1="-0.006" y1="0.501" x2="1.002" y2="0.501" xlink:href="#h"/><linearGradient id="ai" x1="-0.001" y1="0.498" x2="0.998" y2="0.498" xlink:href="#h"/><linearGradient id="aj" x1="-0.001" y1="0.5" x2="1.001" y2="0.5" xlink:href="#e"/><linearGradient id="ak" x1="0" y1="0.5" x2="1" y2="0.5" xlink:href="#e"/><linearGradient id="al" x1="0" y1="0.501" x2="1.002" y2="0.501" xlink:href="#e"/><linearGradient id="am" x1="-0.014" y1="1.078" x2="1.486" y2="-0.779" xlink:href="#a"/><linearGradient id="an" x1="0" y1="0.5" x2="1" y2="0.5" xlink:href="#e"/><linearGradient id="ao" x1="-0.001" y1="0.505" x2="1" y2="0.505" xlink:href="#e"/><linearGradient id="ap" x1="-0.001" y1="0.499" x2="0.999" y2="0.499" xlink:href="#e"/><radialGradient id="aq" cx="0.5" cy="0.243" r="0.825" gradientTransform="matrix(0.697, -0.717, 0.727, 0.706, -0.025, 0.43)" gradientUnits="objectBoundingBox"><stop offset="0" stop-color="#ff0"/><stop offset="1" stop-color="#e58710"/></radialGradient></defs><g transform="translate(0 17.5)"><g transform="translate(0 0)"><path d="M203.508,255.605c.719,10.689-1.24,21.447-.174,32.112.372,3.467,1.054,7.095-.186,10.4a12.275,12.275,0,0,1-6.325,6.494c-6.784,3.236-15.6,1.156-20.9-3.986s-7.441-12.549-7.007-19.644,3.088-13.866,6.263-20.337c2.852-5.778,7.664-17.183,14.721-19.644C199.019,237.9,203.112,249.55,203.508,255.605Z" transform="translate(16.842 -4.762)" fill="#3e3e54"/><path d="M199.05,237.536c-2.84-4.784-10.69-6.783-16.358-4.16a43.7,43.7,0,0,1-5.246,2.611c-2.133.67-4.452.5-6.684.7-7.18.693-13.542,5.9-14.621,11.96-.608,3.467.335,6.933-.26,10.4-1.4,8.181-10.988,14.352-11.955,22.567-.31,2.669.335,5.327.583,7.985a27.85,27.85,0,0,1-2.7,14.571c-1.575,3.27-3.795,6.39-4.378,9.868-1.153,6.933,5.085,13.589,12.9,15.715s16.593.451,24-2.82c8.16-3.605,15.428-9.51,17.883-16.986,3.844-11.659-4.6-24.058-.806-35.729a63.211,63.211,0,0,1,3.72-7.915C198.839,258.729,203.639,245.29,199.05,237.536Z" transform="translate(9.259 -6.049)" fill="#543e53"/><path d="M162.666,276.56c.087-3.155-.446-6.933,2.133-8.932a1.5,1.5,0,0,1,.794-.358,1.76,1.76,0,0,1,.819.243,26.67,26.67,0,0,1,7.441,5.6c2.58,2.785,4.589,6.159,7.912,8.089,1.339.8,2.84,1.329,4.229,2.022a18.124,18.124,0,0,1,6.994,6.159,2.719,2.719,0,0,1,.583,2.184c-.31.982-1.525,1.41-2.6,1.606a44.046,44.046,0,0,1-9.4.462q-6.424-.162-12.836-.485a39.474,39.474,0,0,1-8.173-1.005c-1.141-.3-3.237-1.04-3.522-2.311s1.587-2.565,2.344-3.64A17.925,17.925,0,0,0,162.666,276.56Z" transform="translate(13.994 -0.597)" fill="url(#a)"/><rect width="526.372" height="17.991" transform="translate(0 332.711)" fill="#e55d2a"/><rect width="526.372" height="9.498" transform="translate(0 332.711)" fill="url(#b)"/><path d="M214,302.924l4.006,30.933a777.694,777.694,0,0,1-86.538-.693c-.645-5.558,1.55-11.035,3.844-16.177,5.7-12.8,13.716-26.508,27.891-30.7,10.839-3.212,20.351.8,31,1.791,5.283.5,11.075-1.156,15.254,2.762C212.665,293.842,213.471,298.857,214,302.924Z" transform="translate(7.835 2.17)" fill="#111d5e"/><path d="M214,302.924l4.006,30.933a777.694,777.694,0,0,1-86.538-.693c-.645-5.558,1.55-11.035,3.844-16.177,5.7-12.8,13.716-26.508,27.891-30.7,10.839-3.212,20.351.8,31,1.791,5.283.5,11.075-1.156,15.254,2.762C212.665,293.842,213.471,298.857,214,302.924Z" transform="translate(7.835 2.17)" fill="url(#c)"/><path d="M112.359,285.217c3.373.751,6.833,1.664,9.549,3.675a21.785,21.785,0,0,1,5.159,5.986,82.12,82.12,0,0,1,12.4,33.822,4.824,4.824,0,0,1-.248,2.9c-.93,1.756-3.485,1.976-5.593,1.953L35.78,332.57l-11.05.647c2.48-10.261,9.7-44.3,25.237-48.717a130.836,130.836,0,0,1,18.962-2.981,195.073,195.073,0,0,1,19.967.254A160.065,160.065,0,0,1,112.359,285.217Z" transform="translate(-17.773 1.597)" fill="#1fb277"/><path d="M112.359,285.217c3.373.751,6.833,1.664,9.549,3.675a21.785,21.785,0,0,1,5.159,5.986,82.12,82.12,0,0,1,12.4,33.822,4.824,4.824,0,0,1-.248,2.9c-.93,1.756-3.485,1.976-5.593,1.953L35.78,332.57l-11.05.647c2.48-10.261,9.7-44.3,25.237-48.717a130.836,130.836,0,0,1,18.962-2.981,195.073,195.073,0,0,1,19.967.254A160.065,160.065,0,0,1,112.359,285.217Z" transform="translate(-17.773 1.597)" fill="url(#d)"/><path d="M87.554,284.316a14.353,14.353,0,0,1-.62,4.472c-1.364,3.778-6.077,5.974-10.306,5.4a13.7,13.7,0,0,1-9.822-7,22.78,22.78,0,0,1-2.48-11.555,8.125,8.125,0,0,1,1.4-5.142,7.758,7.758,0,0,1,5.568-2.311,15.253,15.253,0,0,1,10.355,3.235c1.4,1.156,4.13,2.1,4.961,3.351C87.628,276.482,87.641,282.213,87.554,284.316Z" transform="translate(-8.271 -0.46)" fill="url(#e)"/><path d="M65.39,271.93s13.022,19.1,17.759,13.67a13.342,13.342,0,0,0,3.125-11.486Z" transform="translate(-8.008 0.128)" fill="url(#f)"/><path d="M106.317,283.39l-7.726,4.923a7.162,7.162,0,0,0-1.612,1.236,6.581,6.581,0,0,0-1.24,3.016,146.684,146.684,0,0,0-3.435,33.51,8.052,8.052,0,0,0,.558,3.466,6.506,6.506,0,0,0,3.3,2.877c2.84,1.283,6.1,1.387,9.252,1.468l12.513.312a10.322,10.322,0,0,0,3.72-.37c2.89-1.04,4.018-4.38,3.795-7.257a26.247,26.247,0,0,0-2.828-8.713L114.1,299.278C112.046,294.668,110.26,286.868,106.317,283.39Z" transform="translate(-1.548 1.91)" fill="#1fb277"/><path d="M179.716,320.8a30.514,30.514,0,0,1,7.441.8,7.562,7.562,0,0,1,5.308,4.507c.93,3.1-1.5,6.367-4.613,7.742s-6.7,1.329-10.144,1.26l-27.779-.612a36.915,36.915,0,0,1-9.586-1.052,11.472,11.472,0,0,1-7.292-5.523c-2.009-4.183.409-9.406,4.551-11.89,6.288-3.755,12.984-1.872,19.309.347A78.983,78.983,0,0,0,179.716,320.8Z" transform="translate(8.068 6.653)" fill="#111d5e"/><path d="M342.35,335.945c5.519-13.219,17.015-31.719,22.534-44.938,2.58-6.171,5.506-12.711,11.521-16.293,4.055-2.4,8.979-3.051,13.753-3.651l23.749-3.039c6.374-.8,11.5,1.155,16.68,4.7s9.053,8.528,12.4,13.658a116.066,116.066,0,0,1,16.3,38.49c.657,3,1.042,6.575-1.3,8.736-1.7,1.583-4.328,1.872-6.734,1.987C416.883,337.413,376.826,334.27,342.35,335.945Z" transform="translate(58.505 -0.507)" fill="#b21f66"/><path d="M342.35,335.945c5.519-13.219,17.015-31.719,22.534-44.938,2.58-6.171,5.506-12.711,11.521-16.293,4.055-2.4,8.979-3.051,13.753-3.651l23.749-3.039c6.374-.8,11.5,1.155,16.68,4.7s9.053,8.528,12.4,13.658a116.066,116.066,0,0,1,16.3,38.49c.657,3,1.042,6.575-1.3,8.736-1.7,1.583-4.328,1.872-6.734,1.987C416.883,337.413,376.826,334.27,342.35,335.945Z" transform="translate(58.505 -0.507)" fill="url(#g)"/><path d="M397.768,277.284a11.112,11.112,0,0,1-11.409,3.559,4.577,4.577,0,0,1-1.736-.832,4.669,4.669,0,0,1-1.079-1.572c-1.873-4.044-1.959-8.574-2.034-12.976a11.341,11.341,0,0,1,.769-5.269c2.319-4.714,13.27-9.452,16.792-3.7C402.034,261.349,401.24,272.858,397.768,277.284Z" transform="translate(67.898 -2.684)" fill="url(#h)"/><g transform="matrix(1, 0, 0, 1, 0, -17.5)" filter="url(#i)"><path d="M111.684,213.223a5.43,5.43,0,0,0-6.35.751A8.006,8.006,0,0,0,103,219.891a6.543,6.543,0,0,0,.856,3.663,3.885,3.885,0,0,0,3.336,1.837,4.6,4.6,0,0,0,2.7-1.271,7.537,7.537,0,0,0,2.287-5.693,7.628,7.628,0,0,0-2.771-5.5" transform="translate(1.02 8.39)" fill="#fff"/></g><g transform="matrix(1, 0, 0, 1, 0, -17.5)" filter="url(#k)"><path d="M126.538,201.929c-1.432,2-1.183,5.127,1.065,6.384a6.8,6.8,0,0,0,3.55.684,16.9,16.9,0,0,0,4.26-.684,2.6,2.6,0,0,1,1.349-.176,2.836,2.836,0,0,1,1.041.717,5.565,5.565,0,0,0,7.462-.546,4.7,4.7,0,0,0-.586-6.952c-.3-.221-.663-.485-.615-.838a.978.978,0,0,1,.26-.5,4.282,4.282,0,0,0-1.183-6.043c-4.26-2.757-5.112,1.158-6.959,3.308C133.793,200.1,129.023,198.51,126.538,201.929Z" transform="matrix(0.98, -0.21, 0.21, 0.98, -28.12, 35.41)" fill="#fff"/></g><g transform="matrix(1, 0, 0, 1, 0, -17.5)" filter="url(#m)"><path d="M174.37,190.512c2.592-.164,5.448-.821,6.806-2.875a7.318,7.318,0,0,0,.97-3.7,30.118,30.118,0,0,0-.282-6.177c-1.04-6.9-11.513-10.251-15.357-3.548S164.409,191.169,174.37,190.512Z" transform="translate(13.22 -1.1)" fill="#fff"/></g><g transform="matrix(1, 0, 0, 1, 0, -17.5)" filter="url(#o)"><path d="M210.113,199.837c-.995-.662-2.294.449-2.763,1.417a17.788,17.788,0,0,0,1.437,18.237,5.057,5.057,0,0,0,1.686,1.63,5.131,5.131,0,0,0,2.321.472c4.246-.264,7.78-2.891,8.677-6.449a11.455,11.455,0,0,0-2.763-10.016,18.233,18.233,0,0,0-9.285-6.118" transform="translate(20.16 5.52)" fill="#fff"/></g><g transform="matrix(1, 0, 0, 1, 0, -17.5)" filter="url(#q)"><path d="M290.363,215.245a3.046,3.046,0,0,0,3.059-2.823c1.12-5.914-6.606-16.057-13.284-10.357S283.757,216.182,290.363,215.245Z" transform="translate(39.04 0.46)" fill="#fff"/></g><g transform="matrix(1, 0, 0, 1, 0, -17.5)" filter="url(#s)"><path d="M339.64,179.806a7.652,7.652,0,0,0-2.178-10.2,6.494,6.494,0,0,0-7.093-.377c-2.352,1.634-2.506,4.8-2.448,7.525-2.236-1.006-5.05,1.006-5.3,3.3A7.043,7.043,0,0,0,325.878,186a10.525,10.525,0,0,0,7.517,2.3,6.223,6.223,0,0,0,5.551-4.759c.231-1.706-.5-3.466-.135-5.154" transform="translate(50.54 -2.04)" fill="#fff"/></g><g transform="matrix(1, 0, 0, 1, 0, -17.5)" filter="url(#u)"><path d="M353.407,192.387a11.987,11.987,0,0,0-7.446-.785,4.71,4.71,0,0,0-2.569,1.272,4.564,4.564,0,0,0-.883,3.1,18.131,18.131,0,0,0,.662,4.862A5.116,5.116,0,0,0,344.8,203.7c1.867,1.44,4.656.561,6.864-.374,1.706-.729,3.633-1.683,4.014-3.4a4.876,4.876,0,0,0-.6-3.142,29.989,29.989,0,0,0-3.854-6.3" transform="translate(56.01 2.29)" fill="#fff"/></g><g transform="matrix(1, 0, 0, 1, 0, -17.5)" filter="url(#w)"><path d="M373.4,195.322a3.965,3.965,0,0,0,.384,5.188,2.928,2.928,0,0,0,2.48.878,2.882,2.882,0,0,0,2.084-2.311,5.441,5.441,0,0,0-4.266-6.147" transform="translate(65.77 5.34)" fill="#fff"/></g><g transform="translate(158.689)"><g transform="matrix(1, 0, 0, 1, -158.69, -17.5)" filter="url(#y)"><path d="M231.312,41.367a33.024,33.024,0,0,0-11.4,13.3,9.4,9.4,0,0,1-2.245,3.212c-2.245,1.826-5.63,1.236-8.582.89a37.116,37.116,0,0,0-29.51,9.3,31.762,31.762,0,0,0-10.274,27.4c-10.479.358-18.441,9.591-21,19.066a34.751,34.751,0,0,0,5.618,29.824,35.76,35.76,0,0,0,28.524,13.808c-.707,7.361,2.877,14.456,6.9,20.8,2.716,4.3,5.742,8.539,9.921,11.694s9.611,5.13,14.882,4.264c.794,11.012,11.682,19.921,23.4,21.458s23.637-3.166,32.628-10.342c4.849,4.345,12.464,5.13,18.925,3.386s11.98-5.662,17.015-9.81c9.425,2.519,19.222-1.791,27.941-5.974,5.544-2.669,11.348-5.546,14.659-10.469s3.584-11.024,2.207-16.593-4.3-10.7-7.193-15.75c5.023-2.727,10.194-5.581,13.567-10s4.427-10.85.893-15.137c-.905-1.1-2.083-2.08-2.393-3.467-.36-1.537.546-3.051,1.24-4.472,3.423-6.933,2.406-15.241-1.1-22.128s-9.252-12.561-15.328-17.668c-4.564-3.825-9.45-7.453-15.142-9.568s-12.4-2.542-17.858,0c-1.525-4.449-3.15-9.059-6.585-12.457s-9.239-5.223-13.642-2.9c1.538-.82-8.619-10.122-9.648-10.8a34.279,34.279,0,0,0-14.882-5.35C253.833,35.924,239,36.456,231.312,41.367Z" transform="translate(11.61 -18.99)" fill="#fff"/></g></g><path d="M273.682,287.534c-6.077,6.078-9.6,13.947-13.009,21.62l-9.7,21.955a3.694,3.694,0,0,0-.335,3.351,4.252,4.252,0,0,0,3.076,1.444q7.448,1.048,14.981,1.387,37.862,2.207,75.8,1.618c3.026,0,6.2-.139,8.879-1.41,6.97-3.293,7.528-12.318,6.288-19.505a97.791,97.791,0,0,0-7.515-24.266,27.289,27.289,0,0,0-5.407-8.435c-5.779-5.639-14.969-6.54-23.327-6.76C307.4,278.07,285.661,275.528,273.682,287.534Z" transform="translate(36.419 1.071)" fill="#de7128"/><path d="M257.363,282.264a4.363,4.363,0,0,0-1.625-2.207,4.789,4.789,0,0,0-2.183-.462,44.987,44.987,0,0,0-6.6.22,6.589,6.589,0,0,0-3.832,1.352,5.5,5.5,0,0,0-1.389,3.1c-1.773,8.955.26,18.119,1.054,27.189.533,6.182.6,12.711,4.179,17.98a18.017,18.017,0,0,0,14.882,7.453c2.48,0,5.333-.855,6.288-2.993a6.968,6.968,0,0,0,.31-3.351C267.3,314.26,264.779,297.24,257.363,282.264Z" transform="translate(34.173 1.314)" fill="#de7128"/><path d="M258.278,277.667c1.178-2.369,2.766-4.529,4.167-6.794a4.237,4.237,0,0,0,.756-1.86,1.618,1.618,0,0,0-.955-1.664c-1.4-.5-2.48,1.306-3.981,1.583s-2.48-.8-3.448-1.71a45.974,45.974,0,0,0-14.435-9.059,2.454,2.454,0,0,0-1.835-.231c-.6.231-.757,1.155-.149,1.364a2.817,2.817,0,0,1-1.637-.393c-.533-.208-1.3-.22-1.538.266s.459,1.156.285,1.8a5.494,5.494,0,0,1-1.91-.266c-.633-.116-1.463.081-1.587.682a1.8,1.8,0,0,0,.074.67,14.3,14.3,0,0,1,0,2.727c0,2.415,1.575,4.622,3.113,6.529,3.274,4.148,6.871,8.089,9.413,12.711a17.475,17.475,0,0,0,2.629,4.033c1.538,1.514,7.218,3.7,8.681,1.04.707-1.248.124-3.987.372-5.454a21.878,21.878,0,0,1,1.984-5.974Z" transform="translate(32.006 -2.062)" fill="url(#aa)"/><path d="M327.856,308.477c.5,2.242.57,4.807-.992,6.587s-4.465,2.207-7.019,2.311c-12.4.6-25.126-1.387-37.2,1.248a7.779,7.779,0,0,0-4.551,2.184c-1.24,1.56-1.079,3.709-.831,5.651l1.042,8.3L266.183,332.7a2.428,2.428,0,0,1-1.675-.74,2.1,2.1,0,0,1-.582-1.64,52.367,52.367,0,0,1-1.24-13.15,17.847,17.847,0,0,1,5.221-11.89c2.914-2.681,6.87-4.1,10.8-5.154,9.363-2.484,19.148-3.224,28.846-3.952,4.2-.312,11.162-1.156,14.8,1.479C325.3,299.776,327.111,305.149,327.856,308.477Z" transform="translate(39.367 3.839)" fill="url(#ab)"/><path d="M418.365,307.36c-1.24,1.837-4.08,2-6.449,2a159.183,159.183,0,0,0-30.892,3.155,36.452,36.452,0,0,0-10.69,3.467,13.248,13.248,0,0,0-6.8,8.089,8.061,8.061,0,0,0,4.216,9.025,15.6,15.6,0,0,0,6.635.9l67.526-.682a12.272,12.272,0,0,0,4.552-.612c3.348-1.375,4.787-5.281,4.588-8.69-2.307-40.825-24.307-52.449-27.965-51.929-2.927.4-3.41,21.47-4.229,24.485C417.931,299.988,420.7,304.021,418.365,307.36Z" transform="translate(63.547 0.149)" fill="#b21f66"/><path d="M365.261,317.747a22.717,22.717,0,0,0-8.235.416,31.72,31.72,0,0,0-14.435,7.372,3.709,3.709,0,0,0-1.079,1.375,2.652,2.652,0,0,0,1.786,3.051,8.9,8.9,0,0,0,4.031.347l12.687-.832a17.032,17.032,0,0,0,5.481-.971c2.1-.867,3.882-2.588,6.2-2.681a6.843,6.843,0,0,0,2.009-.127c2.021-.7,1.5-3.732.347-4.853C372.292,319.133,367.654,318.07,365.261,317.747Z" transform="translate(58.289 7.223)" fill="url(#ac)"/><path d="M105.771,256.348c0,10.481-3.981,22.232-14.163,26.693-7.317,3.2-16.333,1.687-22.955-2.612s-11.075-11.024-13.8-18.107c-3.138-8.158-4.192-17.206-1.55-25.514s9.338-15.7,18.193-18.338C96.16,211.179,105.8,239.027,105.771,256.348Z" transform="translate(-11.272 -8.371)" fill="url(#ad)"/><path d="M71.473,235.262a12.023,12.023,0,0,0,2.48-.878c1.439-.844,2.183-2.427,3.5-3.467a12.354,12.354,0,0,1,4.824-1.664,38.308,38.308,0,0,0,12.588-5.234c3.72-2.415,7.193-6.471,5.73-10.4a8.348,8.348,0,0,0-2.865-3.536,16.685,16.685,0,0,0-14.026-2.8c-6.6,1.733-11.161,7.21-16.68,10.954-6.523,4.4-15.3,7.141-18.243,14.132-1.587,3.79-1.067,8.181-2.927,11.867-.893,1.768-2.369,3.582-1.786,5.466.533,1.676,2.592,2.785,2.666,4.53a5.616,5.616,0,0,1-.732,2.38c-1.625,3.79-.769,8.2,1.24,11.821a41.3,41.3,0,0,0,8.247,9.487c3.72,3.466,8.507,7.291,13.753,6.4a2.194,2.194,0,0,0,.868-.3c1.067-.751,0-2.311-.93-3.143a27.14,27.14,0,0,1-7.664-11.555,2.51,2.51,0,0,1-.136-1.641,2.077,2.077,0,0,1,2.406-.982,6.081,6.081,0,0,1,2.418,1.41,2.765,2.765,0,0,0,.459-3.617c-1.649-2.877-4.465-4.622-5.916-7.788a12.156,12.156,0,0,1-1.315-7.742A17.482,17.482,0,0,1,71.473,235.262Z" transform="translate(-13.161 -10.003)" fill="#d84242"/><path d="M95.7,265.624a13.986,13.986,0,0,0-9.14,2.611c-1.166.774-2.381,2-1.947,3.282a3.172,3.172,0,0,0,3.051,1.618,12.463,12.463,0,0,1,3.72.22,20.425,20.425,0,0,0-4.3,9.51c-.546,3.363,0,7.291,3.038,9.244a11.392,11.392,0,0,0,7.143,1.26,16.157,16.157,0,0,0,5.692-1.352,10.892,10.892,0,0,0,5.94-10.157c-.149-3.94-2.269-7.291-5.035-10.145C101.422,269.206,99.71,266.063,95.7,265.624Z" transform="translate(-3.412 -0.857)" fill="url(#ae)"/><path d="M283.285,255.15a28.242,28.242,0,0,0-3.113,8,15.344,15.344,0,0,0,5.172,13.8c2.889,2.554,6.858,4.437,8.111,7.962,1.141,3.224-.4,6.933,1.079,10.076s5.506,4.437,8.979,3.756a13.9,13.9,0,0,0,8.284-5.778,51.415,51.415,0,0,0,4.527-8.967,92.362,92.362,0,0,1,6.362-11.809,62.455,62.455,0,0,0,4.775-8.089,27.376,27.376,0,0,0,2.158-10.457c.174-8.274-3.063-17-10.219-21.9a20.17,20.17,0,0,0-22.509.185c-3.311,2.311-4.44,5.4-6.2,8.817Q286.981,247.905,283.285,255.15Z" transform="translate(43.533 -6.642)" fill="url(#af)"/><path d="M297.6,215.316c-1.24-1.075-2.927-2.311-4.341-1.479a2.925,2.925,0,0,0-1.116,1.41,9.023,9.023,0,0,0-.36,6.413,6.747,6.747,0,0,0-4.465-.393c-2.245.89-2.592,3.79-1.873,5.963s2.108,4.206,2.121,6.471c0,1.156-.372,2.311-.4,3.536a3.075,3.075,0,0,0,1.637,2.993c1.525.636,3.162-.485,4.551-1.363,7.366-4.622,18.6-2.484,23.451,4.483s3.026,15.946,1.1,23.977c.484.693,1.4-.358,1.984-.982,1.24-1.329,3.919-.243,4.291,1.491a4.675,4.675,0,0,1-2.381,4.5c-1.538,1.04-3.373,1.629-4.961,2.577a1.342,1.342,0,0,0-.695,2.092,29.665,29.665,0,0,0,1.736,3.178,3.637,3.637,0,0,0,2.22,1.883,3.734,3.734,0,0,0,2.071-.439c5.072-2.311,8.52-6.829,11.36-11.382s5.11-10,2.344-14.386c-.546-.867-1.24-1.629-1.773-2.508a15.038,15.038,0,0,1-1.364-5.315,36.918,36.918,0,0,0-12.5-21.828c-3.162-2.727-6.523-5.107-10.8-5.778C304.593,219.7,301.257,218.69,297.6,215.316Z" transform="translate(44.759 -8.949)" fill="#b7a451"/><path d="M370.116,253.679c-.372,4.287.422,9.244,4.229,11.625,2.741,1.733,6.312,1.676,9.636,1.548,4.663-.173,9.487-.393,13.642-2.311,6.362-2.889,10.157-9.071,13.046-15.1a37.75,37.75,0,0,0,4.179-13.115c.372-4.622-.856-9.429-4.229-12.78a18.6,18.6,0,0,0-7.751-4.322C382.245,212.9,371.368,238.761,370.116,253.679Z" transform="translate(65.154 -8.221)" fill="url(#ag)"/><path d="M381.161,214.527a9.414,9.414,0,0,1,1.364-4.426,7.734,7.734,0,0,1,4.192-2.785c5.184-1.525,10.678.751,15.552,2.981l12.65,5.778a15.357,15.357,0,0,1,10.157,9.487,14.007,14.007,0,0,1,1.476,4.576,11.825,11.825,0,0,1-1.6,6.124,9.731,9.731,0,0,1-3.348,4.206c1.3.555,1.674,2.138,1.513,3.467a10.733,10.733,0,0,1-3.323,6.182,35.22,35.22,0,0,1-5.891,4.4l-4.092,2.635a2.847,2.847,0,0,1-2.48.612,1.628,1.628,0,0,1-.905-1.571,5.1,5.1,0,0,1,.533-1.814,35.273,35.273,0,0,0,2.778-15.738,6.615,6.615,0,0,0-.57-2.715,8.03,8.03,0,0,0-1.674-1.953l-5.9-5.512a24.634,24.634,0,0,0-4.961-3.906,13.712,13.712,0,0,0-11.5-.6c-.819.335-2.282,1.225-3.212.994-1.24-.312-.905-1.41-.98-2.542a42.42,42.42,0,0,1,.223-7.881Z" transform="translate(67.751 -9.998)" fill="#3e3e54"/><path d="M408.316,247.733a5.064,5.064,0,0,1-1.24,4.021,9.373,9.373,0,0,1-3.907,2.843,3.371,3.371,0,0,1-2.27.243,2.817,2.817,0,0,1-1.649-2.635,7.23,7.23,0,0,1,3.336-6.228C404.695,244.695,407.8,245.03,408.316,247.733Z" transform="translate(72.17 -4.02)" fill="url(#ah)"/><path d="M370.177,242.032a18.684,18.684,0,0,1,3.658-.682,10.094,10.094,0,0,1,2.48,0,13.468,13.468,0,0,1,2.964.994c2.48,1.063,5.171,2.311,6.374,4.622a21.213,21.213,0,0,0,1.091,2.311,8.162,8.162,0,0,0,4.142,2.507c1.327.474,1.476,2.138,2.592,2.947,1.339.971,3.286.578,4.787-.127a13.146,13.146,0,0,0,4.378-3.236,10.407,10.407,0,0,1,2.716-2.646,2.592,2.592,0,0,1,3.423.682,2.887,2.887,0,0,1-.422,2.45,31.781,31.781,0,0,1-7.28,9.117,15.293,15.293,0,0,1-3.286,2.311,18.934,18.934,0,0,1-5.8,1.456,100.522,100.522,0,0,1-12.079.867,18.435,18.435,0,0,1-6.9-.89,6.933,6.933,0,0,1-1.86-1.063,8.534,8.534,0,0,1-2.48-4.761C367.176,252.813,368.02,247.821,370.177,242.032Z" transform="translate(64.646 -4.64)" fill="#3e3e54"/><path d="M382.074,254.23a3.354,3.354,0,0,1-.434,2.08c-.806,1.156-2.555,1.329-4.03,1.156a12.785,12.785,0,0,1-3.919-1.155,2.846,2.846,0,0,1-1.786-3.224,28.119,28.119,0,0,1,.248-3.386,7.643,7.643,0,0,1,.645-2.438c.57-1.156,1.513-2.011,2.852-1.5a10.321,10.321,0,0,1,3.212,2.011A9.707,9.707,0,0,1,382.074,254.23Z" transform="translate(65.598 -3.965)" fill="url(#ai)"/><path d="M191.823,287.83a29.226,29.226,0,0,1,4.5-8.678l6.548-9.764a1.716,1.716,0,0,1,.819-.774,1.637,1.637,0,0,1,1.24.277c3.051,1.768,3.795,5.627,3.423,8.955s-1.563,6.621-1.24,9.949a45.6,45.6,0,0,1,.868,5.443,9.312,9.312,0,0,1-3.832,7.014c-2.79,2.184-9.078,5.177-11.434,1.248C190.744,298.114,190.955,291.389,191.823,287.83Z" transform="translate(22.203 -0.392)" fill="url(#aj)"/><path d="M199.107,294.052c-3.212.809-6.573,2.253-7.949,5.073a11.488,11.488,0,0,0-.856,4.391q-.707,11.74-.546,23.5a7.061,7.061,0,0,0,1.141,4.553c1.24,1.491,3.485,1.86,5.519,1.918a28.867,28.867,0,0,0,11.161-1.907,4.839,4.839,0,0,0,2.716-1.918,4.623,4.623,0,0,0,.322-2.5c-.434-7.777-2.381-15.623-2.48-23.365C208.011,298.327,207.069,292.041,199.107,294.052Z" transform="translate(21.852 3.509)" fill="#111d5e"/><path d="M179.539,324.123a2.83,2.83,0,0,0-1.389.347,2.4,2.4,0,0,0-.769,1.514c-.446,2.126-.67,4.7,1.129,6.067a7,7,0,0,0,3.038,1.051c2.629.462,5.271.89,7.9,1.306a4.816,4.816,0,0,0,2.567-.093,17.713,17.713,0,0,0,1.761-1.156,5.773,5.773,0,0,1,3.324-.347c2.852.266,5.7.636,8.532,1.156a8.555,8.555,0,0,0,2.914.162,2.575,2.575,0,0,0,2.121-1.664c.347-1.329-.992-2.5-2.232-3.247C199.6,323.776,189.708,323.476,179.539,324.123Z" transform="translate(18.812 8.207)" fill="url(#ak)"/><path d="M171.469,294.666c1.922,2.022,8.4,3.894,10.975,2.658,1.711-.82,1.86-5.246,2.629-6.933a21.044,21.044,0,0,0,1.352-4.1,12.393,12.393,0,0,0,.372-5.974,5.507,5.507,0,0,0-4.154-4.183c-2.034-.347-14.386-1.641-13.208-.058C174.309,282.672,166.868,289.847,171.469,294.666Z" transform="translate(16.96 0.653)" fill="url(#al)"/><path d="M174.828,287.031a19.9,19.9,0,0,0,2.27,4.5,6.259,6.259,0,0,0,4.365,2.6,2.71,2.71,0,0,0,1.24-.173c1.116-.485,1.414-1.8,1.575-2.935l.881-6.124a2.506,2.506,0,0,0-.074-1.387,2.541,2.541,0,0,0-.93-.924,31.786,31.786,0,0,0-2.927-1.814c-2.1-1.156-4.837-2.427-7.367-1.976a2.264,2.264,0,0,0-1.848,1.41c-.31,1.005.533,2.034.967,2.889C173.65,284.351,174.258,285.679,174.828,287.031Z" transform="translate(17.582 1.181)" fill="url(#am)"/><path d="M200.151,256.46s5.965,22.475-.806,30.3-17.623,7.58-21.951,3.282-20.425-23.11-14.46-34.423S192.2,230.7,200.151,256.46Z" transform="translate(15.103 -4.566)" fill="url(#an)"/><path d="M176.088,250.472c-.459,2.612-.074,5.362-1.067,7.834-1.736,4.3-7.143,6.54-8.929,10.816-.434,1.04-.632,2.161-1.153,3.166a3.458,3.458,0,0,1-2.629,2.045,3.2,3.2,0,0,1-2.877-1.618,7.322,7.322,0,0,1-.856-3.189c-.769-7.4.149-15.264,4.576-21.435a20.718,20.718,0,0,1,15.341-8.528c3.72-.185,4.961.543,2.356,3.108C178.519,244.96,176.659,247.2,176.088,250.472Z" transform="translate(14.313 -4.91)" fill="#543e53"/><path d="M164.356,271.923a1.655,1.655,0,0,0-.818.254,1.446,1.446,0,0,0-.36.451,3.559,3.559,0,0,0-.645,2.38,3.646,3.646,0,0,0,2.989,2.45,9.027,9.027,0,0,0,4.576-.081.8.8,0,0,0,.384-.2.75.75,0,0,0,0-.786,12.342,12.342,0,0,0-2.319-3.386A4.182,4.182,0,0,0,164.356,271.923Z" transform="translate(15.318 0.112)" fill="url(#ao)"/><path d="M254.015,327.969c-.67.763-1.24,1.93-.521,2.612a2.374,2.374,0,0,0,1.773.37l22.249-1.225a3.341,3.341,0,0,0,1.079-.185c1.1-.462,1.24-1.872,1.1-3-.124-1.791-.248-3.571-.385-5.35s.3-2.531-1.711-2.785c-2.778-.358-6.275.485-8.929,1.156a29.068,29.068,0,0,0-14.659,8.412Z" transform="translate(37.086 7.342)" fill="url(#ap)"/><g transform="translate(242.878 36.844)"><path d="M220.812,112.684c-7.441-10.631-8.408-26.022.769-35.44a30.812,30.812,0,0,1,16.234-8.216c10.789-2.1,23.141.844,29.764,9.036a24.968,24.968,0,0,1,5.209,17.495,37.495,37.495,0,0,1-6.2,17.437c-1.972,3.108-4.341,6.1-5.209,9.625-.558,2.311-.459,4.622-.93,6.933-1.519,6.557-7.376,11.47-14.535,12.191-6.2.5-14.882-3.3-16.122-9.521-.67-3.363,0-5.951-1.736-9.325C226.17,119.2,223.206,116.081,220.812,112.684Z" transform="translate(-214.965 -68.373)" opacity="0.53" fill="url(#aq)"/><path d="M230.386,129.206c1.4-6.378,0-12.942-.856-19.4a13.219,13.219,0,0,1,.3-6.425,5.505,5.505,0,0,1,5.184-3.628c2.629.2,4.378,2.623,5.233,4.946a18.281,18.281,0,0,1,.93,8.9c-.236,1.583-.868,3.374-2.48,3.975a9.423,9.423,0,0,1,2.046-13.173,4.668,4.668,0,0,1,3.063-1.017c1.811.185,2.976,1.918,3.41,3.571a9.989,9.989,0,0,1-.186,5.778,2.7,2.7,0,0,1-.918,1.421,1.308,1.308,0,0,1-1.625-.116,1.573,1.573,0,0,1-.223-.89c-.2-3.605,0-7.615,2.691-10.226a2.7,2.7,0,0,1,1.587-.878,2.629,2.629,0,0,1,1.476.312c2.542,1.387,3.373,4.53,2.914,7.234s-1.922,5.154-3,7.7a29.009,29.009,0,0,0-2.269,12.93" transform="translate(-211.53 -63.495)" fill="none" stroke="#fff" stroke-miterlimit="10" stroke-width="0.78"/><path d="M224.91,129.76c-.285.428-.682.774-.955,1.156-.905,1.4-.384,3.189.174,4.749,1.091,3.062,2.319,6.321,5.085,8.274a15.023,15.023,0,0,0,6.548,2.207,43.316,43.316,0,0,0,13.766-.231,17.455,17.455,0,0,0,5.878-1.93,7.334,7.334,0,0,0,3.621-4.564,10.248,10.248,0,0,1,.347-1.733,15.644,15.644,0,0,1,.756-1.41,4.105,4.105,0,0,0,0-3.467,10.55,10.55,0,0,1-.992-2.057,5.515,5.515,0,0,1,.161-2.1,10.749,10.749,0,0,0-1.7-7.661,27.824,27.824,0,0,1-12.96,5.535,20.837,20.837,0,0,1-13.071-2.4c-1.649-.982-3.336-2.739-4.837-.612C225.369,125.381,226.125,127.935,224.91,129.76Z" transform="translate(-212.924 -60.19)" fill="#3e3e54"/></g></g></g></svg>