<svg xmlns="http://www.w3.org/2000/svg" xmlns:xlink="http://www.w3.org/1999/xlink" width="492" height="483" viewBox="0 0 492 483"><defs><filter id="a" x="13.5" y="13.5" width="464" height="464" filterUnits="userSpaceOnUse"><feOffset dy="5" input="SourceAlpha"/><feGaussianBlur stdDeviation="10" result="b"/><feFlood flood-opacity="0.302"/><feComposite operator="in" in2="b"/><feComposite in="SourceGraphic"/></filter><filter id="c" x="0" y="395" width="88" height="88" filterUnits="userSpaceOnUse"><feOffset dy="5" input="SourceAlpha"/><feGaussianBlur stdDeviation="7.5" result="d"/><feFlood flood-opacity="0.251"/><feComposite operator="in" in2="d"/><feComposite in="SourceGraphic"/></filter><filter id="e" x="404" y="0" width="88" height="88" filterUnits="userSpaceOnUse"><feOffset dy="5" input="SourceAlpha"/><feGaussianBlur stdDeviation="7.5" result="f"/><feFlood flood-opacity="0.251"/><feComposite operator="in" in2="f"/><feComposite in="SourceGraphic"/></filter><filter id="g" x="411" y="59" width="74" height="74" filterUnits="userSpaceOnUse"><feOffset dy="5" input="SourceAlpha"/><feGaussianBlur stdDeviation="7.5" result="h"/><feFlood flood-opacity="0.251"/><feComposite operator="in" in2="h"/><feComposite in="SourceGraphic"/></filter><filter id="i" x="7" y="350" width="74" height="74" filterUnits="userSpaceOnUse"><feOffset dy="5" input="SourceAlpha"/><feGaussianBlur stdDeviation="7.5" result="j"/><feFlood flood-opacity="0.251"/><feComposite operator="in" in2="j"/><feComposite in="SourceGraphic"/></filter><filter id="k" x="416" y="109" width="64" height="64" filterUnits="userSpaceOnUse"><feOffset dy="5" input="SourceAlpha"/><feGaussianBlur stdDeviation="7.5" result="l"/><feFlood flood-opacity="0.251"/><feComposite operator="in" in2="l"/><feComposite in="SourceGraphic"/></filter><filter id="m" x="12" y="315" width="64" height="64" filterUnits="userSpaceOnUse"><feOffset dy="5" input="SourceAlpha"/><feGaussianBlur stdDeviation="7.5" result="n"/><feFlood flood-opacity="0.251"/><feComposite operator="in" in2="n"/><feComposite in="SourceGraphic"/></filter></defs><g transform="translate(-779.5 -812.5)"><g transform="matrix(1, 0, 0, 1, 779.5, 812.5)" filter="url(#a)"><rect width="404" height="404" rx="15" transform="translate(43.5 38.5)" fill="#fff"/></g><g transform="matrix(1, 0, 0, 1, 779.5, 812.5)" filter="url(#c)"><rect width="43" height="43" rx="15" transform="translate(22.5 412.5)" fill="#354ed1"/></g><g transform="matrix(1, 0, 0, 1, 779.5, 812.5)" filter="url(#e)"><rect width="43" height="43" rx="15" transform="translate(426.5 17.5)" fill="#354ed1"/></g><g transform="matrix(1, 0, 0, 1, 779.5, 812.5)" filter="url(#g)"><rect width="29" height="29" rx="10" transform="translate(433.5 76.5)" fill="#354ed1"/></g><g transform="matrix(1, 0, 0, 1, 779.5, 812.5)" filter="url(#i)"><rect width="29" height="29" rx="10" transform="translate(29.5 367.5)" fill="#354ed1"/></g><g transform="matrix(1, 0, 0, 1, 779.5, 812.5)" filter="url(#k)"><rect width="19" height="19" rx="7" transform="translate(438.5 126.5)" fill="#354ed1"/></g><g transform="matrix(1, 0, 0, 1, 779.5, 812.5)" filter="url(#m)"><rect width="19" height="19" rx="7" transform="translate(34.5 332.5)" fill="#354ed1"/></g></g></svg>