<svg width="288" height="363" viewBox="0 0 288 363" fill="none" xmlns="http://www.w3.org/2000/svg">
<g clip-path="url(#clip0)">
<path d="M142.398 131.073C140.814 131.403 139.359 132.183 138.206 133.321C137.298 134.65 136.778 136.207 136.705 137.816C129.185 192.019 124.658 245.008 143.552 296.345C144.051 298.074 144.949 299.66 146.174 300.975C147.485 302.024 149.019 302.759 150.657 303.122C167.948 308.179 186.292 307.898 204.301 307.494C212.358 307.303 220.628 307.066 228.114 304.055C230.647 303.032 233.246 301.504 234.21 298.941C234.665 297.328 234.814 295.642 234.647 293.974C234.3 280.375 239.029 267.215 241.068 253.763C243.063 240.636 242.48 227.263 241.886 214.001C241.274 200.365 240.643 186.733 239.993 173.105C239.5 162.721 246.851 153.494 244.195 143.301C241.819 134.175 203.584 123.319 188.164 123.566C172.646 124.043 157.258 126.567 142.398 131.073Z" fill="white"/>
<path d="M238.782 348.233C224.595 361.191 203.797 365.09 184.869 361.966C165.942 358.842 148.606 349.3 132.951 338.186C138.312 325.256 142.047 311.707 144.067 297.851C143.664 300.616 193.532 305.594 198.261 305.572C206.71 305.572 215.541 302.2 223.744 302.549C230.916 302.83 231.588 309.809 232.709 315.619C234.748 326.483 236.773 337.354 238.782 348.233Z" fill="#3F3D56"/>
<path d="M238.782 348.233C224.595 361.191 203.797 365.09 184.869 361.966C165.942 358.842 148.606 349.3 132.951 338.186C138.312 325.256 142.047 311.707 144.067 297.851C143.664 300.616 193.532 305.594 198.261 305.572C206.71 305.572 215.541 302.2 223.744 302.549C230.916 302.83 231.588 309.809 232.709 315.619C234.748 326.483 236.773 337.354 238.782 348.233Z" fill="url(#paint0_linear)"/>
<path d="M150.029 318.844C148.785 318.513 147.654 317.849 146.757 316.923C145.897 315.631 145.542 314.066 145.759 312.528C145.992 308.797 147.231 305.2 149.345 302.122C166.796 308.361 185.49 310.289 203.841 307.741C209.624 306.932 227.554 300.751 226.254 311.899C225.447 318.9 213.523 319.766 208.077 321.227C188.924 326.26 168.708 325.43 150.029 318.844Z" fill="#3F3D56"/>
<path d="M202.205 121.566C203.18 123.915 204.446 126.421 203.774 128.893C203.482 129.885 202.999 130.809 202.351 131.613C200.719 133.772 198.566 135.48 196.094 136.574C193.622 137.668 190.913 138.113 188.222 137.867C185.532 137.62 182.948 136.691 180.714 135.166C178.481 133.642 176.671 131.572 175.456 129.152C178.032 124.635 179.155 119.43 178.672 114.25C178.459 112.002 178.011 109.406 179.457 107.63C180.211 106.808 181.164 106.196 182.224 105.854C186.707 104.079 193.095 103.494 197.174 106.619C200.838 109.462 200.379 117.25 202.205 121.566Z" fill="#F1AF8C"/>
<path opacity="0.3" d="M195.582 120.206C194.309 121.918 192.66 123.313 190.764 124.285C188.836 125.173 176.689 127.308 177.395 125.297C178.717 121.775 179.14 117.977 178.627 114.249C177.507 112.305 176.128 111.339 175.602 109.136C175.434 108.457 175.434 107.747 175.602 107.068C175.942 106.044 176.607 105.16 177.495 104.551C179.884 102.965 182.648 102.038 185.508 101.865C187.816 101.584 190.136 101.438 192.456 101.292C194.349 101.015 196.282 101.244 198.059 101.955C205.22 105.607 198.843 116.126 195.582 120.206Z" fill="url(#paint1_linear)"/>
<path d="M204.334 109.642C201.643 112.469 198.315 114.608 194.63 115.879C187.794 118.003 180.062 115.632 174.627 111.024C169.192 106.416 165.662 99.8756 163.219 93.11C158.848 80.6804 155.935 64.8118 158.815 51.9551C159.812 47.4597 161.314 42.9644 164.216 39.3905C174.963 26.1742 202.911 29.6918 214.644 40.7953C224.539 50.1232 220.639 67.4865 218.555 79.2531C216.628 90.3791 212.492 101.55 204.334 109.642Z" fill="#F1AF8C"/>
<path d="M225.055 68.4643C225.536 68.2512 226.061 68.1544 226.586 68.1818C227.112 68.2091 227.624 68.3598 228.08 68.6216C228.756 69.2992 229.155 70.2047 229.201 71.1615C229.593 72.718 229.593 74.3477 229.201 75.9041C228.776 76.9678 228.169 77.949 227.408 78.8036L223.867 83.2315C223.457 83.8535 222.888 84.354 222.22 84.6813C221.637 84.8724 221.015 84.9073 220.415 84.7824C218.746 84.5689 216.829 83.7148 216.616 82.0403C216.59 81.341 216.724 80.645 217.009 80.0061C218.802 75.1511 219.608 70.2849 225.055 68.4643Z" fill="#F1AF8C"/>
<path d="M157.728 65.3288C157.302 64.0767 156.514 62.9803 155.464 62.1796C154.414 61.3789 153.15 60.9102 151.833 60.8335C151.451 60.7925 151.066 60.8505 150.713 61.002C150.278 61.2585 149.942 61.6545 149.76 62.1259C148.877 64.476 148.686 67.0313 149.211 69.487C149.403 71.446 149.978 73.3479 150.903 75.0837C151.365 75.9359 152.004 76.6782 152.777 77.2601C153.551 77.8419 154.441 78.2496 155.386 78.4552C156.004 78.5806 156.643 78.543 157.242 78.346C157.842 78.149 158.379 77.7994 158.803 77.3314C160.664 74.9489 158.501 67.8912 157.728 65.3288Z" fill="#F1AF8C"/>
<path d="M228.114 65.4075C230.288 60.9121 232.697 56.1021 236.474 52.8767C235.001 49.1585 232.846 45.7504 230.12 42.8296C223.396 35.0301 215.361 28.2197 205.959 24.1514C196.557 20.0831 185.788 18.7682 175.915 21.7351C173.514 22.3769 171.258 23.4757 169.27 24.9718C167.879 26.1401 166.634 27.472 165.561 28.9389C160.28 35.7471 156.181 43.3989 153.436 51.573C152.76 53.224 152.461 55.0058 152.562 56.7876C152.773 58.0517 153.185 59.2734 153.783 60.4064C155.363 63.82 157.156 67.1306 159.151 70.3187C159.75 67.9292 159.98 65.4619 159.834 63.0025C159.729 57.8748 160.603 52.7742 162.412 47.9767C164.251 43.1633 167.755 39.1742 172.285 36.7384C174.578 35.6588 177.017 34.9241 179.524 34.5581C186.068 33.4368 192.766 33.5779 199.258 34.9739C206.183 36.4686 213.243 39.7952 216.628 46.0325C219.216 50.8313 219.25 56.5516 219.205 62.0023C219.205 64.5309 218.678 75.3197 218.678 75.3197C225.368 67.6776 226.769 67.7676 228.114 65.4075Z" fill="#C5733B"/>
<path opacity="0.3" d="M228.215 64.6208C230.389 60.1255 232.697 56.1021 236.474 52.8767C235.001 49.1585 232.846 45.7504 230.12 42.8296C223.396 35.0301 215.361 28.2197 205.959 24.1514C196.557 20.0831 185.788 18.7682 175.915 21.7351C173.514 22.3769 171.258 23.4757 169.27 24.9718C167.879 26.1401 166.634 27.472 165.561 28.9389C160.28 35.7471 156.181 43.3989 153.436 51.573C152.76 53.224 152.461 55.0058 152.562 56.7876C152.773 58.0517 153.185 59.2734 153.783 60.4064C155.363 63.82 157.156 67.1306 159.151 70.3187C159.75 67.9292 159.98 65.4619 159.834 63.0025C159.729 57.8748 160.603 52.7742 162.412 47.9767C164.251 43.1633 167.755 39.1742 172.285 36.7384C174.578 35.6588 177.017 34.9241 179.524 34.5581C186.068 33.4368 192.766 33.5779 199.258 34.9739C206.183 36.4686 213.243 39.7952 216.628 46.0325C219.216 50.8313 219.25 56.5516 219.205 62.0023C219.205 64.5309 218.678 75.3197 218.678 75.3197C218.678 75.3197 226.859 66.9809 228.215 64.6208Z" fill="url(#paint2_linear)"/>
<path d="M171.948 15.3965C174.021 17.4981 174.033 20.8809 173.394 23.7579C172.536 27.5689 170.792 31.1229 168.306 34.1309C166.188 36.6933 163.544 38.8173 161.683 41.582C158.501 46.2909 157.963 52.236 156.786 57.799C156.687 58.7391 156.295 59.6239 155.666 60.3276C154.422 61.4515 152.304 60.8558 151.183 59.5297C150.271 58.0919 149.785 56.4237 149.782 54.7197C149.311 48.7803 149.307 42.813 149.771 36.8731C149.895 32.728 150.788 28.6423 152.405 24.8255C155.016 19.3749 165.527 8.8558 171.948 15.3965Z" fill="#C5733B"/>
<path opacity="0.3" d="M171.948 15.3965C174.021 17.4981 174.033 20.8809 173.394 23.7579C172.536 27.5689 170.792 31.1229 168.306 34.1309C166.188 36.6933 163.544 38.8173 161.683 41.582C158.501 46.2909 157.963 52.236 156.786 57.799C156.687 58.7391 156.295 59.6239 155.666 60.3276C154.422 61.4515 152.304 60.8558 151.183 59.5297C150.271 58.0919 149.785 56.4237 149.782 54.7197C149.311 48.7803 149.307 42.813 149.771 36.8731C149.895 32.728 150.788 28.6423 152.405 24.8255C155.016 19.3749 165.527 8.8558 171.948 15.3965Z" fill="url(#paint3_linear)"/>
<path opacity="0.3" d="M155.789 69.105C155.759 68.4422 155.58 67.7947 155.266 67.2109C154.951 66.6271 154.51 66.1221 153.974 65.7334C153.761 65.5753 153.512 65.473 153.25 65.4357C152.987 65.3984 152.72 65.4274 152.472 65.5199C151.844 65.8346 151.721 66.6438 151.71 67.3855C151.615 68.8497 151.802 70.3185 152.259 71.7123C152.842 73.2407 155.385 76.2076 157.19 74.4657C158.176 73.5104 157.066 72.6563 156.461 71.9146C155.943 71.0742 155.708 70.0895 155.789 69.105Z" fill="url(#paint4_linear)"/>
<path d="M222.152 76.5109C222.491 75.7886 222.92 75.1126 223.43 74.4992C223.953 73.8851 224.683 73.4851 225.48 73.3754C226.366 73.308 227.374 73.9261 227.352 74.8139C227.314 75.2167 227.176 75.6033 226.949 75.9377C225.986 77.8756 224.653 79.6053 223.026 81.0287C222.369 81.6067 221.513 81.905 220.639 81.8604C220.114 81.751 219.639 81.472 219.287 81.066C218.935 80.6601 218.725 80.1496 218.69 79.6127C218.611 78.8148 218.914 77.365 219.81 77.1515C220.707 76.9379 221.558 77.6909 222.152 76.5109Z" fill="url(#paint5_linear)"/>
<path d="M57.6447 181.095C62.0487 198.077 68.4923 214.462 74.9247 230.792C78.4099 239.659 82.5001 249.223 90.8488 253.774C93.4496 255.292 96.46 255.952 99.4552 255.662C101.369 255.376 103.203 254.699 104.845 253.673C105.238 253.437 105.607 253.19 105.966 252.931C107.658 251.746 109.168 250.318 110.448 248.694C113.648 244.545 115.572 239.55 115.984 234.321C116.379 228.015 115.289 221.705 112.802 215.901C112.275 214.552 111.681 213.215 111.031 211.911C108.078 206.182 104.739 200.663 101.035 195.391C100.307 194.323 99.5896 193.244 98.8724 192.165C95.9322 187.872 93.3854 183.321 91.2634 178.567C89.4705 174.159 88.0826 169.596 87.1171 164.935C85.7611 158.866 85.5594 158.371 80.8416 162.563C74.266 168.41 67.0252 173.457 59.2696 177.6C58.9151 177.694 58.5858 177.865 58.3056 178.102C58.0255 178.339 57.8016 178.636 57.6502 178.971C57.4989 179.306 57.4238 179.67 57.4306 180.038C57.4374 180.405 57.5259 180.767 57.6895 181.095H57.6447Z" fill="#2E6D88"/>
<path d="M83.2063 158.349C82.8701 157.618 82.3546 156.787 81.5477 156.787C81.1903 156.812 80.8461 156.932 80.5504 157.135C79.0461 158.171 77.6054 159.297 76.236 160.507C71.9664 163.777 66.6323 165.227 61.4438 166.62C60.3746 166.805 59.3819 167.297 58.5862 168.036C57.2078 169.61 57.9922 172.049 58.8663 173.959C59.7404 175.87 60.5585 177.634 61.4326 179.466C61.7112 180.285 62.2929 180.965 63.0574 181.365C63.7283 181.518 64.4302 181.455 65.0634 181.185C70.4586 179.42 75.4464 176.588 79.7323 172.858C81.4693 171.363 84.6295 168.958 85.582 166.856C86.5345 164.755 84.114 160.327 83.2063 158.349Z" fill="white"/>
<path d="M78.3651 148.572C74.3533 143.649 67.4727 142.031 61.1524 142.379C54.8321 142.728 48.7247 144.717 42.4828 145.751C33.2084 147.314 23.6879 146.427 14.8595 143.177C11.2174 141.795 7.7323 139.974 4.01183 138.772C3.48483 138.528 2.91132 138.401 2.3309 138.401C1.75048 138.401 1.17698 138.528 0.649963 138.772C0.281006 139.043 -0.0181961 139.399 -0.222816 139.809C-0.427437 140.22 -0.531616 140.673 -0.526711 141.132C-0.616356 143.458 1.12061 145.425 2.83516 147.009C14.8628 158.168 30.5502 164.521 46.9317 164.867C50.2737 164.781 53.618 164.875 56.95 165.148C59.9645 165.53 62.8893 166.418 65.915 166.969C68.876 167.643 71.9584 167.562 74.88 166.733C82.7019 164.036 82.9933 154.269 78.3651 148.572Z" fill="#F1AF8C"/>
<path d="M205.298 196.874C202.015 221.88 197.297 246.851 197.577 272.07C197.756 287.725 199.818 303.279 202.138 318.766C202.198 319.646 202.479 320.497 202.956 321.238C203.789 322.075 204.887 322.595 206.06 322.71C217.603 325.198 229.231 327.221 240.945 328.779C240.945 296.39 240.396 256.483 241.786 224.138C242.783 200.661 247.859 184.973 246.459 161.518L245.338 142.053C245.35 141.111 245.151 140.177 244.755 139.322C244.229 138.522 243.523 137.856 242.693 137.378C232.115 130.208 218.04 122.678 205.13 121.532C203.808 125.758 206.889 133.816 207.371 138.502C208.077 145.007 208.402 151.547 208.346 158.09C208.155 171.07 207.137 184.025 205.298 196.874Z" fill="#2E6D88"/>
<path opacity="0.25" d="M205.298 196.874C202.015 221.88 197.297 246.851 197.577 272.07C197.756 287.725 199.818 303.279 202.138 318.766C202.198 319.646 202.479 320.497 202.956 321.238C203.789 322.075 204.887 322.595 206.06 322.71C217.603 325.198 229.231 327.221 240.945 328.779C240.945 296.39 240.396 256.483 241.786 224.138C242.783 200.661 247.859 184.973 246.459 161.518L245.338 142.053C245.35 141.111 245.151 140.177 244.755 139.322C244.229 138.522 243.523 137.856 242.693 137.378C232.115 130.208 218.04 122.678 205.13 121.532C203.808 125.758 206.889 133.816 207.371 138.502C208.077 145.007 208.402 151.547 208.346 158.09C208.155 171.07 207.137 184.025 205.298 196.874Z" fill="url(#paint6_linear)"/>
<g filter="url(#filter0_d)">
<path d="M215.44 123.409L228.405 203.864L215.496 217.463L224.281 238.816L201.275 288.501C201.275 288.501 202.463 258.337 207.181 206.876C211.898 155.416 203.046 121.161 203.046 121.161L215.44 123.409Z" fill="#2E6D88"/>
</g>
<path d="M171.321 122.397C171.979 122.396 172.63 122.531 173.234 122.794C173.837 123.057 174.38 123.442 174.828 123.926C175.314 124.854 175.498 125.911 175.355 126.949L172.744 189.513C172.551 197.134 171.975 204.741 171.018 212.304C170.29 217.283 169.236 222.205 168.385 227.162C162.894 258.888 165.516 291.423 163.633 323.564C163.676 324.454 163.411 325.332 162.882 326.048C162.278 326.566 161.524 326.877 160.731 326.936C148.53 329.119 136.092 329.652 123.75 328.521C128.816 276.734 131.61 224.79 132.133 172.689C132.256 159.911 132.278 146.931 135.763 134.625C135.951 133.745 136.334 132.919 136.884 132.208C137.573 131.56 138.401 131.08 139.305 130.804C145.277 128.477 151.262 126.207 157.235 123.825C162.333 121.768 165.818 122.397 171.321 122.397Z" fill="#2E6D88"/>
<path opacity="0.5" d="M171.321 122.397C171.979 122.396 172.63 122.531 173.234 122.794C173.837 123.057 174.38 123.442 174.828 123.926C175.314 124.854 175.498 125.911 175.355 126.949L172.744 189.513C172.551 197.134 171.975 204.741 171.018 212.304C170.29 217.283 169.236 222.205 168.385 227.162C162.894 258.888 165.516 291.423 163.633 323.564C163.676 324.454 163.411 325.332 162.882 326.048C162.278 326.566 161.524 326.877 160.731 326.936C148.53 329.119 136.092 329.652 123.75 328.521C128.816 276.734 131.61 224.79 132.133 172.689C132.256 159.911 132.278 146.931 135.763 134.625C135.951 133.745 136.334 132.919 136.884 132.208C137.573 131.56 138.401 131.08 139.305 130.804C145.277 128.477 151.262 126.207 157.235 123.825C162.333 121.768 165.818 122.397 171.321 122.397Z" fill="url(#paint7_linear)"/>
<g filter="url(#filter1_d)">
<path d="M177.092 121.802L171.321 122.397L149.67 192.289L160.574 210.338L148.483 234.287L163.533 280.128C163.533 280.128 173.237 212.282 173.103 196.222C172.968 180.163 177.092 121.802 177.092 121.802Z" fill="#2E6D88"/>
</g>
<path opacity="0.75" d="M215.44 123.409L228.405 203.864L215.496 217.463L224.281 238.816L201.275 288.501C201.275 288.501 202.463 258.337 207.181 206.876C211.898 155.416 203.046 121.161 203.046 121.161L215.44 123.409Z" fill="url(#paint8_linear)"/>
<path opacity="0.75" d="M177.092 121.802L171.321 122.397L149.67 192.289L160.574 210.338L148.483 234.287L163.533 280.128C163.533 280.128 173.237 212.282 173.103 196.222C172.968 180.163 177.092 121.802 177.092 121.802Z" fill="url(#paint9_linear)"/>
<path d="M174.671 3.40522C175.216 2.52496 175.928 1.76112 176.767 1.15754C177.812 0.534796 179.003 0.201281 180.219 0.19104C182.785 0.211688 185.329 0.659835 187.749 1.51717C201.578 5.6529 215.765 11.3283 224.965 22.4318C231.319 30.0514 234.826 39.5928 238.222 48.9207C238.827 50.6065 239.343 52.708 238.132 54.0005C237.294 54.7092 236.225 55.085 235.129 55.0569C229.235 55.439 223.452 53.6633 217.815 51.8876C207.73 48.7072 197.521 45.3806 188.309 40.0536C180.465 35.4684 171.579 30.0065 170.604 20.3078C169.973 14.3715 171.41 8.39925 174.671 3.40522Z" fill="#C5733B"/>
<path d="M96.0934 219.16C96.6764 222.859 97.7036 226.474 99.1527 229.926C99.9727 231.888 100.924 233.791 101.999 235.624C104.655 240.119 99.926 255.28 104.868 253.673C105.276 253.482 105.653 253.232 105.989 252.931C107.554 251.597 109.05 250.183 110.471 248.694C114.247 244.862 118.551 240.119 119.436 239.187C124.961 233.298 130.205 226.903 133.096 219.351C134.452 215.833 135.405 204.741 136.055 191.648C136.29 186.76 136.492 181.534 136.66 176.398C137.344 153.696 137.299 130.995 136.85 132.253C135.73 135.232 127.28 150.426 125.644 153.112C122.282 158.439 105.596 187.085 101.091 195.424C100.643 196.234 100.329 196.852 100.15 197.245C98.4241 200.564 97.0855 204.071 96.1606 207.697C95.4491 211.482 95.4263 215.366 96.0934 219.16Z" fill="#2E6D88"/>
<g filter="url(#filter2_d)">
<path d="M196.311 131.399L190.203 137.086C190.031 137.174 189.884 137.303 189.773 137.461C189.663 137.62 189.593 137.803 189.569 137.995C189.546 138.187 189.57 138.382 189.64 138.563C189.709 138.743 189.822 138.904 189.968 139.03C193.3 143.526 196.834 147.834 200.569 151.954C203.931 144.087 206.934 135.58 206.542 126.859C206.419 124.094 205.657 118.284 202.765 122.881C201.023 126.01 198.85 128.877 196.311 131.399Z" fill="#EEEEEE"/>
</g>
<g filter="url(#filter3_d)">
<path d="M182.124 132.399C183.113 133.577 184.268 134.603 185.553 135.445C186.595 135.947 187.608 136.506 188.59 137.12C188.857 137.312 189.079 137.562 189.239 137.85C189.777 138.895 188.892 140.098 188.119 140.963C187.222 142.087 180.274 152.707 180.039 152.449C178.381 150.358 177.607 145.178 176.543 142.728C175.163 139.828 174.168 136.76 173.584 133.602C173.008 130.414 173.542 127.125 175.097 124.285C175.445 123.701 176.532 122.465 177.204 123.229C177.406 123.454 177.361 124.544 177.428 124.881C177.568 125.466 177.759 126.038 178 126.589C179.042 128.742 180.436 130.706 182.124 132.399Z" fill="#EEEEEE"/>
</g>
<path d="M195.112 206.056C194.977 223.711 194.361 241.389 195.649 258.989C196.131 265.586 196.882 272.261 195.649 278.78C194.215 286.748 190.046 293.895 185.878 300.863C183.928 300.548 182.975 298.357 182.348 296.48L174.324 272.329C173.816 271.061 173.528 269.715 173.472 268.35C173.596 266.847 173.975 265.376 174.593 264.001C180.499 247.964 180.252 230.421 181.249 213.35C182.17 197.744 184.184 182.223 187.278 166.901C187.92 164.289 188.269 161.612 188.321 158.922C188.314 156.972 187.901 155.045 187.107 153.264C186.314 151.484 185.159 149.889 183.715 148.583C185.956 144.942 188.522 142.761 190.439 139.929C193.047 142.216 195.016 145.144 196.154 148.425C196.154 148.425 191.795 153.044 192.523 159.034C194.225 174.65 195.09 190.347 195.112 206.056Z" fill="#3F3D56"/>
<path d="M211.921 216.092C211.338 212.54 211.484 208.899 210.8 205.382C210.156 202.159 208.847 199.106 206.958 196.42C205.068 193.734 202.64 191.473 199.829 189.783C198.193 193.93 200.188 198.515 200.95 202.909C201.197 204.314 201.084 206.157 199.751 206.674C198.63 207.101 197.51 206.258 196.557 205.46L168.317 180.736C166.681 186.052 170.458 191.322 173.069 196.234C173.541 197.012 173.847 197.881 173.965 198.785C173.933 199.919 173.65 201.033 173.136 202.044C170.017 209.743 169.116 218.165 170.536 226.352C171.074 229.387 172.038 232.556 174.391 234.545C175.99 235.722 177.796 236.583 179.714 237.085L205.668 245.66C206.124 245.932 206.631 246.105 207.158 246.171C207.685 246.236 208.219 246.191 208.727 246.039C209.236 245.887 209.707 245.631 210.112 245.287C210.517 244.944 210.847 244.519 211.08 244.042C214.173 239.996 218.667 234.208 217.905 228.713C217.3 224.037 212.739 221.183 211.921 216.092Z" fill="#F1AF8C"/>
<path d="M223.777 227.926C224.324 229.201 224.643 230.563 224.718 231.949C224.987 237.231 221.726 242.064 217.995 245.806C217.225 246.657 216.306 247.358 215.283 247.874C213.389 248.717 211.215 248.346 209.187 247.964C208.492 247.829 207.685 247.615 207.405 246.964C206.99 245.975 208.1 245.064 208.985 244.457C211.998 242.208 214.131 238.971 215.014 235.309C215.519 233.392 215.809 231.425 215.877 229.443C215.877 228.061 215.473 225.959 216.437 224.79C218.869 221.891 222.791 225.678 223.777 227.926Z" fill="white"/>
<path d="M211.596 213.586C210.711 216.08 208.806 219.385 207.663 221.778C206.845 223.584 206.137 225.438 205.545 227.33C203.996 231.602 202.76 235.982 201.847 240.434C201.667 241.446 200.67 245.334 200.905 246.345L206.508 246.638C206.71 246.638 207.775 243.817 207.965 243.727C208.168 243.6 208.325 243.411 208.413 243.187C211.047 238.299 211.697 232.601 213.692 227.454C214.375 225.894 214.977 224.3 215.496 222.677C216.062 220.989 216.062 219.162 215.496 217.474C214.801 216.002 213.042 213.968 211.596 213.586Z" fill="white"/>
<path d="M242.357 143.076C242.68 142.205 243.304 141.479 244.116 141.031C244.766 140.761 242.48 138.423 243.153 138.614C249.663 140.401 255.771 150.19 257.586 156.708C261.609 171.318 263.873 186.243 266.125 201.178L273.275 248.537C274.037 253.538 274.788 258.539 275.449 263.563C275.819 266.406 276.144 269.362 275.225 272.081C273.6 276.835 268.389 279.611 263.38 279.847C258.371 280.083 253.507 278.251 248.879 276.33C234.176 270.21 220.096 262.683 206.833 253.853C205.442 253.125 204.347 251.933 203.74 250.481C203.52 249.428 203.559 248.336 203.852 247.301C206.215 235.845 210.339 224.827 216.078 214.642C223.821 221.333 232.436 226.936 241.685 231.297C234.714 213.529 236.238 193.705 237.863 174.678C238.737 164.474 237.706 152.202 242.357 143.076Z" fill="#2E6D88"/>
<path opacity="0.35" d="M242.357 143.076C242.68 142.205 243.304 141.479 244.116 141.031C244.766 140.761 242.48 138.423 243.153 138.614C249.663 140.401 255.771 150.19 257.586 156.708C261.609 171.318 263.873 186.243 266.125 201.178L273.275 248.537C274.037 253.538 274.788 258.539 275.449 263.563C275.819 266.406 276.144 269.362 275.225 272.081C273.6 276.835 268.389 279.611 263.38 279.847C258.371 280.083 253.507 278.251 248.879 276.33C234.176 270.21 220.096 262.683 206.833 253.853C205.442 253.125 204.347 251.933 203.74 250.481C203.52 249.428 203.559 248.336 203.852 247.301C206.215 235.845 210.339 224.827 216.078 214.642C223.821 221.333 232.436 226.936 241.685 231.297C234.714 213.529 236.238 193.705 237.863 174.678C238.737 164.474 237.706 152.202 242.357 143.076Z" fill="url(#paint10_linear)"/>
<path opacity="0.5" d="M57.6449 181.095C62.0489 198.077 68.4925 214.462 74.9249 230.792C78.41 239.659 82.5003 249.223 90.8489 253.774C93.4497 255.292 96.4601 255.952 99.4553 255.662C101.369 255.376 103.204 254.699 104.845 253.673C105.253 253.482 105.631 253.232 105.966 252.931C107.658 251.746 109.169 250.318 110.449 248.694C114.225 244.862 118.528 240.119 119.414 239.187C124.938 233.298 130.183 226.903 133.074 219.351L136.088 191.603L137.96 174.06L136.694 176.308C133.04 182.894 122.125 202.257 112.858 215.845C106.952 224.509 101.719 230.814 99.4104 230.005C99.3114 229.978 99.2169 229.936 99.1303 229.881C92.2497 226.274 75.0257 177.162 75.0257 177.162L57.6449 181.095Z" fill="url(#paint11_linear)"/>
</g>
<defs>
<filter id="filter0_d" x="186.275" y="110.161" width="57.1303" height="197.34" filterUnits="userSpaceOnUse" color-interpolation-filters="sRGB">
<feFlood flood-opacity="0" result="BackgroundImageFix"/>
<feColorMatrix in="SourceAlpha" type="matrix" values="0 0 0 0 0 0 0 0 0 0 0 0 0 0 0 0 0 0 127 0"/>
<feOffset dy="4"/>
<feGaussianBlur stdDeviation="7.5"/>
<feColorMatrix type="matrix" values="0 0 0 0 0 0 0 0 0 0 0 0 0 0 0 0 0 0 0.2 0"/>
<feBlend mode="normal" in2="BackgroundImageFix" result="effect1_dropShadow"/>
<feBlend mode="normal" in="SourceGraphic" in2="effect1_dropShadow" result="shape"/>
</filter>
<filter id="filter1_d" x="133.483" y="110.802" width="58.6095" height="188.326" filterUnits="userSpaceOnUse" color-interpolation-filters="sRGB">
<feFlood flood-opacity="0" result="BackgroundImageFix"/>
<feColorMatrix in="SourceAlpha" type="matrix" values="0 0 0 0 0 0 0 0 0 0 0 0 0 0 0 0 0 0 127 0"/>
<feOffset dy="4"/>
<feGaussianBlur stdDeviation="7.5"/>
<feColorMatrix type="matrix" values="0 0 0 0 0 0 0 0 0 0 0 0 0 0 0 0 0 0 0.2 0"/>
<feBlend mode="normal" in2="BackgroundImageFix" result="effect1_dropShadow"/>
<feBlend mode="normal" in="SourceGraphic" in2="effect1_dropShadow" result="shape"/>
</filter>
<filter id="filter2_d" x="185.561" y="121.168" width="25.0158" height="38.7859" filterUnits="userSpaceOnUse" color-interpolation-filters="sRGB">
<feFlood flood-opacity="0" result="BackgroundImageFix"/>
<feColorMatrix in="SourceAlpha" type="matrix" values="0 0 0 0 0 0 0 0 0 0 0 0 0 0 0 0 0 0 127 0"/>
<feOffset dy="4"/>
<feGaussianBlur stdDeviation="2"/>
<feColorMatrix type="matrix" values="0 0 0 0 0 0 0 0 0 0 0 0 0 0 0 0 0 0 0.25 0"/>
<feBlend mode="normal" in2="BackgroundImageFix" result="effect1_dropShadow"/>
<feBlend mode="normal" in="SourceGraphic" in2="effect1_dropShadow" result="shape"/>
</filter>
<filter id="filter3_d" x="169.358" y="122.987" width="24.0461" height="37.4667" filterUnits="userSpaceOnUse" color-interpolation-filters="sRGB">
<feFlood flood-opacity="0" result="BackgroundImageFix"/>
<feColorMatrix in="SourceAlpha" type="matrix" values="0 0 0 0 0 0 0 0 0 0 0 0 0 0 0 0 0 0 127 0"/>
<feOffset dy="4"/>
<feGaussianBlur stdDeviation="2"/>
<feColorMatrix type="matrix" values="0 0 0 0 0 0 0 0 0 0 0 0 0 0 0 0 0 0 0.25 0"/>
<feBlend mode="normal" in2="BackgroundImageFix" result="effect1_dropShadow"/>
<feBlend mode="normal" in="SourceGraphic" in2="effect1_dropShadow" result="shape"/>
</filter>
<linearGradient id="paint0_linear" x1="185.867" y1="297.851" x2="185.867" y2="362.987" gradientUnits="userSpaceOnUse">
<stop stop-color="#252525"/>
<stop offset="1" stop-color="#252525" stop-opacity="0"/>
</linearGradient>
<linearGradient id="paint1_linear" x1="188.4" y1="101.178" x2="188.4" y2="126.133" gradientUnits="userSpaceOnUse">
<stop stop-color="#2E2E2E"/>
<stop offset="1" stop-color="#2E2E2E" stop-opacity="0"/>
</linearGradient>
<linearGradient id="paint2_linear" x1="194.508" y1="20.1229" x2="194.508" y2="75.3197" gradientUnits="userSpaceOnUse">
<stop stop-color="#171717"/>
<stop offset="1" stop-color="#171717" stop-opacity="0"/>
</linearGradient>
<linearGradient id="paint3_linear" x1="161.596" y1="13.3204" x2="161.596" y2="60.9191" gradientUnits="userSpaceOnUse">
<stop stop-color="#171717"/>
<stop offset="1" stop-color="#171717" stop-opacity="0"/>
</linearGradient>
<linearGradient id="paint4_linear" x1="154.634" y1="65.4199" x2="154.634" y2="74.9973" gradientUnits="userSpaceOnUse">
<stop stop-color="#353535"/>
<stop offset="1" stop-color="#353535" stop-opacity="0"/>
</linearGradient>
<linearGradient id="paint5_linear" x1="-1154.17" y1="821.639" x2="-1103.73" y2="887.564" gradientUnits="userSpaceOnUse">
<stop offset="0.01"/>
<stop offset="1" stop-opacity="0"/>
</linearGradient>
<linearGradient id="paint6_linear" x1="222.133" y1="121.532" x2="222.133" y2="328.779" gradientUnits="userSpaceOnUse">
<stop stop-color="#323232"/>
<stop offset="1" stop-color="#323232" stop-opacity="0"/>
</linearGradient>
<linearGradient id="paint7_linear" x1="168.093" y1="193.3" x2="108.7" y2="192.183" gradientUnits="userSpaceOnUse">
<stop stop-color="#292929"/>
<stop offset="1" stop-color="#292929" stop-opacity="0"/>
</linearGradient>
<linearGradient id="paint8_linear" x1="214.84" y1="121.161" x2="214.84" y2="288.501" gradientUnits="userSpaceOnUse">
<stop/>
<stop offset="1" stop-color="#323232" stop-opacity="0"/>
</linearGradient>
<linearGradient id="paint9_linear" x1="162.787" y1="121.802" x2="162.787" y2="280.128" gradientUnits="userSpaceOnUse">
<stop/>
<stop offset="1" stop-color="#323232" stop-opacity="0"/>
</linearGradient>
<linearGradient id="paint10_linear" x1="224.685" y1="201.729" x2="285.774" y2="214.583" gradientUnits="userSpaceOnUse">
<stop stop-color="#252525"/>
<stop offset="1" stop-color="#252525" stop-opacity="0"/>
</linearGradient>
<linearGradient id="paint11_linear" x1="142.319" y1="271.969" x2="109.674" y2="209.673" gradientUnits="userSpaceOnUse">
<stop/>
<stop offset="1" stop-opacity="0"/>
</linearGradient>
<clipPath id="clip0">
<rect width="288" height="363" transform="matrix(-1 0 0 1 288 0)" fill="white"/>
</clipPath>
</defs>
</svg>
