<svg width="682" height="528" viewBox="0 0 682 528" fill="none" xmlns="http://www.w3.org/2000/svg">
<g clip-path="url(#clip0)">
<path opacity="0.24" d="M86 165.53C80.33 193.45 80.47 222.6 71.41 249.61C55.09 298.26 10.5 335.18 1.50003 385.73C-5.06997 422.59 10.35 462.52 39.96 485.41C65.41 505.08 98.35 511.74 130.19 516.3C249.56 533.4 370.93 528.98 491.19 520.57C535.02 517.5 580.36 513.46 618.73 492.08C643.11 478.49 664.02 457.63 674.41 431.73C684.8 405.83 683.64 374.79 668.41 351.41C651.66 325.73 619.3 309.5 612.87 279.51C607.39 253.95 623.17 229.38 634.58 205.86C653.58 166.68 660.98 118.45 639.93 80.34C626.93 56.83 604.53 39.75 580.47 27.79C513.14 -5.67 433.99 -2.44 359.12 4.56C250.68 14.71 111.53 40.04 86 165.53Z" fill="#56A1E2"/>
<path d="M523.69 145.06H196.69C185.959 145.06 177.26 153.759 177.26 164.49V362.06C177.26 372.791 185.959 381.49 196.69 381.49H523.69C534.421 381.49 543.12 372.791 543.12 362.06V164.49C543.12 153.759 534.421 145.06 523.69 145.06Z" fill="#888888"/>
<path d="M512.91 154.2H204.37C194.241 154.2 186.03 162.411 186.03 172.54V358.96C186.03 369.089 194.241 377.3 204.37 377.3H512.91C523.039 377.3 531.25 369.089 531.25 358.96V172.54C531.25 162.411 523.039 154.2 512.91 154.2Z" fill="white"/>
<path opacity="0.14" d="M199.62 284.64H99.3601C90.9378 284.64 84.1101 291.468 84.1101 299.89V326.04C84.1101 334.462 90.9378 341.29 99.3601 341.29H199.62C208.042 341.29 214.87 334.462 214.87 326.04V299.89C214.87 291.468 208.042 284.64 199.62 284.64Z" fill="#888888"/>
<path opacity="0.14" d="M607.89 287.53H507.63C499.208 287.53 492.38 294.358 492.38 302.78V328.93C492.38 337.352 499.208 344.18 507.63 344.18H607.89C616.312 344.18 623.14 337.352 623.14 328.93V302.78C623.14 294.358 616.312 287.53 607.89 287.53Z" fill="#888888"/>
<path opacity="0.14" d="M610.54 158.19H510.28C501.858 158.19 495.03 165.018 495.03 173.44V199.59C495.03 208.012 501.858 214.84 510.28 214.84H610.54C618.962 214.84 625.79 208.012 625.79 199.59V173.44C625.79 165.018 618.962 158.19 610.54 158.19Z" fill="#888888"/>
<path opacity="0.11" d="M338.93 218.93H235.87C227.878 218.93 221.4 225.408 221.4 233.4V347.05C221.4 355.042 227.878 361.52 235.87 361.52H338.93C346.921 361.52 353.4 355.042 353.4 347.05V233.4C353.4 225.408 346.921 218.93 338.93 218.93Z" fill="#888888"/>
<path opacity="0.14" d="M215.29 259.08C215.29 259.08 212.45 270.42 221.53 276.08C230.61 281.74 265.22 266.43 286.21 264.16C307.2 261.89 350.35 270.42 350.35 270.42C350.35 270.42 342.35 285.18 342.95 301.63C343.55 318.08 344.65 331.13 342.95 333.97C341.25 336.81 352.59 348.15 354.29 348.72C355.99 349.29 371.29 350.42 371.29 350.42L390.58 378.79L439.65 377.74L409.49 278.11L424.06 229.01L289.06 211.42L215.29 259.08Z" fill="#888888"/>
<path d="M188.98 379.7L120.96 430.91H597.13L530.63 378.94L188.98 379.7Z" fill="#888888"/>
<path d="M188.98 379.7L120.96 430.91H597.13L530.63 378.94L188.98 379.7Z" fill="url(#paint0_linear)"/>
<path d="M140.45 449.64L120.96 430.91H597.13L579.55 450.79L140.45 449.64Z" fill="#888888"/>
<path d="M140.45 449.64L120.96 430.91H597.13L579.55 450.79L140.45 449.64Z" fill="url(#paint1_linear)"/>
<path opacity="0.58" d="M305.54 422.89L325.8 406.84L399.93 406.45L421.33 422.51L305.54 422.89Z" fill="#888888"/>
<path opacity="0.58" d="M164.52 403.91L549.74 403.4L529.11 386.58H188.22L164.52 403.91Z" fill="#888888"/>
<path d="M400.85 350.57C398.63 347.57 394.72 346.39 391.21 345.05C377.47 339.77 366.64 328.98 357.02 317.86C354.79 315.29 352.55 312.59 351.57 309.33C350.991 307.336 350.905 305.231 351.32 303.197C351.734 301.162 352.637 299.259 353.95 297.65C354.491 297.066 354.986 296.441 355.43 295.78C355.941 294.77 356.279 293.682 356.43 292.56C357.1 289.22 358.66 285.4 362 284.72C362.753 284.654 363.497 284.51 364.22 284.29C365.42 283.76 366 282.42 366.52 281.21C368.45 276.75 371.65 272.08 376.47 271.48C377.09 271.474 377.703 271.342 378.27 271.09C379.61 270.32 379.43 268.39 379.73 266.87C380.47 263.08 385.13 261.15 388.91 261.96C392.69 262.77 395.73 265.49 398.58 268.09L409.52 278.09C412.46 280.77 415.52 283.56 419.45 284.5C419.775 284.613 420.119 284.661 420.462 284.64C420.805 284.62 421.141 284.531 421.45 284.38C421.761 284.102 422.011 283.761 422.183 283.381C422.355 283 422.446 282.588 422.45 282.17C423.82 273.75 438.76 264.45 445.29 265.58C441.29 276.93 438.17 294.85 435.83 311.28C446.94 329.64 463.47 343.49 480.26 356.86C484.401 360.329 488.774 363.51 493.35 366.38C498.8 369.62 504.8 372.02 509.64 376.11L439.64 377.74C437.695 377.909 435.735 377.716 433.86 377.17C432.041 376.398 430.385 375.289 428.98 373.9C422.313 368.1 415.843 362.1 409.57 355.9C407.35 353.74 403.91 351.35 400.85 350.57Z" fill="url(#paint2_linear)"/>
<path d="M417.14 299.92C416.42 305.99 413.14 311.45 409.56 316.38C407.036 320.12 403.927 323.429 400.35 326.18C396.714 328.926 392.218 330.284 387.67 330.01C383.902 329.635 380.416 327.849 377.91 325.01C377.032 324.092 376.414 322.956 376.12 321.72C375.59 318.87 377.71 316.28 379.72 314.19C387.209 306.391 395.196 299.085 403.63 292.32C406.25 290.22 413.5 284 417.32 285.47C419.17 286.18 417.49 296.93 417.14 299.92Z" fill="url(#paint3_linear)"/>
<path d="M438.17 260.18L375.17 341.32C375.17 341.32 358.72 340.18 348.5 331.67C338.28 323.16 356.45 318.05 356.45 318.05C356.45 318.05 393.89 280.61 399 251.1L438.17 260.18Z" fill="#888888"/>
<path d="M348.49 331.66C353.24 335.61 359.21 337.95 364.29 339.32C367.847 340.323 371.489 340.993 375.17 341.32L437.17 261.61L438.22 260.24L399.03 251.18C393.95 280.68 356.47 318.18 356.47 318.18C356.47 318.18 338.35 323.18 348.49 331.66Z" fill="url(#paint4_linear)"/>
<path d="M358.72 335.69C360.424 337.119 362.295 338.338 364.29 339.32C367.847 340.323 371.489 340.993 375.17 341.32L437.17 261.61L409.28 255.08C404.12 284.58 366.72 322.08 366.72 322.08C366.72 322.08 348.49 327.18 358.72 335.69Z" fill="url(#paint5_linear)"/>
<path d="M483.01 213.35C480.962 209.52 478.128 206.165 474.693 203.506C471.259 200.847 467.301 198.943 463.08 197.92C423.76 188.45 300.63 154.18 293.49 95.11C293.49 95.11 291.22 79.79 271.93 79.79C252.64 79.79 222 262.48 227.11 266.45C232.22 270.42 249.8 261.91 258.88 253.45C267.96 244.99 293.49 227.35 328.1 238.13C343.67 242.98 372.03 249.56 398.51 255.32C417.51 259.46 435.57 263.18 447.23 265.54C452.07 266.512 457.083 266.156 461.737 264.508C466.39 262.86 470.511 259.982 473.66 256.18C480.91 247.52 487.95 234.39 485.26 217.63C485.26 217.66 484.35 215.85 483.01 213.35Z" fill="#5792C5"/>
<path d="M277.846 181.063C290.953 129.866 287.595 84.7827 270.346 80.3667C253.096 75.9507 228.488 113.874 215.381 165.071C202.274 216.268 205.632 261.351 222.881 265.767C240.13 270.183 264.739 232.26 277.846 181.063Z" fill="#888888"/>
<path d="M277.846 181.063C290.953 129.866 287.595 84.7827 270.346 80.3667C253.096 75.9507 228.488 113.874 215.381 165.071C202.274 216.268 205.632 261.351 222.881 265.767C240.13 270.183 264.739 232.26 277.846 181.063Z" fill="url(#paint6_linear)"/>
<path d="M259.554 176.646C263.497 161.243 262.487 147.679 257.297 146.35C252.107 145.021 244.703 156.431 240.76 171.835C236.816 187.238 237.827 200.802 243.017 202.131C248.206 203.46 255.61 192.05 259.554 176.646Z" fill="url(#paint7_linear)"/>
<path d="M257.28 146.33L281.86 149.58C281.86 149.58 272.5 209.15 262 214.26L245.26 201.77L257.28 146.33Z" fill="url(#paint8_linear)"/>
<path d="M399.19 278.11C402.68 281.04 406.76 283.16 410.53 285.7C413 287.36 415.53 289.59 415.72 292.57C415.716 294.052 415.323 295.507 414.58 296.79C413.243 299.414 411.397 301.746 409.15 303.65C407.35 305.18 405.29 306.44 403.78 308.26C402.805 309.573 401.929 310.957 401.16 312.4C398.44 316.88 394.54 320.5 390.69 324.06C389.615 325.121 388.439 326.076 387.18 326.91C385.327 327.977 383.257 328.613 381.124 328.771C378.991 328.928 376.85 328.603 374.86 327.82C370.873 326.22 367.44 323.492 364.98 319.97C362.36 316.43 360.48 311.97 361.23 307.68C361.834 305.073 362.938 302.607 364.48 300.42C369.481 292.412 375.241 284.905 381.68 278C383.33 276.24 389.01 268.62 391.63 269C393.61 269.24 397.14 276.39 399.19 278.11Z" fill="url(#paint9_linear)"/>
<path d="M427.35 224.28C427.35 224.28 420.66 254.49 398.47 255.28L453.47 267.79C453.47 267.79 473.13 266.65 476.92 258.71C480.71 250.77 500.35 223.18 472.78 201.58L428.52 187.97C428.52 187.97 433.44 206.12 427.35 224.28Z" fill="url(#paint10_linear)"/>
<path d="M296.89 116.1C296.89 116.1 303.35 187.18 262.09 250C262.09 250 286.68 231.09 316.56 235.25C316.56 235.25 332.83 175.49 325.64 158.84C318.45 142.19 296.89 116.1 296.89 116.1Z" fill="url(#paint11_linear)"/>
<path d="M607.88 40.22H447.22C433.717 40.22 422.77 51.1666 422.77 64.67V106.56C422.77 120.063 433.717 131.01 447.22 131.01H607.88C621.383 131.01 632.33 120.063 632.33 106.56V64.67C632.33 51.1666 621.383 40.22 607.88 40.22Z" fill="white"/>
<path d="M615.6 150.96H515.34C506.918 150.96 500.09 157.788 500.09 166.21V192.36C500.09 200.782 506.918 207.61 515.34 207.61H615.6C624.022 207.61 630.85 200.782 630.85 192.36V166.21C630.85 157.788 624.022 150.96 615.6 150.96Z" fill="white"/>
<path d="M384.37 15.83H284.11C275.688 15.83 268.86 22.6577 268.86 31.08V57.23C268.86 65.6523 275.688 72.48 284.11 72.48H384.37C392.792 72.48 399.62 65.6523 399.62 57.23V31.08C399.62 22.6577 392.792 15.83 384.37 15.83Z" fill="white"/>
<path d="M193.6 278.86H93.3401C84.9177 278.86 78.0901 285.688 78.0901 294.11V320.26C78.0901 328.682 84.9177 335.51 93.3401 335.51H193.6C202.022 335.51 208.85 328.682 208.85 320.26V294.11C208.85 285.688 202.022 278.86 193.6 278.86Z" fill="white"/>
<path d="M614.64 279.83H514.38C505.958 279.83 499.13 286.658 499.13 295.08V321.23C499.13 329.652 505.958 336.48 514.38 336.48H614.64C623.062 336.48 629.89 329.652 629.89 321.23V295.08C629.89 286.658 623.062 279.83 614.64 279.83Z" fill="white"/>
<path opacity="0.11" d="M603.79 55.86H453.48C451.685 55.86 450.23 57.3151 450.23 59.11C450.23 60.9049 451.685 62.36 453.48 62.36H603.79C605.585 62.36 607.04 60.9049 607.04 59.11C607.04 57.3151 605.585 55.86 603.79 55.86Z" fill="#888888"/>
<path opacity="0.11" d="M603.79 78.27H453.48C451.685 78.27 450.23 79.7251 450.23 81.52C450.23 83.3149 451.685 84.77 453.48 84.77H603.79C605.585 84.77 607.04 83.3149 607.04 81.52C607.04 79.7251 605.585 78.27 603.79 78.27Z" fill="#888888"/>
<path opacity="0.11" d="M613.15 163.53H521.44C520.026 163.53 518.88 164.676 518.88 166.09V167.47C518.88 168.884 520.026 170.03 521.44 170.03H613.15C614.564 170.03 615.71 168.884 615.71 167.47V166.09C615.71 164.676 614.564 163.53 613.15 163.53Z" fill="#888888"/>
<path opacity="0.11" d="M613.15 185.93H521.44C520.026 185.93 518.88 187.076 518.88 188.49V189.87C518.88 191.284 520.026 192.43 521.44 192.43H613.15C614.564 192.43 615.71 191.284 615.71 189.87V188.49C615.71 187.076 614.564 185.93 613.15 185.93Z" fill="#888888"/>
<path opacity="0.11" d="M613.15 292.16H521.44C520.026 292.16 518.88 293.306 518.88 294.72V296.1C518.88 297.514 520.026 298.66 521.44 298.66H613.15C614.564 298.66 615.71 297.514 615.71 296.1V294.72C615.71 293.306 614.564 292.16 613.15 292.16Z" fill="#888888"/>
<path opacity="0.11" d="M613.15 314.56H521.44C520.026 314.56 518.88 315.706 518.88 317.12V318.5C518.88 319.914 520.026 321.06 521.44 321.06H613.15C614.564 321.06 615.71 319.914 615.71 318.5V317.12C615.71 315.706 614.564 314.56 613.15 314.56Z" fill="#888888"/>
<path opacity="0.11" d="M192.59 290.71H100.88C99.4662 290.71 98.3201 291.856 98.3201 293.27V294.65C98.3201 296.064 99.4662 297.21 100.88 297.21H192.59C194.004 297.21 195.15 296.064 195.15 294.65V293.27C195.15 291.856 194.004 290.71 192.59 290.71Z" fill="#888888"/>
<path opacity="0.11" d="M192.59 313.11H100.88C99.4662 313.11 98.3201 314.256 98.3201 315.67V317.05C98.3201 318.464 99.4662 319.61 100.88 319.61H192.59C194.004 319.61 195.15 318.464 195.15 317.05V315.67C195.15 314.256 194.004 313.11 192.59 313.11Z" fill="#888888"/>
<path opacity="0.11" d="M380.47 28.65H288.76C287.346 28.65 286.2 29.7962 286.2 31.21V32.59C286.2 34.0038 287.346 35.15 288.76 35.15H380.47C381.884 35.15 383.03 34.0038 383.03 32.59V31.21C383.03 29.7962 381.884 28.65 380.47 28.65Z" fill="#888888"/>
<path opacity="0.11" d="M380.47 51.05H288.76C287.346 51.05 286.2 52.1962 286.2 53.61V54.99C286.2 56.4039 287.346 57.55 288.76 57.55H380.47C381.884 57.55 383.03 56.4039 383.03 54.99V53.61C383.03 52.1962 381.884 51.05 380.47 51.05Z" fill="#888888"/>
<path opacity="0.11" d="M603.79 100.67H453.48C451.685 100.67 450.23 102.125 450.23 103.92C450.23 105.715 451.685 107.17 453.48 107.17H603.79C605.585 107.17 607.04 105.715 607.04 103.92C607.04 102.125 605.585 100.67 603.79 100.67Z" fill="#888888"/>
<path d="M184.79 50.81C186.23 53.7 209.35 93.18 209.35 93.18L220.43 85.47L208.35 40.69L184.79 50.81Z" fill="url(#paint12_linear)"/>
<path d="M138.06 99.46L175.16 127.4L167.45 139.45L122.65 125.48L138.06 99.46Z" fill="url(#paint13_linear)"/>
<path d="M112.05 203.52L160.22 195.81L160.71 209.78L113.5 225.68L112.05 203.52Z" fill="url(#paint14_linear)"/>
</g>
<defs>
<linearGradient id="paint0_linear" x1="356.11" y1="334.19" x2="359.52" y2="446.53" gradientUnits="userSpaceOnUse">
<stop stop-color="white" stop-opacity="0"/>
<stop offset="0.95" stop-color="white"/>
</linearGradient>
<linearGradient id="paint1_linear" x1="358.8" y1="425.67" x2="362.58" y2="507.37" gradientUnits="userSpaceOnUse">
<stop stop-color="#010101" stop-opacity="0"/>
<stop offset="0.95" stop-color="#010101"/>
</linearGradient>
<linearGradient id="paint2_linear" x1="509.64" y1="319.77" x2="351.06" y2="319.77" gradientUnits="userSpaceOnUse">
<stop stop-color="#E5C6D6"/>
<stop offset="0.42" stop-color="#EAD4D0"/>
<stop offset="1" stop-color="#F0E9CB"/>
</linearGradient>
<linearGradient id="paint3_linear" x1="-29456.3" y1="17013.4" x2="-35383.5" y2="13755" gradientUnits="userSpaceOnUse">
<stop stop-color="#010101" stop-opacity="0"/>
<stop offset="0.95" stop-color="#010101"/>
</linearGradient>
<linearGradient id="paint4_linear" x1="-68206.2" y1="32659.2" x2="-69548.2" y2="23546.2" gradientUnits="userSpaceOnUse">
<stop stop-color="#010101" stop-opacity="0"/>
<stop offset="0.95" stop-color="#010101"/>
</linearGradient>
<linearGradient id="paint5_linear" x1="-59496.7" y1="31389.5" x2="-60800.8" y2="23257" gradientUnits="userSpaceOnUse">
<stop stop-color="#010101" stop-opacity="0"/>
<stop offset="0.95" stop-color="#010101"/>
</linearGradient>
<linearGradient id="paint6_linear" x1="-172869" y1="14812.5" x2="-159289" y2="26996.2" gradientUnits="userSpaceOnUse">
<stop stop-color="#010101" stop-opacity="0"/>
<stop offset="0.95" stop-color="#010101"/>
</linearGradient>
<linearGradient id="paint7_linear" x1="-48188.9" y1="4814.8" x2="-51252.1" y2="3239.31" gradientUnits="userSpaceOnUse">
<stop stop-color="#010101" stop-opacity="0"/>
<stop offset="0.95" stop-color="#010101"/>
</linearGradient>
<linearGradient id="paint8_linear" x1="289" y1="180" x2="248" y2="173.5" gradientUnits="userSpaceOnUse">
<stop stop-color="#5E5E5E"/>
<stop offset="1" stop-color="#3F3F3F" stop-opacity="0"/>
</linearGradient>
<linearGradient id="paint9_linear" x1="39778.1" y1="21428.4" x2="42765.6" y2="21428.4" gradientUnits="userSpaceOnUse">
<stop stop-color="#E5C6D6"/>
<stop offset="0.42" stop-color="#EAD4D0"/>
<stop offset="1" stop-color="#F0E9CB"/>
</linearGradient>
<linearGradient id="paint10_linear" x1="525" y1="256.5" x2="421" y2="228" gradientUnits="userSpaceOnUse">
<stop stop-color="#434343"/>
<stop offset="1" stop-color="#434343" stop-opacity="0"/>
</linearGradient>
<linearGradient id="paint11_linear" x1="-53561.9" y1="31866.5" x2="-64624.1" y2="32029.7" gradientUnits="userSpaceOnUse">
<stop stop-color="#010101" stop-opacity="0"/>
<stop offset="0.95" stop-color="#010101"/>
</linearGradient>
<linearGradient id="paint12_linear" x1="6722.59" y1="6432.4" x2="7993.16" y2="6432.4" gradientUnits="userSpaceOnUse">
<stop stop-color="white" stop-opacity="0"/>
<stop offset="0.95" stop-color="white"/>
</linearGradient>
<linearGradient id="paint13_linear" x1="6563" y1="4876.27" x2="9320.3" y2="4876.27" gradientUnits="userSpaceOnUse">
<stop stop-color="white" stop-opacity="0"/>
<stop offset="0.95" stop-color="white"/>
</linearGradient>
<linearGradient id="paint14_linear" x1="5564.4" y1="6490.61" x2="7932.2" y2="6490.61" gradientUnits="userSpaceOnUse">
<stop stop-color="white" stop-opacity="0"/>
<stop offset="0.95" stop-color="white"/>
</linearGradient>
<clipPath id="clip0">
<rect width="681.23" height="528" fill="white"/>
</clipPath>
</defs>
</svg>
