<svg width="464" height="394" viewBox="0 0 464 394" fill="none" xmlns="http://www.w3.org/2000/svg">
<path d="M253.805 57.2256L243.308 53.915L246.176 29.1111H247.018C248.06 28.2665 251.105 24.6097 250.289 21.8987C249.558 19.4158 245.621 18.4193 242.434 18.0054C237.909 17.4312 234.948 17.9463 233.863 19.4834C232.408 21.5609 234.326 25.4627 235.192 26.7886L235.419 27.1349L233.838 51.1112L222.189 47.885L222.845 45.5119L231.281 47.885L232.61 27.6162C231.769 26.2396 229.245 21.3498 231.508 18.0815C233.19 15.683 236.925 14.83 242.627 15.5479C251.534 16.688 253.242 20.387 253.115 23.2922C252.989 26.1974 250.542 29.7614 248.7 31.0873L246.252 52.2006L254.562 54.8187L253.805 57.2256Z" fill="url(#paint0_linear)"/>
<path d="M339.621 352.018H128.45L115.312 341.158L128.45 55.1649L326.483 44.3042L339.621 55.1649V352.018Z" fill="url(#paint1_linear)"/>
<path d="M332.665 346.841L125.103 347.365L115.312 341.158L122.268 54.1346L320.301 43.2739L333.439 54.1346L332.665 346.841Z" fill="url(#paint2_linear)"/>
<path d="M115.812 44.8042L325.983 44.8042V340.658H115.812L115.812 44.8042Z" fill="white" stroke="black"/>
<path d="M181.859 64.9615C181.75 65.7131 181.699 66.6506 182.305 67.0728C182.635 67.2725 183.013 67.3776 183.398 67.3769C202.851 69.0671 222.445 67.9752 241.593 64.1339C244.747 63.5005 248.565 62.0479 248.792 58.8302C249.002 55.9757 246.269 52.4877 248.473 50.6973C249.299 50.2002 250.243 49.9348 251.206 49.9288C252.953 49.6727 254.622 49.0309 256.092 48.0496C257.563 47.0682 258.798 45.7718 259.709 44.2535L204.492 43.8059C199.126 43.7637 189.353 41.5004 185.518 46.3395C182.549 50.047 181.859 60.553 181.859 64.9615Z" fill="url(#paint3_linear)"/>
<path d="M243.048 57.3606H185.879L182.01 21.6791L239.566 21.2906L243.048 57.3606Z" fill="#354ED1"/>
<path d="M239.566 21.2906L260.82 31.898L257.725 44.3042H242.013L239.566 21.2906Z" fill="url(#paint4_linear)"/>
<path d="M226.773 56.8033L215.771 56.3726L211.97 28.7902L212.76 28.5875C213.542 27.3545 215.511 22.5237 214.005 19.8381C212.642 17.389 208.58 17.4819 205.409 17.997C200.893 18.7233 198.167 20.159 197.537 22.1437C196.696 24.8124 199.564 28.4439 200.741 29.6178L201.052 29.9218L205.872 56.2206H193.794V53.4674H202.583L198.512 31.2562C197.368 30.0147 193.592 25.5218 194.929 21.3076C195.905 18.2251 199.286 16.1982 205.022 15.2776C213.904 13.8504 216.528 17.3214 217.184 20.4968C217.84 23.6723 216.411 28.2328 214.989 30.209L218.219 53.7039L226.924 54.0501L226.773 56.8033Z" fill="url(#paint5_linear)"/>
<path d="M212.146 89.5543H147.248V171.787H212.146V89.5543Z" fill="#CEDDE0"/>
<path d="M297.903 100.939H235.579C233.73 100.939 232.231 102.443 232.231 104.3C232.231 106.156 233.73 107.661 235.579 107.661H297.903C299.752 107.661 301.251 106.156 301.251 104.3C301.251 102.443 299.752 100.939 297.903 100.939Z" fill="#6892FD"/>
<path d="M297.903 115.676H235.579C233.73 115.676 232.231 117.181 232.231 119.037C232.231 120.893 233.73 122.398 235.579 122.398H297.903C299.752 122.398 301.251 120.893 301.251 119.037C301.251 117.181 299.752 115.676 297.903 115.676Z" fill="#6892FD"/>
<path d="M297.903 137.135H235.579C233.73 137.135 232.231 138.64 232.231 140.496C232.231 142.353 233.73 143.858 235.579 143.858H297.903C299.752 143.858 301.251 142.353 301.251 140.496C301.251 138.64 299.752 137.135 297.903 137.135Z" fill="#6892FD"/>
<path d="M297.903 151.872H235.579C233.73 151.872 232.231 153.377 232.231 155.234C232.231 157.09 233.73 158.595 235.579 158.595H297.903C299.752 158.595 301.251 157.09 301.251 155.234C301.251 153.377 299.752 151.872 297.903 151.872Z" fill="#6892FD"/>
<path d="M258.498 220.144H196.174C194.325 220.144 192.827 221.649 192.827 223.506C192.827 225.362 194.325 226.867 196.174 226.867H258.498C260.347 226.867 261.846 225.362 261.846 223.506C261.846 221.649 260.347 220.144 258.498 220.144Z" fill="#6892FD"/>
<path d="M258.498 234.881H196.174C194.325 234.881 192.827 236.386 192.827 238.243C192.827 240.099 194.325 241.604 196.174 241.604H258.498C260.347 241.604 261.846 240.099 261.846 238.243C261.846 236.386 260.347 234.881 258.498 234.881Z" fill="#6892FD"/>
<path d="M258.498 269.786H196.174C194.325 269.786 192.827 271.291 192.827 273.147C192.827 275.004 194.325 276.509 196.174 276.509H258.498C260.347 276.509 261.846 275.004 261.846 273.147C261.846 271.291 260.347 269.786 258.498 269.786Z" fill="#6892FD"/>
<path d="M258.498 284.523H196.174C194.325 284.523 192.827 286.028 192.827 287.884C192.827 289.741 194.325 291.246 196.174 291.246H258.498C260.347 291.246 261.846 289.741 261.846 287.884C261.846 286.028 260.347 284.523 258.498 284.523Z" fill="#6892FD"/>
<path d="M297.895 182.909H149.048C147.199 182.909 145.701 184.414 145.701 186.27C145.701 188.127 147.199 189.631 149.048 189.631H297.895C299.743 189.631 301.242 188.127 301.242 186.27C301.242 184.414 299.743 182.909 297.895 182.909Z" fill="#6892FD"/>
<path d="M297.895 197.646H149.048C147.199 197.646 145.701 199.151 145.701 201.007C145.701 202.864 147.199 204.369 149.048 204.369H297.895C299.743 204.369 301.242 202.864 301.242 201.007C301.242 199.151 299.743 197.646 297.895 197.646Z" fill="#6892FD"/>
<path d="M180.471 216.006H153.43V240.05H180.471V216.006Z" fill="#6892FD"/>
<path d="M180.471 268.756H153.43V292.8H180.471V268.756Z" fill="#6892FD"/>
<path d="M160.781 157.286C156.87 160.166 153.363 165.343 154.053 170.173C173.204 169.227 191.38 170.334 208.025 170.089C207.689 165.697 205.931 160.115 202.886 156.948C201.3 155.477 199.473 154.291 197.486 153.443C193.432 151.442 189.319 149.449 184.87 148.52C175.988 146.636 167.771 152.151 160.781 157.286Z" fill="white"/>
<path d="M194.425 127.913C194.498 128.618 194.421 129.332 194.197 130.005C193.974 130.678 193.61 131.295 193.129 131.815C192.906 132.082 192.615 132.286 192.288 132.406C190.606 132.955 190.53 129.543 191.01 128.572C191.582 127.465 194.172 125.717 194.425 127.913Z" fill="url(#paint6_linear)"/>
<path d="M164.541 126.004C164.467 126.709 164.543 127.422 164.765 128.095C164.987 128.767 165.349 129.385 165.828 129.906C166.057 130.168 166.345 130.371 166.669 130.497C168.351 131.046 168.427 127.626 167.939 126.663C167.384 125.582 164.793 123.809 164.541 126.004Z" fill="url(#paint7_linear)"/>
<path d="M177.351 99.486C178.915 97.5532 181.176 96.3181 183.642 96.0487C186.031 95.7954 188.688 96.623 189.967 98.6499C190.793 100.204 191.171 101.959 191.06 103.717C191.209 105.347 190.954 106.989 190.32 108.497C189.544 109.919 188.279 111.008 186.762 111.563C183.263 112.948 179.134 111.825 176.425 109.325C173.717 106.825 175.231 102.07 177.351 99.486Z" fill="#606161"/>
<path d="M177.351 99.486C178.915 97.5532 181.176 96.3181 183.642 96.0487C186.031 95.7954 188.688 96.623 189.967 98.6499C190.793 100.204 191.171 101.959 191.06 103.717C191.209 105.347 190.954 106.989 190.32 108.497C189.544 109.919 188.279 111.008 186.762 111.563C183.263 112.948 179.134 111.825 176.425 109.325C173.717 106.825 175.231 102.07 177.351 99.486Z" fill="url(#paint8_linear)"/>
<path d="M185.761 137.456C185.761 137.456 185.862 148.621 188.394 150.969C190.926 153.317 178.251 164.287 172.885 152.041C172.885 152.041 176.005 146.755 174.937 137.845C173.869 128.935 185.761 137.456 185.761 137.456Z" fill="url(#paint9_linear)"/>
<path d="M186.132 140.1V142.549C186.132 142.549 179.697 151.839 177.065 148.722C174.432 145.606 175.206 144.905 175.206 144.905L174.92 137.853L186.132 140.1Z" fill="url(#paint10_linear)"/>
<path d="M191.893 121.494C191.893 121.494 193.743 138.537 184.668 141.915C175.593 145.293 170.185 140.446 167.695 132.22C165.205 123.994 169.016 107.391 178.629 109.004C188.243 110.617 191.893 121.494 191.893 121.494Z" fill="url(#paint11_linear)"/>
<path d="M193.331 127.22C193.745 126.631 194.013 125.95 194.113 125.236C194.704 122.037 194.447 118.739 193.37 115.671C192.292 112.603 190.432 109.873 187.974 107.754C186.975 106.871 185.82 106.186 184.567 105.736C183.319 105.364 182.014 105.221 180.715 105.313C176.618 105.441 172.666 106.869 169.428 109.392C167.829 110.669 166.512 112.265 165.559 114.079C164.607 115.893 164.039 117.886 163.893 119.932C163.781 121.144 163.978 122.365 164.465 123.479C164.712 124.034 165.085 124.523 165.554 124.907C166.023 125.291 166.574 125.56 167.165 125.692C169.259 126.055 169.831 124.113 171.53 122.82C174.054 120.87 174.895 117.973 180.698 118.463C190.135 119.257 190.808 130.337 193.331 127.22Z" fill="#606161"/>
<path d="M166.223 127.22C166.113 127.119 166.024 126.995 165.962 126.857C165.924 126.697 165.901 126.533 165.895 126.367C165.873 126.206 165.796 126.056 165.676 125.945C165.613 125.893 165.537 125.858 165.456 125.843C165.375 125.829 165.292 125.835 165.214 125.861C165.148 125.892 165.089 125.936 165.041 125.992C164.993 126.047 164.958 126.112 164.936 126.182C164.9 126.322 164.88 126.467 164.877 126.612C164.821 127.173 164.904 127.739 165.121 128.259C165.327 128.617 165.592 128.936 165.904 129.205C165.957 129.271 166.024 129.327 166.099 129.367C166.174 129.408 166.256 129.433 166.341 129.442C166.45 129.434 166.555 129.396 166.644 129.332C166.685 129.311 166.722 129.282 166.753 129.247C166.761 129.205 166.761 129.163 166.753 129.121C166.825 128.736 166.825 128.34 166.753 127.955C166.654 127.662 166.469 127.406 166.223 127.22V127.22Z" fill="url(#paint12_linear)"/>
<path d="M192.49 129.053C192.601 128.951 192.69 128.828 192.751 128.69C192.79 128.532 192.813 128.371 192.818 128.209C192.838 128.044 192.919 127.893 193.045 127.786C193.105 127.731 193.179 127.692 193.259 127.676C193.34 127.66 193.423 127.666 193.499 127.693C193.565 127.726 193.623 127.771 193.67 127.826C193.718 127.881 193.754 127.945 193.777 128.014C193.814 128.158 193.833 128.305 193.836 128.453C193.893 129.014 193.809 129.58 193.592 130.1C193.386 130.455 193.121 130.772 192.81 131.038C192.699 131.171 192.543 131.258 192.372 131.283C192.262 131.273 192.158 131.232 192.07 131.164C192.025 131.149 191.987 131.119 191.96 131.08C191.952 131.038 191.952 130.995 191.96 130.953C191.889 130.571 191.889 130.179 191.96 129.796C192.059 129.501 192.244 129.242 192.49 129.053V129.053Z" fill="url(#paint13_linear)"/>
<defs>
<linearGradient id="paint0_linear" x1="232.658" y1="71.6448" x2="247.918" y2="14.5444" gradientUnits="userSpaceOnUse">
<stop stop-color="#010101" stop-opacity="0"/>
<stop offset="0.95" stop-color="#010101"/>
</linearGradient>
<linearGradient id="paint1_linear" x1="121504" y1="168721" x2="-42414.4" y2="30343" gradientUnits="userSpaceOnUse">
<stop stop-color="#010101" stop-opacity="0"/>
<stop offset="0.95" stop-color="#010101"/>
</linearGradient>
<linearGradient id="paint2_linear" x1="101817" y1="66143.5" x2="30933.7" y2="71343.9" gradientUnits="userSpaceOnUse">
<stop stop-color="#010101" stop-opacity="0"/>
<stop offset="0.95" stop-color="#010101"/>
</linearGradient>
<linearGradient id="paint3_linear" x1="20282.4" y1="2854.26" x2="20643.9" y2="-3319.9" gradientUnits="userSpaceOnUse">
<stop stop-color="#010101" stop-opacity="0"/>
<stop offset="0.95" stop-color="#010101"/>
</linearGradient>
<linearGradient id="paint4_linear" x1="6732.49" y1="491.917" x2="6324.82" y2="1194.18" gradientUnits="userSpaceOnUse">
<stop stop-color="#010101" stop-opacity="0"/>
<stop offset="0.95" stop-color="#010101"/>
</linearGradient>
<linearGradient id="paint5_linear" x1="8630.41" y1="4075.8" x2="8565.38" y2="795.622" gradientUnits="userSpaceOnUse">
<stop stop-color="#010101" stop-opacity="0"/>
<stop offset="0.95" stop-color="#010101"/>
</linearGradient>
<linearGradient id="paint6_linear" x1="194.45" y1="129.661" x2="190.774" y2="129.661" gradientUnits="userSpaceOnUse">
<stop stop-color="#E4C5D5"/>
<stop offset="0.42" stop-color="#E9D3CF"/>
<stop offset="1" stop-color="#EFE8CA"/>
</linearGradient>
<linearGradient id="paint7_linear" x1="-438.155" y1="995.987" x2="-422.044" y2="995.987" gradientUnits="userSpaceOnUse">
<stop stop-color="#E4C5D5"/>
<stop offset="0.42" stop-color="#E9D3CF"/>
<stop offset="1" stop-color="#EFE8CA"/>
</linearGradient>
<linearGradient id="paint8_linear" x1="5580.36" y1="2075.57" x2="5511.44" y2="2258.09" gradientUnits="userSpaceOnUse">
<stop stop-color="#010101" stop-opacity="0"/>
<stop offset="0.95" stop-color="#010101"/>
</linearGradient>
<linearGradient id="paint9_linear" x1="-5668.92" y1="4370.83" x2="-5370.65" y2="4370.83" gradientUnits="userSpaceOnUse">
<stop stop-color="#E4C5D5"/>
<stop offset="0.42" stop-color="#E9D3CF"/>
<stop offset="1" stop-color="#EFE8CA"/>
</linearGradient>
<linearGradient id="paint10_linear" x1="182.364" y1="151.416" x2="174.988" y2="115.139" gradientUnits="userSpaceOnUse">
<stop offset="0.12" stop-color="#010101" stop-opacity="0"/>
<stop offset="0.95" stop-color="#010101"/>
</linearGradient>
<linearGradient id="paint11_linear" x1="-9187.7" y1="5342.4" x2="-8439.12" y2="5342.4" gradientUnits="userSpaceOnUse">
<stop stop-color="#E4C5D5"/>
<stop offset="0.42" stop-color="#E9D3CF"/>
<stop offset="1" stop-color="#EFE8CA"/>
</linearGradient>
<linearGradient id="paint12_linear" x1="-497.41" y1="687.42" x2="-515.14" y2="685.428" gradientUnits="userSpaceOnUse">
<stop offset="0.12" stop-color="#010101" stop-opacity="0"/>
<stop offset="0.95" stop-color="#010101"/>
</linearGradient>
<linearGradient id="paint13_linear" x1="115.837" y1="698.596" x2="98.1119" y2="696.62" gradientUnits="userSpaceOnUse">
<stop offset="0.12" stop-color="#010101" stop-opacity="0"/>
<stop offset="0.95" stop-color="#010101"/>
</linearGradient>
</defs>
</svg>
