<svg width="243" height="342" viewBox="0 0 243 342" fill="none" xmlns="http://www.w3.org/2000/svg">
<g clip-path="url(#clip0)">
<path d="M146.805 42.2256L136.308 38.915L139.176 14.1111H140.018C141.06 13.2665 144.105 9.6097 143.289 6.89875C142.558 4.41582 138.621 3.41927 135.434 3.00545C130.909 2.43117 127.948 2.94633 126.863 4.48338C125.408 6.56093 127.326 10.4627 128.192 11.7886L128.419 12.1349L126.838 36.1112L115.189 32.885L115.845 30.5119L124.281 32.885L125.61 12.6162C124.769 11.2396 122.245 6.3498 124.508 3.08146C126.19 0.682981 129.925 -0.169998 135.627 0.547855C144.534 1.68798 146.242 5.38703 146.115 8.29223C145.989 11.1974 143.542 14.7614 141.7 16.0873L139.252 37.2006L147.562 39.8187L146.805 42.2256Z" fill="url(#paint0_linear)"/>
<path d="M232.621 337.018H21.4501L8.31242 326.158L21.4501 40.1649L219.483 29.3042L232.621 40.1649L232.621 337.018Z" fill="url(#paint1_linear)"/>
<path d="M225.665 331.841L18.1026 332.365L8.31242 326.158L15.2682 39.1346L213.301 28.2739L226.439 39.1346L225.665 331.841Z" fill="url(#paint2_linear)"/>
<path d="M8.81242 29.8042L218.983 29.8042L218.983 325.658H8.81242L8.81242 29.8042Z" fill="white" stroke="black"/>
<path d="M74.8589 49.9615C74.7495 50.7131 74.6991 51.6506 75.3046 52.0728C75.6347 52.2725 76.0128 52.3776 76.3981 52.3769C95.8513 54.0671 115.445 52.9752 134.593 49.1339C137.747 48.5005 141.565 47.0479 141.792 43.8302C142.002 40.9757 139.269 37.4877 141.473 35.6973C142.299 35.2002 143.243 34.9348 144.206 34.9288C145.953 34.6727 147.622 34.0309 149.092 33.0496C150.563 32.0682 151.798 30.7718 152.709 29.2535L97.4924 28.8059C92.1263 28.7637 82.3529 26.5004 78.5176 31.3395C75.5486 35.047 74.8589 45.553 74.8589 49.9615Z" fill="url(#paint3_linear)"/>
<path d="M136.048 42.3606H78.8793L75.0103 6.67914L132.566 6.29065L136.048 42.3606Z" fill="#354ED1"/>
<path d="M132.566 6.29065L153.82 16.898L150.725 29.3042H135.013L132.566 6.29065Z" fill="url(#paint4_linear)"/>
<path d="M119.773 41.8033L108.771 41.3726L104.97 13.7902L105.76 13.5875C106.542 12.3545 108.511 7.52372 107.005 4.83811C105.642 2.38896 101.58 2.48186 98.4092 2.99703C93.8926 3.72333 91.1674 5.15903 90.5366 7.14368C89.6956 9.81241 92.5636 13.4439 93.7412 14.6178L94.0524 14.9218L98.8718 41.2206H86.7938V38.4674H95.5831L91.5123 16.2562C90.3684 15.0147 86.592 10.5218 87.9293 6.3076C88.9049 3.22505 92.2861 1.19817 98.0223 0.277629C106.904 -1.14963 109.528 2.3214 110.184 5.49684C110.84 8.67229 109.411 13.2328 107.989 15.209L111.219 38.7039L119.924 39.0501L119.773 41.8033Z" fill="url(#paint5_linear)"/>
<path d="M105.146 74.5543H40.2483L40.2483 156.787H105.146V74.5543Z" fill="#CEDDE0"/>
<path d="M190.903 85.9386H128.579C126.73 85.9386 125.231 87.4435 125.231 89.2998C125.231 91.1562 126.73 92.6611 128.579 92.6611H190.903C192.752 92.6611 194.251 91.1562 194.251 89.2998C194.251 87.4435 192.752 85.9386 190.903 85.9386Z" fill="#6892FD"/>
<path d="M190.903 100.676H128.579C126.73 100.676 125.231 102.181 125.231 104.037C125.231 105.893 126.73 107.398 128.579 107.398H190.903C192.752 107.398 194.251 105.893 194.251 104.037C194.251 102.181 192.752 100.676 190.903 100.676Z" fill="#6892FD"/>
<path d="M190.903 122.135H128.579C126.73 122.135 125.231 123.64 125.231 125.496C125.231 127.353 126.73 128.858 128.579 128.858H190.903C192.752 128.858 194.251 127.353 194.251 125.496C194.251 123.64 192.752 122.135 190.903 122.135Z" fill="#6892FD"/>
<path d="M190.903 136.872H128.579C126.73 136.872 125.231 138.377 125.231 140.234C125.231 142.09 126.73 143.595 128.579 143.595H190.903C192.752 143.595 194.251 142.09 194.251 140.234C194.251 138.377 192.752 136.872 190.903 136.872Z" fill="#6892FD"/>
<path d="M151.498 205.144H89.1741C87.3253 205.144 85.8266 206.649 85.8266 208.506C85.8266 210.362 87.3253 211.867 89.1741 211.867H151.498C153.347 211.867 154.846 210.362 154.846 208.506C154.846 206.649 153.347 205.144 151.498 205.144Z" fill="#6892FD"/>
<path d="M151.498 219.881H89.1741C87.3253 219.881 85.8266 221.386 85.8266 223.243C85.8266 225.099 87.3253 226.604 89.1741 226.604H151.498C153.347 226.604 154.846 225.099 154.846 223.243C154.846 221.386 153.347 219.881 151.498 219.881Z" fill="#6892FD"/>
<path d="M151.498 254.786H89.1741C87.3253 254.786 85.8266 256.291 85.8266 258.147C85.8266 260.004 87.3253 261.509 89.1741 261.509H151.498C153.347 261.509 154.846 260.004 154.846 258.147C154.846 256.291 153.347 254.786 151.498 254.786Z" fill="#6892FD"/>
<path d="M151.498 269.523H89.1741C87.3253 269.523 85.8266 271.028 85.8266 272.884C85.8266 274.741 87.3253 276.246 89.1741 276.246H151.498C153.347 276.246 154.846 274.741 154.846 272.884C154.846 271.028 153.347 269.523 151.498 269.523Z" fill="#6892FD"/>
<path d="M190.895 167.909H42.0483C40.1995 167.909 38.7007 169.414 38.7007 171.27C38.7007 173.127 40.1995 174.631 42.0483 174.631H190.895C192.743 174.631 194.242 173.127 194.242 171.27C194.242 169.414 192.743 167.909 190.895 167.909Z" fill="#6892FD"/>
<path d="M190.895 182.646H42.0483C40.1995 182.646 38.7007 184.151 38.7007 186.007C38.7007 187.864 40.1995 189.369 42.0483 189.369H190.895C192.743 189.369 194.242 187.864 194.242 186.007C194.242 184.151 192.743 182.646 190.895 182.646Z" fill="#6892FD"/>
<path d="M73.4711 201.006H46.4303V225.05H73.4711V201.006Z" fill="#6892FD"/>
<path d="M73.4711 253.756H46.4303V277.8H73.4711V253.756Z" fill="#6892FD"/>
<path d="M53.7813 142.286C49.8703 145.166 46.363 150.343 47.0527 155.173C66.2041 154.227 84.3799 155.334 101.025 155.089C100.689 150.697 98.9307 145.115 95.8859 141.948C94.2999 140.477 92.4733 139.291 90.4862 138.443C86.4322 136.442 82.3193 134.449 77.8699 133.52C68.9881 131.636 60.7707 137.151 53.7813 142.286Z" fill="white"/>
<path d="M87.4247 112.913C87.4983 113.618 87.4208 114.332 87.1974 115.005C86.974 115.678 86.6099 116.295 86.1294 116.815C85.9055 117.082 85.6154 117.286 85.2883 117.406C83.6061 117.955 83.5305 114.543 84.0099 113.572C84.5818 112.465 87.1723 110.717 87.4247 112.913Z" fill="url(#paint6_linear)"/>
<path d="M57.541 111.004C57.4668 111.709 57.5432 112.422 57.7651 113.095C57.987 113.767 58.3493 114.385 58.8278 114.906C59.0566 115.168 59.3452 115.371 59.6689 115.497C61.3511 116.046 61.4268 112.626 60.9389 111.663C60.3838 110.582 57.7933 108.809 57.541 111.004Z" fill="url(#paint7_linear)"/>
<path d="M70.3507 84.486C71.9153 82.5532 74.176 81.3181 76.642 81.0487C79.0306 80.7954 81.6885 81.623 82.9669 83.6499C83.7926 85.2044 84.1712 86.9589 84.0603 88.7171C84.2087 90.3473 83.9545 91.9891 83.3202 93.4972C82.544 94.9187 81.2795 96.0083 79.7624 96.5628C76.2635 97.9479 72.1338 96.8246 69.4255 94.3248C66.7172 91.825 68.2312 87.0703 70.3507 84.486Z" fill="#606161"/>
<path d="M70.3507 84.486C71.9153 82.5532 74.176 81.3181 76.642 81.0487C79.0306 80.7954 81.6885 81.623 82.9669 83.6499C83.7926 85.2044 84.1712 86.9589 84.0603 88.7171C84.2087 90.3473 83.9545 91.9891 83.3202 93.4972C82.544 94.9187 81.2795 96.0083 79.7624 96.5628C76.2635 97.9479 72.1338 96.8246 69.4255 94.3248C66.7172 91.825 68.2312 87.0703 70.3507 84.486Z" fill="url(#paint8_linear)"/>
<path d="M78.7615 122.456C78.7615 122.456 78.8624 133.621 81.3941 135.969C83.9257 138.317 71.2506 149.287 65.8845 137.041C65.8845 137.041 69.0049 131.755 67.9368 122.845C66.8686 113.935 78.7615 122.456 78.7615 122.456Z" fill="url(#paint9_linear)"/>
<path d="M79.1316 125.1V127.549C79.1316 127.549 72.6973 136.839 70.0647 133.722C67.4321 130.606 68.2059 129.905 68.2059 129.905L67.9199 122.853L79.1316 125.1Z" fill="url(#paint10_linear)"/>
<path d="M84.893 106.494C84.893 106.494 86.7433 123.537 77.6681 126.915C68.5928 130.293 63.1846 125.446 60.695 117.22C58.2054 108.994 62.0155 92.3908 71.6291 94.0038C81.2427 95.6169 84.893 106.494 84.893 106.494Z" fill="url(#paint11_linear)"/>
<path d="M86.3312 112.22C86.7452 111.631 87.0133 110.95 87.1134 110.236C87.7037 107.037 87.4473 103.739 86.3698 100.671C85.2924 97.6032 83.4315 94.8732 80.9735 92.754C79.9755 91.8708 78.8196 91.1859 77.5671 90.7356C76.3186 90.3644 75.0139 90.2213 73.715 90.3133C69.6177 90.4406 65.666 91.8687 62.4277 94.3924C60.8292 95.6691 59.5119 97.2651 58.5593 99.0793C57.6067 100.893 57.0394 102.886 56.8934 104.932C56.7807 106.144 56.9775 107.365 57.4653 108.479C57.7121 109.034 58.0849 109.523 58.5537 109.907C59.0225 110.291 59.5744 110.56 60.1652 110.692C62.2595 111.055 62.8314 109.113 64.5304 107.82C67.0536 105.87 67.8947 102.973 73.6982 103.463C83.1351 104.257 83.808 115.337 86.3312 112.22Z" fill="#606161"/>
<path d="M59.2232 112.22C59.1125 112.119 59.0238 111.995 58.9624 111.857C58.9235 111.697 58.901 111.533 58.8951 111.367C58.8728 111.206 58.7956 111.056 58.6765 110.945C58.6127 110.893 58.5368 110.858 58.456 110.843C58.3751 110.829 58.2918 110.835 58.2139 110.861C58.1478 110.892 58.089 110.936 58.0412 110.992C57.9934 111.047 57.9577 111.112 57.9363 111.182C57.8996 111.322 57.8799 111.467 57.8774 111.612C57.8206 112.173 57.9045 112.739 58.1213 113.259C58.3272 113.617 58.5916 113.936 58.9035 114.205C58.9574 114.271 59.0237 114.327 59.0988 114.367C59.1738 114.408 59.2561 114.433 59.3409 114.442C59.4501 114.434 59.5551 114.396 59.6437 114.332C59.685 114.311 59.7221 114.282 59.753 114.247C59.761 114.205 59.761 114.163 59.753 114.121C59.8246 113.736 59.8246 113.34 59.753 112.955C59.6541 112.662 59.4694 112.406 59.2232 112.22V112.22Z" fill="url(#paint12_linear)"/>
<path d="M85.4902 114.053C85.6008 113.951 85.6895 113.828 85.7509 113.69C85.7903 113.532 85.8129 113.371 85.8182 113.209C85.8383 113.044 85.9194 112.893 86.0453 112.786C86.1052 112.731 86.1793 112.692 86.2594 112.676C86.3395 112.66 86.4225 112.666 86.4995 112.693C86.5646 112.726 86.6228 112.771 86.6704 112.826C86.7181 112.881 86.7543 112.945 86.777 113.014C86.8136 113.158 86.8334 113.305 86.8359 113.453C86.8927 114.014 86.8088 114.58 86.592 115.1C86.3859 115.455 86.1214 115.772 85.8098 116.038C85.6992 116.171 85.5433 116.258 85.3724 116.283C85.2624 116.273 85.1575 116.232 85.0696 116.164C85.0251 116.149 84.9867 116.119 84.9603 116.08C84.9517 116.038 84.9517 115.995 84.9603 115.953C84.8887 115.571 84.8887 115.179 84.9603 114.796C85.0592 114.501 85.2437 114.242 85.4902 114.053V114.053Z" fill="url(#paint13_linear)"/>
</g>
<defs>
<linearGradient id="paint0_linear" x1="125.658" y1="56.6448" x2="140.918" y2="-0.455584" gradientUnits="userSpaceOnUse">
<stop stop-color="#010101" stop-opacity="0"/>
<stop offset="0.95" stop-color="#010101"/>
</linearGradient>
<linearGradient id="paint1_linear" x1="121397" y1="168706" x2="-42521.4" y2="30328" gradientUnits="userSpaceOnUse">
<stop stop-color="#010101" stop-opacity="0"/>
<stop offset="0.95" stop-color="#010101"/>
</linearGradient>
<linearGradient id="paint2_linear" x1="101710" y1="66128.5" x2="30826.7" y2="71328.9" gradientUnits="userSpaceOnUse">
<stop stop-color="#010101" stop-opacity="0"/>
<stop offset="0.95" stop-color="#010101"/>
</linearGradient>
<linearGradient id="paint3_linear" x1="20175.4" y1="2839.26" x2="20536.9" y2="-3334.9" gradientUnits="userSpaceOnUse">
<stop stop-color="#010101" stop-opacity="0"/>
<stop offset="0.95" stop-color="#010101"/>
</linearGradient>
<linearGradient id="paint4_linear" x1="6625.49" y1="476.917" x2="6217.82" y2="1179.18" gradientUnits="userSpaceOnUse">
<stop stop-color="#010101" stop-opacity="0"/>
<stop offset="0.95" stop-color="#010101"/>
</linearGradient>
<linearGradient id="paint5_linear" x1="8523.41" y1="4060.8" x2="8458.38" y2="780.622" gradientUnits="userSpaceOnUse">
<stop stop-color="#010101" stop-opacity="0"/>
<stop offset="0.95" stop-color="#010101"/>
</linearGradient>
<linearGradient id="paint6_linear" x1="87.4499" y1="114.661" x2="83.7744" y2="114.661" gradientUnits="userSpaceOnUse">
<stop stop-color="#E4C5D5"/>
<stop offset="0.42" stop-color="#E9D3CF"/>
<stop offset="1" stop-color="#EFE8CA"/>
</linearGradient>
<linearGradient id="paint7_linear" x1="-545.155" y1="980.987" x2="-529.044" y2="980.987" gradientUnits="userSpaceOnUse">
<stop stop-color="#E4C5D5"/>
<stop offset="0.42" stop-color="#E9D3CF"/>
<stop offset="1" stop-color="#EFE8CA"/>
</linearGradient>
<linearGradient id="paint8_linear" x1="5473.36" y1="2060.57" x2="5404.44" y2="2243.09" gradientUnits="userSpaceOnUse">
<stop stop-color="#010101" stop-opacity="0"/>
<stop offset="0.95" stop-color="#010101"/>
</linearGradient>
<linearGradient id="paint9_linear" x1="-5775.92" y1="4355.83" x2="-5477.65" y2="4355.83" gradientUnits="userSpaceOnUse">
<stop stop-color="#E4C5D5"/>
<stop offset="0.42" stop-color="#E9D3CF"/>
<stop offset="1" stop-color="#EFE8CA"/>
</linearGradient>
<linearGradient id="paint10_linear" x1="75.3635" y1="136.416" x2="67.9884" y2="100.139" gradientUnits="userSpaceOnUse">
<stop offset="0.12" stop-color="#010101" stop-opacity="0"/>
<stop offset="0.95" stop-color="#010101"/>
</linearGradient>
<linearGradient id="paint11_linear" x1="-9294.7" y1="5327.4" x2="-8546.12" y2="5327.4" gradientUnits="userSpaceOnUse">
<stop stop-color="#E4C5D5"/>
<stop offset="0.42" stop-color="#E9D3CF"/>
<stop offset="1" stop-color="#EFE8CA"/>
</linearGradient>
<linearGradient id="paint12_linear" x1="-604.41" y1="672.42" x2="-622.14" y2="670.428" gradientUnits="userSpaceOnUse">
<stop offset="0.12" stop-color="#010101" stop-opacity="0"/>
<stop offset="0.95" stop-color="#010101"/>
</linearGradient>
<linearGradient id="paint13_linear" x1="8.83658" y1="683.596" x2="-8.88805" y2="681.62" gradientUnits="userSpaceOnUse">
<stop offset="0.12" stop-color="#010101" stop-opacity="0"/>
<stop offset="0.95" stop-color="#010101"/>
</linearGradient>
<clipPath id="clip0">
<rect width="243" height="342" fill="white"/>
</clipPath>
</defs>
</svg>
