<svg width="423" height="595" viewBox="0 0 423 595" fill="none" xmlns="http://www.w3.org/2000/svg">
<g clip-path="url(#clip0)">
<path opacity="0.18" d="M120.48 141.85C98.3101 164.99 90.9401 198.6 72.1201 224.54C50.1201 254.88 12.0601 275.71 4.12009 312.36C-4.57991 352.72 27.9501 389.72 60.7601 414.72C76.5601 426.77 93.5301 438.39 103.81 455.39C110.24 466.03 113.66 478.17 118.81 489.49C135.15 525.62 171.26 553.19 210.87 555.2C250.48 557.21 290.98 531.05 301.71 492.88C306.95 474.22 305.64 453.34 315.79 436.88C329.07 415.29 356.96 408.63 377.13 393.28C415.71 363.94 417.84 298.09 381.24 266.28C349.15 238.42 295.47 234.77 277.43 196.28C272.54 185.85 271.15 174.12 266.87 163.43C244.6 107.84 158.7 101.95 120.48 141.85Z" fill="#B21F66"/>
<path d="M190.26 283.97C202.14 283.97 211.77 274.34 211.77 262.46C211.77 250.58 202.14 240.95 190.26 240.95C178.38 240.95 168.75 250.58 168.75 262.46C168.75 274.34 178.38 283.97 190.26 283.97Z" fill="#3F3D56"/>
<path d="M263.1 425.21C263.1 425.21 261.89 452.21 260.15 457.44C258.41 462.67 260.48 465.07 255.02 466.44C249.56 467.81 251.48 438.38 251.48 438.38L253.32 427.1L263.1 425.21Z" fill="url(#paint0_linear)"/>
<path d="M206.01 433.06L218.64 506.99H229.44L232.14 464.4L234.63 517.87H246.48C246.48 517.87 256.67 459.3 254.79 448.52C254.274 444.966 253.155 441.527 251.48 438.35L206.01 433.06Z" fill="#25233A"/>
<path d="M213.46 317.8C213.02 312.09 213.33 306.02 216.4 301.19C217.65 299.248 219.294 297.589 221.225 296.321C223.155 295.054 225.331 294.205 227.61 293.83C234.18 292.83 240.61 295.83 246.61 298.73C255.41 303.05 264.27 307.41 272.01 313.4C279.75 319.39 286.4 327.24 289.33 336.59C290.647 341.143 291.35 345.851 291.42 350.59C291.659 355.011 291.353 359.444 290.51 363.79C288.988 370.447 285.689 376.567 280.964 381.497C276.239 386.428 270.266 389.985 263.68 391.79C248.68 395.69 231.59 390.18 218.02 397.63C217.131 398.248 216.098 398.627 215.02 398.73C214.288 398.66 213.593 398.371 213.027 397.903C212.46 397.434 212.046 396.806 211.84 396.1C211.455 394.679 211.455 393.181 211.84 391.76C212.789 387.346 215.011 383.306 218.23 380.14C222.37 376.09 227.89 373.75 232.41 370.14C233.179 369.628 233.767 368.886 234.09 368.02C234.63 366.02 232.55 364.37 230.64 363.63C228.73 362.89 226.45 362.23 225.69 360.34C225.07 358.81 225.69 357.11 226.12 355.51C227.85 348.51 224.12 343.81 220.27 338.62C215.8 332.62 214.02 325.12 213.46 317.8Z" fill="#3F3D56"/>
<path d="M246.76 319.87C246.76 319.87 253.5 331.14 261.25 338.6C269 346.06 282.2 359.47 273.79 369.65C268.738 375.762 262.304 380.585 255.02 383.72L237.95 366.57V338.57L246.76 319.87Z" fill="#25233A"/>
<path d="M187.6 309.86L203.88 308.65C203.88 308.65 199.31 340.25 221.53 350.51C243.75 360.77 257.42 362.91 258.93 370.83C260.44 378.75 266.32 424.46 266.32 424.46L255.13 427.07L254.79 391.72L255.22 436.31C255.22 436.31 230.98 449.91 224 447.23C217.02 444.55 202.37 442.32 202.72 419.6C203.07 396.88 213.72 380.8 202.16 363.51C190.6 346.22 187.3 318.05 187.6 309.86Z" fill="#B21F66"/>
<path d="M187.6 309.86L203.88 308.65C203.88 308.65 199.31 340.25 221.53 350.51C243.75 360.77 257.42 362.91 258.93 370.83C260.44 378.75 266.32 424.46 266.32 424.46L255.13 427.07L254.79 391.72L255.22 436.31C255.22 436.31 230.98 449.91 224 447.23C217.02 444.55 202.37 442.32 202.72 419.6C203.07 396.88 213.72 380.8 202.16 363.51C190.6 346.22 187.3 318.05 187.6 309.86Z" fill="url(#paint1_linear)"/>
<path d="M226.36 352.72C226.36 352.72 226.98 362.12 233.02 361.89C239.06 361.66 239.07 358.64 239.07 358.64L242.91 342.26L226.36 343.26C226.36 343.26 228.24 350.2 226.36 352.72Z" fill="url(#paint2_linear)"/>
<path d="M227.11 347.56C227.11 347.56 226.35 352.4 229.46 353.77C232.57 355.14 237.58 353.42 238.79 352.04L239.07 358.6L241.87 346.65L227.11 347.56Z" fill="#222A72"/>
<path d="M221.18 319.55C221.18 319.55 217.69 344.43 230.23 349.46C242.77 354.49 246.61 340.99 248.23 334.51C249.85 328.03 245.16 304.81 235.23 308.42C229.416 310.422 224.459 314.348 221.18 319.55Z" fill="url(#paint3_linear)"/>
<path d="M191.71 309.56C191.71 309.56 192.88 300.86 192.91 300.7C193.014 299.892 192.895 299.072 192.567 298.327C192.24 297.581 191.715 296.94 191.05 296.47C189.85 295.57 188.53 293.47 188.53 288.62C188.53 283.77 193.67 278.52 195.79 280.62C197.91 282.72 197.92 284.38 199.89 284.69C201.86 285 200.34 290 199.89 291.69C199.44 293.38 202.31 308.8 202.31 308.8L191.71 309.56Z" fill="url(#paint4_linear)"/>
<path d="M254.79 391.76L261.29 425.63L255.13 427.07L254.79 391.76Z" fill="url(#paint5_linear)"/>
<path d="M234.63 517.87C234.63 517.87 231.82 545.57 236.43 568.08H239.64L246.48 517.87H234.63Z" fill="#25233A"/>
<path d="M218.64 506.99L225.08 563.48L227.44 562.48C227.44 562.48 231.86 522.48 231.5 518.62C231.14 514.76 229.44 506.97 229.44 506.97L218.64 506.99Z" fill="#25233A"/>
<path d="M227.44 562.5C227.44 562.5 228.87 564.92 228.71 566.64C228.59 567.82 220.43 577.94 214.6 583.4C208.3 589.3 202.19 587.12 202.19 587.12C199.91 586.89 198.73 581.65 200.47 580.12C204.262 576.871 208.524 574.214 213.11 572.24C223.56 567.82 225.11 563.44 225.11 563.44L227.44 562.5Z" fill="#25233A"/>
<path d="M236.43 568.08C235.802 570.045 235.575 572.116 235.76 574.17C236.16 577.1 248.76 591.44 248.76 591.44C248.76 591.44 259.08 598.14 262.7 592.38C266.32 586.62 252.02 578.98 249.18 577.38C246.34 575.78 239.64 568.09 239.64 568.09L236.43 568.08Z" fill="#25233A"/>
<path d="M164.24 229.21C165.61 233.598 168.324 237.445 171.999 240.206C175.674 242.968 180.124 244.505 184.72 244.6C190.47 244.6 196.94 242.41 202.94 235.16C218.94 215.84 189.49 181.79 229.16 140.62C268.83 99.45 272.96 26.47 201.71 21.62C147.3 17.94 125.04 51.78 118.78 72.96V94.43L157 109.43C157 109.43 171.62 65.07 195.69 70.72C219.76 76.37 197.09 116.15 181.9 131.27C148.43 164.6 158.11 210.16 164.24 229.21Z" fill="#3F3D56"/>
<path d="M164.24 202.02C165.619 206.403 168.336 210.243 172.009 213.003C175.682 215.764 180.127 217.304 184.72 217.41C190.47 217.41 196.94 214.8 202.94 207.56C218.94 188.23 187.45 169.02 227.13 127.85C266.81 86.68 272.99 5.04 201.74 0.22C130.49 -4.6 118.81 72.99 118.81 72.99L157.03 87.99C157.03 87.99 171.62 43.68 195.69 49.31C219.76 54.94 197.09 94.73 181.9 109.86C148.43 143.16 158.11 182.97 164.24 202.02Z" fill="#B21F66"/>
<path d="M190.26 269.9C202.14 269.9 211.77 260.27 211.77 248.39C211.77 236.51 202.14 226.88 190.26 226.88C178.38 226.88 168.75 236.51 168.75 248.39C168.75 260.27 178.38 269.9 190.26 269.9Z" fill="#B21F66"/>
<path d="M104.49 258.441C106.627 253.868 104.653 248.428 100.08 246.291C95.5067 244.153 90.0669 246.128 87.9295 250.701C85.7922 255.274 87.7668 260.714 92.3398 262.851C96.9129 264.988 102.353 263.014 104.49 258.441Z" fill="#3F3D56"/>
<path d="M81.0101 245.08C82.1968 246.632 83.8401 247.774 85.7091 248.344C87.5781 248.915 89.5788 248.885 91.4301 248.26C93.7301 247.44 95.9901 245.61 97.3401 241.84C100.92 231.84 84.2201 222.47 94.1101 200.26C104 178.05 95.0501 148.26 65.8901 156.7C43.6101 163.12 39.6201 179.87 40.1901 189.25L43.3001 197.81L60.7401 198.25C60.7401 198.25 60.1401 178.42 70.5801 177.18C81.0201 175.94 77.7301 195.13 73.8501 203.38C65.3101 221.56 75.7901 238.36 81.0101 245.08Z" fill="#3F3D56"/>
<path d="M77.07 234.21C78.2522 235.765 79.8936 236.909 81.7619 237.48C83.6302 238.051 85.6306 238.019 87.48 237.39C89.79 236.57 91.99 234.58 93.33 230.81C96.92 220.81 81.5601 217.66 91.4401 195.45C101.32 173.24 91.9501 139.73 62.7801 148.14C33.6101 156.55 40.24 189.25 40.24 189.25L57.6801 189.68C57.6801 189.68 57.09 169.86 67.52 168.62C77.9501 167.38 74.67 186.57 70.79 194.81C62.24 212.99 71.84 227.49 77.07 234.21Z" fill="#B21F66"/>
<path d="M98.1974 257.162C102.731 254.943 104.608 249.468 102.389 244.934C100.169 240.4 94.695 238.524 90.161 240.743C85.6271 242.962 83.7507 248.437 85.9698 252.97C88.189 257.504 93.6635 259.381 98.1974 257.162Z" fill="#B21F66"/>
<path d="M55.94 342.25C56.3211 344.016 56.1704 345.855 55.5069 347.535C54.8434 349.216 53.6968 350.662 52.212 351.691C50.7272 352.72 48.9708 353.286 47.1645 353.317C45.3583 353.348 43.5832 352.844 42.0635 351.867C40.5439 350.89 39.3478 349.485 38.6263 347.829C37.9048 346.172 37.6903 344.34 38.0099 342.562C38.3294 340.784 39.1687 339.14 40.4217 337.839C41.6747 336.537 43.2853 335.637 45.05 335.25C46.2249 334.991 47.4393 334.967 48.6234 335.179C49.8076 335.392 50.9382 335.836 51.9501 336.486C52.9621 337.137 53.8356 337.981 54.5203 338.97C55.205 339.959 55.6875 341.074 55.94 342.25Z" fill="#3F3D56"/>
<path d="M33.18 332.78C34.1492 334.477 35.6276 335.827 37.406 336.638C39.1844 337.449 41.1729 337.681 43.09 337.3C45.48 336.79 47.97 335.3 49.79 331.72C54.66 322.24 39.33 310.79 52.04 290.07C64.75 269.35 59.8 238.68 29.78 243.19C6.85003 246.63 0.700039 262.71 0.0400391 272.08L2.04004 280.98L19.24 283.72C19.24 283.72 21.24 263.99 31.76 264.13C42.28 264.27 36.49 282.86 31.57 290.52C20.7 307.41 28.89 325.44 33.18 332.78Z" fill="#3F3D56"/>
<path d="M30.7 321.49C31.6703 323.186 33.1488 324.535 34.9269 325.346C36.705 326.157 38.6928 326.389 40.61 326.01C43 325.5 45.44 323.81 47.27 320.26C52.14 310.78 37.32 305.68 50.03 284.96C62.74 264.24 57.84 229.78 27.82 234.29C-2.20003 238.8 0.039969 272.08 0.039969 272.08L17.24 274.8C17.24 274.8 19.24 255.07 29.76 255.21C40.28 255.35 34.49 273.94 29.57 281.6C18.75 298.51 26.4 314.15 30.7 321.49Z" fill="#B21F66"/>
<path d="M46.3944 347.497C51.4283 347.121 55.2043 342.736 54.8285 337.702C54.4526 332.668 50.0672 328.892 45.0333 329.268C39.9994 329.644 36.2234 334.029 36.5992 339.063C36.9751 344.097 41.3605 347.873 46.3944 347.497Z" fill="#B21F66"/>
<path d="M323.49 273.56C323.087 275.322 322.171 276.925 320.857 278.166C319.543 279.407 317.891 280.231 316.109 280.533C314.327 280.835 312.495 280.603 310.846 279.864C309.196 279.126 307.803 277.915 306.841 276.384C305.879 274.854 305.393 273.073 305.444 271.266C305.494 269.46 306.079 267.709 307.125 266.234C308.17 264.76 309.63 263.629 311.318 262.984C313.006 262.339 314.848 262.209 316.61 262.61C318.974 263.151 321.026 264.608 322.316 266.661C323.606 268.714 324.028 271.196 323.49 273.56Z" fill="#3F3D56"/>
<path d="M306.96 255.28C307.109 257.225 307.865 259.074 309.121 260.567C310.377 262.059 312.069 263.12 313.96 263.6C316.33 264.16 319.23 263.85 322.4 261.42C330.85 254.93 321.89 238.03 342.23 224.73C362.57 211.43 371.23 181.58 342.14 172.83C319.94 166.14 307.5 178.05 302.9 186.24L300.9 195.12L315.32 204.94C315.32 204.94 325.57 187.94 335.01 192.58C344.45 197.22 331.28 211.53 323.55 216.36C306.52 227 306.24 246.8 306.96 255.28Z" fill="#3F3D56"/>
<path d="M309.54 244.01C309.688 245.955 310.443 247.805 311.699 249.298C312.955 250.791 314.649 251.852 316.54 252.33C318.92 252.9 321.86 252.41 325.03 249.98C333.48 243.49 322.26 232.54 342.61 219.24C362.96 205.94 373.24 172.72 344.24 163.94C315.24 155.16 302.97 186.24 302.97 186.24L317.39 196.06C317.39 196.06 327.64 179.06 337.08 183.69C346.52 188.32 333.35 202.69 325.63 207.48C308.55 218.12 308.79 235.54 309.54 244.01Z" fill="#B21F66"/>
<path d="M324.384 269.063C326.25 264.373 323.961 259.058 319.271 257.191C314.581 255.325 309.266 257.614 307.399 262.304C305.533 266.994 307.822 272.309 312.512 274.176C317.202 276.042 322.518 273.753 324.384 269.063Z" fill="#B21F66"/>
<path d="M369.9 355.33C369.125 356.426 368.042 357.268 366.788 357.748C365.535 358.229 364.167 358.328 362.858 358.031C361.548 357.735 360.356 357.057 359.432 356.083C358.508 355.11 357.893 353.884 357.665 352.561C357.437 351.238 357.607 349.877 358.152 348.65C358.698 347.423 359.595 346.386 360.73 345.669C361.865 344.952 363.187 344.587 364.529 344.621C365.871 344.655 367.173 345.086 368.27 345.86C368.999 346.374 369.62 347.027 370.097 347.782C370.574 348.536 370.897 349.378 371.048 350.257C371.2 351.137 371.176 352.037 370.979 352.908C370.782 353.778 370.415 354.601 369.9 355.33Z" fill="#3F3D56"/>
<path d="M363.7 338.09C363.256 339.473 363.258 340.96 363.704 342.341C364.151 343.723 365.021 344.929 366.19 345.79C367.117 346.428 368.18 346.841 369.295 346.996C370.409 347.15 371.545 347.042 372.61 346.68C380.26 344.61 378.87 330.45 396.61 327.05C414.35 323.65 428.74 305.57 411.22 291.33C397.85 280.46 385.93 285.13 380.45 289.46L376.54 294.99L383.68 305.83C383.68 305.83 395.53 297.05 400.68 302.89C405.83 308.73 392.76 314.89 386.08 316.01C371.4 318.51 365.59 332.04 363.7 338.09Z" fill="#3F3D56"/>
<path d="M368.66 331.06C368.215 332.444 368.216 333.933 368.663 335.316C369.11 336.699 369.98 337.908 371.15 338.77C372.62 339.83 374.78 340.33 377.64 339.55C385.29 337.48 380.64 326.78 398.43 323.39C416.22 320 432.66 300.04 415.14 285.8C397.62 271.56 380.46 289.46 380.46 289.46L387.6 300.29C387.6 300.29 399.45 291.51 404.6 297.36C409.75 303.21 396.68 309.36 390 310.48C375.31 312.98 370.55 325.02 368.66 331.06Z" fill="#B21F66"/>
<path d="M372.516 351.598C374.641 348.501 373.854 344.268 370.757 342.143C367.661 340.018 363.428 340.806 361.303 343.902C359.178 346.999 359.965 351.232 363.062 353.357C366.158 355.482 370.391 354.694 372.516 351.598Z" fill="#B21F66"/>
<path d="M190.85 535.95C190.723 535.95 190.599 535.915 190.49 535.85C190.405 535.803 190.331 535.74 190.271 535.664C190.212 535.587 190.169 535.5 190.144 535.406C190.12 535.312 190.115 535.215 190.13 535.119C190.144 535.024 190.179 534.932 190.23 534.85C197.808 520.991 203.988 506.412 208.68 491.33C216.1 467.78 223.1 432.63 214.28 398.89C197.28 333.94 193.34 294.06 193.28 293.66C193.263 293.471 193.322 293.282 193.444 293.136C193.566 292.99 193.741 292.898 193.93 292.88C194.117 292.863 194.303 292.921 194.447 293.041C194.591 293.161 194.682 293.333 194.7 293.52C194.7 293.92 198.7 333.7 215.64 398.52C224.55 432.6 217.5 468.05 210.01 491.79C205.282 506.956 199.065 521.618 191.45 535.56C191.393 535.672 191.307 535.766 191.202 535.835C191.097 535.903 190.975 535.943 190.85 535.95Z" fill="white"/>
</g>
<defs>
<linearGradient id="paint0_linear" x1="251.15" y1="445.83" x2="263.1" y2="445.83" gradientUnits="userSpaceOnUse">
<stop stop-color="#ECC4D7"/>
<stop offset="0.42" stop-color="#EFD4D1"/>
<stop offset="1" stop-color="#F2EAC9"/>
</linearGradient>
<linearGradient id="paint1_linear" x1="180.52" y1="388.4" x2="408.68" y2="309.67" gradientUnits="userSpaceOnUse">
<stop stop-color="white" stop-opacity="0"/>
<stop offset="0.99" stop-color="white"/>
</linearGradient>
<linearGradient id="paint2_linear" x1="7866.01" y1="6871.99" x2="7688.85" y2="7252.22" gradientUnits="userSpaceOnUse">
<stop stop-color="#ECC4D7"/>
<stop offset="0.42" stop-color="#EFD4D1"/>
<stop offset="1" stop-color="#F2EAC9"/>
</linearGradient>
<linearGradient id="paint3_linear" x1="12498.8" y1="14406.1" x2="13272.2" y2="14406.1" gradientUnits="userSpaceOnUse">
<stop stop-color="#ECC4D7"/>
<stop offset="0.42" stop-color="#EFD4D1"/>
<stop offset="1" stop-color="#F2EAC9"/>
</linearGradient>
<linearGradient id="paint4_linear" x1="5828.55" y1="9020.41" x2="6018.43" y2="9020.41" gradientUnits="userSpaceOnUse">
<stop stop-color="#ECC4D7"/>
<stop offset="0.42" stop-color="#EFD4D1"/>
<stop offset="1" stop-color="#F2EAC9"/>
</linearGradient>
<linearGradient id="paint5_linear" x1="265.63" y1="405.63" x2="206.42" y2="429.54" gradientUnits="userSpaceOnUse">
<stop stop-opacity="0"/>
<stop offset="1"/>
</linearGradient>
<clipPath id="clip0">
<rect width="422.61" height="594.72" fill="white"/>
</clipPath>
</defs>
</svg>
