<svg width="214" height="190" viewBox="0 0 214 190" fill="none" xmlns="http://www.w3.org/2000/svg">
<g clip-path="url(#clip0)">
<path d="M186.862 189.269H45.4741L80.3712 65.1268C84.3845 50.8521 92.9589 38.2791 104.788 29.3235C116.617 20.3678 131.053 15.5205 145.895 15.52C190.991 15.52 223.619 58.5276 211.426 101.895L186.862 189.269Z" fill="#6892FD"/>
<path d="M90.1615 55.9379C90.2336 56.046 90.2814 56.1685 90.3014 56.2969C90.3214 56.4253 90.3132 56.5564 90.2774 56.6813C91.7827 56.3041 93.3478 56.2275 94.8828 56.4559C95.4755 56.4308 96.0548 56.6361 96.4992 57.0287C96.6743 57.2782 96.7717 57.5738 96.7793 57.8783C96.7869 58.1829 96.7043 58.483 96.5419 58.7409C96.2056 59.2517 95.7775 59.6959 95.2793 60.051C94.5229 60.6604 93.7848 61.3124 93.0711 61.9765C92.3012 62.7906 91.4203 63.4921 90.4543 64.0605C89.9682 64.3395 89.421 64.4954 88.8607 64.5145C88.3003 64.5337 87.7438 64.4154 87.2397 64.1702C85.794 63.3354 85.3549 60.9955 85.9709 59.5148C86.2698 58.7897 87.1055 58.4667 87.7155 58.0402C88.5953 57.4179 89.4142 56.714 90.1615 55.9379Z" fill="url(#paint0_linear)"/>
<path d="M156.418 56.1207C159.468 56.6387 161.7 56.7301 166.641 56.7301H177.468C183.519 56.7301 184.629 56.7301 188.033 56.3949C187.595 60.9496 187.392 65.5236 187.423 70.0991V114.709C187.371 119.005 187.597 123.3 188.1 127.566H169.538C170.05 123.3 170.278 119.005 170.222 114.709V71.2812H166.824C163.359 71.2842 159.896 71.4877 156.454 71.8906L156.418 56.1207Z" fill="white"/>
<path d="M20.4284 179.014C20.4284 179.014 17.6455 187.273 18.4154 188.062C19.1853 188.852 20.1618 189.409 21.2335 189.671C23.2465 190.28 34.0001 189.872 35.1228 189.872C36.0001 189.5 35.4526 187.511 32.0001 185.5C28.5476 183.489 28.0001 185 26.4306 184C26.4306 182.5 27.0001 177.5 27.0001 177.5L20.4284 179.014Z" fill="#B83C3C"/>
<path d="M49.2134 146.633C49.2134 146.633 47.7898 148.514 47.5001 150C47.1634 151.727 50.1246 155.448 53.5001 157.5C55.8264 158.914 58.4351 161.016 60.4676 160.008C61.5001 159 60.3054 154.731 59.0001 154C58.0757 153.536 57.2597 151.541 56.5001 151C55.7404 150.459 55.6304 148.242 55.6304 148.242L49.2134 146.633Z" fill="#B83C3C"/>
<path d="M47.0844 89.1594L60.8517 107.44C60.8517 107.44 65.3473 115.105 64.5116 120.096C63.676 125.086 55.6547 148.248 55.6547 148.248L49.2133 146.639C49.2133 146.639 56.9296 124.252 55.0508 122.71C53.1721 121.168 42.5157 111.376 42.5157 111.376L42.7719 141.234L27.8761 177.807L20.4282 179.013L29.2852 142.209L21.148 103.625L47.0844 89.1594Z" fill="#151C43"/>
<path opacity="0.5" d="M47.0844 89.1594L60.8517 107.44C60.8517 107.44 65.3473 115.105 64.5116 120.096C63.676 125.086 55.6547 148.248 55.6547 148.248L49.2133 146.639C49.2133 146.639 56.9296 124.252 55.0508 122.71C53.1721 121.168 42.5157 111.376 42.5157 111.376L42.7719 141.234L27.8761 177.807L20.4282 179.013L29.2852 142.209L21.148 103.625L47.0844 89.1594Z" fill="url(#paint1_linear)"/>
<path d="M55.1973 50.8499C56.62 51.5562 58.1563 52.0059 59.7356 52.1783C61.7607 52.3184 63.7371 51.6725 65.6829 51.118C71.8967 49.3375 78.3129 48.3587 84.7754 48.2053C85.1658 49.9359 85.4464 52.0381 84.1654 53.2446C83.7506 53.5908 83.2805 53.8648 82.7746 54.055C79.8345 55.3103 76.7907 56.7057 73.7469 57.6685C69.8491 58.8871 65.9757 59.7951 62.2609 61.4951C59.699 62.6712 57.1249 63.9691 54.3312 64.2616C52.6952 64.4905 51.0291 64.1803 49.5855 63.378C48.4428 62.5959 47.4749 61.5854 46.743 60.4105C45.9297 59.2528 45.1733 58.0584 44.4739 56.8276C43.9736 56.1137 43.7091 55.2615 43.7175 54.3902C43.8151 53.4274 44.5227 52.6596 45.218 51.9528C46.2123 50.99 48.4326 48.2967 49.8844 48.2175C51.3361 48.1383 53.8981 50.271 55.1973 50.8499Z" fill="#B83C3C"/>
<path opacity="0.2" d="M54.8802 50.99C56.3042 51.6951 57.8396 52.1486 59.4184 52.3306C61.4375 52.4646 63.4199 51.8248 65.3657 51.2642C71.5848 49.4781 78.0074 48.4951 84.4765 48.3394C84.8608 50.076 85.1475 52.1721 83.8665 53.3786C83.4505 53.7263 82.9781 54.0003 82.4696 54.1891C79.5356 55.4443 76.4857 56.8458 73.4419 57.8025C69.5441 59.0212 65.6707 59.9291 61.956 61.6353C59.4001 62.8052 56.826 64.1092 54.0262 64.4017C52.3923 64.6244 50.7301 64.3145 49.2866 63.5182C48.1451 62.7345 47.1775 61.7243 46.4441 60.5506C45.6328 59.3929 44.8704 58.1925 44.175 56.9677C43.6758 56.2533 43.4115 55.4015 43.4186 54.5303C43.5162 53.5736 44.2238 52.7998 44.9192 52.1295C45.9134 51.1667 48.1338 48.4734 49.5794 48.3942C51.0251 48.315 53.5687 50.405 54.8802 50.99Z" fill="url(#paint2_linear)"/>
<path d="M34.342 41.3929C30.9261 43.0015 28.6448 46.3407 27.1259 49.7896C25.296 54.0063 24.3139 58.5581 23.3745 63.0673C20.7211 75.8026 18.0555 88.739 19.1046 101.706C19.2022 102.925 19.4035 104.314 20.3734 105.088C21.0671 105.561 21.8879 105.814 22.7279 105.813C27.1442 106.124 31.4751 104.643 35.6535 103.18C39.3133 101.895 43.1867 100.481 45.6999 97.5136C48.6888 93.9855 49.1524 89.0376 49.4818 84.4309L50.5431 69.7213C50.8786 65.133 51.208 60.4897 50.4333 55.9501C49.2317 48.9548 43.0952 37.2615 34.342 41.3929Z" fill="#B83C3C"/>
<path d="M60.2722 23.2648C61.8277 27.256 60.6443 31.7347 59.4427 35.8478C59.1191 37.198 58.6078 38.4963 57.9238 39.705C57.5818 40.3127 57.1174 40.8431 56.5599 41.2626C56.0025 41.6821 55.364 41.9817 54.6848 42.1423C52.8549 42.4714 50.7931 41.4355 49.1523 42.3373C47.3894 43.3062 47.0966 46.03 45.2301 46.7734C43.7661 47.3827 42.1802 46.3895 40.8992 45.4572C39.6183 44.5249 38.0994 43.3184 37.7334 41.6731C37.4345 40.3326 37.9347 38.9555 38.4227 37.6697L43.7234 23.8071C44.4676 21.8694 45.2789 19.8281 46.9319 18.5668C48.2861 17.5309 50.0184 17.1653 51.6837 16.8301C53.7759 16.4036 55.9536 15.9831 58.0153 16.5315C60.077 17.08 61.9619 18.9141 61.8155 21.0407" fill="url(#paint3_linear)"/>
<path d="M61.5106 23.6914C59.8271 24.5444 57.7958 24.0752 55.9232 24.3007C54.6456 24.4797 53.4365 24.9871 52.4142 25.7733C51.392 26.5595 50.5917 27.5974 50.0918 28.7855C49.9088 29.2242 49.6526 29.7726 49.1768 29.7543C48.701 29.7361 48.4753 29.1084 48.152 28.7185C47.542 27.969 46.2123 28.17 45.6145 28.9317C45.3454 29.3394 45.1783 29.8058 45.1273 30.2915C45.0764 30.7771 45.143 31.268 45.3217 31.7225C45.5108 32.1201 45.6047 32.556 45.5962 32.9961C45.5127 33.375 45.3319 33.7257 45.0716 34.0137L43.3088 36.3414C43.0289 36.7768 42.6481 37.1384 42.1986 37.3955C41.2104 37.8586 40.0027 37.1701 39.4659 36.2195C39.0223 35.2213 38.7718 34.1483 38.7278 33.057C38.5753 31.9297 38.3191 30.8085 38.2215 29.6751C37.9777 26.7633 38.7752 23.8594 40.4723 21.4794C42.0766 19.2431 44.3823 17.6223 46.6332 16.0441C47.437 15.4431 48.2994 14.9245 49.2073 14.4963C52.001 13.2776 55.2217 13.887 58.1313 14.7949C59.2977 15.0605 60.3717 15.6327 61.2422 16.4523C62.0169 17.3054 63.4504 18.713 63.6212 19.8281C63.6896 20.6081 63.5258 21.391 63.1503 22.0783C62.7748 22.7657 62.2044 23.3269 61.5106 23.6914Z" fill="#606060"/>
<path opacity="0.35" d="M37.5 77.5C36.7 71.5 40.1667 62.6667 42 59C43.6 59 48.6667 61.8333 51 63.5C50 71.5 50 92.8 47 94C40.2406 96.7038 38.5 85 37.5 77.5Z" fill="url(#paint4_linear)"/>
<path d="M60.9311 55.4383C61.5838 56.2062 62.3819 56.8378 63.2796 57.2968C64.1339 57.5915 65.036 57.7237 65.9391 57.6868L85.977 58.0645C86.1837 58.0392 86.3935 58.0593 86.5916 58.1235C86.7897 58.1877 86.9713 58.2945 87.1238 58.4362C87.3023 58.7278 87.3654 59.0756 87.3007 59.4112C87.13 61.9376 86.6778 64.4372 85.9526 66.8635C79.5295 68.6915 72.7709 68.8134 66.1038 68.9535C64.3654 69.0506 62.6217 68.9669 60.9006 68.7037C58.9017 68.246 56.9732 67.5225 55.1668 66.5527C51.82 64.9278 48.5424 63.1546 45.3339 61.2331C42.8147 59.7342 40.1978 57.9914 39.0633 55.2859C38.1178 53.0374 30.2368 46.2371 31.6337 44.2507C37.2211 36.2256 56.521 51.0022 60.9311 55.4383Z" fill="#B83C3C"/>
<path d="M89.3563 43.294C89.7802 43.1334 90.2339 43.0668 90.6861 43.099C90.9113 43.1211 91.1273 43.1997 91.3139 43.3276C91.5005 43.4554 91.6518 43.6283 91.7535 43.8302C91.8862 44.3264 91.8297 44.8541 91.5949 45.3109L90.0151 49.5764C89.7539 50.4619 89.3253 51.2893 88.7524 52.0137C87.9466 52.8223 86.904 53.3537 85.7757 53.531C84.8425 53.7199 83.7384 53.7321 83.0735 53.0435C82.7396 52.646 82.5128 52.1699 82.4147 51.6603C81.3046 47.6082 85.8855 44.4091 89.3563 43.294Z" fill="url(#paint5_linear)"/>
<path d="M92.0312 102.25V121.234H98.3438V102.25H103.047V121.234H109.297V102.25H113.984V125H87.3281V102.25H92.0312ZM131.172 120.312H122.953L121.391 125H116.406L124.875 102.25H129.219L137.734 125H132.75L131.172 120.312ZM124.219 116.516H129.906L127.047 108L124.219 116.516ZM154.781 106.047H144.578V125H139.891V102.25H154.781V106.047Z" fill="white"/>
</g>
<defs>
<linearGradient id="paint0_linear" x1="85.7876" y1="59.8858" x2="96.483" y2="60.945" gradientUnits="userSpaceOnUse">
<stop stop-color="#E5C5D5"/>
<stop offset="0.42" stop-color="#EAD4D1"/>
<stop offset="1" stop-color="#F0E9CB"/>
</linearGradient>
<linearGradient id="paint1_linear" x1="35.9999" y1="82.5" x2="42.5217" y2="179.013" gradientUnits="userSpaceOnUse">
<stop stop-color="#342F2F"/>
<stop offset="1" stop-color="#342F2F" stop-opacity="0"/>
</linearGradient>
<linearGradient id="paint2_linear" x1="57.0001" y1="64" x2="85.0001" y2="42.5" gradientUnits="userSpaceOnUse">
<stop stop-color="#1E1E1E"/>
<stop offset="1" stop-color="#1E1E1E" stop-opacity="0"/>
</linearGradient>
<linearGradient id="paint3_linear" x1="-3146.73" y1="-7726.25" x2="-2361.65" y2="-7542.21" gradientUnits="userSpaceOnUse">
<stop stop-color="#E5C5D5"/>
<stop offset="0.42" stop-color="#EAD4D1"/>
<stop offset="1" stop-color="#F0E9CB"/>
</linearGradient>
<linearGradient id="paint4_linear" x1="44.191" y1="59" x2="44.191" y2="95.731" gradientUnits="userSpaceOnUse">
<stop stop-color="#181818"/>
<stop offset="1" stop-color="#181818" stop-opacity="0"/>
</linearGradient>
<linearGradient id="paint5_linear" x1="569.405" y1="-497.427" x2="710.112" y2="-497.427" gradientUnits="userSpaceOnUse">
<stop stop-color="#E5C5D5"/>
<stop offset="0.42" stop-color="#EAD4D1"/>
<stop offset="1" stop-color="#F0E9CB"/>
</linearGradient>
<clipPath id="clip0">
<rect width="214" height="190" fill="white"/>
</clipPath>
</defs>
</svg>
