<svg width="193" height="273" viewBox="0 0 193 273" fill="none" xmlns="http://www.w3.org/2000/svg">
<g clip-path="url(#clip0)">
<path d="M72.444 65.3482L95.6202 58.4495C95.6202 58.4495 101.054 59.8982 101.054 65.6932C101.054 71.4881 93.8089 79.1457 93.8089 79.1457L83.6655 91.0977L78.6456 99.3158L73.8931 89.649L80.0429 80.2322C80.0429 80.2322 72.0818 83.4919 67.0101 78.4213C61.9384 73.3508 72.444 65.3482 72.444 65.3482Z" fill="#171E42"/>
<path d="M101.063 65.7018C101.063 71.514 93.8089 79.1112 93.8089 79.1112L83.6742 91.0546L78.637 99.2727L73.8931 89.6059L80.0429 80.1891C80.0429 80.1891 72.0731 83.4488 67.0014 78.3782C63.8791 75.2738 66.6564 71.0483 69.2613 68.2715C70.0695 68.3505 70.8817 68.3822 71.6936 68.3664C72.9402 68.4679 74.1842 68.1425 75.2213 67.4437C75.5958 67.1202 75.9264 66.7491 76.2046 66.3399C76.7049 65.6673 77.3432 64.7618 78.0763 63.6753L95.6202 58.5012C95.6202 58.5012 101.063 59.9155 101.063 65.7018Z" fill="url(#paint0_linear)"/>
<path d="M80.7416 89.054C81.009 89.2092 81.3109 89.3127 81.6041 89.4938C82.0374 89.8531 82.3777 90.3116 82.596 90.8304L83.8726 93.3139C84.0776 93.65 84.2071 94.0267 84.2521 94.4177C84.2521 94.8968 84.0666 95.3573 83.7346 95.7026C83.2627 96.1519 82.6965 96.4903 82.0773 96.6932C81.4581 96.8961 80.8014 96.9583 80.1551 96.8754C79.4625 96.8894 78.7853 96.6707 78.2316 96.2545C77.9435 95.9777 77.7043 95.654 77.5244 95.2973C76.9356 94.2653 76.4197 93.1933 75.9804 92.0894C75.3594 90.5458 74.7211 87.8553 76.5669 86.8033C78.4128 85.7512 79.4392 88.321 80.7416 89.054Z" fill="url(#paint1_linear)"/>
<path d="M151.495 272.405H24.2889L72.7718 109.931C76.3831 97.0775 84.0978 85.7562 94.7409 77.692C105.384 69.6279 118.372 65.2629 131.726 65.262C172.265 65.262 201.651 103.981 190.68 143.028L151.495 272.405Z" fill="#6892FD"/>
<path d="M66.9065 105.878C66.9065 108.758 65.8197 111.518 64.7329 114.191L59.5577 126.859C58.8276 128.29 58.4827 129.886 58.5572 131.49C58.8591 133.835 60.8343 135.543 62.6801 137.017C64.7502 138.673 66.9496 140.372 69.5803 140.769C72.2111 141.165 75.2903 139.699 75.7129 137.095C76.1873 134.172 73.341 131.826 72.5043 128.98C71.8747 126.825 72.444 124.513 73.1254 122.375C75.5232 114.829 79.2666 107.499 79.4391 99.5832C79.6288 91.2874 75.8596 83.8109 73.9448 75.9205C72.513 70.048 72.7976 68.7631 66.4494 67.6765C63.2062 67.1246 58.4364 66.0467 55.547 68.306C44.1702 77.1537 66.8806 96.4442 66.9065 105.878Z" fill="#171E42"/>
<path d="M122.074 65.6414C122.518 65.6517 122.958 65.7332 123.376 65.8829C123.585 65.9611 123.763 66.1016 123.888 66.2853C124.013 66.469 124.079 66.6869 124.075 66.9091C124.023 67.323 123.644 67.6248 123.514 68.0215C123.469 68.2983 123.482 68.5814 123.552 68.8531C123.621 69.1247 123.747 69.3789 123.92 69.5996L125.464 72.1866C125.624 72.3877 125.738 72.6222 125.796 72.8728C125.854 73.1235 125.856 73.3841 125.8 73.6353C125.702 73.8536 125.543 74.0392 125.343 74.17C124.308 74.8516 123.058 75.1279 121.833 74.9461C119.813 74.7215 117.908 73.8913 116.369 72.5647C114.829 71.238 113.727 69.477 113.207 67.5127C113.164 67.34 113.164 67.1594 113.207 66.9867C113.278 66.7821 113.411 66.6044 113.587 66.4779C114.75 65.3636 116.223 64.6271 117.813 64.3652C119.271 64.3048 120.608 65.4776 122.074 65.6414Z" fill="url(#paint2_linear)"/>
<path d="M145.587 174.107C138.686 174.107 136.961 174.184 134.089 174.409C134.249 171.347 134.776 168.316 135.659 165.38C137.769 158.788 141.577 152.867 146.699 148.211C149.615 145.529 152.53 143.304 160.353 138.018C166.943 133.568 168.556 131.576 168.556 128.049C168.556 124.367 165.261 121.918 160.353 121.918C156.67 121.918 154.065 123.142 152.375 125.755C151.305 127.437 150.839 128.972 150.46 132.188L134.357 130.464C135.512 123.789 136.892 120.417 139.954 116.813C144.327 111.639 151.305 108.922 160.276 108.922C170.626 108.922 178.527 112.372 182.356 118.581C184.046 121.264 184.923 124.378 184.884 127.549C184.884 133.145 182.589 137.897 177.837 141.803C175.301 144.028 174.533 144.563 166.719 150.004C160.043 154.609 157.231 157.291 155.445 160.663H173.308C177.404 160.742 181.5 160.563 185.574 160.128V174.615C181.132 174.236 177.906 174.081 172.463 174.081L145.587 174.107Z" fill="white"/>
<path d="M124.187 62.3214C124.981 62.3121 125.774 62.364 126.559 62.4766C127.801 62.8043 128.647 63.934 129.362 65.0033C129.57 65.2419 129.681 65.5495 129.673 65.8656C129.613 66.452 128.879 66.6503 128.293 66.728L124.705 67.0729C123.695 67.2668 122.656 67.2432 121.657 67.0038C120.657 66.7644 119.72 66.3146 118.909 65.6845C117.183 64.6756 115.812 62.1575 118.27 60.9503C120.082 60.0448 122.393 62.1231 124.187 62.3214Z" fill="url(#paint3_linear)"/>
<path d="M82.0785 18.1178C78.6974 18.4196 75.7302 20.5237 73.3669 22.9728C70.5909 26.0611 68.1453 29.4311 66.0699 33.0277C59.8683 42.9532 53.5891 53.0598 50.4236 64.3306C50.1217 65.4086 49.8629 66.6331 50.4236 67.5903C50.8633 68.2052 51.4801 68.6715 52.1918 68.9269C55.823 70.5654 59.9545 70.6516 63.9222 70.7292C67.4241 70.781 71.1157 70.7896 74.1691 69.0649C77.7831 67.0125 79.7151 62.9768 81.4316 59.1825L86.9086 47.1097C88.6337 43.3413 90.3588 39.5211 91.1005 35.4422C92.2908 29.1299 90.7555 17.3503 82.0785 18.1178Z" fill="#B83C3C"/>
<path opacity="0.35" d="M78.0764 63.6753C77.3432 64.7618 76.7049 65.6673 76.2047 66.3399C75.9265 66.7491 75.5959 67.1202 75.2214 67.4437C74.1842 68.1425 72.9402 68.4679 71.6936 68.3664C70.8817 68.3822 70.0695 68.3505 69.2613 68.2716C67.0793 68.1106 64.9262 67.6761 62.8527 66.978C62.5501 66.96 62.2582 66.8598 62.0085 66.6881C61.7587 66.5165 61.5606 66.2799 61.4354 66.0039C61.3103 65.7279 61.2628 65.423 61.2983 65.122C61.3337 64.8211 61.4507 64.5355 61.6365 64.2962C66.1123 53.7408 72.9664 44.3619 81.6645 36.891C81.9537 36.6157 82.2975 36.4042 82.6737 36.2701C82.9605 36.238 83.2508 36.2667 83.5258 36.3544C83.8007 36.442 84.0541 36.5867 84.2693 36.7788C91.1265 42.2633 82.8634 56.5954 78.0764 63.6753Z" fill="url(#paint4_linear)"/>
<path d="M109.61 10.8655C109.679 14.7202 107.29 18.1351 104.996 21.2136C104.304 22.2549 103.467 23.1927 102.512 23.999C102.037 24.3969 101.487 24.694 100.893 24.8719C100.3 25.0498 99.6769 25.1049 99.0617 25.0338C97.4056 24.7406 95.9911 23.2229 94.3264 23.4729C92.6617 23.723 91.4455 25.9565 89.6342 26.0082C88.2196 26.0082 87.176 24.732 86.3911 23.5506C85.6062 22.3691 84.666 20.8687 84.8989 19.3682C85.1746 18.1581 85.7982 17.0551 86.693 16.1948L95.4822 6.15713C96.707 4.75151 98.0697 3.27691 99.7948 2.70776C101.294 2.36711 102.85 2.36711 104.349 2.70776C106.238 3.00096 108.213 3.32865 109.783 4.43245C111.353 5.53624 112.371 7.66623 111.586 9.41678" fill="url(#paint5_linear)"/>
<path d="M110.533 11.5985C108.808 11.7968 107.273 10.7361 105.617 10.3912C104.482 10.1454 103.303 10.1982 102.195 10.5443C101.087 10.8905 100.088 11.5181 99.2946 12.366C99.01 12.6764 98.6218 13.0645 98.2251 12.9006C97.8283 12.7368 97.8369 12.1331 97.6817 11.702C97.5852 11.5086 97.4491 11.3379 97.2821 11.2008C97.1151 11.0637 96.9211 10.9633 96.7127 10.9064C96.5042 10.8494 96.2861 10.837 96.0726 10.8701C95.8591 10.9032 95.655 10.981 95.4736 11.0983C95.1195 11.3571 94.8333 11.6978 94.6395 12.0913C94.4458 12.4847 94.3502 12.9192 94.3609 13.3577C94.3908 13.753 94.3349 14.1501 94.197 14.5218C94.0046 14.8161 93.7404 15.0564 93.4294 15.2203L91.2213 16.6432C90.8474 16.9216 90.4129 17.1078 89.9534 17.1865C89.4606 17.1636 88.9927 16.9633 88.636 16.6225C88.2793 16.2818 88.0579 15.8236 88.0127 15.3324C87.949 14.3524 88.0719 13.3692 88.3749 12.435C88.5906 11.426 88.7286 10.4085 88.996 9.41676C89.6936 6.87916 91.2711 4.6723 93.4466 3.19065C95.5802 1.91842 97.9129 1.01469 100.347 0.517396C101.212 0.254408 102.102 0.0838609 103.003 0.00861499C105.738 -0.146606 108.265 1.37974 110.438 3.03543C111.343 3.61851 112.073 4.43483 112.552 5.39825C112.94 6.36407 113.716 7.98527 113.509 8.99421C113.324 9.67258 112.943 10.2814 112.414 10.7445C111.884 11.2077 111.23 11.5047 110.533 11.5985Z" fill="#606060"/>
<path d="M91.1868 27.2327L105.858 46.2474L121.117 59.01L115.821 65.124L96.983 50.2227L88.2887 36.6495L91.1868 27.2327Z" fill="#B83C3C"/>
<path opacity="0.5" d="M91.1868 27.2327L105.859 46.2474L121.384 59.9586L115.821 65.124L96.9831 50.2227L89.7378 38.2362L91.1868 27.2327Z" fill="url(#paint6_linear)"/>
<path d="M84.8472 26.8705L101.158 50.4125L119.219 64.2099L112.56 70.8586L96.4483 58.7858C96.4483 58.7858 77.9729 38.8657 77.6106 36.6926C77.2483 34.5195 77.2397 26.8705 84.8472 26.8705Z" fill="#B83C3C"/>
<path d="M60.5894 124C60.5894 124 65.3511 127.609 69.2389 127.762C73.1267 127.915 75.4123 133.768 75.4123 133.768C75.4123 133.768 80.5214 143.096 72.4096 141.893C64.2979 140.69 58.0685 133.758 58.0013 130.684C57.934 127.609 60.5894 124 60.5894 124Z" fill="#B83C3C"/>
<path d="M71.8105 152.672V170.47H77.7285V152.672H82.1377V170.47H87.9971V152.672H92.3916V174H67.4014V152.672H71.8105ZM108.505 169.605H100.8L99.335 174H94.6621L102.602 152.672H106.674L114.657 174H109.984L108.505 169.605ZM101.986 166.046H107.318L104.638 158.062L101.986 166.046ZM130.639 156.231H121.073V174H116.679V152.672H130.639V156.231Z" fill="white"/>
</g>
<defs>
<linearGradient id="paint0_linear" x1="88.2801" y1="96.6253" x2="71.9938" y2="9.72591" gradientUnits="userSpaceOnUse">
<stop stop-opacity="0"/>
<stop offset="0.95"/>
</linearGradient>
<linearGradient id="paint1_linear" x1="1669.44" y1="1211.25" x2="1761.33" y2="1211.25" gradientUnits="userSpaceOnUse">
<stop stop-opacity="0"/>
<stop offset="0.95"/>
</linearGradient>
<linearGradient id="paint2_linear" x1="113.181" y1="69.6858" x2="125.869" y2="69.6858" gradientUnits="userSpaceOnUse">
<stop stop-color="#E5C5D5"/>
<stop offset="0.42" stop-color="#EAD4D1"/>
<stop offset="1" stop-color="#F0E9CB"/>
</linearGradient>
<linearGradient id="paint3_linear" x1="3012.38" y1="555.583" x2="3200.4" y2="555.583" gradientUnits="userSpaceOnUse">
<stop stop-color="#E5C5D5"/>
<stop offset="0.42" stop-color="#EAD4D1"/>
<stop offset="1" stop-color="#F0E9CB"/>
</linearGradient>
<linearGradient id="paint4_linear" x1="74.0849" y1="36.2573" x2="74.0849" y2="68.3846" gradientUnits="userSpaceOnUse">
<stop stop-color="#2B2A2A"/>
<stop offset="1" stop-color="#2B2A2A" stop-opacity="0"/>
</linearGradient>
<linearGradient id="paint5_linear" x1="-9454.25" y1="-20290.1" x2="-8978.88" y2="-19975" gradientUnits="userSpaceOnUse">
<stop stop-color="#E5C5D5"/>
<stop offset="0.42" stop-color="#EAD4D1"/>
<stop offset="1" stop-color="#F0E9CB"/>
</linearGradient>
<linearGradient id="paint6_linear" x1="83" y1="46" x2="106" y2="33" gradientUnits="userSpaceOnUse">
<stop stop-color="#252525"/>
<stop offset="1" stop-color="#252525" stop-opacity="0"/>
</linearGradient>
<clipPath id="clip0">
<rect width="193" height="273" fill="white"/>
</clipPath>
</defs>
</svg>
