<svg width="214" height="391" viewBox="0 0 214 391" fill="none" xmlns="http://www.w3.org/2000/svg">
<g clip-path="url(#clip0)">
<path d="M155.852 391.049H28.9519L94.051 180.962C97.6513 168.165 105.348 156.893 115.967 148.865C126.587 140.837 139.547 136.493 152.871 136.495C162.304 136.494 171.608 138.673 180.055 142.859C188.503 147.046 195.863 153.127 201.56 160.627C207.257 168.126 211.135 176.84 212.89 186.085C214.646 195.33 214.231 204.855 211.679 213.913L155.852 391.049Z" fill="#6892FD"/>
<path d="M172.942 216.094C173.08 217.914 173.834 219.633 175.08 220.969C176.245 222.085 177.625 222.953 179.138 223.518C180.65 224.084 182.262 224.336 183.875 224.259C189.849 224.259 193.648 221.273 193.648 216.631C193.737 215.241 193.385 213.858 192.642 212.679C191.898 211.5 190.801 210.584 189.507 210.062C187.207 209.348 184.805 209.015 182.397 209.075C179.417 209.075 175.972 209.221 172.991 209.526V196.402C175.683 196.719 178.392 196.874 181.102 196.865C188.359 196.865 191.962 194.428 191.962 189.553C191.962 185.434 189.055 183.07 184.01 183.07C178.574 183.07 175.813 185.215 174.677 190.089L158.149 187.725C159.602 182.997 160.824 180.706 163.279 178.037C167.946 173.005 174.982 170.409 184.315 170.409C192.646 170.409 199.536 172.7 203.861 176.892C205.27 178.316 206.376 180.01 207.111 181.872C207.846 183.734 208.195 185.725 208.136 187.725C208.136 195.817 203.775 200.85 194.98 202.909C199.646 203.604 202.175 204.664 204.85 206.955C206.446 208.373 207.721 210.114 208.591 212.062C209.461 214.009 209.905 216.119 209.895 218.251C209.984 221.873 208.914 225.428 206.841 228.402C204.943 230.864 202.474 232.83 199.646 234.13C194.601 236.154 189.204 237.165 183.765 237.103C176.876 237.103 169.998 235.494 165.942 232.826C162.355 230.439 159.601 226.998 158.063 222.979C157.523 221.667 157.086 220.314 156.756 218.934L172.942 216.094Z" fill="white"/>
<path d="M153.873 135.435C153.818 135.833 153.662 136.211 153.421 136.532C152.918 136.955 152.269 137.165 151.613 137.117C150.269 137.117 148.657 137.117 147.948 135.971C147.654 135.378 147.515 134.72 147.545 134.058C147.423 129.696 147.753 125.321 147.777 120.946C147.863 109.54 145.993 98.207 145.126 86.8252C144.769 84.3684 145.003 81.862 145.81 79.5136C146.397 78.1488 148.119 75.931 149.829 75.9188C151.54 75.9066 151.662 77.4055 152.077 78.7947C153.412 83.2866 154.444 87.8625 155.168 92.4917C156.645 101.623 157.002 110.9 156.23 120.117C155.798 125.271 155.01 130.389 153.873 135.435Z" fill="#171E42"/>
<path opacity="0.5" d="M153.873 135.435C153.818 135.833 153.662 136.211 153.421 136.532C152.918 136.955 152.269 137.165 151.613 137.117C150.269 137.117 148.657 137.117 147.948 135.971C147.654 135.378 147.515 134.72 147.545 134.058C147.423 129.696 147.753 125.321 147.777 120.946C147.863 109.54 145.993 98.207 145.126 86.8252C144.769 84.3684 145.003 81.862 145.81 79.5136C146.397 78.1488 148.119 75.931 149.829 75.9188C151.54 75.9066 151.662 77.4055 152.077 78.7947C153.412 83.2866 154.444 87.8625 155.168 92.4917C156.645 101.623 157.002 110.9 156.23 120.117C155.798 125.271 155.01 130.389 153.873 135.435Z" fill="url(#paint0_linear)"/>
<path d="M157.941 82.5236C158.336 82.5166 158.725 82.417 159.075 82.2328C159.425 82.0487 159.727 81.7851 159.956 81.4634C160.421 80.5373 159.724 79.4283 158.918 78.7825C158.112 78.1366 157.098 77.6492 156.621 76.7231C156.519 76.4739 156.396 76.2335 156.255 76.0041C156.034 75.7426 155.747 75.5448 155.424 75.4313C153.396 74.6758 147.643 75.9919 148.828 79.0871C149.866 82.0971 155.314 82.877 157.941 82.5236Z" fill="url(#paint1_linear)"/>
<path d="M138.383 117.741C137.797 125.162 133.68 131.889 132.397 139.225C132.212 139.895 132.238 140.605 132.47 141.26C132.959 142.308 134.266 142.637 135.414 142.844C137.601 143.234 139.947 143.612 141.974 142.698C145.334 141.175 146.287 136.983 146.861 133.351L148.766 120.788C150.794 107.383 152.81 93.6129 150.33 80.2448C150.326 79.9236 150.251 79.6072 150.11 79.3184C149.969 79.0295 149.765 78.7753 149.514 78.5739C149.264 78.3725 148.971 78.2289 148.658 78.1533C148.345 78.0777 148.019 78.072 147.704 78.1367C139.885 77.8198 132.214 80.4276 133.044 89.1041C133.936 98.7432 139.165 107.858 138.383 117.741Z" fill="#171E42"/>
<path d="M139.995 26.1877C137.076 27.9181 135.329 31.0621 134.254 34.2914C133.09 38.2652 132.345 42.3493 132.031 46.4774C130.736 58.0541 129.453 69.8258 131.469 81.305C131.5 81.8629 131.642 82.409 131.887 82.9113C132.133 83.4135 132.476 83.8618 132.898 84.2296C133.56 84.5846 134.312 84.7372 135.06 84.6683C139.03 84.5708 142.769 82.8892 146.384 81.2319C149.561 79.7696 152.883 78.1854 154.936 75.3217C157.306 71.9218 157.293 67.4739 157.208 63.3306L156.902 50.121C156.994 45.9924 156.583 41.8679 155.681 37.8375C153.946 31.6836 147.472 21.8129 139.995 26.1877Z" fill="#B83C3C"/>
<path opacity="0.5" d="M130.577 70.7519C130.479 72.8357 134.596 75.0414 136.404 76.0894C139.03 77.6248 141.376 80.1717 144.002 81.7071C145.163 82.3774 146.714 79.2699 147.985 78.8191C148.57 78.5445 149.054 78.093 149.367 77.5287C149.681 76.9643 149.808 76.3158 149.732 75.6751C149.549 74.3974 149.031 73.1908 148.229 72.1777C145.759 68.8305 142.803 65.8693 139.458 63.3916C137.809 62.173 133.521 58.834 131.432 60.8325C129.685 62.5142 130.858 65.0733 130.577 70.7519Z" fill="url(#paint2_linear)"/>
<path d="M134.791 147.329C138.456 149.169 142.793 149.023 146.897 149.449C147.729 149.645 148.604 149.514 149.341 149.084C149.618 148.811 149.822 148.472 149.934 148.099C150.045 147.726 150.059 147.331 149.976 146.951C149.524 145.327 148.56 143.892 147.227 142.856C144.173 139.944 139.702 137.629 135.317 139.079C134.438 139.322 133.658 139.831 133.083 140.537C132.509 141.243 132.169 142.11 132.111 143.017C132.054 143.925 132.281 144.827 132.761 145.6C133.241 146.373 133.951 146.977 134.791 147.329Z" fill="#B83C3C"/>
<path d="M161.63 7.82342C163.365 11.2599 162.681 15.3544 161.96 19.132C161.782 20.3645 161.432 21.5662 160.921 22.7025C160.666 23.2713 160.295 23.7813 159.832 24.2006C159.37 24.62 158.826 24.9397 158.234 25.1397C156.621 25.5906 154.691 24.8351 153.348 25.7734C152.004 26.7117 151.821 29.2464 150.22 30.0629C148.999 30.7087 147.459 29.9776 146.238 29.2586C144.851 28.6292 143.733 27.5276 143.086 26.1512C142.821 24.9313 142.919 23.6607 143.367 22.4954L146.873 9.68787C147.219 7.8507 148.064 6.14357 149.316 4.75254C150.519 3.80144 151.922 3.13481 153.421 2.80278C155.223 2.10418 157.163 1.82898 159.089 1.99851C160.036 2.10297 160.921 2.51903 161.605 3.18102C162.288 3.84301 162.731 4.71322 162.864 5.65431" fill="url(#paint3_linear)"/>
<path d="M162.754 8.0915C161.312 8.99327 159.468 8.74955 157.867 9.12731C156.73 9.38176 155.68 9.93004 154.823 10.7171C153.965 11.5042 153.33 12.5025 152.981 13.6118C152.847 14.0261 152.663 14.5379 152.236 14.5501C151.808 14.5623 151.564 14.0383 151.234 13.7214C151.064 13.5901 150.868 13.4959 150.659 13.4447C150.45 13.3936 150.233 13.3868 150.021 13.4247C149.809 13.4626 149.608 13.5444 149.429 13.6647C149.251 13.7851 149.1 13.9414 148.986 14.1236C148.785 14.5115 148.68 14.9419 148.68 15.3787C148.68 15.8155 148.785 16.246 148.986 16.6339C149.186 16.9768 149.307 17.3598 149.341 17.755C149.299 18.0991 149.168 18.4265 148.962 18.7055L147.582 20.9355C147.366 21.3467 147.056 21.7015 146.678 21.9714C146.225 22.1588 145.719 22.1783 145.253 22.0263C144.787 21.8743 144.391 21.5609 144.137 21.1427C143.652 20.2929 143.337 19.3577 143.208 18.3887C142.976 17.3894 142.646 16.4145 142.463 15.4153C142.003 12.8362 142.47 10.1779 143.782 7.90871C145.152 5.84933 146.857 4.03294 148.828 2.53469C149.497 1.9371 150.221 1.40269 150.99 0.93832C153.433 -0.365582 156.316 -0.0974901 158.991 0.45088C160.056 0.589588 161.064 1.01038 161.911 1.66948C162.681 2.36408 164.073 3.49738 164.354 4.48445C164.471 5.17593 164.381 5.88628 164.096 6.52745C163.812 7.16862 163.345 7.71244 162.754 8.0915Z" fill="#606060"/>
<path opacity="0.5" d="M147.643 63.5866C146.14 57.4936 149.328 51.4006 149.267 45.1613C149.297 44.047 149.094 42.9387 148.669 41.9077C148.465 41.3691 148.131 40.8892 147.696 40.5109C147.261 40.1326 146.739 39.8677 146.176 39.7398C145.614 39.6118 145.028 39.6249 144.472 39.7778C143.916 39.9307 143.406 40.2186 142.988 40.6159C142.107 41.3929 141.396 42.3429 140.899 43.4065C138.456 48.0738 137.772 53.4234 137.54 58.6634C137.303 60.4151 137.624 62.1967 138.456 63.7572C139.44 64.9567 140.696 65.905 142.121 66.5234C143.726 67.4252 145.272 68.4265 146.751 69.5211C147.814 70.3132 151.222 72.2142 149.988 69.5211C149.026 67.6184 148.241 65.632 147.643 63.5866Z" fill="url(#paint4_linear)"/>
<path d="M128.146 51.9123C127.334 53.3891 126.87 55.0312 126.79 56.7136C127.057 58.8448 127.964 60.8455 129.392 62.4532C133.552 68.069 138.289 73.2356 143.526 77.8685C144.335 78.6771 145.299 79.3153 146.36 79.7452C147.192 79.9838 148.066 80.0432 148.923 79.9192C149.781 79.7953 150.602 79.4908 151.332 79.0262C152.781 78.0866 154.093 76.9505 155.229 75.6507L148.84 68.5584C146.14 65.5607 140.899 61.6368 140.496 57.591C140.142 54.118 143.734 49.7554 145.016 46.5139C146.299 43.2725 147.704 41.2374 146.397 37.9837C144.747 33.938 138.322 31.4642 135.402 35.6197C134.058 37.5694 133.313 40.3113 132.348 42.456L128.146 51.9123Z" fill="#B83C3C"/>
<path d="M148.095 136.495C148.103 137.046 148.288 137.579 148.622 138.018C148.956 138.456 149.422 138.777 149.951 138.933C152.723 140.037 155.619 140.798 158.576 141.199C158.71 141.245 158.853 141.256 158.992 141.231C159.132 141.205 159.262 141.144 159.37 141.053C159.462 140.899 159.497 140.718 159.468 140.541C159.297 138.725 157.929 137.3 156.634 136.032L154.642 134.07C154.419 133.792 154.131 133.572 153.803 133.43C153.475 133.288 153.118 133.227 152.761 133.254C151.756 133.199 150.749 133.199 149.744 133.254C149.324 133.252 148.909 133.335 148.522 133.498C147.411 133.997 147.899 135.569 148.095 136.495Z" fill="#B83C3C"/>
<path d="M148.095 136.495C148.103 137.046 148.288 137.579 148.622 138.018C148.956 138.456 149.422 138.777 149.951 138.933C152.723 140.037 155.619 140.798 158.576 141.199C158.71 141.245 158.853 141.256 158.992 141.231C159.132 141.205 159.262 141.144 159.37 141.053C159.462 140.899 159.497 140.718 159.468 140.541C159.297 138.725 157.929 137.3 156.634 136.032L154.642 134.07C154.419 133.792 154.131 133.572 153.803 133.43C153.475 133.288 153.118 133.227 152.761 133.254C151.756 133.199 150.749 133.199 149.744 133.254C149.324 133.252 148.909 133.335 148.522 133.498C147.411 133.997 147.899 135.569 148.095 136.495Z" fill="url(#paint5_linear)"/>
<path d="M94.8105 211.672V229.47H100.729V211.672H105.138V229.47H110.997V211.672H115.392V233H90.4014V211.672H94.8105ZM131.505 228.605H123.8L122.335 233H117.662L125.602 211.672H129.674L137.657 233H132.984L131.505 228.605ZM124.986 225.046H130.318L127.638 217.062L124.986 225.046ZM153.639 215.231H144.073V233H139.679V211.672H153.639V215.231Z" fill="white"/>
</g>
<defs>
<linearGradient id="paint0_linear" x1="160.5" y1="107" x2="131.658" y2="97.4439" gradientUnits="userSpaceOnUse">
<stop stop-opacity="0"/>
<stop offset="0.95"/>
</linearGradient>
<linearGradient id="paint1_linear" x1="148.608" y1="78.9165" x2="160.103" y2="78.9165" gradientUnits="userSpaceOnUse">
<stop stop-color="#E5C5D5"/>
<stop offset="0.42" stop-color="#EAD4D1"/>
<stop offset="1" stop-color="#F0E9CB"/>
</linearGradient>
<linearGradient id="paint2_linear" x1="140.101" y1="60.2091" x2="140.101" y2="81.8014" gradientUnits="userSpaceOnUse">
<stop stop-color="#1B1B1B"/>
<stop offset="1" stop-color="#1B1B1B" stop-opacity="0"/>
</linearGradient>
<linearGradient id="paint3_linear" x1="1361.22" y1="-6634.33" x2="1655.88" y2="-6592.56" gradientUnits="userSpaceOnUse">
<stop stop-color="#E5C5D5"/>
<stop offset="0.42" stop-color="#EAD4D1"/>
<stop offset="1" stop-color="#F0E9CB"/>
</linearGradient>
<linearGradient id="paint4_linear" x1="134" y1="40" x2="143.859" y2="70.9142" gradientUnits="userSpaceOnUse">
<stop stop-color="#272727"/>
<stop offset="1" stop-color="#272727" stop-opacity="0"/>
</linearGradient>
<linearGradient id="paint5_linear" x1="3118.41" y1="1046.37" x2="3229.18" y2="1046.37" gradientUnits="userSpaceOnUse">
<stop stop-opacity="0"/>
<stop offset="0.95"/>
</linearGradient>
<clipPath id="clip0">
<rect width="214" height="391" fill="white"/>
</clipPath>
</defs>
</svg>
