<svg width="294" height="368" viewBox="0 0 294 368" fill="none" xmlns="http://www.w3.org/2000/svg">
<path opacity="0.18" d="M139.945 338.956C140.788 338.112 141.372 337.045 141.628 335.879C141.656 334.412 141.174 332.98 140.265 331.828C136.9 326.459 132.98 321.458 128.569 316.908C127.587 316.016 126.76 314.965 126.123 313.801C125.181 311.797 125.382 309.17 123.756 307.637C115.91 309.161 107.832 311.997 102.71 318.171C101.739 319.224 101.076 320.524 100.795 321.929C100.545 323.823 101.443 325.668 102.349 327.362C103.861 330.215 105.421 333.048 107.03 335.861C108.227 338.2 109.76 340.351 111.581 342.246C112.923 343.421 114.332 344.519 115.8 345.533C117.914 347.147 119.658 349.703 121.873 351.106C124.088 352.509 125.792 350.935 127.696 349.702C132.288 346.745 136.415 343.124 139.945 338.956Z" fill="#005BAA"/>
<path d="M129.41 18.4242L127.275 17.5019L88.0567 31.4844L71.238 83.3808L72.8579 83.4207L129.41 18.4242Z" fill="#005BAA"/>
<path d="M84.1572 234.818C83.4976 234.345 82.6909 234.125 81.8829 234.195C81.3439 234.354 80.854 234.647 80.4595 235.047C73.3634 241.123 66.7392 247.73 60.6441 254.81C60.3043 255.149 60.0458 255.56 59.8882 256.014C59.8308 256.508 59.9165 257.009 60.135 257.457C60.3536 257.905 60.696 258.28 61.1215 258.54C64.128 260.808 68.398 259.973 71.8958 258.61C74.9225 257.49 77.7624 255.918 80.3192 253.949C81.6124 252.898 82.8438 251.774 84.0071 250.581C86.5632 248.085 89.289 245.409 90.6216 242.011C91.303 240.267 91.4931 239.626 90.2101 238.413C88.6475 236.922 86.0524 235.879 84.1572 234.818Z" fill="#3E3E54"/>
<path d="M90.1119 269.799C88.9552 271.459 88.0688 273.293 87.4855 275.231C87.2967 275.824 87.2967 276.462 87.4855 277.055C87.6912 277.494 88.0052 277.873 88.3981 278.158C89.7401 279.095 91.2972 279.679 92.9249 279.854C94.5527 280.029 96.1983 279.791 97.7091 279.16C100.721 277.867 103.41 275.927 105.587 273.477C108.219 270.786 110.616 267.875 112.753 264.777C112.957 264.551 113.114 264.286 113.214 263.999C113.313 263.711 113.355 263.406 113.334 263.103C113.225 262.711 112.999 262.361 112.687 262.1C109.676 259.234 103.803 258.562 99.8938 259.435C95.6044 260.447 92.357 266.34 90.1119 269.799Z" fill="#3E3E54"/>
<path d="M201.047 191.206C201.047 191.206 211.069 272.104 197.509 276.534C183.948 280.964 148.196 270.63 145.25 270.34C142.304 270.049 113.033 265.017 113.033 265.017L115.098 250.253C115.098 250.253 173.851 257.34 177.99 252.92C182.13 248.499 174.443 214.534 174.443 214.534L175.325 196.822L201.047 191.206Z" fill="#3E3E54"/>
<path d="M201.047 191.206C201.047 191.206 211.069 272.104 197.509 276.534C183.948 280.964 148.196 270.63 145.25 270.34C142.304 270.049 113.033 265.017 113.033 265.017L115.098 250.253C115.098 250.253 173.851 257.34 177.99 252.92C182.13 248.499 174.443 214.534 174.443 214.534L175.325 196.822L201.047 191.206Z" fill="url(#paint0_linear)"/>
<path d="M144.354 208.918C144.354 208.918 135.206 251.437 129.319 250.554C123.433 249.672 92.1173 237.855 92.1173 237.855C92.1173 237.855 86.2123 243.758 86.5125 249.372C86.8127 254.986 129.029 283.029 138.77 278.309C148.511 273.588 163.257 241.73 177.178 209.222L181.319 200.799L144.354 208.918Z" fill="#3E3E54"/>
<path d="M144.354 208.918C144.354 208.918 135.206 251.437 129.319 250.554C123.433 249.672 92.1173 237.855 92.1173 237.855C92.1173 237.855 86.2123 243.758 86.5125 249.372C86.8127 254.986 129.029 283.029 138.77 278.309C148.511 273.588 163.257 241.73 177.178 209.222L181.319 200.799L144.354 208.918Z" fill="url(#paint1_linear)"/>
<path d="M90.1011 32.5072L72.8624 83.425L98.9413 81.9271L126.635 53.2558L129.41 18.4242L90.1011 32.5072Z" fill="#005BAA"/>
<path d="M90.1011 32.5072L72.8624 83.425L98.9413 81.9271L126.635 53.2558L129.41 18.4242L90.1011 32.5072Z" fill="url(#paint2_linear)"/>
<path d="M198.562 50.8192C202.303 46.087 205.654 41.0586 208.581 35.7837C213.717 43.2151 217.113 51.708 218.516 60.6319C218.78 61.8588 218.804 63.1251 218.587 64.3611C218.25 65.5428 217.701 66.6535 216.967 67.6388C211.949 75.1408 205.849 81.859 198.865 87.5753C196.165 89.7903 193.272 91.9254 191.528 94.9429C188.05 100.957 190.025 108.464 191.869 115.139C198.605 139.495 214.548 211.894 215.272 237.193C193.663 249.505 149.683 239.087 124.827 239.929C136.343 216.364 129.308 167.611 125.278 146.713C107.969 155.594 90.1087 164.634 70.7241 166.389L60.2241 145.679C69.9261 137.861 82.5849 134.724 93.0288 127.918C101.959 122.095 108.955 113.795 117.204 107.029C127.071 98.9507 138.302 93.8683 150.379 90.0906C163.025 86.2931 174.438 79.2095 183.454 69.5623C188.837 63.6031 193.881 57.3455 198.562 50.8192Z" fill="#005BAA"/>
<path d="M218.593 64.32C218.26 65.5034 217.711 66.6148 216.973 67.5977C211.957 75.113 205.857 81.8457 198.873 87.5774C196.173 89.7827 193.27 91.9275 191.529 94.945C188.052 100.959 190.026 108.466 191.87 115.141C198.606 139.497 214.549 211.896 215.273 237.195C203.246 244.031 184.374 243.86 165.671 242.497C150.706 241.417 135.883 239.561 124.828 239.931C136.335 216.366 129.309 167.623 125.279 146.715C107.956 155.592 90.1022 164.633 70.7176 166.388L60.2241 145.679C69.926 137.861 82.5849 134.724 93.0287 127.918C101.959 122.095 108.955 113.785 117.194 107.04C127.067 98.9506 138.312 93.8639 150.379 90.0905C163.007 86.282 174.4 79.1916 183.394 69.5428C188.8 63.5939 193.864 57.3426 198.562 50.8191C202.301 46.0856 205.651 41.0574 208.58 35.7837C213.716 43.2115 217.112 51.7018 218.515 60.6232C218.778 61.8397 218.805 63.0954 218.595 64.3221L218.593 64.32Z" fill="url(#paint3_linear)"/>
<path d="M160.29 86.2415L163.388 84.8083C163.388 84.8083 162.092 98.8405 161.192 100.475C160.293 102.109 150.969 113.434 150.969 113.434C146.346 114.844 141.63 115.926 136.856 116.674C129.739 117.676 117.31 121.465 112.521 121.596C108.327 121.843 104.149 122.311 100.004 122.998C100.004 122.998 109.325 112.904 110.488 112.253C111.651 111.602 160.29 86.2415 160.29 86.2415Z" fill="url(#paint4_linear)"/>
<path d="M98.7512 113.956C103.518 116.884 109.033 118.363 114.626 118.215C119.898 118.065 125 116.471 130.031 114.888C137.748 112.453 142.399 116.712 149.966 113.886C151.31 113.375 155.779 106.128 156.702 105.03C157.371 104.133 157.852 103.111 158.115 102.023C160.24 94.6666 160.864 86.958 159.95 79.3555C160.14 80.929 143.913 87.7848 142.03 88.6671C137.372 90.7965 132.589 92.6409 127.707 94.1901C116.288 97.7179 106.197 104.606 98.7512 113.956V113.956Z" fill="#005BAA"/>
<path d="M98.7512 113.956C103.518 116.884 109.033 118.363 114.626 118.215C119.898 118.065 125 116.471 130.031 114.888C137.748 112.453 142.399 116.712 149.966 113.886C151.31 113.375 155.779 106.128 156.702 105.03C157.371 104.133 157.852 103.111 158.115 102.023C160.24 94.6666 160.864 86.958 159.95 79.3555C160.14 80.929 143.913 87.7848 142.03 88.6671C137.372 90.7965 132.589 92.6409 127.707 94.1901C116.288 97.7179 106.197 104.606 98.7512 113.956V113.956Z" fill="url(#paint5_linear)"/>
<path d="M134.443 91.0021C135.299 92.7761 135.596 94.7685 135.295 96.7152C134.819 98.448 134.121 100.112 133.22 101.667C132.319 103.238 132.003 105.078 132.328 106.859C132.586 107.657 133.007 108.391 133.565 109.016C134.123 109.641 134.805 110.142 135.568 110.488C137.097 111.165 138.724 111.591 140.389 111.751C141.077 111.869 141.775 111.923 142.473 111.912C144.121 111.75 145.708 111.2 147.104 110.308C149.586 109.065 151.719 107.222 153.308 104.946C154.088 103.8 154.561 102.474 154.682 101.094C154.803 99.7136 154.568 98.3254 153.999 97.0619C153.338 95.8127 152.279 94.8201 150.99 94.242C149.737 93.6707 148.264 93.5098 147.221 92.6221C146.595 92.0091 146.09 91.2827 145.734 90.4815L142.4 84.0556C142.208 83.6113 141.917 83.2168 141.548 82.9022C141.152 82.6414 140.69 82.4993 140.216 82.4929C137.559 82.2823 135.094 83.5956 132.959 85.0082C131.626 85.8797 131.465 86.1962 132.378 87.5137C133.173 88.6099 133.864 89.7777 134.443 91.0021Z" fill="url(#paint6_linear)"/>
<path d="M143.422 68.3301C145.337 72.0085 146.078 76.538 144.424 80.3579C143.453 82.3625 141.957 84.0666 140.095 85.2891C139.243 85.9135 138.28 86.3695 137.258 86.6326C136.007 86.8431 134.729 86.8431 133.478 86.6326C131.033 86.4813 128.621 85.9888 126.312 85.1692C125.024 84.6086 123.801 83.9097 122.664 83.0848C122.206 82.6942 121.646 82.4438 121.049 82.3634C120.708 82.385 120.371 82.4526 120.047 82.5643C119.176 82.7938 118.265 82.8248 117.381 82.655C116.832 82.5923 116.309 82.3908 115.86 82.0696C115.411 81.7483 115.051 81.3179 114.815 80.819C114.434 79.8168 115.206 78.3729 116.299 78.4733C113.934 77.2302 112.55 74.7247 111.287 72.3692C110.854 71.6545 110.546 70.8716 110.374 70.0538C110.286 68.8286 110.513 67.6013 111.036 66.4898C111.564 64.9904 112.268 63.5591 113.134 62.226C115.29 59.4818 118.241 57.4691 121.583 56.4622C125.031 55.2602 129.18 54.5679 132.604 56.1414C133.756 56.8462 134.774 57.7489 135.611 58.8079C136.988 60.1957 138.36 61.5748 139.624 63.0479C141.091 64.6554 142.366 66.428 143.423 68.3301H143.422Z" fill="url(#paint7_linear)"/>
<path d="M121.894 61.2033C119.556 62.2261 117.535 63.8561 116.041 65.9239C115.335 67.1841 114.8 68.5326 114.45 69.9339C113.969 71.0772 113.922 72.3571 114.319 73.5324C114.651 74.1086 115.094 74.613 115.623 75.0163L120.698 79.4669C118.313 77.3717 114.604 78.5543 111.507 77.8933C110.287 77.5959 109.148 77.0341 108.169 76.2477C107.191 75.4613 106.397 74.4694 105.844 73.3423C104.737 71.0606 104.45 68.4669 105.032 65.9984C105.199 65.3849 105.318 64.759 105.386 64.1268C105.456 63.1246 105.126 62.0521 105.115 60.9948C105.115 58.5465 106.89 56.4719 108.726 54.8389C110.562 53.206 112.645 51.6519 113.608 49.3861C113.908 48.3575 114.336 47.3706 114.882 46.4485C115.474 45.6926 119.402 45.5068 120.255 45.0651C122.259 44.0629 121.118 42.7971 123.081 41.7971C123.42 41.5844 123.809 41.4638 124.209 41.4471C124.724 41.513 125.2 41.7576 125.553 42.1383C127.887 44.1428 132.032 48.7532 131.656 52.1617C131.074 57.0237 125.642 59.309 121.894 61.2033Z" fill="#3E3E54"/>
<path d="M111.329 77.431C109.786 78.2032 108.002 77.1805 106.588 76.1977L99.4218 71.1866C98.8071 70.8144 98.2723 70.324 97.8484 69.7437C97.5415 69.1603 97.3477 68.5242 97.2771 67.8688C96.4327 63.359 96.7535 58.7083 98.2091 54.3572C98.9521 52.193 100.153 50.2148 101.731 48.5576C103.309 46.9004 105.226 45.6034 107.351 44.7551C107.982 44.5391 110.729 42.3197 111.359 42.3996C114.239 43.5103 117.199 44.3982 120.215 45.0553C121.116 45.2151 113.379 50.0675 110.613 60.3111C107.94 70.3344 110.532 71.1563 111.329 77.431Z" fill="#005BAA"/>
<path d="M111.329 77.431C109.786 78.2032 108.002 77.1805 106.588 76.1977L99.4218 71.1866C98.8071 70.8144 98.2723 70.324 97.8484 69.7437C97.5415 69.1603 97.3477 68.5242 97.2771 67.8688C96.4327 63.359 96.7535 58.7083 98.2091 54.3572C98.952 52.193 100.153 50.2148 101.731 48.5576C103.309 46.9004 105.226 45.6034 107.351 44.7551C107.982 44.5391 110.729 42.3197 111.359 42.3996C114.374 43.0601 117.334 43.9478 120.215 45.0553C121.067 45.3858 113.379 50.0675 110.613 60.3111C107.94 70.3344 110.532 71.1563 111.329 77.431Z" fill="url(#paint8_linear)"/>
<path d="M77.2328 70.6249C76.7911 74.1532 75.8797 77.6405 75.9088 81.1688C75.9801 90.2601 79.1065 99.0306 80.2393 108.052C80.5253 109.727 80.5253 111.438 80.2393 113.114C79.6554 114.982 78.9335 116.805 78.0795 118.566C76.8516 121.844 76.8019 125.432 76.762 128.93L78.897 124.76L79.127 126.565C79.1972 126.241 79.7987 126.635 79.5276 126.825C79.9831 125.942 80.1843 124.95 80.1086 123.959C80.3357 125.215 80.383 126.498 80.249 127.768C81.5671 123.664 82.3883 119.417 82.695 115.118C82.8451 113.114 82.6453 110.707 80.8808 109.766C80.6531 106.245 80.137 102.748 79.3376 99.3114C78.235 95.4926 76.2328 86.1108 76.681 78.7939C76.9342 74.4942 77.674 70.2371 78.8862 66.1041C78.8862 66.1041 77.7944 66.1441 77.2328 70.6249Z" fill="#005BAA"/>
<path d="M43.1948 158.67C41.5209 158.27 39.7866 157.668 38.1192 158.099C36.4518 158.53 35.1159 160.685 36.2487 162.018C37.1127 163.021 39.1645 163.502 38.8243 164.805C38.7047 165.143 38.4889 165.439 38.2034 165.657C36.0889 167.481 33.1915 167.925 30.5662 169.005C27.9409 170.085 25.4549 172.513 26.0305 175.249C28.0781 177.274 30.4508 178.941 33.05 180.18C34.8117 180.873 36.7045 181.168 38.5933 181.045C40.4822 180.922 42.3207 180.384 43.9777 179.469C48.4875 176.933 50.9972 171.951 55.0026 168.654C58.1895 166.027 62.1992 164.575 65.5567 162.174C65.8569 161.958 67.561 161.492 67.7014 161.172C67.7697 160.837 67.742 160.489 67.6215 160.169C66.9886 157.908 65.1042 153.438 63.3202 152.045C57.6679 157.147 51.1128 160.544 43.1948 158.67Z" fill="url(#paint9_linear)"/>
<path d="M215.185 48.0923C219.123 40.6048 216.598 31.0523 220.026 23.3542C221.229 20.6381 223.114 18.2923 224.406 15.6259C225.699 12.9594 226.35 9.70217 224.978 7.07566C224.5 6.25587 223.932 5.49253 223.284 4.80014L220.547 1.57423C220.315 1.21445 219.958 0.953531 219.544 0.842004C218.954 0.772885 218.472 1.31396 218.182 1.84531C217.09 3.84975 217.179 6.27539 216.868 8.55091C216.557 10.8264 215.595 13.332 213.441 14.1344C212.765 11.9544 211.261 10.1267 209.252 9.04446C208.921 13.4951 212.491 17.4035 212.73 21.8541C212.747 23.7808 212.407 25.6939 211.728 27.497C210.809 30.3656 209.711 33.1737 208.44 35.9047C209.442 38.421 210.615 41.1566 211.597 43.673C211.993 44.8455 212.553 45.9557 213.261 46.9702C213.801 47.6614 214.423 47.6614 215.185 48.0923Z" fill="url(#paint10_linear)"/>
<path opacity="0.18" d="M273.216 197.761C276.304 188.507 280.458 179.644 285.595 171.351C287.91 167.612 290.535 163.523 289.834 159.183C276.124 152.873 262.536 146.309 249.072 139.491C248.491 139.191 237.967 156.123 237.192 157.834C234.909 162.919 235.3 166.989 238.786 171.351C247.338 182.043 261.73 190.514 273.216 197.761Z" fill="#005BAA"/>
<path d="M276.454 194.523C279.545 185.27 283.699 176.407 288.832 168.112C291.147 164.373 293.774 160.284 293.072 155.944C279.354 149.655 265.78 143.079 252.349 136.213C251.768 135.913 241.244 152.845 240.47 154.556C238.187 159.641 238.578 163.711 242.064 168.073C250.616 178.807 264.968 187.276 276.454 194.523Z" fill="white"/>
<path opacity="0.18" d="M35.8578 208.186C32.7811 206.026 16.8145 230.707 15.1504 233.174C12.2627 230.854 10.3004 226.798 7.45378 224.042C4.36629 221.035 1.67946 219.291 1.78745 214.58C1.9516 207.112 11.092 196.859 15.8825 191.867C22.6677 197.069 28.7422 203.234 35.8578 208.186Z" fill="#005BAA"/>
<path d="M34.4247 204.947C31.3481 202.802 15.3814 227.47 13.7184 229.935C10.8296 227.617 8.86735 223.56 6.02068 220.804C2.93319 217.797 0.246351 216.061 0.354343 211.352C0.518491 203.874 9.65894 193.631 14.4495 188.629C21.2454 193.832 27.3189 199.996 34.4247 204.947Z" fill="white"/>
<path d="M135.504 334.6C135.511 335.751 135.122 336.869 134.401 337.767C133.702 338.667 132.909 339.49 132.036 340.223L107.22 362.164C104.785 364.324 102.209 366.534 99.1011 367.427C92.316 369.361 85.6021 364.561 80.168 360.05C75.5244 356.21 70.7868 352.241 67.0686 347.561C65.2866 345.352 63.7792 342.935 62.5794 340.364C61.5167 338.058 83.4369 325.479 85.5114 324.326L114.847 307.377L133.329 330.331C134.509 331.472 135.274 332.974 135.504 334.6Z" fill="white"/>
<path d="M134.401 337.767C133.702 338.667 132.909 339.49 132.036 340.223L107.22 362.164C104.785 364.324 102.208 366.535 99.1011 367.427C92.316 369.361 85.6021 364.56 80.168 360.049C75.5276 356.21 70.7868 352.24 67.0686 347.555C68.722 343.826 73.1421 341.12 77.0913 338.314C86.573 331.532 96.1346 324.686 106.738 319.865C106.903 319.745 107.092 319.661 107.291 319.617C107.491 319.574 107.697 319.574 107.897 319.615C108.097 319.657 108.287 319.739 108.453 319.858C108.619 319.977 108.758 320.13 108.861 320.306C112.771 324.475 116.781 328.548 120.891 332.525C122.322 334.035 123.958 335.337 125.75 336.393C126.651 336.915 127.649 337.249 128.682 337.374C129.716 337.5 130.764 337.416 131.764 337.126C132.656 336.825 133.879 336.424 134.31 337.256C134.387 337.415 134.419 337.592 134.401 337.767Z" fill="#005BAA"/>
<path d="M134.401 337.767C133.702 338.667 132.909 339.49 132.036 340.223L107.22 362.164C104.785 364.324 102.208 366.535 99.1011 367.427C92.316 369.361 85.6021 364.56 80.168 360.049C75.5276 356.21 70.7868 352.24 67.0686 347.555C68.722 343.826 73.1421 341.12 77.0913 338.314C86.573 331.532 96.1346 324.686 106.738 319.865C106.903 319.745 107.092 319.661 107.291 319.617C107.491 319.574 107.697 319.574 107.897 319.615C108.097 319.657 108.287 319.739 108.453 319.858C108.619 319.977 108.758 320.13 108.861 320.306C112.771 324.475 116.781 328.548 120.891 332.525C122.322 334.035 123.958 335.337 125.75 336.393C126.651 336.915 127.649 337.249 128.682 337.374C129.716 337.5 130.764 337.416 131.764 337.126C132.656 336.825 133.879 336.424 134.31 337.256C134.387 337.415 134.419 337.592 134.401 337.767Z" fill="url(#paint11_linear)"/>
<path d="M106.208 315.777L108.724 314.894C108.873 314.822 109.041 314.797 109.205 314.824C109.354 314.895 109.479 315.007 109.565 315.148C112.748 319.336 116.392 323.151 120.431 326.521C120.77 326.745 121.034 327.067 121.186 327.444" stroke="#005BAA" stroke-width="1.17" stroke-miterlimit="10"/>
<path d="M114.346 314.413C116.457 317.456 118.835 320.304 121.452 322.923L130.072 331.944" stroke="#005BAA" stroke-width="1.17" stroke-miterlimit="10"/>
<path d="M165.663 242.494C150.7 241.412 135.876 239.558 124.82 239.928C136.327 216.364 129.301 167.62 125.272 146.712L131.556 141.65C131.556 141.65 139.193 186.826 140.998 196.147C142.802 205.468 148.255 231.619 156.03 235.759C162.496 239.187 165.012 241.733 165.663 242.494Z" fill="url(#paint12_linear)"/>
<defs>
<linearGradient id="paint0_linear" x1="198.751" y1="242.027" x2="181.948" y2="235.71" gradientUnits="userSpaceOnUse">
<stop stop-opacity="0"/>
<stop offset="0.99"/>
</linearGradient>
<linearGradient id="paint1_linear" x1="166.812" y1="244.034" x2="103.908" y2="205.665" gradientUnits="userSpaceOnUse">
<stop stop-opacity="0"/>
<stop offset="0.99"/>
</linearGradient>
<linearGradient id="paint2_linear" x1="86.5469" y1="26.9393" x2="138.522" y2="91.6176" gradientUnits="userSpaceOnUse">
<stop stop-opacity="0"/>
<stop offset="0.99"/>
</linearGradient>
<linearGradient id="paint3_linear" x1="218.259" y1="87.4425" x2="-36.6627" y2="279.621" gradientUnits="userSpaceOnUse">
<stop stop-opacity="0"/>
<stop offset="0.99"/>
</linearGradient>
<linearGradient id="paint4_linear" x1="126.245" y1="94.9285" x2="142.947" y2="171.245" gradientUnits="userSpaceOnUse">
<stop stop-opacity="0"/>
<stop offset="0.99"/>
</linearGradient>
<linearGradient id="paint5_linear" x1="132.697" y1="122.385" x2="130.161" y2="73.1345" gradientUnits="userSpaceOnUse">
<stop offset="0.02" stop-color="white" stop-opacity="0"/>
<stop offset="0.58" stop-color="white" stop-opacity="0.388"/>
<stop offset="0.68" stop-color="white" stop-opacity="0.678"/>
<stop offset="1" stop-color="white"/>
</linearGradient>
<linearGradient id="paint6_linear" x1="131.803" y1="97.1918" x2="154.735" y2="97.1918" gradientUnits="userSpaceOnUse">
<stop stop-color="#E5C5D5"/>
<stop offset="0.42" stop-color="#EAD4D1"/>
<stop offset="1" stop-color="#F0E9CB"/>
</linearGradient>
<linearGradient id="paint7_linear" x1="110.321" y1="71.009" x2="145.339" y2="71.009" gradientUnits="userSpaceOnUse">
<stop stop-color="#E5C5D5"/>
<stop offset="0.42" stop-color="#EAD4D1"/>
<stop offset="1" stop-color="#F0E9CB"/>
</linearGradient>
<linearGradient id="paint8_linear" x1="111.833" y1="38.7964" x2="91.7535" y2="75.4181" gradientUnits="userSpaceOnUse">
<stop stop-opacity="0"/>
<stop offset="0.99"/>
</linearGradient>
<linearGradient id="paint9_linear" x1="25.9468" y1="166.558" x2="67.7798" y2="166.558" gradientUnits="userSpaceOnUse">
<stop stop-color="#E5C5D5"/>
<stop offset="0.42" stop-color="#EAD4D1"/>
<stop offset="1" stop-color="#F0E9CB"/>
</linearGradient>
<linearGradient id="paint10_linear" x1="208.457" y1="24.4641" x2="225.742" y2="24.4641" gradientUnits="userSpaceOnUse">
<stop stop-color="#E5C5D5"/>
<stop offset="0.42" stop-color="#EAD4D1"/>
<stop offset="1" stop-color="#F0E9CB"/>
</linearGradient>
<linearGradient id="paint11_linear" x1="96.8992" y1="336.821" x2="109.655" y2="373.255" gradientUnits="userSpaceOnUse">
<stop stop-opacity="0"/>
<stop offset="0.99"/>
</linearGradient>
<linearGradient id="paint12_linear" x1="90.962" y1="129.044" x2="364.186" y2="203.435" gradientUnits="userSpaceOnUse">
<stop stop-opacity="0"/>
<stop offset="0.99"/>
</linearGradient>
</defs>
</svg>
