<svg xmlns="http://www.w3.org/2000/svg" xmlns:xlink="http://www.w3.org/1999/xlink" width="441.887" height="368.895" viewBox="0 0 441.887 368.895"><defs><radialGradient id="a" cx="0.5" cy="0.5" r="0.645" gradientUnits="objectBoundingBox"><stop offset="0" stop-color="#4ba1eb"/><stop offset="1" stop-color="#0028ff"/></radialGradient><linearGradient id="b" x1="0.936" y1="0.588" x2="0.75" y2="0.522" gradientUnits="objectBoundingBox"><stop offset="0" stop-opacity="0"/><stop offset="0.99"/></linearGradient><linearGradient id="c" x1="0.847" y1="0.554" x2="0.12" y2="0.189" xlink:href="#b"/><linearGradient id="d" x1="0.242" y1="0.131" x2="1.011" y2="1.231" xlink:href="#b"/><linearGradient id="e" x1="0.997" y1="0.249" x2="-0.281" y2="1.51" xlink:href="#b"/><linearGradient id="f" x1="0.414" y1="0.265" x2="1.086" y2="2.115" xlink:href="#b"/><linearGradient id="g" x1="0.551" y1="1.107" x2="0.448" y2="-0.155" gradientUnits="objectBoundingBox"><stop offset="0.02" stop-color="#fff" stop-opacity="0"/><stop offset="0.58" stop-color="#fff" stop-opacity="0.388"/><stop offset="0.68" stop-color="#fff" stop-opacity="0.678"/><stop offset="1" stop-color="#fff"/></linearGradient><linearGradient id="h" y1="0.5" x2="1.001" y2="0.5" gradientUnits="objectBoundingBox"><stop offset="0" stop-color="#e5c5d5"/><stop offset="0.42" stop-color="#ead4d1"/><stop offset="1" stop-color="#f0e9cb"/></linearGradient><linearGradient id="i" x1="-0.001" y1="0.5" x2="1" y2="0.5" xlink:href="#h"/><linearGradient id="j" x1="0.64" y1="-0.102" x2="0.206" y2="1.089" xlink:href="#b"/><linearGradient id="k" x1="0" y1="0.5" x2="1.001" y2="0.5" xlink:href="#h"/><linearGradient id="l" x1="0.001" y1="0.5" x2="1" y2="0.5" xlink:href="#h"/><linearGradient id="m" x1="0.443" y1="0.357" x2="0.777" y2="1.041" xlink:href="#b"/><linearGradient id="n" x1="-0.829" y1="-0.125" x2="4.12" y2="3.202" xlink:href="#b"/></defs><g transform="translate(16.718 51.191)"><path d="M459.358,139.011c-.4-11.843-4.5-36.927-12.657-46.142C436.5,81.352,413.03,81.146,398.9,73.9c-22.9-11.859-33.455-14.327-42.767-36.823-2.681-6.565-14.83-24.453-19.287-30.128-12.283-15.455-34.961-20.175-54.507-13.39S253.763,19.725,233.4,23.892c-23.442,4.785-47.709-1.3-71.69-2.419S109.845,26.636,99.533,46.5C93.025,59.065,95.271,74.279,89.072,87c-13.978,28.754-51.894,15.085-65.85,43.807-10.484,21.549-6.471,63.228,11.862,79.825s41.247,30.1,52.808,51.151c12.6,22.858,5.65,54.512,30.089,67.015s52.02-12.848,76.31,0c8.307,4.4,27.036,20.68,34.815,25.822,27.384,18.094,97.11-19.118,121.159-40.814,30.271-27.319,32.418-36.2,58.874-66.43C436.042,216.633,460.756,179.817,459.358,139.011Z" transform="translate(-34.246 -41.729)" opacity="0.26" fill="url(#a)"/><g transform="translate(70.823 -43.095) rotate(8)"><path d="M36.291,29a5.783,5.783,0,0,0,1.559-2.849A5.875,5.875,0,0,0,36.588,22.4,83.726,83.726,0,0,0,25.757,8.585a11.081,11.081,0,0,1-2.265-2.877C22.62,3.852,22.806,1.42,21.3,0,14.035,1.411,6.555,4.037,1.812,9.754a7.221,7.221,0,0,0-1.773,3.48c-.232,1.754.6,3.462,1.439,5.03q2.1,3.963,4.334,7.87a24.92,24.92,0,0,0,4.214,5.912,43.151,43.151,0,0,0,3.907,3.044c1.958,1.494,3.573,3.861,5.624,5.16s3.629-.158,5.392-1.3A51.155,51.155,0,0,0,36.291,29Z" transform="translate(92.969 284.079)" fill="#005baa" opacity="0.18"/><path d="M53.867.854,51.89,0,15.574,12.947,0,61l1.5.037Z" transform="translate(65.638 15.431)" fill="#005baa"/><path d="M22.485.588A3.146,3.146,0,0,0,20.379.012,3.062,3.062,0,0,0,19.061.8,170.771,170.771,0,0,0,.712,19.1a2.933,2.933,0,0,0-.7,1.114,2.413,2.413,0,0,0,1.142,2.339c2.784,2.1,6.738,1.327,9.977.065a29.643,29.643,0,0,0,7.8-4.316,39.973,39.973,0,0,0,3.415-3.118c2.367-2.311,4.891-4.789,6.125-7.935.631-1.615.807-2.209-.381-3.332C26.643,2.537,24.24,1.571,22.485.588Z" transform="translate(55.116 216.065)" fill="#3e3e54"/><path d="M2.563,9.926a17.754,17.754,0,0,0-2.432,5.03,2.784,2.784,0,0,0,0,1.689,2.645,2.645,0,0,0,.845,1.021,9,9,0,0,0,8.622.928,20.659,20.659,0,0,0,7.295-5.262,61.35,61.35,0,0,0,6.636-8.056,2.107,2.107,0,0,0,.538-1.55,1.856,1.856,0,0,0-.6-.928C20.679.144,15.241-.478,11.621.33,7.649,1.267,4.642,6.724,2.563,9.926Z" transform="translate(80.552 239.117)" fill="#3e3e54"/><path d="M81.5,0s9.281,74.907-3.276,79.009-45.663-5.467-48.391-5.736S0,68.345,0,68.345L1.912,54.674s54.405,6.562,58.238,2.469S56.865,21.6,56.865,21.6l.817-16.4Z" transform="translate(104.34 176.271)" fill="#3e3e54"/><path d="M81.5,0s9.281,74.907-3.276,79.009-45.663-5.467-48.391-5.736S0,68.345,0,68.345L1.912,54.674s54.405,6.562,58.238,2.469S56.865,21.6,56.865,21.6l.817-16.4Z" transform="translate(104.34 176.271)" fill="url(#b)"/><path d="M53.571,7.518S45.1,46.888,39.649,46.071,5.2,34.312,5.2,34.312-.268,39.778.01,44.976,39.38,76.141,48.4,71.77,71.075,37.9,83.966,7.8L87.8,0Z" transform="translate(79.772 185.153)" fill="#3e3e54"/><path d="M53.571,7.518S45.1,46.888,39.649,46.071,5.2,34.312,5.2,34.312-.268,39.778.01,44.976,39.38,76.141,48.4,71.77,71.075,37.9,83.966,7.8L87.8,0Z" transform="translate(79.772 185.153)" fill="url(#c)"/><path d="M15.963,13.04,0,60.187,24.149,58.8,49.793,32.252,52.363,0Z" transform="translate(67.142 16.285)" fill="#005baa"/><path d="M15.963,13.04,0,60.187,24.149,58.8,49.793,32.252,52.363,0Z" transform="translate(67.142 16.285)" fill="url(#d)"/><path d="M128.1,13.922A103.119,103.119,0,0,0,137.378,0a55.686,55.686,0,0,1,9.2,23.008,9.012,9.012,0,0,1,.065,3.453,9.383,9.383,0,0,1-1.5,3.035,84.717,84.717,0,0,1-16.762,18.46c-2.5,2.051-5.179,4.028-6.794,6.822-3.221,5.569-1.392,12.52.316,18.7,6.237,22.553,21,89.59,21.671,113.015-20.01,11.4-60.735,1.754-83.752,2.534,10.664-21.82,4.149-66.963.418-86.313-16.028,8.223-32.567,16.594-50.517,18.219L0,101.757c8.984-7.239,20.706-10.144,30.377-16.446,8.269-5.392,14.748-13.077,22.386-19.342C61.9,58.489,72.3,53.783,83.483,50.285A69.134,69.134,0,0,0,114.11,31.277,198.083,198.083,0,0,0,128.1,13.922Z" transform="translate(55.439 32.359)" fill="#005baa"/><path d="M146.649,26.423a9.2,9.2,0,0,1-1.5,3.035,84.912,84.912,0,0,1-16.761,18.5c-2.5,2.042-5.188,4.028-6.8,6.822-3.22,5.569-1.392,12.52.316,18.7,6.237,22.553,21,89.59,21.671,113.015-11.137,6.33-28.613,6.172-45.932,4.91-13.857-1-27.583-2.719-37.82-2.376,10.655-21.82,4.149-66.953.418-86.313C44.2,110.936,27.667,119.307,9.717,120.932L0,101.757c8.984-7.239,20.706-10.144,30.377-16.446,8.269-5.392,14.748-13.086,22.377-19.332,9.142-7.49,19.555-12.2,30.729-15.694a69.05,69.05,0,0,0,30.572-19.026A196.509,196.509,0,0,0,128.1,13.922,103.615,103.615,0,0,0,137.377,0a55.631,55.631,0,0,1,9.2,23,9.011,9.011,0,0,1,.074,3.425Z" transform="translate(55.439 32.359)" fill="url(#e)"/><path d="M55.825,1.327,58.693,0s-1.2,12.993-2.033,14.506-9.467,12-9.467,12a95.514,95.514,0,0,1-13.068,3c-6.59.928-18.1,4.436-22.534,4.557A110.733,110.733,0,0,0,0,35.361s8.631-9.346,9.708-9.949S55.825,1.327,55.825,1.327Z" transform="translate(92.275 77.753)" fill="url(#f)"/><path d="M0,32.038a26.739,26.739,0,0,0,14.7,3.944c4.882-.139,9.606-1.615,14.265-3.081,7.146-2.255,11.453,1.689,18.46-.928,1.244-.473,5.383-7.183,6.237-8.2a7.666,7.666,0,0,0,1.309-2.784A52.9,52.9,0,0,0,56.67,0c.176,1.457-14.85,7.805-16.594,8.622a117.1,117.1,0,0,1-13.263,5.114A55.046,55.046,0,0,0,0,32.038Z" transform="translate(91.115 72.704)" fill="#005baa"/><path d="M0,32.038a26.739,26.739,0,0,0,14.7,3.944c4.882-.139,9.606-1.615,14.265-3.081,7.146-2.255,11.453,1.689,18.46-.928,1.244-.473,5.383-7.183,6.237-8.2a7.666,7.666,0,0,0,1.309-2.784A52.9,52.9,0,0,0,56.67,0c.176,1.457-14.85,7.805-16.594,8.622a117.1,117.1,0,0,1-13.263,5.114A55.046,55.046,0,0,0,0,32.038Z" transform="translate(91.115 72.704)" fill="url(#g)"/><path d="M2.444,7.9a9,9,0,0,1,.789,5.29,19.377,19.377,0,0,1-1.921,4.585,7.1,7.1,0,0,0-.826,4.808,5.569,5.569,0,0,0,3,3.36,14.422,14.422,0,0,0,4.464,1.169,10.413,10.413,0,0,0,1.93.149,9.726,9.726,0,0,0,4.288-1.485,15.425,15.425,0,0,0,5.745-4.965,7.5,7.5,0,0,0,.64-7.3A5.866,5.866,0,0,0,17.767,10.9c-1.16-.529-2.524-.678-3.49-1.5A6.413,6.413,0,0,1,12.9,7.418L9.813,1.468A2.943,2.943,0,0,0,9.024.4,2.3,2.3,0,0,0,7.79.021C5.33-.174,3.047,1.042,1.07,2.35c-1.234.807-1.383,1.1-.538,2.32A20.194,20.194,0,0,1,2.444,7.9Z" transform="translate(121.721 75.588)" fill="url(#h)"/><path d="M30.617,12.132c1.773,3.406,2.459,7.6.928,11.137a11.416,11.416,0,0,1-4.009,4.566,7.676,7.676,0,0,1-2.627,1.244,10.544,10.544,0,0,1-3.5,0,24.326,24.326,0,0,1-6.636-1.355,17.949,17.949,0,0,1-3.378-1.93A2.9,2.9,0,0,0,9.9,25.126a3.526,3.526,0,0,0-.928.186,5.569,5.569,0,0,1-2.469.084,3.007,3.007,0,0,1-2.376-1.7c-.353-.928.362-2.265,1.374-2.172-2.19-1.151-3.471-3.471-4.641-5.652a6.849,6.849,0,0,1-.845-2.144,6.627,6.627,0,0,1,.613-3.3A18.563,18.563,0,0,1,2.57,6.48a15.72,15.72,0,0,1,7.824-5.337C13.587.03,17.429-.611,20.6.846a10.608,10.608,0,0,1,2.784,2.469C24.659,4.6,25.93,5.877,27.1,7.241a25.987,25.987,0,0,1,3.518,4.891Z" transform="translate(101.863 50.363)" fill="url(#i)"/><path d="M15.893,18.293a13.235,13.235,0,0,0-5.42,4.371A15.082,15.082,0,0,0,9,26.377a4.705,4.705,0,0,0-.121,3.332,4.641,4.641,0,0,0,1.207,1.374l4.7,4.121c-2.209-1.94-5.643-.845-8.511-1.457a7.935,7.935,0,0,1-5.244-4.214,10.209,10.209,0,0,1-.752-6.8A11.138,11.138,0,0,0,.607,21c.065-.928-.241-1.921-.251-2.9C.356,15.833,2,13.912,3.7,12.4s3.629-2.951,4.52-5.049A11.871,11.871,0,0,1,9.4,4.631c.548-.7,4.186-.872,4.975-1.281,1.856-.928.8-2.1,2.617-3.026A2.135,2.135,0,0,1,18.037,0a2.051,2.051,0,0,1,1.244.64c2.162,1.856,6,6.125,5.652,9.281C24.394,14.423,19.364,16.539,15.893,18.293Z" transform="translate(96.652 37.603)" fill="#3e3e54"/><path d="M13.438,32.439c-1.429.715-3.081-.232-4.39-1.142L2.412,26.657A5.03,5.03,0,0,1,.955,25.321a4.844,4.844,0,0,1-.529-1.736,24.957,24.957,0,0,1,.863-12.511A14.72,14.72,0,0,1,9.754,2.183c.585-.2,3.128-2.255,3.712-2.181a55.8,55.8,0,0,0,8.2,2.459c.835.148-6.33,4.641-8.891,14.126C10.3,25.868,12.7,26.629,13.438,32.439Z" transform="translate(89.324 38.483)" fill="#005baa"/><path d="M13.438,32.439c-1.429.715-3.081-.232-4.39-1.142L2.412,26.657A5.03,5.03,0,0,1,.955,25.321a4.844,4.844,0,0,1-.529-1.736,24.957,24.957,0,0,1,.863-12.511A14.72,14.72,0,0,1,9.754,2.183c.585-.2,3.128-2.255,3.712-2.181a56.613,56.613,0,0,1,8.2,2.459c.789.306-6.33,4.641-8.891,14.126C10.3,25.868,12.7,26.629,13.438,32.439Z" transform="translate(89.324 38.483)" fill="url(#j)"/><path d="M1.226,4.186C.817,7.453-.027,10.682,0,13.949.066,22.367,2.961,30.488,4.01,38.841a13.922,13.922,0,0,1,0,4.687,36.579,36.579,0,0,1-2,5.049C.873,51.612.827,54.934.79,58.173l1.977-3.861.213,1.671c.065-.3.622.065.371.241a4.965,4.965,0,0,0,.538-2.654,12.474,12.474,0,0,1,.13,3.527A49.914,49.914,0,0,0,6.284,45.384c.139-1.856-.046-4.084-1.68-4.956a59.731,59.731,0,0,0-1.429-9.68C2.154,27.212.3,18.525.715,11.75A52.772,52.772,0,0,1,2.757,0S1.746.037,1.226,4.186Z" transform="translate(69.963 60.434)" fill="#005baa"/><path d="M15.975,6.135c-1.55-.371-3.156-.928-4.7-.529S8.494,8,9.543,9.235c.8.928,2.7,1.374,2.385,2.58a1.708,1.708,0,0,1-.575.789c-1.958,1.689-4.641,2.1-7.072,3.1s-4.733,3.248-4.2,5.782a23.833,23.833,0,0,0,6.5,4.566A11.917,11.917,0,0,0,16.7,25.393c4.176-2.348,6.5-6.961,10.209-10.014,2.951-2.432,6.664-3.777,9.773-6,.278-.2,1.856-.631,1.986-.928a1.68,1.68,0,0,0-.074-.928C38.008,5.429,36.263,1.29,34.611,0,29.377,4.724,23.307,7.87,15.975,6.135Z" transform="translate(23.695 140.01)" fill="url(#k)"/><path d="M6.246,43.756c3.647-6.933,1.309-15.778,4.483-22.906,1.114-2.515,2.859-4.687,4.056-7.156s1.8-5.485.529-7.917a11.674,11.674,0,0,0-1.568-2.107L11.211.683a1.6,1.6,0,0,0-.928-.678C9.736-.059,9.29.442,9.021.934,8.01,2.79,8.093,5.036,7.805,7.143s-1.179,4.427-3.174,5.17A8.065,8.065,0,0,0,.752,7.6c-.306,4.121,3,7.74,3.221,11.861a14.47,14.47,0,0,1-.928,5.225A66.666,66.666,0,0,1,0,32.471c.928,2.33,2.014,4.863,2.924,7.193a12.065,12.065,0,0,0,1.541,3.053C4.965,43.357,5.541,43.357,6.246,43.756Z" transform="translate(192.686 0)" fill="url(#l)"/><path d="M34.682,53.954A116.372,116.372,0,0,1,46.144,29.5c2.144-3.462,4.575-7.248,3.926-11.267Q31.026,9.47,12.324,0c-.538-.278-10.283,15.4-11,16.984C-.79,21.693-.428,25.461,2.8,29.5,10.719,39.4,24.046,47.244,34.682,53.954Z" transform="translate(217.987 128.386)" fill="#005baa" opacity="0.18"/><path d="M34.645,53.991A116.81,116.81,0,0,1,46.107,29.536c2.144-3.462,4.576-7.248,3.926-11.267Q30.979,9.535,12.324,0c-.538-.278-10.283,15.4-11,16.984C-.79,21.693-.428,25.461,2.8,29.5,10.719,39.439,24.009,47.281,34.645,53.991Z" transform="translate(221.022 125.351)" fill="#fff"/><path d="M31.549,15.11c-2.849-2-17.634,20.854-19.175,23.138C9.7,36.1,7.883,32.344,5.247,29.792,2.388,27.008-.1,25.393,0,21.031.152,14.116,8.616,4.622,13.052,0,19.335,4.817,24.96,10.525,31.549,15.11Z" transform="translate(1.327 176.883)" fill="#005baa" opacity="0.18"/><path d="M31.549,15.109C28.7,13.123,13.915,35.964,12.375,38.247,9.7,36.1,7.883,32.344,5.247,29.792,2.388,27.008-.1,25.4,0,21.04.152,14.116,8.616,4.631,13.052,0,19.345,4.817,24.969,10.525,31.549,15.109Z" transform="translate(0 173.885)" fill="#fff"/><path d="M67.563,25.207a4.64,4.64,0,0,1-1.021,2.933,14.935,14.935,0,0,1-2.19,2.274L41.372,50.73c-2.255,2-4.64,4.046-7.518,4.873-6.283,1.791-12.5-2.654-17.532-6.831-4.3-3.555-8.687-7.23-12.13-11.564A32.483,32.483,0,0,1,.035,30.544c-.984-2.135,19.314-13.782,21.235-14.85L48.435,0,65.549,21.254A6.831,6.831,0,0,1,67.563,25.207Z" transform="translate(57.585 283.838)" fill="#fff"/><path d="M62.35,16.837a14.932,14.932,0,0,1-2.19,2.274L37.18,39.427c-2.255,2-4.641,4.047-7.518,4.873-6.283,1.791-12.5-2.654-17.532-6.831C7.833,33.914,3.443,30.238,0,25.9c1.531-3.453,5.624-5.958,9.281-8.557C18.061,11.064,26.915,4.725,36.734.261A1.355,1.355,0,0,1,38.7.669Q44.131,6.46,49.839,11.983a20.614,20.614,0,0,0,4.5,3.582,7.146,7.146,0,0,0,5.569.678c.826-.278,1.958-.65,2.357.121A.872.872,0,0,1,62.35,16.837Z" transform="translate(61.777 295.141)" fill="#005baa"/><path d="M62.35,16.837a14.932,14.932,0,0,1-2.19,2.274L37.18,39.427c-2.255,2-4.641,4.047-7.518,4.873-6.283,1.791-12.5-2.654-17.532-6.831C7.833,33.914,3.443,30.238,0,25.9c1.531-3.453,5.624-5.958,9.281-8.557C18.061,11.064,26.915,4.725,36.734.261A1.355,1.355,0,0,1,38.7.669Q44.131,6.46,49.839,11.983a20.614,20.614,0,0,0,4.5,3.582,7.146,7.146,0,0,0,5.569.678c.826-.278,1.958-.65,2.357.121A.872.872,0,0,1,62.35,16.837Z" transform="translate(61.777 295.141)" fill="url(#m)"/><path d="M0,.892,2.33.075A.742.742,0,0,1,2.775.01a.788.788,0,0,1,.334.3A64.718,64.718,0,0,0,13.17,10.841a1.856,1.856,0,0,1,.7.854" transform="translate(98.02 290.724)" fill="none" stroke="#005baa" stroke-miterlimit="10" stroke-width="1.17"/><path d="M0,0A57.541,57.541,0,0,0,6.58,7.88l7.982,8.353" transform="translate(105.556 290.353)" fill="none" stroke="#005baa" stroke-miterlimit="10" stroke-width="1.17"/><path d="M37.82,93.376C23.964,92.374,10.237,90.657,0,91,10.655,69.181,4.149,24.047.418,4.687L6.237,0s7.072,41.83,8.743,50.461S21.7,83.306,28.9,87.139C34.887,90.314,37.217,92.671,37.82,93.376Z" transform="translate(115.255 130.385)" fill="url(#n)"/></g></g></svg>