<svg width="382" height="298" viewBox="0 0 382 298" fill="none" xmlns="http://www.w3.org/2000/svg">
<g clip-path="url(#clip0)">
<path opacity="0.5" d="M73.9263 293.344L311.8 293.344C347.998 293.344 377.341 272.593 377.341 246.995L377.341 132.024C377.341 106.426 365.09 85.675 328.893 85.675L51.7097 85.675C15.5125 85.675 8.38532 106.174 8.38533 131.772L8.38531 257.025C8.38531 282.623 37.729 293.344 73.9263 293.344Z" fill="url(#paint0_linear)"/>
<path d="M223.534 78.2097C223.525 76.9103 223.033 75.6603 222.155 74.701C221.236 74.1041 220.152 73.812 219.056 73.8663C201.179 72.8359 183.286 72.6555 165.378 73.3253C163.371 73.2217 161.383 73.7635 159.708 74.871C158.586 75.9457 157.763 77.2934 157.322 78.7816C155.51 83.543 154.13 88.4575 153.201 93.4656C152.783 95.6759 152.535 98.1954 153.945 99.942C155.355 101.689 158.05 101.998 160.389 102.091C178.112 102.75 195.84 102.992 213.572 102.817C217.879 102.817 224.788 102.477 225.966 97.4844C227.143 92.4918 224.169 83.3877 223.534 78.2097Z" fill="#3E3E54"/>
<path d="M60.5609 298L340.073 298C376.27 298 382 280.306 382 257.025L382 136.68C382 108.025 373.149 90.3312 343.8 90.3312L59.1634 90.3312C22.9661 90.3312 13.0439 107.571 13.0439 133.169L13.0439 250.506C13.0439 276.104 24.3637 298 60.5609 298Z" fill="#D98E5C"/>
<path opacity="0.5" d="M77.0525 298L340.073 298C376.453 298 382 280.295 382 254.697L382 136.68C382 111.082 376.453 90.3312 340.073 90.3312L77.0524 90.3312C40.6724 90.3312 11.1805 111.082 11.1805 136.68L11.1805 251.651C11.1805 277.249 40.6724 298 77.0525 298Z" fill="url(#paint1_linear)"/>
<path opacity="0.25" d="M165.473 98.5009C166.635 99.1964 167.998 99.8456 168.571 101.098C169.702 103.787 166.155 106.6 166.883 109.429C168.997 110.198 171.066 111.086 173.08 112.087C173.634 112.317 174.127 112.671 174.52 113.123C175.419 114.298 174.784 115.936 174.257 117.312C173.73 118.687 173.498 120.558 174.753 121.331C175.492 121.664 176.325 121.73 177.107 121.516L190.198 119.522C191.655 119.395 193.075 118.991 194.381 118.332C195.027 117.992 195.566 117.479 195.938 116.852C196.31 116.224 196.5 115.506 196.488 114.777L193.312 111.546C195.031 108.656 199.214 108.27 201.46 105.75C203.257 103.71 203.412 100.758 203.722 98.0217C204.032 95.2858 204.822 92.2872 207.239 91.0198C208.516 90.4616 209.905 90.2076 211.298 90.2778L224.528 89.8295C225.555 89.6928 226.599 89.8935 227.502 90.4014C229.268 91.6844 228.416 94.4666 227.378 96.3987C225.886 98.9216 224.606 101.563 223.552 104.297C220.221 113.865 223.242 124.87 219.431 134.253C218.868 135.85 217.896 137.273 216.611 138.379C214.501 139.689 212.045 140.335 209.563 140.234C199.028 140.832 188.483 141.291 177.928 141.61C173.279 141.863 168.616 141.739 163.986 141.239C159.137 140.59 154.025 138.874 151.329 134.809C150.457 133.388 149.76 131.868 149.253 130.28L144.699 117.915L139.788 104.514C138.44 100.866 137.17 96.5687 139.292 93.3073C141.198 90.3705 145.133 89.5514 148.587 89.5204C151.314 89.5204 157.201 88.4075 158.889 89.9532C159.85 90.8497 160.438 93.4156 161.259 94.5903C162.397 96.1535 163.828 97.4816 165.473 98.5009Z" fill="url(#paint2_linear)"/>
<path d="M197.802 223.881L248.569 234.478L262.604 167.546L211.837 156.949L197.802 223.881Z" fill="white"/>
<g filter="url(#filter0_d)">
<path d="M215.224 235.779L266.914 240.007L272.543 171.853L220.853 167.625L215.224 235.779Z" fill="white"/>
</g>
<g filter="url(#filter1_d)">
<path d="M227.337 231.355L279.199 231.355L279.247 162.969L227.385 162.969L227.337 231.355Z" fill="white"/>
</g>
<path d="M211.398 231.387C211.504 230.977 211.509 230.548 211.411 230.136C211.314 229.724 211.118 229.342 210.84 229.022C210.268 228.402 209.598 227.88 208.857 227.476L197.75 220.443C196.108 219.392 194.961 221.371 195.844 222.777C196.479 223.782 198.338 224.122 199.33 224.663C203.373 226.843 207.324 229.207 211.398 231.387Z" fill="#3E3E54"/>
<path d="M138.825 166.283L220.946 166.283L220.946 123.545L138.825 123.545L138.825 166.283Z" fill="black"/>
<path d="M138.825 166.283L220.946 166.283L220.946 123.545L138.825 123.545L138.825 166.283Z" fill="url(#paint3_linear)"/>
<path d="M217.43 138.244L236.918 138.244L236.918 126.497L217.43 126.497L217.43 138.244Z" fill="url(#paint4_linear)"/>
<path d="M138.825 166.283L221.303 166.654L228.042 190.89L128.678 190.89L138.825 166.283Z" fill="#27211D"/>
<path d="M142.744 168.029L217.631 168.323L223.022 187.706L134.627 187.706L142.744 168.029Z" fill="url(#paint5_linear)"/>
<path d="M145.362 162.465L215.586 162.465L215.586 141.583L145.362 141.583L145.362 162.465Z" fill="url(#paint6_linear)"/>
<path d="M206.8 26.0428C200.448 23.1988 193.182 23.5543 186.227 24.0489C179.643 24.5126 172.702 25.1927 167.311 29.0106C159.318 34.6678 157.056 45.6112 157.691 55.2872C158.383 66.8895 162.435 78.042 169.356 87.391C170.432 88.994 171.85 90.3399 173.508 91.3325C175.679 92.2446 178.039 92.616 180.386 92.4145C188.328 92.3527 196.265 92.0384 204.197 91.4716C205.94 91.4931 207.656 91.0503 209.17 90.1887C210.551 89.0512 211.56 87.528 212.067 85.8145C214.258 80.1226 215.311 74.0574 215.165 67.9618C214.948 59.1668 212.81 50.9593 215.552 42.4271C217.752 35.5643 213.399 29.0106 206.8 26.0428Z" fill="#909AD1"/>
<path d="M222.774 18.8091C226.384 20.3547 230.087 22.1323 232.565 25.1773C234.131 27.3374 235.353 29.7251 236.19 32.2565L247.034 60.3107C248.372 63.5493 249.47 66.8814 250.319 70.2803C250.988 73.7478 251.387 77.2619 251.512 80.791C251.899 83.9541 251.731 87.1603 251.016 90.266C249.916 94.0683 247.267 97.1906 244.633 100.127C241.535 103.497 238.437 106.774 235.338 110.02C233.008 112.661 230.311 114.956 227.329 116.836C224.598 118.403 221.523 119.273 218.375 119.371C217.658 119.423 216.938 119.339 216.252 119.124C215.607 118.844 215.011 118.463 214.486 117.996C211.946 115.912 209.516 113.699 207.205 111.365C205.919 110.066 204.572 108.35 205.067 106.588C205.703 104.254 208.754 103.883 211.032 103.095C216.872 101.055 219.366 94.3156 223.735 89.9259C225.284 88.3802 227.174 87.0046 228.073 84.9797C228.971 82.9549 228.181 79.9872 225.997 79.6317C225.693 81.3962 224.988 83.0676 223.935 84.5173C222.882 85.9671 221.51 87.1564 219.924 87.9938C217.973 88.9188 215.877 89.4993 213.727 89.7095C211.058 90.0647 208.364 90.2042 205.672 90.1269C205.195 90.1554 204.721 90.0425 204.308 89.8023C203.873 89.4283 203.583 88.9143 203.487 88.3493C201.088 80.5125 199.555 72.4372 198.917 64.2676C198.654 58.4724 198.716 52.667 199.103 46.8787L200.048 28.2532C200.249 23.9098 198.964 15.2076 204.696 14.342C210.644 13.3373 217.476 16.4905 222.774 18.8091Z" fill="#4B4242"/>
<path d="M171.466 53.0305C171.489 56.4009 171.768 59.7648 172.302 63.0929C174.084 72.6143 180.048 80.8992 182.48 90.266C182.609 90.5517 182.66 90.8657 182.63 91.1772C182.601 91.4888 182.49 91.7873 182.31 92.0436C181.934 92.3272 181.462 92.4545 180.993 92.399C174.91 92.399 168.822 92.2342 162.729 91.9044C162.153 91.9012 161.582 91.8019 161.04 91.6108C159.088 90.8379 158.747 88.3185 158.391 86.2473C157.365 81.7441 155.623 77.4338 153.232 73.4799C150.924 76.8649 148.585 80.6673 149.049 84.717C149.493 86.9496 150.418 89.0592 151.76 90.8997C155.22 96.322 159.193 101.4 163.627 106.063C164.247 106.588 164.681 107.298 164.866 108.088C164.844 108.63 164.704 109.162 164.455 109.645C164.206 110.128 163.855 110.551 163.426 110.885C159.586 114.812 155.526 118.517 151.265 121.983C151.064 122.192 150.824 122.358 150.557 122.472C150.291 122.586 150.005 122.646 149.715 122.648C149.186 122.499 148.735 122.15 148.461 121.674C142.264 113.606 136.341 105.321 130.692 96.8197C127.02 91.3016 123.38 85.3508 123.101 78.7507C123.139 74.6566 123.862 70.5976 125.239 66.7407C128.502 55.8591 132.169 45.1166 136.238 34.5132C137.614 30.2289 139.755 26.2282 142.558 22.7042C147.98 16.6297 156.966 14.5739 164.82 15.6559C173.449 16.8306 170.691 29.0724 170.893 35.5179L171.466 53.0305Z" fill="#4B4242"/>
<path opacity="0.35" d="M222.774 18.8091C226.384 20.3547 230.087 22.1323 232.565 25.1773C234.131 27.3374 235.353 29.7251 236.19 32.2565L247.034 60.3107C248.372 63.5493 249.47 66.8814 250.319 70.2803C250.988 73.7478 251.387 77.2619 251.512 80.791C251.899 83.9541 251.731 87.1603 251.016 90.266C249.916 94.0683 247.267 97.1906 244.633 100.127C241.535 103.497 238.437 106.774 235.338 110.02C233.008 112.661 230.311 114.956 227.329 116.836C224.598 118.403 221.523 119.273 218.375 119.371C217.658 119.423 216.938 119.339 216.252 119.124C215.607 118.844 215.011 118.463 214.486 117.996C211.946 115.912 209.516 113.699 207.205 111.365C205.919 110.066 204.572 108.35 205.067 106.588C205.703 104.254 208.754 103.883 211.032 103.095C216.872 101.055 219.366 94.3156 223.735 89.9259C225.284 88.3802 227.174 87.0046 228.073 84.9797C228.971 82.9549 228.181 79.9872 225.997 79.6317C225.693 81.3962 224.988 83.0676 223.935 84.5173C222.882 85.9671 221.51 87.1564 219.924 87.9938C217.973 88.9188 215.877 89.4993 213.727 89.7095C211.058 90.0647 208.364 90.2042 205.672 90.1269C205.195 90.1554 204.721 90.0425 204.308 89.8023C203.873 89.4283 203.583 88.9143 203.487 88.3493C201.088 80.5125 199.555 72.4372 198.917 64.2676C198.654 58.4724 198.716 52.667 199.103 46.8787L200.048 28.2532C200.249 23.9098 198.964 15.2076 204.696 14.342C210.644 13.3373 217.476 16.4905 222.774 18.8091Z" fill="url(#paint7_linear)"/>
<path opacity="0.35" d="M171.466 53.0305C171.489 56.4009 171.768 59.7648 172.302 63.0929C174.084 72.6143 180.048 80.8992 182.48 90.266C182.609 90.5517 182.66 90.8657 182.63 91.1772C182.601 91.4888 182.49 91.7873 182.31 92.0436C181.934 92.3272 181.462 92.4545 180.993 92.399C174.91 92.399 168.822 92.2342 162.729 91.9044C162.153 91.9012 161.582 91.8019 161.04 91.6108C159.088 90.8379 158.747 88.3185 158.391 86.2473C157.365 81.7441 155.623 77.4338 153.232 73.4799C150.924 76.8649 148.585 80.6673 149.049 84.717C149.493 86.9496 150.418 89.0592 151.76 90.8997C155.22 96.322 159.193 101.4 163.627 106.063C164.247 106.588 164.681 107.298 164.866 108.088C164.844 108.63 164.704 109.162 164.455 109.645C164.206 110.128 163.855 110.551 163.426 110.885C159.586 114.812 155.526 118.517 151.265 121.983C151.064 122.192 150.824 122.358 150.557 122.472C150.291 122.586 150.005 122.646 149.715 122.648C149.186 122.499 148.735 122.15 148.461 121.674C142.264 113.606 136.341 105.321 130.692 96.8197C127.02 91.3016 123.38 85.3508 123.101 78.7507C123.139 74.6566 123.862 70.5976 125.239 66.7407C128.502 55.8591 132.169 45.1166 136.238 34.5132C137.614 30.2289 139.755 26.2282 142.558 22.7042C147.98 16.6297 156.966 14.5739 164.82 15.6559C173.449 16.8306 170.691 29.0724 170.893 35.5179L171.466 53.0305Z" fill="url(#paint8_linear)"/>
<path d="M193.743 127.61C193.013 127.443 192.343 127.079 191.806 126.559C190.583 125.183 191.435 122.973 192.612 121.551C194.235 119.578 196.336 118.051 198.716 117.115C200.42 116.45 202.434 115.94 203.239 114.301C201.604 113.87 199.902 113.744 198.22 113.93C197.926 113.096 198.7 112.261 199.475 111.813C201.001 111.026 202.701 110.637 204.418 110.68C206.134 110.723 207.812 111.198 209.297 112.06C211.512 113.25 214.874 115.816 215.276 118.49C215.679 121.164 212.643 123.545 210.629 124.905C208.186 126.564 205.406 127.667 202.488 128.134C199.57 128.602 196.584 128.423 193.743 127.61Z" fill="url(#paint9_linear)"/>
<path d="M162.589 132.355C164.283 134.595 166.495 136.393 169.036 137.596C171.577 138.799 174.372 139.372 177.182 139.264C179.444 139.156 182.171 138.058 182.279 135.802C182.214 134.705 181.796 133.659 181.086 132.819C179.366 130.312 177.444 127.95 175.339 125.755C174.069 124.426 172.597 122.664 173.34 120.932C174.084 119.201 176.733 118.815 177.26 117.006C177.321 116.826 177.321 116.63 177.26 116.45C177.194 116.325 177.101 116.217 176.989 116.131C176.877 116.046 176.747 115.986 176.609 115.955C173.34 114.811 169.622 116.465 166.323 115.43C165.285 115.105 164.34 114.518 163.224 114.178C159.615 113.018 153.542 116.033 155.184 120.438C155.943 122.447 157.802 124.225 158.856 126.126C159.963 128.281 161.21 130.362 162.589 132.355Z" fill="url(#paint10_linear)"/>
<path d="M201.458 46.6314C199.475 50.5991 196.085 53.6897 191.946 55.3026C188.628 56.3075 185.086 56.3075 181.768 55.3026C178.482 54.2727 175.323 52.878 172.349 51.1447C171.258 50.6225 170.259 49.9284 169.39 49.089C168.708 48.2782 168.14 47.3786 167.701 46.415L165.595 42.3034C164.212 39.8808 163.17 37.2804 162.496 34.575C162.107 32.2454 162.049 29.8724 162.326 27.5267C162.55 23.4005 163.483 19.3434 165.083 15.5322C166.724 11.7033 169.687 8.58826 173.433 6.75271C177.136 5.34952 181.143 4.94438 185.052 5.57802C187.665 5.78282 190.233 6.37138 192.674 7.32465C197.584 9.59831 201.39 13.7231 203.255 18.7936C204.957 23.2943 205.677 28.1055 205.367 32.906C205.057 37.7064 203.724 42.3857 201.458 46.6314Z" fill="url(#paint11_linear)"/>
<path d="M202.837 32.5348C203.162 31.8993 203.316 31.1904 203.283 30.4776C203.251 29.7649 203.033 29.0729 202.651 28.4696C202.238 27.9745 201.909 27.416 201.675 26.8157C201.52 26.1975 201.923 25.3782 202.573 25.4401C203.224 25.5019 203.379 26.0738 203.813 26.3675C204.173 26.5554 204.589 26.6072 204.985 26.5135C205.38 26.4198 205.729 26.1869 205.966 25.8574C206.427 25.1821 206.68 24.3869 206.694 23.5698C206.92 19.7996 206.167 16.0351 204.509 12.6398C202.851 9.24445 200.344 6.33308 197.229 4.18689C194.075 2.08579 190.526 0.648487 186.796 -0.0371877C183.067 -0.722864 179.237 -0.64248 175.54 0.199042C172.096 0.767871 168.899 2.34407 166.354 4.72789C162.094 9.11764 161.799 15.8878 161.799 21.9932C161.799 24.1108 161.877 26.4293 163.348 27.9905C164.077 28.6743 164.96 29.172 165.923 29.4412C166.886 29.7104 167.9 29.743 168.879 29.5362C170.838 29.1407 172.761 28.5823 174.626 27.8668C178.898 26.7257 183.312 26.2051 187.732 26.3211C189.987 26.1846 192.249 26.3931 194.44 26.9394C197.848 28.0368 199.583 31.1591 202.837 32.5348Z" fill="#3E3E54"/>
</g>
<defs>
<filter id="filter0_d" x="210.224" y="160.625" width="67.3185" height="82.3823" filterUnits="userSpaceOnUse" color-interpolation-filters="sRGB">
<feFlood flood-opacity="0" result="BackgroundImageFix"/>
<feColorMatrix in="SourceAlpha" type="matrix" values="0 0 0 0 0 0 0 0 0 0 0 0 0 0 0 0 0 0 127 0"/>
<feOffset dy="-2"/>
<feGaussianBlur stdDeviation="2.5"/>
<feColorMatrix type="matrix" values="0 0 0 0 0 0 0 0 0 0 0 0 0 0 0 0 0 0 0.15 0"/>
<feBlend mode="normal" in2="BackgroundImageFix" result="effect1_dropShadow"/>
<feBlend mode="normal" in="SourceGraphic" in2="effect1_dropShadow" result="shape"/>
</filter>
<filter id="filter1_d" x="222.337" y="155.969" width="61.9107" height="78.3861" filterUnits="userSpaceOnUse" color-interpolation-filters="sRGB">
<feFlood flood-opacity="0" result="BackgroundImageFix"/>
<feColorMatrix in="SourceAlpha" type="matrix" values="0 0 0 0 0 0 0 0 0 0 0 0 0 0 0 0 0 0 127 0"/>
<feOffset dy="-2"/>
<feGaussianBlur stdDeviation="2.5"/>
<feColorMatrix type="matrix" values="0 0 0 0 0 0 0 0 0 0 0 0 0 0 0 0 0 0 0.15 0"/>
<feBlend mode="normal" in2="BackgroundImageFix" result="effect1_dropShadow"/>
<feBlend mode="normal" in="SourceGraphic" in2="effect1_dropShadow" result="shape"/>
</filter>
<linearGradient id="paint0_linear" x1="-171.23" y1="227.227" x2="612.092" y2="64.9539" gradientUnits="userSpaceOnUse">
<stop stop-opacity="0"/>
<stop offset="0.99"/>
</linearGradient>
<linearGradient id="paint1_linear" x1="33.1075" y1="178.465" x2="594.781" y2="287.411" gradientUnits="userSpaceOnUse">
<stop offset="0.02" stop-color="white" stop-opacity="0"/>
<stop offset="0.32" stop-color="white" stop-opacity="0.39"/>
<stop offset="0.68" stop-color="white" stop-opacity="0.68"/>
<stop offset="1" stop-color="white"/>
</linearGradient>
<linearGradient id="paint2_linear" x1="183.341" y1="141.737" x2="183.341" y2="89.1328" gradientUnits="userSpaceOnUse">
<stop stop-color="#1B1B1B"/>
<stop offset="1" stop-color="#323232" stop-opacity="0"/>
</linearGradient>
<linearGradient id="paint3_linear" x1="179.886" y1="166.283" x2="179.886" y2="123.545" gradientUnits="userSpaceOnUse">
<stop stop-color="#101010"/>
<stop offset="1" stop-color="#C4C4C4" stop-opacity="0"/>
</linearGradient>
<linearGradient id="paint4_linear" x1="-2355.06" y1="-2622.12" x2="-2751.6" y2="-2627.62" gradientUnits="userSpaceOnUse">
<stop offset="0.02" stop-color="white" stop-opacity="0"/>
<stop offset="0.32" stop-color="white" stop-opacity="0.39"/>
<stop offset="0.68" stop-color="white" stop-opacity="0.68"/>
<stop offset="1" stop-color="white"/>
</linearGradient>
<linearGradient id="paint5_linear" x1="178.825" y1="187.706" x2="178.825" y2="164.15" gradientUnits="userSpaceOnUse">
<stop stop-color="#E6E6E6"/>
<stop offset="1" stop-color="white" stop-opacity="0.25"/>
</linearGradient>
<linearGradient id="paint6_linear" x1="180.474" y1="162.465" x2="180.474" y2="141.583" gradientUnits="userSpaceOnUse">
<stop/>
<stop offset="1" stop-color="#868686" stop-opacity="0"/>
</linearGradient>
<linearGradient id="paint7_linear" x1="225.236" y1="119.386" x2="225.236" y2="14.15" gradientUnits="userSpaceOnUse">
<stop stop-color="#424555"/>
<stop offset="1" stop-color="#414454" stop-opacity="0"/>
</linearGradient>
<linearGradient id="paint8_linear" x1="152.87" y1="122.648" x2="152.87" y2="15.3804" gradientUnits="userSpaceOnUse">
<stop stop-color="#424555"/>
<stop offset="1" stop-color="#414454" stop-opacity="0"/>
</linearGradient>
<linearGradient id="paint9_linear" x1="-3258.98" y1="-4485.67" x2="-3634.27" y2="-4485.67" gradientUnits="userSpaceOnUse">
<stop stop-color="#E5C5D5"/>
<stop offset="0.42" stop-color="#EAD4D1"/>
<stop offset="1" stop-color="#F0E9CB"/>
</linearGradient>
<linearGradient id="paint10_linear" x1="-4346.78" y1="-6348.48" x2="-4828.78" y2="-6348.48" gradientUnits="userSpaceOnUse">
<stop stop-color="#E5C5D5"/>
<stop offset="0.42" stop-color="#EAD4D1"/>
<stop offset="1" stop-color="#F0E9CB"/>
</linearGradient>
<linearGradient id="paint11_linear" x1="-6309.13" y1="-16089.6" x2="-7518.9" y2="-16089.6" gradientUnits="userSpaceOnUse">
<stop stop-color="#E5C5D5"/>
<stop offset="0.42" stop-color="#EAD4D1"/>
<stop offset="1" stop-color="#F0E9CB"/>
</linearGradient>
<clipPath id="clip0">
<rect x="382" y="298" width="382" height="298" transform="rotate(180 382 298)" fill="white"/>
</clipPath>
</defs>
</svg>
