<svg width="731" height="598" viewBox="0 0 731 598" fill="none" xmlns="http://www.w3.org/2000/svg">
<g clip-path="url(#clip0)">
<path opacity="0.18" d="M158.65 127.55C115.48 150.61 70.9999 174.76 40.9099 213.38C22.8399 236.6 10.7999 264.24 4.45992 293C-6.40008 342.09 1.63992 399 38.9999 432.76C51.9999 444.56 67.8999 452.89 84.2999 459.29C118.295 472.532 154.835 477.949 191.21 475.14C221.08 472.81 250.9 464.94 280.62 468.69C316.87 473.25 348.52 494.45 382.29 508.41C424.252 525.69 469.943 531.921 515 526.51C526.36 525.13 537.86 522.92 547.85 517.34C559.71 510.71 568.5 499.88 577.85 489.98C598.93 467.572 623.798 449.059 651.31 435.29C665.74 428.07 681.03 422.08 693.56 411.92C726.56 385.22 732.21 337.44 730.29 295.07C728.37 252.7 718.82 205.93 684.91 180.2C677.34 174.46 668.82 170.01 661.48 163.96C637 143.78 629.68 110 614 82.39C578.84 20.65 500.39 -6.38 429.76 1.26C328.55 12.21 245.66 81.08 158.65 127.55Z" fill="#0E6A80"/>
<path d="M688.92 295.5C688 304 677.51 318.27 663 334.31C639.22 360.55 604.67 391.5 583.89 409.53C573.17 418.84 566.12 424.71 566.12 424.71V263.17C566.12 263.17 591.28 230.95 609.56 228.88C627.84 226.81 664.73 248.19 664.73 248.19C664.73 248.19 692 265.94 688.92 295.5Z" fill="#B83C3C"/>
<path d="M663 334.31C639.22 360.55 604.67 391.5 583.89 409.53C582.34 407.06 582.03 403.7 581.89 400.66C581.34 385.47 581.47 370.26 581.61 355.06C581.74 340.3 581.87 325.55 582.8 310.82C583.68 297.1 585.36 283.07 591.64 270.82C593.057 272.087 594.227 273.606 595.09 275.3C603 288.89 608 303.88 613 318.76C615.473 326.093 617.947 333.457 620.42 340.85C625.963 337.802 630.917 333.789 635.05 329C638.85 324.79 642.24 320.24 645.73 315.78C648.17 312.66 652.93 303.78 656.73 307.12C662.89 312.49 663.39 324.78 663 334.31Z" fill="url(#paint0_linear)"/>
<path d="M584.59 50.48H175V524.85H584.59V50.48Z" fill="#277857"/>
<path d="M584.59 50.48H175V524.85H584.59V50.48Z" fill="url(#paint1_linear)"/>
<path d="M528.3 73.41L175 105.08C176.59 105.08 175 61.08 175 50.48H547.5V54.2C547.5 59.2931 545.477 64.1777 541.877 67.78C538.277 71.3823 533.393 73.4073 528.3 73.41Z" fill="url(#paint2_linear)"/>
<path d="M584.59 105.08H175V579.45H584.59V105.08Z" fill="#B3E3D0"/>
<path d="M233.23 105.08H175V579.45H233.23V105.08Z" fill="url(#paint3_linear)"/>
<path d="M268.61 193.74H197.86V264.49H268.61V193.74Z" fill="white"/>
<path d="M343.29 193.74H272.54V264.49H343.29V193.74Z" fill="white"/>
<path d="M417.98 193.74H347.23V264.49H417.98V193.74Z" fill="white"/>
<path d="M492.66 193.74H421.91V264.49H492.66V193.74Z" fill="white"/>
<path d="M268.61 267.6H197.86V338.35H268.61V267.6Z" fill="white"/>
<path d="M343.29 267.6H272.54V338.35H343.29V267.6Z" fill="white"/>
<path d="M417.98 267.6H347.23V338.35H417.98V267.6Z" fill="white"/>
<path d="M492.66 267.6H421.91V338.35H492.66V267.6Z" fill="white"/>
<path d="M268.61 341.46H197.86V412.21H268.61V341.46Z" fill="white"/>
<path d="M343.29 341.46H272.54V412.21H343.29V341.46Z" fill="white"/>
<path d="M417.98 341.46H347.23V412.21H417.98V341.46Z" fill="white"/>
<path d="M492.66 341.46H421.91V412.21H492.66V341.46Z" fill="white"/>
<path d="M268.61 415.32H197.86V486.07H268.61V415.32Z" fill="white"/>
<path d="M343.29 415.32H272.54V486.07H343.29V415.32Z" fill="white"/>
<path d="M417.98 415.32H347.23V486.07H417.98V415.32Z" fill="white"/>
<path d="M492.66 415.32H421.91V486.07H492.66V415.32Z" fill="white"/>
<path d="M268.61 489.18H197.86V559.93H268.61V489.18Z" fill="white"/>
<path d="M343.29 489.18H272.54V559.93H343.29V489.18Z" fill="white"/>
<path d="M417.98 489.18H347.23V559.93H417.98V489.18Z" fill="white"/>
<path d="M566.09 193.74H495.34V264.49H566.09V193.74Z" fill="white"/>
<path d="M566.09 119.88H495.34V190.63H566.09V119.88Z" fill="white"/>
<path d="M492.66 119.88H421.91V190.63H492.66V119.88Z" fill="white"/>
<path d="M566.09 267.6H495.34V338.35H566.09V267.6Z" fill="white"/>
<path d="M566.09 341.46H495.34V412.21H566.09V341.46Z" fill="white"/>
<path d="M566.09 415.32H495.34V486.07H566.09V415.32Z" fill="white"/>
<path d="M206.73 31.3V69.66C206.73 71.73 209.36 73.41 212.59 73.41C215.83 73.41 218.45 71.73 218.45 69.66V31.3C218.45 29.23 215.83 27.55 212.59 27.55C209.36 27.55 206.73 29.23 206.73 31.3Z" fill="#2A8E66"/>
<path d="M262.75 31.3V69.66C262.75 71.73 265.37 73.41 268.61 73.41C271.85 73.41 274.47 71.73 274.47 69.66V31.3C274.47 29.23 271.85 27.55 268.61 27.55C265.37 27.55 262.75 29.23 262.75 31.3Z" fill="#2A8E66"/>
<path d="M318.77 31.3V69.66C318.77 71.73 321.39 73.41 324.63 73.41C327.87 73.41 330.49 71.73 330.49 69.66V31.3C330.49 29.23 327.87 27.55 324.63 27.55C321.39 27.55 318.77 29.23 318.77 31.3Z" fill="#2A8E66"/>
<path d="M374.79 31.3V69.66C374.79 71.73 377.41 73.41 380.65 73.41C383.88 73.41 386.51 71.73 386.51 69.66V31.3C386.51 29.23 383.88 27.55 380.65 27.55C377.41 27.55 374.79 29.23 374.79 31.3Z" fill="#2A8E66"/>
<path d="M430.8 31.3V69.66C430.8 71.73 433.43 73.41 436.67 73.41C439.9 73.41 442.53 71.73 442.53 69.66V31.3C442.53 29.23 439.9 27.55 436.67 27.55C433.43 27.55 430.8 29.23 430.8 31.3Z" fill="#2A8E66"/>
<path d="M486.82 31.3V69.66C486.82 71.73 489.45 73.41 492.68 73.41C495.92 73.41 498.55 71.73 498.55 69.66V31.3C498.55 29.23 495.92 27.55 492.68 27.55C489.45 27.55 486.82 29.23 486.82 31.3Z" fill="#2A8E66"/>
<path d="M541.64 31.3V69.66C541.64 71.73 544.27 73.41 547.5 73.41C550.74 73.41 553.36 71.73 553.36 69.66V31.3C553.36 29.23 550.74 27.55 547.5 27.55C544.27 27.55 541.64 29.23 541.64 31.3Z" fill="#2A8E66"/>
<path d="M593.92 50.48H584.6V579.45H593.92V50.48Z" fill="#0E6A80"/>
<path d="M593.92 50.48H584.6V579.45H593.92V50.48Z" fill="url(#paint4_linear)"/>
<path d="M438.25 130.25C438.252 131.364 437.924 132.453 437.307 133.38C436.69 134.306 435.812 135.03 434.784 135.458C433.756 135.886 432.624 135.999 431.531 135.784C430.439 135.568 429.435 135.034 428.646 134.248C427.857 133.462 427.319 132.46 427.1 131.368C426.881 130.276 426.99 129.144 427.415 128.115C427.839 127.085 428.559 126.205 429.484 125.584C430.409 124.964 431.496 124.632 432.61 124.63C434.102 124.63 435.534 125.221 436.591 126.275C437.648 127.328 438.245 128.758 438.25 130.25Z" fill="url(#paint5_linear)"/>
<path d="M438.25 204.12C438.252 205.234 437.924 206.323 437.307 207.25C436.69 208.176 435.812 208.9 434.784 209.328C433.756 209.756 432.624 209.869 431.531 209.654C430.439 209.438 429.435 208.904 428.646 208.118C427.857 207.332 427.319 206.33 427.1 205.238C426.881 204.146 426.99 203.014 427.415 201.985C427.839 200.955 428.559 200.075 429.484 199.454C430.409 198.834 431.496 198.502 432.61 198.5C434.102 198.5 435.534 199.091 436.591 200.145C437.648 201.198 438.245 202.628 438.25 204.12Z" fill="url(#paint6_linear)"/>
<path d="M452 204.12C452.002 205.234 451.674 206.323 451.057 207.25C450.44 208.176 449.562 208.9 448.534 209.328C447.506 209.756 446.374 209.869 445.281 209.654C444.189 209.438 443.185 208.904 442.396 208.118C441.607 207.332 441.069 206.33 440.85 205.238C440.631 204.146 440.74 203.014 441.165 201.985C441.589 200.955 442.309 200.075 443.234 199.454C444.159 198.834 445.246 198.502 446.36 198.5C447.852 198.5 449.284 199.091 450.341 200.145C451.398 201.198 451.995 202.628 452 204.12Z" fill="url(#paint7_linear)"/>
<path d="M465.83 204.12C465.832 205.234 465.504 206.323 464.887 207.25C464.27 208.176 463.392 208.9 462.364 209.328C461.336 209.756 460.204 209.869 459.112 209.654C458.019 209.438 457.015 208.904 456.226 208.118C455.437 207.332 454.899 206.33 454.68 205.238C454.461 204.146 454.571 203.014 454.995 201.985C455.419 200.955 456.139 200.075 457.064 199.454C457.989 198.834 459.077 198.502 460.19 198.5C461.682 198.5 463.114 199.091 464.171 200.145C465.228 201.198 465.825 202.628 465.83 204.12Z" fill="url(#paint8_linear)"/>
<path d="M438.25 352.9C438.25 354.014 437.92 355.102 437.301 356.028C436.683 356.954 435.803 357.675 434.775 358.101C433.746 358.528 432.614 358.639 431.522 358.422C430.43 358.205 429.426 357.668 428.639 356.881C427.852 356.094 427.315 355.09 427.098 353.998C426.881 352.906 426.992 351.774 427.419 350.746C427.845 349.717 428.566 348.837 429.492 348.219C430.418 347.6 431.506 347.27 432.62 347.27C434.111 347.27 435.54 347.862 436.594 348.916C437.648 349.97 438.24 351.4 438.24 352.89L438.25 352.9Z" fill="url(#paint9_linear)"/>
<path d="M209.74 358.52C212.844 358.52 215.36 356.004 215.36 352.9C215.36 349.796 212.844 347.28 209.74 347.28C206.636 347.28 204.12 349.796 204.12 352.9C204.12 356.004 206.636 358.52 209.74 358.52Z" fill="#FF2235"/>
<path d="M452 352.9C452 354.014 451.67 355.102 451.051 356.028C450.433 356.954 449.553 357.675 448.525 358.101C447.496 358.528 446.364 358.639 445.272 358.422C444.18 358.205 443.176 357.668 442.389 356.881C441.602 356.094 441.065 355.09 440.848 353.998C440.631 352.906 440.742 351.774 441.169 350.746C441.595 349.717 442.316 348.837 443.242 348.219C444.168 347.6 445.256 347.27 446.37 347.27C447.861 347.27 449.29 347.862 450.344 348.916C451.398 349.97 451.99 351.4 451.99 352.89L452 352.9Z" fill="url(#paint10_linear)"/>
<path d="M465.83 352.9C465.83 354.014 465.5 355.102 464.881 356.028C464.263 356.954 463.383 357.675 462.355 358.101C461.326 358.528 460.194 358.639 459.102 358.422C458.01 358.205 457.006 357.668 456.219 356.881C455.432 356.094 454.895 355.09 454.678 353.998C454.461 352.906 454.573 351.774 454.999 350.746C455.425 349.717 456.146 348.837 457.072 348.219C457.998 347.6 459.087 347.27 460.2 347.27C461.691 347.27 463.12 347.862 464.174 348.916C465.228 349.97 465.82 351.4 465.82 352.89L465.83 352.9Z" fill="url(#paint11_linear)"/>
<path d="M688.25 201.7C686.68 208.12 688.78 217.02 685.8 222.91C680.8 232.81 666.18 239.38 664.02 250.25C663.89 250.88 647.62 258.72 639.23 256.04C634.84 254.65 632.61 250.37 635.99 240.69C637.05 237.69 642.99 236.57 644.59 233.78L644.26 233.53C636.14 227.4 635.26 214.41 636.94 205.74C638.62 197.07 642.47 188.74 646.6 180.82C649.78 174.72 656.96 171.41 663.84 171.52C672.49 171.67 681.62 175.13 686.12 182.52C689.56 188.15 689.81 195.28 688.25 201.7Z" fill="url(#paint12_linear)"/>
<path d="M648.29 155C643.86 157.34 639.15 160.1 634.19 159.35C634.062 160.541 634.256 161.745 634.752 162.836C635.248 163.926 636.028 164.864 637.01 165.55L633.93 166.24C633.803 166.249 633.68 166.286 633.57 166.348C633.459 166.411 633.364 166.496 633.29 166.6C633.251 166.712 633.238 166.83 633.25 166.948C633.262 167.065 633.3 167.179 633.36 167.28C634.118 169.048 635.363 170.563 636.95 171.65C636.4 172.83 634.41 172.57 633.73 173.65C633.587 173.964 633.513 174.305 633.513 174.65C633.513 174.995 633.587 175.336 633.73 175.65C634.417 177.515 635.591 179.162 637.13 180.42C635.29 182.42 636.44 186.12 638.98 187.03C640.286 187.395 641.682 187.247 642.883 186.617C644.083 185.987 644.998 184.922 645.44 183.64C645.554 184.797 645.287 185.959 644.68 186.95C653.07 188.27 662.04 189.51 669.76 185.95C669.398 186.749 669.201 187.613 669.18 188.49C671.043 189.073 673.019 189.197 674.94 188.85C675.34 192.969 674.97 197.126 673.85 201.11C673.16 203.59 672.17 205.99 671.73 208.52C671.154 211.083 671.611 213.77 673 216C674.33 215.88 675.27 214.63 675.78 213.4C676.148 212.118 676.704 210.898 677.43 209.78C679.43 207.44 683.59 208.3 685.2 210.89C686.81 213.48 686.2 216.96 684.66 219.57C683.708 221.109 682.45 222.436 680.964 223.468C679.477 224.5 677.795 225.216 676.02 225.57C676.31 228.36 676.61 231.15 676.9 233.93C682.17 228.93 688.07 224.64 692.81 219.17C697.55 213.7 701.14 206.7 700.53 199.48C700.16 195.03 698.22 190.8 698.07 186.33C698 184.33 698.3 182.28 698.22 180.26C698.034 177.041 696.907 173.948 694.978 171.365C693.049 168.782 690.403 166.822 687.37 165.73C684.82 164.86 682.01 164.61 679.75 163.14C676.94 161.32 675.48 157.93 672.69 156.07C669.69 154.07 665.03 153.25 661.54 152.26C657 151 652.28 152.91 648.29 155Z" fill="#3F3D56"/>
<path d="M585.38 249.62C585.023 249.839 584.716 250.13 584.478 250.474C584.241 250.818 584.078 251.209 584 251.62C584.04 252.051 584.218 252.457 584.508 252.778C584.799 253.099 585.185 253.317 585.61 253.4C586.465 253.55 587.343 253.509 588.18 253.28L593.26 252.28C590.518 253.813 588.241 256.059 586.67 258.78C586.485 259.094 586.395 259.454 586.411 259.818C586.427 260.182 586.548 260.534 586.76 260.83C587.44 261.69 588.59 261.35 589.51 260.99L593.92 259.23L590.92 262.14C589.987 262.979 589.173 263.941 588.5 265C588.209 265.495 587.993 266.031 587.86 266.59C587.778 266.942 587.836 267.313 588.023 267.623C588.21 267.933 588.51 268.158 588.86 268.25C589.088 268.32 589.332 268.32 589.56 268.25C591.393 267.73 593.097 266.83 594.56 265.61C593.478 267.132 592.271 268.56 590.95 269.88C589.629 271.21 588.882 273.005 588.87 274.88C588.875 275.082 588.942 275.277 589.06 275.44C589.207 275.589 589.402 275.681 589.61 275.7C591.24 275.97 592.72 274.78 593.95 273.7L598.48 269.59C599.21 268.992 599.853 268.295 600.39 267.52C600.69 267.072 600.86 266.549 600.88 266.01C600.834 265.482 600.581 264.995 600.176 264.654C599.771 264.312 599.248 264.146 598.72 264.19C598.4 264.222 598.092 264.328 597.82 264.5C597.95 263.63 598.29 262.82 598.5 261.97C598.759 261.132 598.702 260.229 598.34 259.43C598.145 259.04 597.811 258.738 597.403 258.584C596.995 258.43 596.544 258.436 596.14 258.6C596.671 257.559 597.009 256.431 597.14 255.27C597.193 254.683 597.084 254.093 596.825 253.564C596.565 253.035 596.166 252.588 595.67 252.27C595.398 252.158 595.147 251.999 594.93 251.8C594.53 251.31 594.85 250.61 595.02 250C595.151 249.641 595.209 249.259 595.193 248.878C595.176 248.496 595.084 248.121 594.923 247.775C594.761 247.428 594.533 247.117 594.251 246.859C593.969 246.601 593.639 246.401 593.28 246.27C592.876 246.127 592.447 246.073 592.02 246.11C589.44 246.38 587.29 248 585.38 249.62Z" fill="url(#paint13_linear)"/>
<path d="M667.43 287.19C678.93 277.03 693.17 284.73 688.17 299.24C677.36 330.63 654.73 402.55 633.24 402.55C605.24 402.55 593.92 352.9 593.92 352.9L606.85 326.73C606.85 326.73 625.14 366.86 634.35 356C643.56 345.14 649 304 666.9 287.66L667.43 287.19Z" fill="#B83C3C"/>
<path d="M602.61 325C602.44 322.671 602.4 320.334 602.49 318C602.43 307.814 599.422 297.864 593.83 289.35C593.241 290.195 592.988 291.229 593.12 292.25L593.27 318.81C593.359 321.013 593.211 323.219 592.83 325.39C592.49 326.97 591.91 328.48 591.46 330.04C590.509 333.282 590.17 336.673 590.46 340.04C590.546 341.848 591.035 343.614 591.89 345.21C592.33 346.002 592.95 346.679 593.701 347.187C594.451 347.694 595.311 348.017 596.21 348.13C596.8 348.13 599.21 343.13 599.56 342.45C600.633 340.45 601.633 338.433 602.56 336.4C603.25 334.86 604.72 332.59 604.46 330.86C604.17 328.92 602.85 327.13 602.61 325Z" fill="url(#paint14_linear)"/>
<path d="M656.05 240.56C653.63 243.28 651.23 246.01 648.81 248.74C646.961 251.066 644.762 253.091 642.29 254.74C641.33 255.308 640.302 255.751 639.23 256.06C634.84 254.67 632.61 250.39 635.99 240.71C637.05 237.71 642.99 236.59 644.59 233.8L644.26 233.55C645.409 234.092 646.622 234.489 647.87 234.73C650.47 235.12 656.87 233.1 657.66 236.95C657.94 238.28 657 239.53 656.05 240.56Z" fill="url(#paint15_linear)"/>
<path d="M365.28 450L375.36 465.66C375.811 466.357 376.519 466.848 377.331 467.024C378.142 467.2 378.991 467.048 379.69 466.6C379.938 466.433 380.163 466.235 380.36 466.01L408.12 434.01C408.513 433.559 408.769 433.004 408.855 432.411C408.942 431.819 408.856 431.214 408.608 430.669C408.361 430.124 407.961 429.662 407.458 429.337C406.955 429.013 406.369 428.84 405.77 428.84H405.54C405.082 428.839 404.63 428.939 404.215 429.133C403.801 429.326 403.433 429.609 403.14 429.96L381.42 455.96C380.892 456.593 380.135 456.991 379.315 457.068C378.494 457.145 377.676 456.894 377.04 456.37C376.8 456.168 376.591 455.933 376.42 455.67L370.51 446.67C370.181 446.172 369.716 445.778 369.17 445.535C368.624 445.292 368.021 445.211 367.43 445.3C366.932 445.385 366.462 445.589 366.06 445.897C365.659 446.204 365.338 446.604 365.127 447.063C364.915 447.522 364.818 448.026 364.845 448.531C364.872 449.035 365.021 449.526 365.28 449.96V450Z" fill="#1FB277"/>
<path d="M243.91 529.19L256.6 541.68C257.046 542.12 257.352 542.683 257.477 543.298C257.603 543.912 257.543 544.55 257.305 545.13C257.067 545.71 256.661 546.206 256.141 546.555C255.62 546.904 255.007 547.09 254.38 547.09H253.84C253.001 547.09 252.197 546.759 251.6 546.17L239.25 533.81C238.656 533.22 237.853 532.888 237.015 532.888C236.177 532.888 235.374 533.22 234.78 533.81L222.43 546.17C222.137 546.462 221.789 546.694 221.407 546.852C221.024 547.01 220.614 547.091 220.2 547.09H219.65C219.023 547.09 218.41 546.904 217.889 546.555C217.369 546.206 216.963 545.71 216.725 545.13C216.487 544.55 216.427 543.912 216.553 543.298C216.678 542.683 216.984 542.12 217.43 541.68L230.13 529.19C230.719 528.601 231.049 527.803 231.049 526.97C231.049 526.137 230.719 525.339 230.13 524.75L217.31 511.93C216.87 511.488 216.57 510.926 216.449 510.314C216.328 509.702 216.391 509.068 216.629 508.492C216.867 507.916 217.271 507.423 217.789 507.075C218.307 506.728 218.916 506.542 219.54 506.54C220.366 506.538 221.16 506.861 221.75 507.44L234.75 520.26C235.341 520.841 236.136 521.166 236.965 521.166C237.794 521.166 238.589 520.841 239.18 520.26L252.18 507.44C252.77 506.861 253.564 506.538 254.39 506.54C255.015 506.54 255.625 506.725 256.145 507.071C256.664 507.418 257.069 507.911 257.309 508.487C257.549 509.064 257.612 509.699 257.491 510.312C257.37 510.924 257.071 511.488 256.63 511.93L243.81 524.75C243.229 525.347 242.909 526.15 242.921 526.982C242.932 527.815 243.273 528.609 243.87 529.19H243.91Z" fill="#B83C3C"/>
<path d="M130.74 489.92H133.84L135.39 559.98L133.84 548.44H130.74V489.92Z" fill="#1E4B28"/>
<path d="M133.84 515.46V515.54C133.84 517.73 133.06 519.92 132.23 522.54C126.77 524.12 123.13 525.39 117.77 519.85C112.41 514.31 106.88 503.6 108.63 498.19C114.09 496.61 124.73 502.36 130.1 507.9C132.88 510.73 133.82 513.1 133.84 515.46Z" fill="#339212"/>
<path d="M149.83 519.89C144.91 524.66 141.45 524.02 136.94 522.58V548.44H133.84V489.92H136.94V508.53C137.23 508.21 137.54 507.89 137.88 507.53C143.42 502.17 154.13 496.63 159.54 498.39C161.13 503.88 155.37 514.52 149.83 519.89Z" fill="#39A528"/>
<path d="M149.83 519.89C144.91 524.66 141.45 524.02 136.94 522.58V548.44H133.84V489.92H136.94V508.53C137.23 508.21 137.54 507.89 137.88 507.53C143.42 502.17 154.13 496.63 159.54 498.39C161.13 503.88 155.37 514.52 149.83 519.89Z" fill="url(#paint16_linear)"/>
<path d="M133.84 475.79H120C120 485.62 126.19 493.59 133.83 493.59L137.09 484.86L133.84 475.79Z" fill="#1E4B28"/>
<path d="M134.08 479.2L133.84 479.37V478.37L134.08 479.2Z" fill="#0E6A80"/>
<path d="M107.64 455.74C105.89 461.15 111.42 471.87 116.79 477.4C122.16 482.93 125.79 481.68 131.24 480.09C132.99 474.68 134.48 470.99 129.11 465.45C123.74 459.91 113.1 454.16 107.64 455.74Z" fill="#21A81E"/>
<path d="M148.84 477.47C148.38 477.92 147.93 478.32 147.49 478.68C146.42 487.14 140.71 493.59 133.84 493.59V479.37L134.08 479.2L133.84 478.36V479.36C133.525 479.584 133.191 479.778 132.84 479.94C127.92 477.09 123.94 468.02 124.26 460.31C124.58 452.6 128.46 441.2 133.58 438.72C138.5 441.57 141.71 453.22 141.42 460.94V461.51C147.09 457.62 154.42 454.64 158.59 455.99C160.14 461.47 154.37 472.1 148.84 477.47Z" fill="#299234"/>
<path d="M148.84 477.47C148.38 477.92 147.93 478.32 147.49 478.68C146.42 487.14 140.71 493.59 133.84 493.59V479.37L134.08 479.2L133.84 478.36V479.36C133.525 479.584 133.191 479.778 132.84 479.94C127.92 477.09 123.94 468.02 124.26 460.31C124.58 452.6 128.46 441.2 133.58 438.72C138.5 441.57 141.71 453.22 141.42 460.94V461.51C147.09 457.62 154.42 454.64 158.59 455.99C160.14 461.47 154.37 472.1 148.84 477.47Z" fill="url(#paint17_linear)"/>
<path d="M134.08 479.2L133.84 479.37V478.37L134.08 479.2Z" fill="#0E6A80"/>
<path d="M106.49 539.51L111.37 578.95H133.94L143.16 556.51L133.94 538.41L106.49 539.51Z" fill="#B83C3C"/>
<path d="M161.4 539.51L156.52 578.95H133.94V538.41L161.4 539.51Z" fill="#B83C3C"/>
<path d="M144 538.68L143.75 538.8L136.09 542.6L134 543.66H103.51C102.59 543.66 101.707 543.294 101.056 542.644C100.406 541.993 100.04 541.11 100.04 540.19V531.37C100.036 530.962 100.113 530.556 100.265 530.178C100.418 529.799 100.644 529.454 100.93 529.162C101.216 528.87 101.556 528.638 101.932 528.478C102.308 528.318 102.712 528.234 103.12 528.23H103.41L134 528.29L144 538.68Z" fill="#B83C3C"/>
<path d="M144 538.68L143.75 538.8L136.09 542.6L134 543.66H103.51C102.59 543.66 101.707 543.294 101.056 542.644C100.406 541.993 100.04 541.11 100.04 540.19V531.37C100.036 530.962 100.113 530.556 100.265 530.178C100.418 529.799 100.644 529.454 100.93 529.162C101.216 528.87 101.556 528.638 101.932 528.478C102.308 528.318 102.712 528.234 103.12 528.23H103.41L134 528.29L144 538.68Z" fill="url(#paint18_linear)"/>
<path d="M164.38 543.66H133.94V527.9H164.38C165.3 527.9 166.183 528.266 166.834 528.916C167.484 529.567 167.85 530.45 167.85 531.37V540.19C167.85 541.11 167.484 541.993 166.834 542.644C166.183 543.294 165.3 543.66 164.38 543.66Z" fill="#B83C3C"/>
<path d="M133.95 543.66V578.95H111.37L107 543.66H133.95Z" fill="url(#paint19_linear)"/>
<path d="M160.89 543.66L156.52 578.95H133.95V543.66H160.89Z" fill="url(#paint20_linear)"/>
<path d="M167.85 531.77V540.59C167.85 541.51 167.484 542.393 166.834 543.044C166.183 543.694 165.3 544.06 164.38 544.06H134V528.3H164.43C165.342 528.313 166.211 528.685 166.851 529.334C167.491 529.983 167.85 530.858 167.85 531.77Z" fill="url(#paint21_linear)"/>
<path opacity="0.18" d="M114 579L56.6401 590C56.1568 590.004 55.6797 590.108 55.2384 590.305C54.797 590.502 54.4009 590.787 54.0747 591.144C53.7486 591.5 53.4993 591.92 53.3424 592.377C53.1856 592.834 53.1245 593.319 53.1631 593.801C53.2016 594.282 53.3389 594.751 53.5664 595.177C53.7939 595.604 54.1068 595.978 54.4855 596.279C54.8642 596.579 55.3007 596.798 55.7677 596.922C56.2347 597.046 56.7223 597.073 57.2001 597H57.3701H705.23C706.143 597.038 707.034 596.718 707.715 596.109C708.396 595.5 708.813 594.649 708.876 593.738C708.94 592.827 708.646 591.927 708.057 591.229C707.467 590.531 706.629 590.09 705.72 590L622.11 579.48H621.63L114.73 578.98C114.487 578.962 114.242 578.968 114 579Z" fill="#1D2741"/>
</g>
<defs>
<linearGradient id="paint0_linear" x1="637.48" y1="283.45" x2="466.5" y2="605.18" gradientUnits="userSpaceOnUse">
<stop stop-opacity="0"/>
<stop offset="0.91" stop-opacity="0.8"/>
<stop offset="1"/>
</linearGradient>
<linearGradient id="paint1_linear" x1="166387" y1="47767.4" x2="155945" y2="171564" gradientUnits="userSpaceOnUse">
<stop stop-opacity="0"/>
<stop offset="0.91" stop-opacity="0.8"/>
<stop offset="1"/>
</linearGradient>
<linearGradient id="paint2_linear" x1="357.58" y1="20.96" x2="362.09" y2="90.78" gradientUnits="userSpaceOnUse">
<stop offset="0.01"/>
<stop offset="0.1" stop-opacity="0.77"/>
<stop offset="0.99" stop-opacity="0"/>
</linearGradient>
<linearGradient id="paint3_linear" x1="18055.7" y1="242964" x2="-15198.6" y2="242976" gradientUnits="userSpaceOnUse">
<stop stop-opacity="0"/>
<stop offset="0.91" stop-opacity="0.8"/>
<stop offset="1"/>
</linearGradient>
<linearGradient id="paint4_linear" x1="7206.74" y1="156679" x2="2852.76" y2="156690" gradientUnits="userSpaceOnUse">
<stop stop-opacity="0"/>
<stop offset="0.91" stop-opacity="0.8"/>
<stop offset="1"/>
</linearGradient>
<linearGradient id="paint5_linear" x1="432.31" y1="125.53" x2="434.19" y2="154.06" gradientUnits="userSpaceOnUse">
<stop stop-color="#183866"/>
<stop offset="1" stop-color="#1A7FC1"/>
</linearGradient>
<linearGradient id="paint6_linear" x1="5294.8" y1="4357.94" x2="5315.97" y2="4679.3" gradientUnits="userSpaceOnUse">
<stop stop-color="#183866"/>
<stop offset="1" stop-color="#1A7FC1"/>
</linearGradient>
<linearGradient id="paint7_linear" x1="5463.37" y1="4357.94" x2="5484.43" y2="4679.3" gradientUnits="userSpaceOnUse">
<stop stop-color="#183866"/>
<stop offset="1" stop-color="#1A7FC1"/>
</linearGradient>
<linearGradient id="paint8_linear" x1="5632.93" y1="4357.94" x2="5653.98" y2="4679.3" gradientUnits="userSpaceOnUse">
<stop stop-color="#183866"/>
<stop offset="1" stop-color="#1A7FC1"/>
</linearGradient>
<linearGradient id="paint9_linear" x1="5294.69" y1="6181.87" x2="5315.86" y2="6503.23" gradientUnits="userSpaceOnUse">
<stop stop-color="#183866"/>
<stop offset="1" stop-color="#1A7FC1"/>
</linearGradient>
<linearGradient id="paint10_linear" x1="5463.38" y1="6181.87" x2="5484.44" y2="6503.23" gradientUnits="userSpaceOnUse">
<stop stop-color="#183866"/>
<stop offset="1" stop-color="#1A7FC1"/>
</linearGradient>
<linearGradient id="paint11_linear" x1="5632.92" y1="6181.87" x2="5653.98" y2="6503.23" gradientUnits="userSpaceOnUse">
<stop stop-color="#183866"/>
<stop offset="1" stop-color="#1A7FC1"/>
</linearGradient>
<linearGradient id="paint12_linear" x1="703.16" y1="232.81" x2="610.33" y2="196.61" gradientUnits="userSpaceOnUse">
<stop stop-color="#ECC4D7"/>
<stop offset="0.16" stop-color="#EDCBD5"/>
<stop offset="0.42" stop-color="#EFD4D1"/>
<stop offset="0.7" stop-color="#F2EAC9"/>
</linearGradient>
<linearGradient id="paint13_linear" x1="584" y1="260.92" x2="600.93" y2="260.92" gradientUnits="userSpaceOnUse">
<stop stop-color="#ECC4D7"/>
<stop offset="0.42" stop-color="#EFD4D1"/>
<stop offset="1" stop-color="#F2EAC9"/>
</linearGradient>
<linearGradient id="paint14_linear" x1="8932.63" y1="29017.5" x2="9132.3" y2="29017.5" gradientUnits="userSpaceOnUse">
<stop stop-color="#ECC4D7"/>
<stop offset="0.42" stop-color="#EFD4D1"/>
<stop offset="1" stop-color="#F2EAC9"/>
</linearGradient>
<linearGradient id="paint15_linear" x1="15559" y1="9660.29" x2="14697.3" y2="10710.3" gradientUnits="userSpaceOnUse">
<stop stop-color="#ECC4D7"/>
<stop offset="0.42" stop-color="#EFD4D1"/>
<stop offset="1" stop-color="#F2EAC9"/>
</linearGradient>
<linearGradient id="paint16_linear" x1="140.4" y1="550.98" x2="146.6" y2="497.48" gradientUnits="userSpaceOnUse">
<stop offset="0.1" stop-opacity="0.77"/>
<stop offset="0.99" stop-opacity="0"/>
</linearGradient>
<linearGradient id="paint17_linear" x1="5793.76" y1="7621.75" x2="4686.39" y2="7689.79" gradientUnits="userSpaceOnUse">
<stop offset="0.1" stop-opacity="0.77"/>
<stop offset="0.99" stop-opacity="0"/>
</linearGradient>
<linearGradient id="paint18_linear" x1="123.02" y1="470.14" x2="121.92" y2="541.54" gradientUnits="userSpaceOnUse">
<stop offset="0.36" stop-opacity="0.77"/>
<stop offset="0.99" stop-opacity="0"/>
</linearGradient>
<linearGradient id="paint19_linear" x1="3343.16" y1="3005.49" x2="3395.34" y2="1668.14" gradientUnits="userSpaceOnUse">
<stop offset="0.01"/>
<stop offset="0.1" stop-opacity="0.77"/>
<stop offset="0.99" stop-opacity="0"/>
</linearGradient>
<linearGradient id="paint20_linear" x1="4414.45" y1="2811.75" x2="3437.07" y2="1414.23" gradientUnits="userSpaceOnUse">
<stop offset="0.01"/>
<stop offset="0.1" stop-opacity="0.77"/>
<stop offset="0.99" stop-opacity="0"/>
</linearGradient>
<linearGradient id="paint21_linear" x1="5558.8" y1="2065.53" x2="5446.72" y2="1234.09" gradientUnits="userSpaceOnUse">
<stop offset="0.1" stop-opacity="0.77"/>
<stop offset="0.99" stop-opacity="0"/>
</linearGradient>
<clipPath id="clip0">
<rect width="730.62" height="597.03" fill="white"/>
</clipPath>
</defs>
</svg>
