<svg xmlns="http://www.w3.org/2000/svg" xmlns:xlink="http://www.w3.org/1999/xlink" width="308.514" height="325.011" viewBox="0 0 308.514 325.011"><defs><linearGradient id="a" y1="0.5" x2="1" y2="0.5" gradientUnits="objectBoundingBox"><stop offset="0" stop-opacity="0"/><stop offset="0.95"/></linearGradient><linearGradient id="b" x1="-0.001" y1="0.5" x2="1" y2="0.5" gradientUnits="objectBoundingBox"><stop offset="0" stop-color="#e5c5d5"/><stop offset="0.42" stop-color="#ead4d1"/><stop offset="1" stop-color="#f0e9cb"/></linearGradient><linearGradient id="c" x1="0.574" y1="0.421" x2="-0.496" y2="0.721" xlink:href="#a"/><linearGradient id="d" x1="-0.178" y1="0.549" x2="1.485" y2="0.273" xlink:href="#a"/><linearGradient id="e" x1="1.052" y1="0.363" x2="0.689" y2="0.43" xlink:href="#a"/><linearGradient id="f" x1="0" y1="0.5" x2="1" y2="0.5" xlink:href="#b"/><linearGradient id="g" x1="1.058" y1="0.483" x2="0.155" y2="0.505" xlink:href="#a"/><linearGradient id="h" x1="0" y1="0.5" x2="1" y2="0.5" xlink:href="#b"/><linearGradient id="i" x1="1.064" y1="0.356" x2="-1.279" y2="0.954" xlink:href="#a"/></defs><g transform="translate(-48.43 -41.25)"><path d="M50.36,298.32l-1.93,16.922h99.053l-2.241-15.964Z" transform="translate(0 51.019)" fill="#272727"/><path d="M50.36,298.32l-1.93,16.922h99.053l-2.241-15.964Z" transform="translate(0 51.019)" fill="url(#a)"/><path d="M136.393,145.69l40.436,95.338L280.7,199.477s5.932-5.189,5.932-1.1v6.3s22.639-2.229,31.16-7.047,3.332,6.3.372,9.648-21.153,15.952-28.2,15.58-20.769,2.217-20.769,2.217-80.872,44.151-90.148,44.523-22.255-4.794-22.255-4.794L134.02,149.525Z" transform="translate(-9.631 18.391)" fill="url(#b)"/><path d="M135.33,142s41.946,92.389,48.226,91.275,22.627-7.418,22.627-7.418,3.344,1.858,3.715,4.087,4.446,23.742,3.7,26.366-33.006,18.54-38.578,16.683-18.516-7.49-18.516-7.49l-18.181-59.348Z" transform="translate(-9.371 17.658)" fill="#ffbd69"/><path d="M135.33,142s41.946,92.389,48.226,91.275,22.627-7.418,22.627-7.418,3.344,1.858,3.715,4.087,4.446,23.742,3.7,26.366-33.006,18.54-38.578,16.683-18.516-7.49-18.516-7.49l-18.181-59.348Z" transform="translate(-9.371 17.658)" fill="url(#c)"/><path d="M177.365,219.381a76.113,76.113,0,0,1-8.881,11.122c0,24.293.288,48.538,0,72.783,0,2.4,0,4.794-.108,7.191-.072,6.8-.2,13.567-.419,20.374a6.963,6.963,0,0,1-.683,3.476,5.921,5.921,0,0,1-3.212,2.4c-5.165,2.025-10.942,1.522-16.467,1.055q-28.763-2.493-57.61-2.457c-4.95,0-9.875.084-14.837.192a3,3,0,0,1-2.133-.5,2.756,2.756,0,0,1-.635-1.606c-6.244-36.11,16.778-72.6,10.067-108.593-1.246-6.819-3.535-13.339-5.513-20-3.188-10.463-5.693-21.285-5.537-32.227a62.322,62.322,0,0,1,.875-9.3,46.536,46.536,0,0,1,9.168-21.345c2.924-3.667,6.687-6.879,11.254-7.958,3.6-.875,7.191-.372,10.858.156,6.951.947,13.878,1.93,20.817,2.9,7.191,1.007,16.862,4.35,23.718,6.568,5.393,12.907,11.146,25.875,19.631,37.021,2.948,3.9,6.22,7.538,8.881,11.613a26.738,26.738,0,0,1,4.794,13.6,25.168,25.168,0,0,1-4.027,13.543Z" transform="translate(-22.08 15.972)" fill="#ffbd69"/><path d="M168.417,305.581a17.459,17.459,0,0,1-1.019,3.008c-12.967-.084-27.193-.635-36.793-9.36-3.236-2.948-5.765-6.723-9.384-9.228s-8.976-3.368-12.116-.312a13.184,13.184,0,0,0-2.685,4.614q-5.825,14.226-11.673,28.451c-1.2,2.745-2.325,5.561-4.542,7.514a.335.335,0,0,1-.18.132c-4.95,0-9.875.084-14.837.192a3,3,0,0,1-2.133-.5,2.756,2.756,0,0,1-.635-1.606c-6.244-36.11,16.778-72.6,10.067-108.593-1.294-6.8-3.583-13.315-5.561-19.978-3.188-10.463-5.693-21.285-5.537-32.227a62.322,62.322,0,0,1,.875-9.3c3.715-.767,8.006.611,11.589,2.289,11.433,5.321,22.028,13.255,28.38,24.173,3.6,6.16,5.717,13.063,7.934,19.859q5.177,15.784,11.23,31.256c6.532,16.635,14.118,33.365,26.846,45.877,4.566,4.482,9.072,10.175,10.331,16.5a16.778,16.778,0,0,1-.156,7.239Z" transform="translate(-22.072 20.867)" fill="url(#d)"/><path d="M131.62,49.414c3.6-3.7,8.929-5.046,14.046-5.249,7.478-.288,15.244,1.63,21.009,6.412a36.025,36.025,0,0,1,7.754,9.648,61.829,61.829,0,0,1,8.653,31.088,53.739,53.739,0,0,1-9.528,30.7c-5.369,7.6-10.043,15.58-17.977,20.458a43.816,43.816,0,0,1-26.7,6.28,5.849,5.849,0,0,1-1.977-.431,5.549,5.549,0,0,1-2.4-2.984,35.654,35.654,0,0,1-2.4-17.857,110.988,110.988,0,0,1,3.739-17.809c4.3-16.2,8.389-32.874,6.747-49.556C132.171,56.2,131.248,53.333,131.62,49.414Z" transform="translate(-12.049 -1.764)" fill="#606060"/><path d="M131.62,49.414c3.6-3.7,8.929-5.046,14.046-5.249,7.478-.288,15.244,1.63,21.009,6.412a36.025,36.025,0,0,1,7.754,9.648,61.829,61.829,0,0,1,8.653,31.088,53.739,53.739,0,0,1-9.528,30.7c-5.369,7.6-10.043,15.58-17.977,20.458a43.816,43.816,0,0,1-26.7,6.28,5.849,5.849,0,0,1-1.977-.431,5.549,5.549,0,0,1-2.4-2.984,35.654,35.654,0,0,1-2.4-17.857,110.988,110.988,0,0,1,3.739-17.809c4.3-16.2,8.389-32.874,6.747-49.556C132.171,56.2,131.248,53.333,131.62,49.414Z" transform="translate(-12.049 -1.764)" fill="url(#e)"/><path d="M158.746,60.482c3.248,4.386,4.494,9.863,6.16,15.053s4.1,10.534,8.725,13.4c1.2.719,2.517,1.366,3.02,2.637.875,2.265-1.558,4.35-2.277,6.663s.36,4.866.084,7.3c-.144,1.342-.707,2.625-.947,3.967-.264,1.558-.072,3.176-.4,4.722-.851,4.195-5.081,6.783-9.12,8.209s-8.473,2.4-11.613,5.249c-3.344,3.08-4.542,7.79-5.573,12.224l-6.292,26.965c-.659,2.8-1.2,5.992.419,8.389,9.156,12.991,14.777,28.559,13.531,44.343-7.742-21.249-23.262-38.686-39.549-54.422-3.6-3.476-7.275-6.951-9.839-11.23-5.189-8.617-5.2-19.5-2.768-29.266,4.59-18.4,16.862-33.785,25.168-50.875,1.953-4.027,3.811-8.389,7.383-11.038,3.32-2.517,7.6-3.236,11.709-3.883C150.884,58.229,156.181,56.959,158.746,60.482Z" transform="translate(-16.236 1.01)" fill="url(#f)"/><path d="M150.137,131.191a87.487,87.487,0,0,1-3.6,11.649A49.508,49.508,0,0,1,108.5,172.394c-11.985,1.726-24.916-.983-35.954,4.135-1.57-17.677-2.709-37.092,7.694-51.474,3.4-4.722,7.958-8.7,10.307-14.022,4.219-9.588.348-20.578.851-31,.743-14.969,11.4-28.763,25.419-34.06,9.588-3.667,21.764-3.847,31.28.4,6.927,3.092,8.078,7.886,8.845,14.945C159.58,84.907,155.985,108.3,150.137,131.191Z" transform="translate(-22.033 -1.95)" fill="#606060"/><path d="M150.137,131.191a87.487,87.487,0,0,1-3.6,11.649A49.508,49.508,0,0,1,108.5,172.394c-11.985,1.726-24.916-.983-35.954,4.135-1.57-17.677-2.709-37.092,7.694-51.474,3.4-4.722,7.958-8.7,10.307-14.022,4.219-9.588.348-20.578.851-31,.743-14.969,11.4-28.763,25.419-34.06,9.588-3.667,21.764-3.847,31.28.4,6.927,3.092,8.078,7.886,8.845,14.945C159.58,84.907,155.985,108.3,150.137,131.191Z" transform="translate(-22.033 -1.95)" fill="url(#g)"/><path d="M239.667,244.774c7.682-2.109,15.376-4.231,22.855-6.963,14.8-5.405,28.619-13.183,42.366-20.841,2.4,2.541-1.87,7.191.168,10.043a4.793,4.793,0,0,0,1.822,1.378c8.533,4.255,18.792,1.474,28.248,2.768.779,2.289-1.618,4.326-3.763,5.441-15.22,7.862-33.066,8.533-49.353,13.854-4.626,1.51-9.132,3.4-13.639,5.237Q243.2,265.9,217.232,273.837c-8.509,2.6-17.222,5.034-26.126,4.938a4.626,4.626,0,0,1-2.481-.527,4.878,4.878,0,0,1-1.594-2.4c-1.582-3.907-4.41-10.846-1.558-14.861,2.673-3.751,10.882-4.29,14.981-5.417Z" transform="translate(0.338 32.537)" fill="url(#h)"/><path d="M229.49,57.91V206.3l90.52,24.485v-129.6L307.881,89.2,290.935,72.519Z" transform="translate(35.934 3.306)" fill="#fff" stroke="#de7128" stroke-width="2"/><path d="M291.1,103.76l-8.162-31.4L308.9,98.319Z" transform="translate(46.541 6.174)" fill="#de7128"/><rect width="2.637" height="58.425" transform="translate(280.428 117.15) rotate(-76.79)" fill="#de7128"/><path d="M256.1,98.157,242.55,95l.6-2.565,13.567,3.152Z" transform="translate(38.526 10.159)" fill="#de7128"/><path d="M259.627,98.9l-3.667-.8.6-2.565,3.667.8Z" transform="translate(41.187 10.773)" fill="#de7128"/><path d="M265.1,100.188l-3.667-.8.6-2.565,3.667.8Z" transform="translate(42.273 11.029)" fill="#de7128"/><rect width="2.637" height="58.425" transform="translate(280.433 130.994) rotate(-76.79)" fill="#de7128"/><rect width="2.637" height="58.425" transform="translate(280.426 144.847) rotate(-76.79)" fill="#de7128"/><rect width="2.637" height="58.425" transform="translate(280.431 158.692) rotate(-76.79)" fill="#de7128"/><path d="M273.16,151.28" transform="translate(17.983 19.5)" fill="none" stroke="#707070" stroke-miterlimit="10" stroke-width="2.2"/><path d="M289.318,180.165l-9.791-20.709-15.976,14.118-8.929-19.727L244.076,162.4l-1.666-2.037,13.207-10.726,8.869,19.595,15.928-14.082,9.5,20.1L298.246,165l2.037,1.666Z" transform="translate(38.498 21.511)" fill="#de7128"/><path d="M86.031,183.032s43.48,106.951,58.976,117.605c17.809,12.236,80.105-7.9,80.105-7.9s-5.321-24.6-9.276-25.6-50.18,2.025-50.18,2.025l-48.13-110.1s-24.9-16.467-33.293.6C84.233,159.662,80.086,172.39,86.031,183.032Z" transform="translate(-19.792 19.627)" fill="#ffbd69"/><path d="M156.855,260.436s-29.183-63.219-29.674-64.489,29.434,27.7,29.434,27.7Z" transform="translate(-10.99 28.357)" fill="url(#i)"/></g></svg>