<svg width="400" height="338" viewBox="0 0 400 338" fill="none" xmlns="http://www.w3.org/2000/svg">
<g clip-path="url(#clip0)">
<path opacity="0.18" d="M392.134 207.881C385.067 221.212 372.267 231.618 368.714 246.294C367.184 252.625 367.536 259.29 366.748 265.742C363.965 288.439 346.963 307.357 326.697 318.079C325.843 318.543 324.981 319.007 324.127 319.397C310.817 325.895 296.413 329.441 281.721 331.66C272.788 332.987 263.754 333.832 254.822 334.547C217.529 337.493 180.183 338.566 142.785 337.768C124.716 337.397 106.286 336.543 89.2938 330.537C88.422 330.24 87.5593 329.915 86.6967 329.608C72.9136 324.252 60.6701 315.452 49.8365 305.38L49.3356 304.916C33.1779 289.803 19.8121 271.497 11.1767 251.158C-1.14482 222.051 -3.28555 189.633 5.10138 159.155C10.2121 141.035 19.135 123.75 20.517 104.98C21.5559 90.8704 18.2353 76.5747 20.4428 62.6039C24.7837 34.8295 50.5507 14.3978 77.7646 7.56557C104.978 0.733349 133.612 4.56719 161.401 8.49386C174.97 10.434 190.859 15.6139 204.299 11.4644C220.818 6.37736 234.704 0.0371316 252.531 0C259.803 0 267.214 0.761198 273.864 3.71316C281.934 7.24067 288.334 13.6459 294.892 19.4941C313.192 35.9063 334.061 49.1994 352.761 65.166C371.46 81.1326 388.415 100.525 395.297 124.131C398.664 135.67 399.49 147.802 399.852 159.815C400.362 176.227 399.833 193.382 392.134 207.881Z" fill="#3C72FF"/>
<path d="M297.479 109.325H107.789C99.644 109.325 93.0411 115.933 93.0411 124.085V250.796C93.0411 258.948 99.644 265.556 107.789 265.556H297.479C305.624 265.556 312.227 258.948 312.227 250.796V124.085C312.227 115.933 305.624 109.325 297.479 109.325Z" fill="#626262"/>
<path d="M104.756 203.732C102.502 205.347 99.5154 205.589 97.1501 206.99C94.9039 208.539 93.2134 210.768 92.327 213.349C90.1194 218.798 89.7948 224.814 89.8226 230.69C89.8226 236.9 89.7299 243.816 91.1583 249.887C91.5478 251.558 94.1449 258.9 96.6678 258.622C98.2632 258.445 99.6359 229.019 100.23 225.203C100.823 221.388 101.491 217.777 102.279 214.064C102.678 212.226 103.29 204.79 104.756 203.732Z" fill="url(#paint0_linear)"/>
<path d="M298.852 120.483H106.426V251.214H298.852V120.483Z" fill="white"/>
<path d="M232.533 254.872C232.663 252.087 233.238 248.847 231.318 246.814C230.364 245.988 229.284 245.32 228.118 244.837C226.176 243.763 224.518 242.239 223.284 240.393C222.049 238.548 221.274 236.433 221.023 234.226C220.781 231.859 221.162 229.464 221.023 227.079C220.809 222.214 218.583 217.666 215.995 213.535C213.408 209.404 210.43 205.514 208.334 201.105C207.898 200.177 207.601 198.868 208.445 198.32C209.289 197.772 210.43 198.543 211.172 199.248C219.214 207.519 228.118 215.159 238.321 220.46C241.475 222.103 244.768 223.514 247.689 225.538C252.55 228.917 256.167 233.892 258.82 239.165C261.472 244.438 263.17 250.184 264.886 255.874C265.517 257.953 266.138 260.218 265.405 262.261C265.217 262.895 264.809 263.441 264.255 263.802C263.723 264.057 263.138 264.184 262.548 264.173C255.128 264.581 247.643 264.591 240.176 264.684C238.321 264.684 236.123 265.12 234.611 263.811C232.478 261.917 232.413 257.406 232.533 254.872Z" fill="url(#paint1_linear)"/>
<path d="M135.736 144.191H130.003V196.696H135.736V144.191Z" fill="#DC8F77"/>
<path d="M145.716 152.778H139.984V196.696H145.716V152.778Z" fill="#78D376"/>
<path d="M155.483 160.613H149.751V196.686H155.483V160.613Z" fill="#DC8F77"/>
<path d="M165.463 152.778H159.731V196.696H165.463V152.778Z" fill="#78D376"/>
<path d="M175.239 170.434H169.507V196.686H175.239V170.434Z" fill="#DBD179"/>
<path d="M185.22 152.778H179.488V196.696H185.22V152.778Z" fill="#DC8F77"/>
<path d="M194.987 165.96H189.255V196.696H194.987V165.96Z" fill="#DBD179"/>
<path d="M204.967 160.047H199.235V196.696H204.967V160.047Z" fill="#DC8F77"/>
<path d="M160.269 213.275H127.453V215.187H160.269V213.275Z" fill="url(#paint2_linear)"/>
<path d="M160.269 218.585H127.453V220.497H160.269V218.585Z" fill="url(#paint3_linear)"/>
<path d="M160.269 223.895H127.453V225.807H160.269V223.895Z" fill="url(#paint4_linear)"/>
<path d="M160.269 229.214H127.453V231.126H160.269V229.214Z" fill="url(#paint5_linear)"/>
<path d="M160.269 234.523H127.453V236.436H160.269V234.523Z" fill="url(#paint6_linear)"/>
<path d="M245.491 140.738C239.833 140.721 234.4 142.954 230.387 146.946C226.374 150.938 224.11 156.361 224.093 162.024C224.076 167.686 226.307 173.124 230.295 177.14C234.284 181.156 239.703 183.422 245.361 183.44V176.013H245.278C242.483 176.015 239.751 175.187 237.427 173.635C235.103 172.083 233.291 169.875 232.22 167.292C231.149 164.709 230.868 161.866 231.412 159.123C231.956 156.38 233.301 153.86 235.276 151.882C237.251 149.904 239.769 148.556 242.509 148.01C245.25 147.464 248.09 147.743 250.672 148.813C253.254 149.883 255.461 151.695 257.013 154.02C258.566 156.345 259.395 159.079 259.395 161.875C259.397 162.553 259.348 163.229 259.246 163.899H266.75C266.806 163.28 266.834 162.677 266.834 162.089C266.834 159.284 266.282 156.507 265.209 153.916C264.136 151.325 262.564 148.971 260.582 146.988C258.6 145.006 256.247 143.433 253.658 142.361C251.068 141.288 248.293 140.737 245.491 140.738Z" fill="#1AAACC"/>
<path d="M331.353 71.7012H277.816C273.83 71.7012 270.599 74.9346 270.599 78.9233V131.223C270.599 135.212 273.83 138.445 277.816 138.445H331.353C335.338 138.445 338.569 135.212 338.569 131.223V78.9233C338.569 74.9346 335.338 71.7012 331.353 71.7012Z" fill="url(#paint7_linear)"/>
<path d="M386.152 168.633H332.614C328.629 168.633 325.398 171.867 325.398 175.855V228.155C325.398 232.144 328.629 235.377 332.614 235.377H386.152C390.137 235.377 393.368 232.144 393.368 228.155V175.855C393.368 171.867 390.137 168.633 386.152 168.633Z" fill="url(#paint8_linear)"/>
<path d="M108.986 24.5162H55.4482C51.4627 24.5162 48.2319 27.7496 48.2319 31.7383V84.0382C48.2319 88.0268 51.4627 91.2603 55.4482 91.2603H108.986C112.971 91.2603 116.202 88.0268 116.202 84.0382V31.7383C116.202 27.7496 112.971 24.5162 108.986 24.5162Z" fill="url(#paint9_linear)"/>
<path d="M89.2104 124.577H35.673C31.6876 124.577 28.4568 127.81 28.4568 131.799V184.099C28.4568 188.087 31.6876 191.321 35.673 191.321H89.2104C93.1958 191.321 96.4266 188.087 96.4266 184.099V131.799C96.4266 127.81 93.1958 124.577 89.2104 124.577Z" fill="url(#paint10_linear)"/>
<path d="M102.103 193.669C103.408 192.911 104.941 192.644 106.426 192.917C107.258 193.225 107.982 193.77 108.509 194.484C109.036 195.198 109.344 196.05 109.394 196.937C109.476 198.696 109.089 200.446 108.271 202.005C105.563 207.909 100.684 212.569 97.6696 218.315C95.7947 221.892 94.6769 225.817 94.3861 229.845C94.0893 234.041 94.2284 239.128 90.5925 241.272C88.0139 242.748 84.5542 241.746 82.458 239.629C80.3618 237.513 79.3508 234.57 78.6551 231.683C76.7715 223.641 76.7041 215.28 78.4579 207.209C80.2117 199.138 83.7425 191.56 88.7931 185.027C89.5815 184.015 90.9264 182.948 91.9931 183.662C92.2733 183.918 92.4947 184.231 92.6421 184.58C92.7894 184.93 92.8591 185.307 92.8464 185.686C93.069 187.895 91.9931 195.99 93.8945 197.438C95.9815 198.97 99.8308 194.746 102.103 193.669Z" fill="url(#paint11_linear)"/>
<path d="M90.0545 323.89L91.6221 311.358C90.8337 317.67 90.0638 323.983 89.2754 330.304V330.537C88.4035 330.24 87.5409 329.915 86.6783 329.608C72.8951 324.252 60.6516 315.452 49.818 305.38L49.3171 304.916C51.6174 295.466 54.2516 286.081 56.8858 276.733C61.0412 261.964 64.3061 245.013 74.2122 233.317C75.8168 231.46 78.8499 232.017 81.1873 232.852C83.5247 233.688 86.0661 234.709 88.4592 235.637C90.0033 236.136 91.378 237.055 92.429 238.292C93.4215 239.685 93.5328 241.495 93.5977 243.212C94.6773 270.157 93.4921 297.144 90.0545 323.89Z" fill="#244270"/>
<path d="M326.697 318.079C325.843 318.543 324.981 319.007 324.128 319.397C310.817 325.895 296.413 329.441 281.721 331.66C273.79 314.616 265.461 296.682 254.414 281.634C250.704 276.584 246.919 272.231 244.619 266.299C242.894 261.862 240.417 256.088 239.981 251.381C239.564 246.341 243.218 243.769 246.864 240.826C255.089 234.178 264.625 229.344 274.847 226.642C275.724 226.301 276.692 226.278 277.584 226.577C278.351 227.038 278.951 227.73 279.3 228.554L307.886 280.817C314.203 292.356 320.529 303.913 325.797 315.972C326.094 316.686 326.437 317.373 326.697 318.079Z" fill="#244270"/>
<path d="M227.831 237.234C225.623 233.344 227.117 228.49 226.857 224.015C226.412 216.589 221.115 210.518 217.025 204.298C215.235 201.588 213.593 198.515 213.862 195.275C213.955 194.115 214.548 192.76 215.717 192.648C216.244 192.636 216.763 192.778 217.21 193.057C219.041 194 220.692 195.256 222.089 196.77C223.712 198.524 225.466 200.826 227.84 200.548C228.804 200.337 229.72 199.947 230.539 199.397C233.683 197.707 237.282 197.141 240.807 196.612L245.296 195.916C248.941 195.35 252.717 194.793 256.288 195.563C258.331 196.02 260.259 196.889 261.955 198.118C263.65 199.347 265.077 200.91 266.147 202.711C269.301 208.076 268.93 214.779 270.785 220.692C271.527 223.013 272.64 225.222 273.243 227.58C274.006 229.923 273.86 232.468 272.835 234.709C271.406 237.373 268.346 238.738 265.415 239.397C262.484 240.056 259.367 240.205 256.575 241.365C254.21 242.34 252.179 243.973 249.952 245.217C244.749 248.123 242.773 245.607 238.043 243.611C234.379 242.07 229.973 240.938 227.831 237.234Z" fill="url(#paint12_linear)"/>
<path d="M236.475 146.549L235.715 146.354L248.366 97.6841H271.184V98.4731H248.979L236.475 146.549Z" fill="#18206C"/>
<path d="M324.814 210.239H279.124L257.382 172.495L258.059 172.096L279.578 209.45H324.814V210.239Z" fill="#18206C"/>
<path d="M159.36 152.899L134.289 74.1797H114.708V73.3907H134.854L134.947 73.6692L160.111 152.657L159.36 152.899Z" fill="#18206C"/>
<path d="M130.458 182.716L112.622 162.822H95.1375V162.042H112.974L131.042 182.196L130.458 182.716Z" fill="#18206C"/>
<path d="M266.75 163.908C266.299 169.24 263.864 174.209 259.927 177.829C255.99 181.45 250.838 183.459 245.491 183.458H245.361V176.032C248.746 176.017 252.013 174.786 254.567 172.563C257.121 170.339 258.792 167.271 259.274 163.918L266.75 163.908Z" fill="#8174B6"/>
<path d="M266.75 163.908C266.299 169.24 263.864 174.209 259.927 177.829C255.99 181.45 250.838 183.459 245.491 183.458H245.361V176.032C248.746 176.017 252.013 174.786 254.567 172.563C257.121 170.339 258.792 167.271 259.274 163.918L266.75 163.908Z" fill="url(#paint13_linear)"/>
</g>
<defs>
<linearGradient id="paint0_linear" x1="128.148" y1="237.754" x2="40.4422" y2="216.881" gradientUnits="userSpaceOnUse">
<stop stop-opacity="0"/>
<stop offset="0.99"/>
</linearGradient>
<linearGradient id="paint1_linear" x1="14272.7" y1="16862.2" x2="17876" y2="16862.2" gradientUnits="userSpaceOnUse">
<stop stop-opacity="0"/>
<stop offset="0.99"/>
</linearGradient>
<linearGradient id="paint2_linear" x1="143.861" y1="213.275" x2="143.861" y2="215.187" gradientUnits="userSpaceOnUse">
<stop stop-color="#6A7CDA"/>
<stop offset="1" stop-color="#6C7295" stop-opacity="0.46"/>
</linearGradient>
<linearGradient id="paint3_linear" x1="143.861" y1="218.585" x2="143.861" y2="220.497" gradientUnits="userSpaceOnUse">
<stop stop-color="#6A7CDA"/>
<stop offset="1" stop-color="#6C7295" stop-opacity="0.46"/>
</linearGradient>
<linearGradient id="paint4_linear" x1="143.861" y1="223.895" x2="143.861" y2="225.807" gradientUnits="userSpaceOnUse">
<stop stop-color="#6A7CDA"/>
<stop offset="1" stop-color="#6C7295" stop-opacity="0.46"/>
</linearGradient>
<linearGradient id="paint5_linear" x1="143.861" y1="229.214" x2="143.861" y2="231.126" gradientUnits="userSpaceOnUse">
<stop stop-color="#6A7CDA"/>
<stop offset="1" stop-color="#6C7295" stop-opacity="0.46"/>
</linearGradient>
<linearGradient id="paint6_linear" x1="143.861" y1="234.523" x2="143.861" y2="236.436" gradientUnits="userSpaceOnUse">
<stop stop-color="#6A7CDA"/>
<stop offset="1" stop-color="#6C7295" stop-opacity="0.46"/>
</linearGradient>
<linearGradient id="paint7_linear" x1="318.451" y1="-148.359" x2="298.551" y2="214.758" gradientUnits="userSpaceOnUse">
<stop offset="0.02" stop-color="white" stop-opacity="0"/>
<stop offset="0.14" stop-color="white" stop-opacity="0.06"/>
<stop offset="0.32" stop-color="white" stop-opacity="0.39"/>
<stop offset="0.68" stop-color="white" stop-opacity="0.68"/>
<stop offset="1" stop-color="white"/>
</linearGradient>
<linearGradient id="paint8_linear" x1="378.388" y1="-145.491" x2="358.498" y2="217.627" gradientUnits="userSpaceOnUse">
<stop offset="0.02" stop-color="white" stop-opacity="0"/>
<stop offset="0.32" stop-color="white" stop-opacity="0.39"/>
<stop offset="0.68" stop-color="white" stop-opacity="0.68"/>
<stop offset="1" stop-color="white"/>
</linearGradient>
<linearGradient id="paint9_linear" x1="7094.67" y1="-14150.6" x2="5691.29" y2="11960.5" gradientUnits="userSpaceOnUse">
<stop offset="0.02" stop-color="white" stop-opacity="0"/>
<stop offset="0.32" stop-color="white" stop-opacity="0.39"/>
<stop offset="0.68" stop-color="white" stop-opacity="0.68"/>
<stop offset="1" stop-color="white"/>
</linearGradient>
<linearGradient id="paint10_linear" x1="5612.86" y1="-6624.59" x2="4209.49" y2="19486.5" gradientUnits="userSpaceOnUse">
<stop offset="0.02" stop-color="white" stop-opacity="0"/>
<stop offset="0.32" stop-color="white" stop-opacity="0.39"/>
<stop offset="0.68" stop-color="white" stop-opacity="0.68"/>
<stop offset="1" stop-color="white"/>
</linearGradient>
<linearGradient id="paint11_linear" x1="77.1618" y1="212.653" x2="109.412" y2="212.653" gradientUnits="userSpaceOnUse">
<stop stop-color="#E5C5D5"/>
<stop offset="0.42" stop-color="#EAD4D1"/>
<stop offset="1" stop-color="#F0E9CB"/>
</linearGradient>
<linearGradient id="paint12_linear" x1="15162.9" y1="12985.9" x2="19030.8" y2="12985.9" gradientUnits="userSpaceOnUse">
<stop stop-color="#E5C5D5"/>
<stop offset="0.42" stop-color="#EAD4D1"/>
<stop offset="1" stop-color="#F0E9CB"/>
</linearGradient>
<linearGradient id="paint13_linear" x1="6211.18" y1="3400.57" x2="6950.2" y2="4518.28" gradientUnits="userSpaceOnUse">
<stop offset="0.02" stop-color="#E933C1" stop-opacity="0"/>
<stop offset="0.32" stop-color="white" stop-opacity="0.39"/>
<stop offset="0.68" stop-color="white" stop-opacity="0.68"/>
<stop offset="1" stop-color="white"/>
</linearGradient>
<clipPath id="clip0">
<rect width="400" height="338" fill="white"/>
</clipPath>
</defs>
</svg>
