<svg width="30" height="30" viewBox="0 0 30 30" fill="none" xmlns="http://www.w3.org/2000/svg">
<path d="M30 15C30 23.2843 23.2843 30 15 30C6.71573 30 0 23.2843 0 15C0 6.71573 6.71573 0 15 0C23.2843 0 30 6.71573 30 15Z" fill="white" fill-opacity="0.3"/>
<path d="M14.5757 18.0012C14.81 18.2355 15.1899 18.2355 15.4243 18.0012L19.2426 14.1828C19.477 13.9485 19.477 13.5686 19.2426 13.3343C19.0083 13.1 18.6284 13.1 18.3941 13.3343L15 16.7284L11.6059 13.3343C11.3716 13.1 10.9917 13.1 10.7574 13.3343C10.523 13.5686 10.523 13.9485 10.7574 14.1828L14.5757 18.0012ZM14.4 17L14.4 17.5769L15.6 17.5769L15.6 17L14.4 17Z" fill="white" fill-opacity="0.85"/>
</svg>
