<svg width="979" height="360" viewBox="0 0 979 360" fill="none" xmlns="http://www.w3.org/2000/svg">
<path d="M793.869 63.8656C811.44 -11.5195 904.32 42.6936 979 71.8853V101.398C931.933 76.3764 846.793 56.1667 856.625 101.398C874.197 182.236 1022.3 348.084 825.874 308.306C629.447 268.528 531.547 71.8853 575.476 182.236C621.099 296.842 587.4 376.313 373.401 308.306C159.401 240.299 70.9147 144.704 42.0468 209.824C18.9524 261.92 4.39288 297.185 -6.10352e-05 308.306V182.236C29.4955 61.9409 188.897 228.43 390.972 268.528C593.048 308.627 465.653 207.258 513.347 120.966C561.042 34.674 594.605 159.324 793.869 253.772C931.933 319.213 764.787 188.628 793.869 63.8656Z" fill="#B21F66"/>
<path d="M105.561 138.92C70.9869 133.672 35.5328 130.617 -0.00012207 130.617V151.458C25.2933 149.478 74.0164 152.666 131.168 160.957C327.164 321.984 562.783 348.545 448.421 265.536C428.81 249.439 402.294 235.017 371.802 222.282C320.798 197.671 252.185 170.913 175.889 152.697C156.259 136.957 137.956 118.36 108.023 89.752C28.7904 14.0273 183.366 39.6317 332.527 121.476C466.006 194.716 639.911 273.58 541.221 130.617C474.772 34.3573 524.894 25.693 675.112 105.388C789.517 166.084 951.066 287.474 980.61 293.324V250.18C985.848 252.861 940.38 223.415 716.6 84.1817C436.874 -89.8602 407.959 48.3494 473.333 121.476C538.707 194.603 407.959 114.529 307.383 74.3095C206.808 34.0898 -122.576 -87.3008 79.8316 114.529C88.2668 122.94 96.8555 131.07 105.561 138.92Z" fill="#354ED1"/>
<path d="M370.544 241.072C325.721 217.144 246.192 190.491 189.04 172.997C229.863 203.802 276.338 238.258 354.215 266.552C451.561 301.921 418.275 266.552 370.544 241.072Z" fill="white"/>
<mask id="mask0" mask-type="alpha" maskUnits="userSpaceOnUse" x="189" y="172" width="228" height="110">
<path d="M370.544 241.072C325.721 217.144 246.192 190.491 189.04 172.997C229.863 203.802 276.338 238.258 354.215 266.552C451.561 301.921 418.275 266.552 370.544 241.072Z" fill="white"/>
</mask>
<g mask="url(#mask0)">
<path d="M390.013 268.369C344.853 259.43 301.822 244.201 261.893 227.272L302.088 283.331C323.874 291.755 347.286 300.104 372.428 308.074L435.232 275.666C422.388 274.213 407.422 271.814 390.013 268.369Z" fill="#B21F66"/>
</g>
<path d="M726.389 353.303C666.98 377.643 657.12 318.569 659.616 285.989L640.271 271.157C693.731 288.398 785.799 328.964 726.389 353.303Z" fill="#1FB277"/>
<path d="M744.632 47.1603C790.508 8.36678 941.33 202.715 980.292 330.506V259.432C970.002 174.068 793.65 -2.66289 744.632 27.3832C714.971 45.5647 660.169 187.625 656.222 276.455C549.977 229.181 365.264 163.507 254.045 109.039C251.73 84.4155 244.271 59.7866 232.719 42.3738C228.92 36.4056 224.257 30.6224 218.64 25.1012C156.344 -36.1318 62.618 25.3674 176.536 95.0817C191.801 104.424 213.567 115.397 239.739 127.416C233.834 144.132 224.495 159.624 213.613 172.289C186.273 204.108 140.75 110.302 61.5336 95.0817C-28.9597 77.6952 72.2169 271.174 79.758 297.797C85.7909 319.096 29.1008 293.233 0.00158691 277.64V310.062C39.598 338.24 163.63 383.574 105.523 260.905C22.6518 85.9537 43.3093 87.4751 143.229 169.246C218.707 231.014 251.448 189.263 254.567 134.13C369.047 185.278 552.131 252.44 656.171 294.37C658.252 340.954 679.177 365.51 733.701 333.653C734.009 333.484 734.301 333.313 734.577 333.138C734.577 333.138 734.577 333.138 734.578 333.137C734.622 333.111 734.663 333.085 734.703 333.057C747.844 324.52 723.525 307.968 678.538 286.673C670.424 211.426 709.835 76.5858 744.632 47.1603Z" fill="#1FB277"/>
<path d="M678.962 300.061C699.555 307.667 753.152 329.804 720.149 343.796C691.443 355.965 678.962 324.78 678.962 300.061Z" fill="white"/>
<mask id="mask1" mask-type="alpha" maskUnits="userSpaceOnUse" x="154" y="15" width="91" height="89">
<path d="M244.626 103.443C240.258 78.7231 209.679 6.05359 167.244 15.9728C121.689 26.6213 208.431 82.9065 244.626 103.443Z" fill="white"/>
</mask>
<g mask="url(#mask1)">
<path d="M244.626 103.444C244.626 81.0065 207.183 6.49139 167.244 15.9744C119.193 27.3835 208.431 82.908 244.626 103.444Z" fill="white"/>
<path d="M144.154 47.1946V16.4066C174.456 24.6107 206.613 35.1821 235.889 45.5884L245.241 77.9625C206.477 62.3608 171.103 51.7864 144.154 47.1946Z" fill="#354ED1"/>
</g>
</svg>
