<svg xmlns="http://www.w3.org/2000/svg" width="27" height="29.379" viewBox="0 0 27 29.379"><g transform="translate(0.5 2.806)"><g transform="translate(0.25)"><path d="M16.506,0C13.282,4.611,1.955,9-1.471,12.153c-4.1,3.771-.913,7.216-.913,7.216" transform="translate(5.429 0)" fill="none" stroke="#fff" stroke-linecap="round" stroke-width="4"/><g transform="translate(0 18.698)"><g transform="translate(-0.25 0.375)" fill="none" stroke="#fff" stroke-linecap="round" stroke-linejoin="round" stroke-width="0.5"><circle cx="3.5" cy="3.5" r="3.5" stroke="none"/><circle cx="3.5" cy="3.5" r="3.75" fill="none"/></g><circle cx="3.5" cy="3.5" r="3.5" transform="translate(-0.25 0.375)" fill="#98248f"/></g><path d="M16.506,0C13.282,4.611,1.955,9-1.471,12.153c-4.1,3.771-.913,7.216-.913,7.216" transform="translate(5.429 0)" fill="none" stroke="#98248f" stroke-linecap="round" stroke-width="3"/></g><g transform="translate(2.191)"><path d="M-15.5,0C-20,3.481-27.673,4.876-28.309,9.881s9.709,7.9,10.266,10.138" transform="translate(28.337 0)" fill="none" stroke="#fff" stroke-linecap="round" stroke-linejoin="round" stroke-width="4"/><g transform="translate(7.684 18.698)"><g transform="translate(0.125 0.375)" fill="#fff" stroke="#fff" stroke-linecap="round" stroke-linejoin="round" stroke-width="0.5"><circle cx="3.5" cy="3.5" r="3.5" stroke="none"/><circle cx="3.5" cy="3.5" r="3.75" fill="none"/></g><circle cx="3.5" cy="3.5" r="3.5" transform="translate(0.125 0.375)" fill="#98248f"/></g><path d="M-15.5,0C-20,3.481-27.673,4.876-28.309,9.881s9.709,7.9,10.266,10.138" transform="translate(28.337 0)" fill="none" stroke="#98248f" stroke-linecap="round" stroke-linejoin="round" stroke-width="3"/></g><g transform="translate(1.826 0.294)"><path d="M-15.258,10.866c-4.912,4.477-1.1,7.719,4.383,10.472,2.191,1.214,10.73,5.387,12.8,8.6" transform="translate(17.525 -10.866)" fill="none" stroke="#fff" stroke-linecap="round" stroke-width="4"/><g transform="translate(16.799 18.404)"><g transform="translate(0.375 0.375)" fill="none" stroke="#fff" stroke-linecap="round" stroke-linejoin="round" stroke-width="0.5"><circle cx="3.5" cy="3.5" r="3.5" stroke="none"/><circle cx="3.5" cy="3.5" r="3.75" fill="none"/></g><circle cx="3.5" cy="3.5" r="3.5" transform="translate(0.375 0.375)" fill="#98248f"/></g><path d="M-15.258,10.866c-4.912,4.477-1.1,7.719,4.383,10.472,2.191,1.214,10.73,5.387,12.8,8.6" transform="translate(17.525 -10.866)" fill="none" stroke="#98248f" stroke-linecap="round" stroke-width="3"/></g></g></svg>