<svg width="42" height="41" viewBox="0 0 42 41" fill="none" xmlns="http://www.w3.org/2000/svg">
<rect width="42" height="41" fill="black"/>
<path d="M29.185 6.927C25.961 11.538 14.634 15.927 11.208 19.08C7.108 22.851 10 26.5 10 26.5" stroke="white" stroke-width="4" stroke-linecap="round"/>
<path d="M10.5 33C12.433 33 14 31.433 14 29.5C14 27.567 12.433 26 10.5 26C8.567 26 7 27.567 7 29.5C7 31.433 8.567 33 10.5 33Z" fill="#98248F"/>
<path d="M10.5 33.25C12.5711 33.25 14.25 31.5711 14.25 29.5C14.25 27.4289 12.5711 25.75 10.5 25.75C8.42893 25.75 6.75 27.4289 6.75 29.5C6.75 31.5711 8.42893 33.25 10.5 33.25Z" stroke="white" stroke-width="0.5" stroke-linecap="round" stroke-linejoin="round"/>
<path d="M29.185 6.927C25.961 11.538 14.634 15.927 11.208 19.08C7.108 22.851 10 26.5 10 26.5" stroke="#98248F" stroke-width="3" stroke-linecap="round"/>
<path d="M21.5 7C17.5 11 9.85501 11.803 9.21901 16.808C8.58301 21.813 18.928 24.708 19.485 26.946" stroke="white" stroke-width="4" stroke-linecap="round" stroke-linejoin="round"/>
<path d="M20.5 33.25C22.5711 33.25 24.25 31.5711 24.25 29.5C24.25 27.4289 22.5711 25.75 20.5 25.75C18.4289 25.75 16.75 27.4289 16.75 29.5C16.75 31.5711 18.4289 33.25 20.5 33.25Z" stroke="white" stroke-width="0.5" stroke-linecap="round" stroke-linejoin="round"/>
<path d="M20.5 33C22.433 33 24 31.433 24 29.5C24 27.567 22.433 26 20.5 26C18.567 26 17 27.567 17 29.5C17 31.433 18.567 33 20.5 33Z" fill="#98248F"/>
<path d="M21.5 7C17.472 11.073 9.85501 11.803 9.21901 16.808C8.58301 21.813 18.928 24.708 19.485 26.946" stroke="#98248F" stroke-width="3" stroke-linecap="round" stroke-linejoin="round"/>
<path d="M29.5 33.25C31.5711 33.25 33.25 31.5711 33.25 29.5C33.25 27.4289 31.5711 25.75 29.5 25.75C27.4289 25.75 25.75 27.4289 25.75 29.5C25.75 31.5711 27.4289 33.25 29.5 33.25Z" stroke="white" stroke-width="0.5" stroke-linecap="round" stroke-linejoin="round"/>
<path d="M11.093 7.22101C6.181 11.698 9.993 14.94 15.476 17.693C17.667 18.907 26.206 23.08 28.276 26.293" stroke="white" stroke-width="4" stroke-linecap="round"/>
<path d="M29.5 33C31.433 33 33 31.433 33 29.5C33 27.567 31.433 26 29.5 26C27.567 26 26 27.567 26 29.5C26 31.433 27.567 33 29.5 33Z" fill="#98248F"/>
<path d="M11.093 7.22101C6.181 11.698 9.993 14.94 15.476 17.693C17.667 18.907 26.206 23.08 28.276 26.293" stroke="#98248F" stroke-width="3" stroke-linecap="round"/>
</svg>
