<svg xmlns="http://www.w3.org/2000/svg" xmlns:xlink="http://www.w3.org/1999/xlink" width="693.387" height="758.221" viewBox="0 0 693.387 758.221"><defs><filter id="a" x="8.384" y="0.425" width="661.607" height="670.265" filterUnits="userSpaceOnUse"><feOffset dy="3" input="SourceAlpha"/><feGaussianBlur stdDeviation="3" result="b"/><feFlood flood-color="#080f36" flood-opacity="0.651"/><feComposite operator="in" in2="b"/><feComposite in="SourceGraphic"/></filter><filter id="c" x="5.725" y="602.838" width="155.384" height="155.384" filterUnits="userSpaceOnUse"><feOffset dy="3" input="SourceAlpha"/><feGaussianBlur stdDeviation="3" result="d"/><feFlood flood-color="#080f36" flood-opacity="0.502"/><feComposite operator="in" in2="d"/><feComposite in="SourceGraphic"/></filter><filter id="e" x="10.682" y="0" width="451.544" height="684.342" filterUnits="userSpaceOnUse"><feOffset dy="3" input="SourceAlpha"/><feGaussianBlur stdDeviation="3" result="f"/><feFlood flood-color="#080f36" flood-opacity="0.651"/><feComposite operator="in" in2="f"/><feComposite in="SourceGraphic"/></filter><filter id="g" x="250.888" y="602.838" width="155.384" height="155.384" filterUnits="userSpaceOnUse"><feOffset dy="3" input="SourceAlpha"/><feGaussianBlur stdDeviation="3" result="h"/><feFlood flood-color="#080f36" flood-opacity="0.502"/><feComposite operator="in" in2="h"/><feComposite in="SourceGraphic"/></filter><filter id="i" x="0" y="8.633" width="643.264" height="661.192" filterUnits="userSpaceOnUse"><feOffset dy="3" input="SourceAlpha"/><feGaussianBlur stdDeviation="3" result="j"/><feFlood flood-color="#080f36" flood-opacity="0.651"/><feComposite operator="in" in2="j"/><feComposite in="SourceGraphic"/></filter><filter id="k" x="538.003" y="600.631" width="155.384" height="155.384" filterUnits="userSpaceOnUse"><feOffset dy="3" input="SourceAlpha"/><feGaussianBlur stdDeviation="3" result="l"/><feFlood flood-color="#080f36" flood-opacity="0.502"/><feComposite operator="in" in2="l"/><feComposite in="SourceGraphic"/></filter></defs><g transform="translate(14.725 41.14)" opacity="0.08"><g transform="matrix(1, 0, 0, 1, -14.73, -41.14)" filter="url(#a)"><path d="M580.3,0C486.523,138.615,157.022,270.656,57.352,365.342-61.979,478.705,30.8,582.248,30.8,582.248" transform="translate(45.98 41.14)" fill="none" stroke="#fff" stroke-linecap="round" stroke-width="50"/></g><g transform="translate(0 567.698)"><g transform="matrix(1, 0, 0, 1, -14.73, -608.84)" filter="url(#c)"><circle cx="68.692" cy="68.692" r="68.692" transform="translate(14.73 608.84)" fill="#fff"/></g></g><g transform="translate(29.957)"><g transform="matrix(1, 0, 0, 1, -44.68, -41.14)" filter="url(#e)"><path d="M345.075,0C214.318,104.644-9.031,146.588-27.524,297.034-45.98,447.178,259,534.807,271.1,601.784c-.066-.27-.033-.135,0,0" transform="translate(73.01 41.14)" fill="none" stroke="#fff" stroke-linecap="round" stroke-linejoin="round" stroke-width="50"/></g><g transform="translate(215.206 567.698)"><g transform="matrix(1, 0, 0, 1, -259.89, -608.84)" filter="url(#g)"><circle cx="68.692" cy="68.692" r="68.692" transform="translate(259.89 608.84)" fill="#fff"/></g></g></g><g transform="translate(19.315 8.833)"><g transform="matrix(1, 0, 0, 1, -34.04, -49.97)" filter="url(#i)"><path d="M48.421,10.866C-94.461,145.439,16.4,242.915,175.914,325.65,239.658,362.139,488.05,487.6,548.262,584.281" transform="translate(51.56 39.11)" fill="none" stroke="#fff" stroke-linecap="round" stroke-width="50"/></g><g transform="translate(512.963 556.659)"><g transform="matrix(1, 0, 0, 1, -547, -606.63)" filter="url(#k)"><circle cx="68.692" cy="68.692" r="68.692" transform="translate(547 606.63)" fill="#fff"/></g></g></g></g></svg>