<svg xmlns="http://www.w3.org/2000/svg" width="64" height="64" viewBox="0 0 64 64"><defs><style>.a,.g{fill:#fff;}.a,.e,.h{stroke:#98248f;}.a,.b,.c,.e,.f,.g,.h{stroke-linecap:round;}.a,.c,.f,.g,.h{stroke-linejoin:round;}.a{stroke-width:4px;}.b,.c,.e,.f,.h,.j{fill:none;}.b,.c,.f,.g{stroke:#fff;}.b,.f{stroke-width:6px;}.c,.g{stroke-width:0.5px;}.d{fill:#98248f;}.e,.h{stroke-width:4.5px;}.i{stroke:none;}</style></defs><g transform="translate(4 4)"><g class="a"><rect class="i" width="56" height="56" rx="5"/><rect class="j" x="-2" y="-2" width="60" height="60" rx="7"/></g><g transform="translate(8.96 7.883)"><path class="b" d="M28.548,0C23.39,7.378,5.268,14.406-.214,19.445c-6.563,6.034-1.46,11.545-1.46,11.545" transform="translate(5.987 0)"/><g transform="translate(0 30.197)"><g class="c" transform="translate(0.04 -0.08)"><ellipse class="i" cx="5" cy="5.5" rx="5" ry="5.5"/><ellipse class="j" cx="5" cy="5.5" rx="5.25" ry="5.75"/></g><circle class="d" cx="5.5" cy="5.5" r="5.5" transform="translate(0.04 -0.08)"/></g><path class="e" d="M28.548,0C23.39,7.378,5.268,14.406-.214,19.445c-6.563,6.034-1.46,11.545-1.46,11.545" transform="translate(5.987 0)"/></g><g transform="translate(11.506 7.883)"><path class="f" d="M-7.8,0C-14.99,5.57-27.275,7.8-28.292,15.81s15.535,12.639,16.425,16.22" transform="translate(28.337 0)"/><g transform="translate(12.014 30.197)"><g class="g" transform="translate(0.48 -0.08)"><circle class="i" cx="5.5" cy="5.5" r="5.5"/><circle class="j" cx="5.5" cy="5.5" r="5.75"/></g><circle class="d" cx="5.5" cy="5.5" r="5.5" transform="translate(0.48 -0.08)"/></g><path class="h" d="M-7.8,0C-14.99,5.57-27.275,7.8-28.292,15.81s15.535,12.639,16.425,16.22" transform="translate(28.337 0)"/></g><g transform="translate(10.922 8.354)"><path class="b" d="M-13.9,10.866c-7.859,7.163-1.761,12.351,7.012,16.754,3.506,1.942,17.168,8.62,20.48,13.766" transform="translate(17.525 -10.866)"/><g transform="translate(27.158 29.726)"><g class="c" transform="translate(-0.08 -0.08)"><circle class="i" cx="5.5" cy="5.5" r="5.5"/><circle class="j" cx="5.5" cy="5.5" r="5.75"/></g><circle class="d" cx="5.5" cy="5.5" r="5.5" transform="translate(-0.08 -0.08)"/></g><path class="e" d="M-13.9,10.866c-7.859,7.163-1.761,12.351,7.012,16.754,3.506,1.942,17.168,8.62,20.48,13.766" transform="translate(17.525 -10.866)"/></g></g></svg>